<svg id="Layer_1" data-name="Layer 1" xmlns="http://www.w3.org/2000/svg" viewBox="0 0 684.01 1065.96">
    <defs>
        <style>
            .cls-1 {
                fill: #ce9065;
            }

            .cls-2 {
                fill: #88ae45;
            }

            .cls-3,
            .cls-7,
            .cls-8,
            .cls-9 {
                fill: none;
                stroke-linejoin: round;
            }

            .cls-3 {
                stroke: #6f913d;
                stroke-width: 10px;
            }

            .cls-3,
            .cls-7,
            .cls-9 {
                stroke-linecap: round;
            }

            .cls-4 {
                fill: #db9e71;
            }

            .cls-5,
            .cls-6 {
                fill: #512c2b;
            }

            .cls-10,
            .cls-6 {
                stroke: #42210b;
            }

            .cls-10,
            .cls-11,
            .cls-6 {
                stroke-miterlimit: 10;
            }

            .cls-6 {
                stroke-width: 3px;
            }

            .cls-7,
            .cls-9 {
                stroke: #472b29;
            }

            .cls-10,
            .cls-7 {
                stroke-width: 15px;
            }

            .cls-8 {
                stroke: #895d3d;
            }

            .cls-8,
            .cls-9 {
                stroke-width: 8px;
            }

            .cls-10 {
                fill: #5c210b;
            }

            .cls-11 {
                fill: #6f913d;
                stroke: #6f7a3d;
                stroke-width: 9px;
            }

            .cls-12 {
                fill: #c0d078;
            }
        </style>
    </defs>
    <title>man-with-brown-hair-in-greenShirt</title>
    <path class="cls-1"
        d="M1287,806.24c-6.76-35.44-21.09-56.21-55.21-65.93l-5.61-2-9.72-4c-21.1-8.74-143.72-54.4-143.72-54.4a30.8,30.8,0,0,1-20.44-17.8,142.64,142.64,0,0,1-3.79-48,785.88,785.88,0,0,1-82.41,23.41c-31.32,3-98.9-37.42-98.9-37.42s-1.48,49.45-3.62,61.15A27.85,27.85,0,0,1,842,680L724.63,722.67a129.74,129.74,0,0,0-36.42,15,123.93,123.93,0,0,0-52.08,68.57s-7.75,54.55-7.42,56.53c-.83,7.75-1.48,16.48-2.31,24.89,127.9,86.69,230.75,110.92,407.11,103.18,80.1-3.47,199.43-43,261.9-74.5C1292.28,846.62,1287,806.24,1287,806.24Z"
        transform="translate(-619.07 -10.54)" />
    <path class="cls-2"
        d="M1231.29,740.47l-5.6-2-9.73-4c-12.69-5.44-64.28-24.72-101.85-38.73h-1.82c-41.37,21.26-100.37,53.07-154.6,53.07S849.07,720,802.92,695.81l-5.11,1.32-73,26.53a129.68,129.68,0,0,0-36.43,15,124,124,0,0,0-52.08,68.57s-7.75,54.55-7.42,56.53c-.82,7.75-1.48,89.83-2.3,98.89,127.9,86.7,230.74,110.93,407.1,103.18,80.11-3.46,199.44-43,261.9-74.5-3.29-69.72-9.06-183.77-9.06-183.77C1279.75,771.46,1265.41,750.69,1231.29,740.47Z"
        transform="translate(-619.07 -10.54)" />
    <line class="cls-3" x1="122.38" y1="951.46" x2="122.38" y2="1015.9" />
    <line class="cls-3" x1="553.55" y1="951.46" x2="553.55" y2="1027.27" />
    <path class="cls-4"
        d="M1159.43,369h-5.93c-16.48-.83-20.44,5.6-19.62-4.29,1.16-17.47-1.15-88.34-1.15-92,0-73.34-76.81-133.34-172.57-136.63h-3.79c-95.92,3.29-172.57,63.29-172.57,136.63,0,3.63-2.47,74.5-1.15,92,0,9.89-3.79,3.46-19.78,4.29h-5.93a36.6,36.6,0,0,0-34.45,26c2.14,1.32,10.06,61.48,22.91,85.21,7.09,13.19,18.3,15,29.83,23.57a25,25,0,0,1,9.4,16.48,147.22,147.22,0,0,0,44.17,67.58c9.56,9.39,74,78.12,129.39,74.5s119.82-65.93,129.54-74.5a149.87,149.87,0,0,0,44.18-67.58,25.35,25.35,0,0,1,9.23-16.48c11.53-8.57,22.74-10.38,30-23.57C1184,456.49,1191.9,396.33,1194,395A36.58,36.58,0,0,0,1159.43,369Z"
        transform="translate(-619.07 -10.54)" />
    <path class="cls-5"
        d="M959.17,485.33a38.25,38.25,0,0,0,29.18-13.18,2,2,0,0,0,0-2.8h0a2,2,0,0,0-2.8,0h0a34,34,0,0,1-26.21,10.39,34.48,34.48,0,0,1-26.21-10.39,2.21,2.21,0,0,0-1.48,0,1.88,1.88,0,0,0-1.15,0,2.14,2.14,0,0,0,0,2.81A38.85,38.85,0,0,0,959.17,485.33Z"
        transform="translate(-619.07 -10.54)" />
    <path id="leftEyebrow" class="cls-5"
        d="M923.41,333.2l7.09-13.68a185.35,185.35,0,0,0-93.62,3l8.9,13.35A147.31,147.31,0,0,1,923.41,333.2Z"
        transform="translate(-619.07 -10.54)" />
    <path id="rightEyebrow" class="cls-5"
        d="M1074.55,333.2l7.09-13.68a185.35,185.35,0,0,0-93.62,3l9.06,13.35A146.92,146.92,0,0,1,1074.55,333.2Z"
        transform="translate(-619.07 -10.54)" />
    <path id="leftEye" class="cls-5"
        d="M879.9,352.65a19.94,19.94,0,0,0-16.49,12,8.83,8.83,0,0,1,2.81,0,12,12,0,0,1,0,24.07,10.52,10.52,0,0,1-5.28-1.65,21.93,21.93,0,0,0,19.78,18.79,27.19,27.19,0,0,0,0-52.74Z"
        transform="translate(-619.07 -10.54)" />
    <path id="rightEye" class="cls-5"
        d="M1037.79,352.65a19.11,19.11,0,0,0-16.48,9.07,7.92,7.92,0,0,1,3.79-.83,12,12,0,0,1,0,24.07,10.23,10.23,0,0,1-8.73-5.28,23.72,23.72,0,0,0,20.6,25.71,27.19,27.19,0,0,0,0-52.74Z"
        transform="translate(-619.07 -10.54)" />
    <path id="mouth" class="cls-6"
        d="M1046.53,515.82a1.64,1.64,0,0,0,.33-2.3,1.72,1.72,0,0,0-.33-.33h0a1.81,1.81,0,0,0-2.56-.08l-.08.08A140.11,140.11,0,0,1,959,536.43,140,140,0,0,1,875,512.86a1.74,1.74,0,0,0-1.15,0,2.24,2.24,0,0,0-1.65,0,1.81,1.81,0,0,0-.08,2.56l.08.07a152.11,152.11,0,0,0,174.54,0Z"
        transform="translate(-619.07 -10.54)" />
    <path class="cls-5"
        d="M796.17,310.29a389,389,0,0,1,37.58-102.35A22.27,22.27,0,0,0,809,199.86a278.78,278.78,0,0,0-34.61,139.28,253.06,253.06,0,0,0,11.7,65.92C791.39,373.58,789.41,341.61,796.17,310.29Z"
        transform="translate(-619.07 -10.54)" />
    <path class="cls-5"
        d="M1122.18,310.29a383.6,383.6,0,0,0-37.74-102.35,22.42,22.42,0,0,1,24.89-8.08,277.3,277.3,0,0,1,34.77,139.28,252.65,252.65,0,0,1-11.7,65.92C1127.13,373.58,1129.1,341.61,1122.18,310.29Z"
        transform="translate(-619.07 -10.54)" />
    <path class="cls-5"
        d="M982.25,602.68a2.3,2.3,0,0,0,2-2.47,2.48,2.48,0,0,0-2-2.64H939.89c-1,0-1.81,1.16-1.81,2.64s.82,2.47,1.81,2.47Z"
        transform="translate(-619.07 -10.54)" />
    <path class="cls-7"
        d="M1287,809c-6.76-35.27-21.09-56-55.21-65.93l-5.61-2-9.72-4c-21.1-9.07-143.72-54.23-143.72-54.23a31.28,31.28,0,0,1-20.44-17.8,107.06,107.06,0,0,1-4.29-37.91,435.43,435.43,0,0,0,39.39-30.65,151.4,151.4,0,0,0,44.51-68.73,25.86,25.86,0,0,1,9.23-16.49c11.53-8.57,22.74-10.55,30-23.9a253,253,0,0,0,22.91-86.2,36.74,36.74,0,0,0-34.61-26.2h-5.93c-16.48,0-20.44,5.6-19.62-4.29,1.16-17.8-1.15-89.5-1.15-93.12,0-74.17-76.81-134.83-172.57-138.12h-3.79c-95.92,3.29-172.57,64-172.57,138.12,0,3.62-2.47,75.32-1.15,93.12,0,9.89-3.79,3.46-19.78,4.29h-5.93a36.59,36.59,0,0,0-34.45,26.2,258.92,258.92,0,0,0,22.91,86.2c7.09,13.35,18.3,15.33,29.83,23.9a25.37,25.37,0,0,1,9.4,16.49,148.39,148.39,0,0,0,44.17,68.4,438,438,0,0,0,37.42,28.34c0,15-1.65,33-2.81,39.4A28.17,28.17,0,0,1,842,683L724.8,725.64a134.41,134.41,0,0,0-36.43,15,98.89,98.89,0,0,0-52.08,68.56c-9.72,35.77-8.9,146.36-9.72,155.26,127.9,86.7,230.74,110.93,407.1,103.18,80.11-3.46,199.44-43,261.9-74.66C1292.28,923.42,1287,809,1287,809Z"
        transform="translate(-619.07 -10.54)" />
    <polyline class="cls-8" points="516.3 411.17 540.69 400.46 536.57 438.37" />
    <polyline class="cls-8" points="167.38 405.57 142.98 394.86 147.27 432.77" />
    <line class="cls-9" x1="167.05" y1="360.57" x2="164.41" y2="503.14" />
    <line class="cls-9" x1="513.99" y1="360.57" x2="516.8" y2="503.14" />
    <path class="cls-10"
        d="M1146.41,317.71c7.75-77.63-15.33-121.8-33-143.72a250.9,250.9,0,0,0-156.09-53.41A255.17,255.17,0,0,0,822,158.66c-32,31.48-69.72,89.16-50.76,159a652.46,652.46,0,0,0,16.48,102.35c3.13-33,3.46-100,10.22-130a368,368,0,0,1,20.77-64.61c45.16-48,232.23-45.82,280.19,0A368.85,368.85,0,0,1,1119.71,290c6.76,30,7.09,98.89,12.53,128.56A620.48,620.48,0,0,0,1146.41,317.71Z"
        transform="translate(-619.07 -10.54)" />
    <path class="cls-11"
        d="M1071.75,738a209.16,209.16,0,0,1-114.39,28.35A220.68,220.68,0,0,1,842,738c-16.49-8.73-26.37-13.51-26.37-29.83h0A28.18,28.18,0,0,1,842,678.5s73,25.38,113.89,25.38,115.37-25.38,115.37-25.38a28.18,28.18,0,0,1,26.37,29.67h0C1098.12,724.49,1090,727.78,1071.75,738Z"
        transform="translate(-619.07 -10.54)" />
    <rect class="cls-12" x="270.06" y="869.54" width="23.73" height="23.73" />
    <rect class="cls-12" x="293.79" y="893.11" width="23.73" height="23.73" />
    <rect class="cls-12" x="317.53" y="916.84" width="23.73" height="23.73" />
    <rect class="cls-12" x="341.1" y="940.41" width="23.73" height="23.73" />
    <rect class="cls-12" x="364.83" y="964.15" width="23.73" height="23.73" />
    <rect class="cls-12" x="388.4" y="987.72" width="23.73" height="23.73" />
    <rect class="cls-12" x="412.13" y="1011.45" width="23.73" height="23.73" />
    <rect class="cls-12" x="411.97" y="869.54" width="23.73" height="23.73" />
    <rect class="cls-12" x="388.4" y="893.11" width="23.73" height="23.73" />
    <rect class="cls-12" x="364.67" y="916.84" width="23.73" height="23.73" />
    <rect class="cls-12" x="341.1" y="940.41" width="23.73" height="23.73" />
    <rect class="cls-12" x="317.36" y="964.15" width="23.73" height="23.73" />
    <rect class="cls-12" x="293.79" y="987.72" width="23.73" height="23.73" />
    <rect class="cls-12" x="270.06" y="1011.29" width="23.73" height="23.73" />
    <path class="cls-9" d="M868,622.3s62.14,47.8,93.62,44,80.92-39.55,80.92-39.55"
        transform="translate(-619.07 -10.54)" />
    <path class="cls-10"
        d="M1053.12,195.38a260.54,260.54,0,0,1,35.27,11.87c16.49-17.47,31.65-58.18,27.53-76.64A157.9,157.9,0,0,0,1023.29,21c-11.37,56.7-70,62.63-105.16,94.11-6.42,5.77-38.89,48.29-34,76C940.88,189,996.59,180.38,1053.12,195.38Z"
        transform="translate(-619.07 -10.54)" />


        <style>
            #rightEye, #leftEye {
                animation:Blink 8s infinite ease-in-out;
            }

            @keyframes Blink{
            0%{opacity: 0;}
            25%{opacity: 1;}
            45%{opacity: 1;}
            50%{opacity: 0;}
            65%{opacity: 1;}
            95%{opacity: 1;}
            100%{opacity: 0;}
        }
        </style>
</svg>