<svg id="Layer_1" data-name="Layer 1" xmlns="http://www.w3.org/2000/svg" viewBox="0 0 735.24 1080">
    <defs>
        <style>
            .cls-1 {
                fill: #dba179;
            }

            .cls-2 {
                fill: #77cbd2;
            }

            .cls-2,
            .cls-3 {
                stroke: #00a5a5;
            }

            .cls-2,
            .cls-6 {
                stroke-miterlimit: 10;
            }

            .cls-2,
            .cls-3,
            .cls-8,
            .cls-9 {
                stroke-width: 8px;
            }

            .cls-3,
            .cls-7,
            .cls-8,
            .cls-9 {
                fill: none;
            }

            .cls-3,
            .cls-7,
            .cls-9 {
                stroke-linecap: round;
            }

            .cls-10,
            .cls-3,
            .cls-7,
            .cls-8,
            .cls-9 {
                stroke-linejoin: round;
            }

            .cls-4 {
                fill: #edbc94;
            }

            .cls-5,
            .cls-6 {
                fill: #512c2b;
            }

            .cls-10,
            .cls-6 {
                stroke: #42210b;
            }

            .cls-7,
            .cls-9 {
                stroke: #472b29;
            }

            .cls-10,
            .cls-7 {
                stroke-width: 15px;
            }

            .cls-8 {
                stroke: #895d3d;
            }

            .cls-10 {
                fill: #472b29;
            }
        </style>
    </defs>
    <title>man-in-blue-shirt</title>
    <path class="cls-1"
        d="M1311.12,790.29c-7.09-38.15-22.71-60.51-59.26-71l-6.21-2.13-10.3-4.25c-22.18-9.41-154-58-154-58a33.18,33.18,0,0,1-22-19.16,153.78,153.78,0,0,1-4.08-51.64,830,830,0,0,1-88.72,25.2C932.81,612.49,860.06,569,860.06,569s-1.77,53.23-4.08,65.83a29.62,29.62,0,0,1-22.71,20L705.69,700.33a143.67,143.67,0,0,0-39.22,16.15,133.44,133.44,0,0,0-56.07,73.81s-8.34,58.73-8,60.86c0,8.34-1.6,17.75-2.31,26.8C737.8,971.28,848.53,997.37,1038.22,989c86.41-3.73,214.7-46.32,282.13-80.21C1317.33,834.12,1311.12,790.29,1311.12,790.29Z"
        transform="translate(-592.61 -0.5)" />
    <path class="cls-2"
        d="M1251.86,719.49l-6.21-2.13-10.3-4.26c-13.66-5.85-69.38-26.61-109.83-41.52h-1.78c-45.42,22.36-108.24,56.07-166.62,56.07s-116.75-31-166.44-57.13L785,671.94,705.69,701a144,144,0,0,0-39.22,16.14A134,134,0,0,0,610.4,791s-8.34,58.73-8,60.86c0,8.34-1.6,96.71-2.31,106.47,137.69,93.34,248.42,119.42,438.11,111.08,86.41-3.73,214.7-46.31,282.13-80.2-3.73-75.06-9.94-197.85-9.94-197.85C1304,752.85,1288.41,730.49,1251.86,719.49Z"
        transform="translate(-592.61 -0.5)" />
    <line class="cls-3" x1="129.05" y1="957.12" x2="129.05" y2="1027.21" />
    <line class="cls-3" x1="596.26" y1="957.12" x2="596.26" y2="1039.63" />
    <path class="cls-4"
        d="M1174.49,319.54h-6.39c-17.74-.89-15.79,5.67-14.9-5,1.42-18.81-7.63-94.76-7.63-98.66,0-79-82.51-143.55-185.61-147.1H955.7C852.61,72.36,770.1,137,770.1,215.91c0,3.9-2.66,80.2-1.24,99,0,10.65-4.26,3.73-21.3,4.62h-6.38a39.39,39.39,0,0,0-37.27,28c2.31,1.42,10.83,66.19,24.67,91.74,7.81,14.19,19.87,16.15,32.29,25.37A27.71,27.71,0,0,1,771,482.43a159.73,159.73,0,0,0,47.37,72.75c10.47,10.11,79.85,84.11,139.47,80.2s129-71,139.47-80.2a159.67,159.67,0,0,0,47.38-72.75,27.71,27.71,0,0,1,10.12-17.75c12.42-9.22,24.48-11.18,32.11-25.37,13.84-25.55,22.36-90.32,24.67-91.74A39.22,39.22,0,0,0,1174.49,319.54Z"
        transform="translate(-592.61 -0.5)" />
    <path class="cls-5"
        d="M958.9,444.81a41.88,41.88,0,0,0,31.41-14.2,2.13,2.13,0,0,0,0-3h0a2.13,2.13,0,0,0-3,0h0a41.17,41.17,0,0,1-56.43,0,2.54,2.54,0,0,0-1.59,0,1.93,1.93,0,0,0-1.42,0,2.12,2.12,0,0,0,0,3h0A41.49,41.49,0,0,0,958.9,444.81Z"
        transform="translate(-592.61 -0.5)" />
    <path id="leftEyebrow" class="cls-5"
        d="M920.22,281l7.63-14.73a199.52,199.52,0,0,0-100.79,3.2l9.76,14.37A158.08,158.08,0,0,1,920.22,281Z"
        transform="translate(-592.61 -0.5)" />
    <path id="rightEyebrow" class="cls-5"
        d="M1082.93,281l7.81-14.73a200.34,200.34,0,0,0-101,3.2l9.76,14.37A158.08,158.08,0,0,1,1082.93,281Z"
        transform="translate(-592.61 -0.5)" />
    <path id="leftEye" class="cls-5"
        d="M873.37,301.79a21.66,21.66,0,0,0-18.63,12.95,10,10,0,0,1,3.19,0,13,13,0,0,1,0,25.91,10.32,10.32,0,0,1-5.67-1.77,23.59,23.59,0,0,0,21.11,20.22,29.28,29.28,0,0,0,0-56.78Z"
        transform="translate(-592.61 -0.5)" />
    <path id="rightEye" class="cls-5"
        d="M1042.83,301.79a20.4,20.4,0,0,0-16.68,9.76,10.43,10.43,0,0,1,4.08-.89,13,13,0,0,1,0,25.91,11.53,11.53,0,0,1-9.58-5.68,22.89,22.89,0,1,0,22.18-29.1Z"
        transform="translate(-592.61 -0.5)" />
    <path id="mouth" class="cls-6"
        d="M1048.77,477.81a2.32,2.32,0,0,0,0-3h0a2.13,2.13,0,0,0-3,0h0a150.36,150.36,0,0,1-91.21,25,150.35,150.35,0,0,1-91.2-25,1.93,1.93,0,0,0-1.42,0,2.11,2.11,0,0,0-1.6,0,2.29,2.29,0,0,0,0,3,164.32,164.32,0,0,0,187.74,0Z"
        transform="translate(-592.61 -0.5)" />
    <path class="cls-5"
        d="M983.74,571.33c1.07,0,2-1.42,2-2.84s-.88-2.84-2-2.84H938c-1.06,0-2,1.24-2,2.84s.89,2.84,2,2.84Z"
        transform="translate(-592.61 -0.5)" />
    <path class="cls-7"
        d="M1311.12,793.31c-7.09-38-22.71-60.33-59.26-71l-6.21-2.13-10.3-4.26c-22.18-9.4-154-58-154-58a33.19,33.19,0,0,1-22-19,115.58,115.58,0,0,1-4.43-40.81,531.9,531.9,0,0,0,42.4-33,161.13,161.13,0,0,0,47.38-73.64,28,28,0,0,1,10.12-17.75c12.42-9.22,24.48-11.35,32.11-25.73a272.19,272.19,0,0,0,24.67-92.8A39.22,39.22,0,0,0,1174.49,327h-6.39c-17.74,0-15.79,0-14.9-11,1.42-19-7.63-90-7.63-93.69,0-80-82.51-145.33-185.61-148.88H955.7C852.61,77,770.1,142.27,770.1,222.3c0,3.72-2.66,80.91-1.24,100.07,0,10.65-4.26,3.73-21.3,4.62h-6.38a39.57,39.57,0,0,0-37.27,28.21A278.62,278.62,0,0,0,728.58,448c7.81,14.38,19.87,16.51,32.29,25.73A28.08,28.08,0,0,1,771,491.48a161.19,161.19,0,0,0,47.37,73.64,458.19,458.19,0,0,0,40.46,30.52c-.89,16.14-2,35.49-3.19,42.41a29.65,29.65,0,0,1-22.72,20.05L705.69,703.34a150.18,150.18,0,0,0-39.22,16.15,106.49,106.49,0,0,0-56.07,73.82c-10.29,38.5-9.58,157.57-10.29,167.15,137.69,93.33,248.42,119.42,438.11,111.08,86.41-3.73,214.7-46.31,282.13-80.38C1317.33,916.28,1311.12,793.31,1311.12,793.31Z"
        transform="translate(-592.61 -0.5)" />
    <polyline class="cls-8" points="555.8 375.82 582.24 364.28 577.62 405.1" />
    <polyline class="cls-8" points="180.33 369.61 153.89 358.25 158.5 399.06" />
    <line class="cls-9" x1="179.97" y1="321.34" x2="176.96" y2="474.83" />
    <line class="cls-9" x1="553.49" y1="321.34" x2="556.33" y2="474.83" />
    <path class="cls-9" d="M858.47,590.72s69.91,51.28,105.4,47.2,91-43.3,91-43.3" transform="translate(-592.61 -0.5)" />
    <path class="cls-10"
        d="M1178.93,84.42c-1.24-9.93-12.07-8.51-22.71-7.8-33.19,1.95-41.35-8.7-109.13-46.49a169.64,169.64,0,0,0-182.77,9.75C652.45,86.2,776.66,358.75,776.66,358.75s0-143.37,64.77-187c109.84,71,214.53,79.31,278.41,37.08,24.66,54.48,24,149.94,24,149.94A256,256,0,0,0,1163.14,168c-7.81-25.55,20.4-50.93,16-83.58Z"
        transform="translate(-592.61 -0.5)" />

    <style>
        #rightEye,
        #leftEye {
            animation: Blink 8s infinite ease-in-out;
        }

        @keyframes Blink {
            0% {
                opacity: 0;
            }

            25% {
                opacity: 1;
            }

            45% {
                opacity: 1;
            }

            50% {
                opacity: 0;
            }

            65% {
                opacity: 1;
            }

            95% {
                opacity: 1;
            }

            100% {
                opacity: 0;
            }
        }
    </style>

</svg>