<svg id="Layer_1" data-name="Layer 1" xmlns="http://www.w3.org/2000/svg" viewBox="0 0 687 1072.47">
    <defs>
        <style>
            .cls-1,
            .cls-2 {
                fill: #9f8066;
            }

            .cls-1,
            .cls-10,
            .cls-14,
            .cls-3,
            .cls-5 {
                stroke: #472b29;
            }

            .cls-1,
            .cls-3,
            .cls-5 {
                stroke-miterlimit: 10;
            }

            .cls-1,
            .cls-14,
            .cls-3 {
                stroke-width: 15px;
            }

            .cls-10,
            .cls-14,
            .cls-3 {
                fill: none;
                stroke-linecap: round;
            }

            .cls-4 {
                fill: #f6cca4;
            }

            .cls-5 {
                fill: #eab436;
            }

            .cls-10,
            .cls-5 {
                stroke-width: 8px;
            }

            .cls-6 {
                fill: #edbc94;
            }

            .cls-7 {
                opacity: 0.3;
            }

            .cls-8 {
                opacity: 0.8;
            }

            .cls-9 {
                fill: #f4989e;
            }

            .cls-10,
            .cls-14 {
                stroke-linejoin: round;
            }

            .cls-11 {
                fill: #fdfcef;
            }

            .cls-12,
            .cls-13 {
                fill: #472b29;
            }

            .cls-12 {
                opacity: 0.41;
                isolation: isolate;
            }
        </style>
    </defs>
    <title>long-curly-hair-lady-with-glasses</title>
    <path class="cls-1"
        d="M683.28,882.82A31.06,31.06,0,0,0,707,880.49l2-1.16,1,1.5a33.33,33.33,0,0,0,11.45,12.11l2.49,1.83a44.73,44.73,0,0,0,21.24,7.8H755.8a20.7,20.7,0,0,0,0,4.31,32,32,0,0,0,6.81,14.6,33.06,33.06,0,0,0,11.28,11.45l2.49,1.83a42.52,42.52,0,0,0,20.74,7.13h11.12a39.56,39.56,0,0,0,6.31-1.82v4a35.85,35.85,0,0,0,13.27,22.24,27.08,27.08,0,0,0,12.28,5.81,26.33,26.33,0,0,0,13.45,1.32,24.37,24.37,0,0,0,12.28-4.31,25.39,25.39,0,0,0,9.79-8l1.66-2.48a2.31,2.31,0,0,0,0-.83,49.73,49.73,0,0,0,19.08,19.91,46,46,0,0,0,59.41-12.61l5.14,2.65a50.61,50.61,0,0,0,70.36-7,52.17,52.17,0,0,0,8.3-18.75,43.48,43.48,0,0,0,49.78-17.92,31.52,31.52,0,0,0,5.65-16.6h9.79a34.16,34.16,0,0,0,22.07-12.61,25.59,25.59,0,0,0,6-12.44,25.17,25.17,0,0,0,1.16-13.61,31.37,31.37,0,0,0-2.48-8.8,24.53,24.53,0,0,0,9.12,0,23.69,23.69,0,0,0,12.28-5.47,25.17,25.17,0,0,0,9.79-9.79,34.37,34.37,0,0,0,4-26.39l-3.32-8.46h0a30.85,30.85,0,0,0,13.27-11.45,43.64,43.64,0,0,0,0-52.77,52.46,52.46,0,0,0,14.94-14.11,50.61,50.61,0,0,0-16.6-68.7,36.32,36.32,0,0,0-3.48-2,46.65,46.65,0,0,0-8.13-60.41,50.76,50.76,0,0,0-25.06-11.11h0l1.66-2.49a37.14,37.14,0,0,0,4.31-24.9,25.55,25.55,0,0,0-5.81-12.28,25,25,0,0,0-9.62-9.45,34.79,34.79,0,0,0-25.22-5.15l-3.82,1.16a43.67,43.67,0,0,0,0-6.47l-3.15-10.62a40.72,40.72,0,0,0-13.78-16.59l-2.49-1.83a47.62,47.62,0,0,0-31.19-8.3h-4.48l-3.16-10.12A44.71,44.71,0,0,0,1027,465.8l-2.49-1.83a35.23,35.23,0,0,0-15.1-6.64h-1.83V455a31.7,31.7,0,0,0-5.8-23.23,33.23,33.23,0,0,0-20.08-12.45l-6.81-1.16a33.2,33.2,0,0,0-23.4,4.81,22.84,22.84,0,0,0-6.8,7,18.61,18.61,0,0,0-6.8-1.66,25.72,25.72,0,0,0-20.91,4.48,19.39,19.39,0,0,0-7.47,7.64,13.5,13.5,0,0,0-1.16,2.15,37.07,37.07,0,0,0-12.12-14.77l-2.49-1.66a27.65,27.65,0,0,0-13.11-5.47,30.33,30.33,0,0,0-25.88,4.15,24.56,24.56,0,0,0-9.63,8.79l-4.15,8.13v2.82a51.6,51.6,0,0,0-23.73-6.63,43.94,43.94,0,0,0-28,12.77l-5.64,8.47a37.37,37.37,0,0,0-2.82,8.29,32.2,32.2,0,0,0-8,0,27,27,0,0,0-12.94,3.49,25.89,25.89,0,0,0-11.12,8.13l-5.15,7.8a39.17,39.17,0,0,0-3,12.28,45.31,45.31,0,0,0-42.32,19.91,44.47,44.47,0,0,0-8.46,31.7,43,43,0,0,0-26.89,18.42,45.47,45.47,0,0,0-4.64,46.63,34.62,34.62,0,0,0-10.62,7L642,630.25a26.25,26.25,0,0,0-3.81,13.11,26.57,26.57,0,0,0,1,13.44,28.35,28.35,0,0,0,3,7.3,40.4,40.4,0,0,0-6.64,5.31l-6.14,8.3a43.45,43.45,0,0,0-2.65,30.7,32.16,32.16,0,0,0,7.8,13.44,34.18,34.18,0,0,0,6.3,6.64l-2.32,1.66-6.31,6.64a26.78,26.78,0,0,0-5,12.11,24.92,24.92,0,0,0,0,13.11,25.63,25.63,0,0,0,5.31,12.78A28.34,28.34,0,0,0,642,785.24l2.49,1.83a36,36,0,0,0,17.93,6.3l-1.66,1.83a20.06,20.06,0,0,0-4.65,9.62,19.77,19.77,0,0,0-1,10.79,21.43,21.43,0,0,0,3.65,10.45,23.58,23.58,0,0,0,4,6,22.23,22.23,0,0,0-4.32,8.63,31.83,31.83,0,0,0,3.32,23.56l3.32,6.14A33.23,33.23,0,0,0,683.28,882.82Z"
        transform="translate(-616.79 -6.53)" />
    <path class="cls-2"
        d="M647.61,211.73A32,32,0,0,0,665,229.82l2.16,1a11.5,11.5,0,0,1,0,1.66,32,32,0,0,0-3.65,16.59v3a40.89,40.89,0,0,0,6.64,21.9l7.13,8.46a21.88,21.88,0,0,0-3.48,3.32,31.64,31.64,0,0,0-9,13.94,30.1,30.1,0,0,0-3.15,16.6v3.15a40.58,40.58,0,0,0,6.64,21.08l7.8,8.79a42.5,42.5,0,0,0,5.64,4l-3.65,2.49a33.22,33.22,0,0,0-11.62,23.57A26.09,26.09,0,0,0,669,392.61a26.92,26.92,0,0,0,7.47,11.95A28.56,28.56,0,0,0,688.26,412,30.3,30.3,0,0,0,702,415.35h4.31a43.94,43.94,0,0,0-6,26.88,49.78,49.78,0,0,0,49.78,41.49,33,33,0,0,0,0,4,52.93,52.93,0,0,0,51.78,53.43,66.14,66.14,0,0,0,21.24-4.81,48.6,48.6,0,0,0,48.29,30.2,38.45,38.45,0,0,0,18.42-4.81h0l5.64,7.64A40.7,40.7,0,0,0,921.75,581a31.22,31.22,0,0,0,15.1-2.32,28.66,28.66,0,0,0,13.11-7,25.8,25.8,0,0,0,6.31-7.14,26.24,26.24,0,0,0,6.47,7.14,28,28,0,0,0,13.11,7A30.76,30.76,0,0,0,991,581a40.28,40.28,0,0,0,26.38-11.45l5.81-7.63h0a39.22,39.22,0,0,0,18.59,4.81A48.29,48.29,0,0,0,1090,536.32a66.28,66.28,0,0,0,22.57,4,53.27,53.27,0,0,0,51.77-53.77v-4a49.8,49.8,0,0,0,49.79-41.49,46.31,46.31,0,0,0-6-26.88h4.32a29,29,0,0,0,13.6-3.32,31.57,31.57,0,0,0,19.25-19.42,24.44,24.44,0,0,0,2.66-13.27,33.19,33.19,0,0,0-11.78-23.57l-3.49-2.49a42.77,42.77,0,0,0,5.64-4l7.64-8.8a40.64,40.64,0,0,0,6.8-21.07v-3.15a46.12,46.12,0,0,0-12.11-29.71l-3.49-3.32,7.14-8.46a39.27,39.27,0,0,0,6.47-21.91v-3a30.56,30.56,0,0,0-3.65-16.6,5.14,5.14,0,0,0,0-1.66l2.32-1a33.21,33.21,0,0,0,17.43-18.09,29.87,29.87,0,0,0-2.66-23.56l-3.32-6.31a34.35,34.35,0,0,0-19.41-16.59,30.39,30.39,0,0,0-10.79-1.5,17.94,17.94,0,0,0-2.82-6.64,21.26,21.26,0,0,0-7.14-9.12,24.09,24.09,0,0,0-11-4.65,25.65,25.65,0,0,0-11.78-1.83h-2.66a34.85,34.85,0,0,0,5.65-18.42v-3.15a25,25,0,0,0-3.49-13.77,26.63,26.63,0,0,0-8.13-11.62,29.5,29.5,0,0,0-12.28-7.13,30.17,30.17,0,0,0-14.27-2.82l-10.12,1.32-3,.83a28.21,28.21,0,0,0-2-9,29.54,29.54,0,0,0-7.3-14.1,31.55,31.55,0,0,0-13.11-10.13,36,36,0,0,0-16.6-5.47h-11.45A36.27,36.27,0,0,0,1090,50.1a25.15,25.15,0,0,0-4.65-6.64,28.93,28.93,0,0,0-11.61-8.63,30.81,30.81,0,0,0-14.44-4.48H1049A38.5,38.5,0,0,0,1035.92,35a52.29,52.29,0,0,0-45.47-23.07A53,53,0,0,0,956.1,23.22,56.76,56.76,0,0,0,876.66,34.7l-.21.3a38.65,38.65,0,0,0-13.11-4.65H853.05a31.46,31.46,0,0,0-14.61,4.48A35.38,35.38,0,0,0,821.85,50.1a34.69,34.69,0,0,0-9.29-2.32H801.27a35.89,35.89,0,0,0-16.59,5.47A32,32,0,0,0,771.4,63.38a29.35,29.35,0,0,0-7.13,14.1,28,28,0,0,0-2,9l-3-.83-10.12-1.32a29.68,29.68,0,0,0-14.28,2.82,30.14,30.14,0,0,0-12.44,7.13,28,28,0,0,0-8.13,11.62A24.87,24.87,0,0,0,711,119.63v3.15a33.17,33.17,0,0,0,5.64,18.42h-2.82A25.92,25.92,0,0,0,702,143a24.37,24.37,0,0,0-10.29,5.31,21.46,21.46,0,0,0-7.3,9.13,25.44,25.44,0,0,0-2.82,6.64A29.26,29.26,0,0,0,671,165.6a33.19,33.19,0,0,0-19.41,16.59l-2.66,5.65A30.53,30.53,0,0,0,647.61,211.73Z"
        transform="translate(-616.79 -6.53)" />
    <path class="cls-3"
        d="M1263.1,190.66l-3.32-6.31a34.17,34.17,0,0,0-19.58-16.59,28.82,28.82,0,0,0-10.62-1.5,36,36,0,0,0-10-15.76,24,24,0,0,0-10.45-5.31,25.54,25.54,0,0,0-11.78-1.83h-2.66a34.77,34.77,0,0,0,5.64-18.42v-3.15a25.09,25.09,0,0,0-3.48-13.77,25.75,25.75,0,0,0-8.13-11.62,29.69,29.69,0,0,0-12.28-7.14A30.46,30.46,0,0,0,1162,86.44l-10.12,1.33-2.82.83a27.89,27.89,0,0,0-2-9,31.2,31.2,0,0,0-7.3-14.11,32,32,0,0,0-13.27-10.12,35.22,35.22,0,0,0-16.6-5.48h-11.45a36.81,36.81,0,0,0-9.29,2.33,25.15,25.15,0,0,0-4.65-6.64A30.1,30.1,0,0,0,1072.93,37a30.81,30.81,0,0,0-14.44-4.48H1048a41.41,41.41,0,0,0-13.11,4.65,51.59,51.59,0,0,0-45.46-23.07,52.79,52.79,0,0,0-34.19,11.28,52.47,52.47,0,0,0-34.18-11.28,51.63,51.63,0,0,0-45.31,24.39,40,40,0,0,0-13.11-4.64H852.22a30.55,30.55,0,0,0-14.44,4.48A30,30,0,0,0,826.16,47a25.35,25.35,0,0,0-4.64,6.64,36,36,0,0,0-9.3-2.33H800.77a35.19,35.19,0,0,0-16.59,5.48A32.07,32.07,0,0,0,770.9,66.86,29.33,29.33,0,0,0,763.77,81a28.52,28.52,0,0,0-2.16,9L759,88.27l-10.13-1.33a30.28,30.28,0,0,0-14.43,2.82,29.57,29.57,0,0,0-12.28,7.14A27.05,27.05,0,0,0,714,108.51a25.15,25.15,0,0,0-3.48,13.78v3.15a33.21,33.21,0,0,0,5.81,18.42h-2.82a25.56,25.56,0,0,0-11.79,1.83A24,24,0,0,0,691.25,151a36,36,0,0,0-10,15.76,29,29,0,0,0-10.62,1.49,34.21,34.21,0,0,0-19.58,16.6l-3.32,6.3a29.88,29.88,0,0,0-1.33,23.57,32.07,32.07,0,0,0,17.43,18.09l2.16,1a15.32,15.32,0,0,0,0,1.66,32,32,0,0,0-3.65,16.6v2.15a42.19,42.19,0,0,0,6.47,21.91l7.13,8.46-3.48,3.32a33.24,33.24,0,0,0-8.8,13.94,28.37,28.37,0,0,0-3.15,16.6v2.15a39,39,0,0,0,6.64,21.08c2.65,2.82,5.14,5.81,7.8,8.79a34.22,34.22,0,0,0,5.64,4L677,356.93a33.22,33.22,0,0,0-11.62,23.57,23.12,23.12,0,0,0,2.49,13.27,26.83,26.83,0,0,0,7.47,12,27.57,27.57,0,0,0,11.78,7.47,29.3,29.3,0,0,0,13.61,3.32h4.48a45.26,45.26,0,0,0-6.14,26.88,48.79,48.79,0,0,0,46.13,41l-1.82,2.82a31.9,31.9,0,0,0-3,12.28,45.32,45.32,0,0,0-43.15,20.25,44.51,44.51,0,0,0-8.46,31.69,43,43,0,0,0-26.55,18.09,45.79,45.79,0,0,0-4.81,46.63,36.1,36.1,0,0,0-10.46,7l-5.64,7.47a24.55,24.55,0,0,0-3.82,13.11,26.57,26.57,0,0,0,1,13.44,28,28,0,0,0,3,7.3,41,41,0,0,0-6.64,5.31l-6.14,8.3a28.8,28.8,0,0,0-4.15,15.27,36.49,36.49,0,0,0,9.29,28.87,26.56,26.56,0,0,0,6.31,6.64l-2.32,1.66-6.31,6.64a23.76,23.76,0,0,0-5,12.11,25.13,25.13,0,0,0,0,13.11,25.48,25.48,0,0,0,5.15,12.78,30.21,30.21,0,0,0,9.62,10.45l2.49,1.83a35.88,35.88,0,0,0,17.92,6.3l-1.66,1.83a20.08,20.08,0,0,0-4.64,9.63,19.64,19.64,0,0,0-1,10.78,21.47,21.47,0,0,0,3.65,10.46,23.49,23.49,0,0,0,4,6,22.28,22.28,0,0,0-4.31,8.63,31.65,31.65,0,0,0,3.15,23.56l3.49,6.14a33.15,33.15,0,0,0,18.42,14.61A31.34,31.34,0,0,0,706.68,883l2-1.16,1,1.5A33.27,33.27,0,0,0,721,895.43l2.66,1.83a44,44,0,0,0,21.24,7.79h10.46a39.74,39.74,0,0,0,1,4.32,32.09,32.09,0,0,0,6.8,14.6,33.12,33.12,0,0,0,11.12,11.45l2.66,1.83a42,42,0,0,0,20.74,7.13h11.12a37.63,37.63,0,0,0,6.14-1.82v4a35.82,35.82,0,0,0,13.28,21.24,26.59,26.59,0,0,0,12.11,5.81,27.29,27.29,0,0,0,13.61,1.33,24.9,24.9,0,0,0,12.28-4.32,25.46,25.46,0,0,0,9.79-8l1.66-2.49h0a50.94,50.94,0,0,0,18.92,19.91,46.29,46.29,0,0,0,59.57-12.61l3,2.66a50.61,50.61,0,0,0,70.52-7.14,53.33,53.33,0,0,0,8.3-18.59,43.64,43.64,0,0,0,49.79-17.92,33.21,33.21,0,0,0,5.64-16.59H1103A34.24,34.24,0,0,0,1126,897.59a25.62,25.62,0,0,0,6-12.45,25.24,25.24,0,0,0,1-13.61,26.74,26.74,0,0,0-2.49-8.79,24.17,24.17,0,0,0,9.13,0,23.7,23.7,0,0,0,12.44-5.48,26.28,26.28,0,0,0,9.79-9.79,35,35,0,0,0,4-25.89l-3.32-8.46h0a31.83,31.83,0,0,0,13.6-10.79,43.64,43.64,0,0,0,0-52.77,52,52,0,0,0,14.77-14.1,50.6,50.6,0,0,0-16.59-68.7,39.14,39.14,0,0,0-3.65-2A46.31,46.31,0,0,0,1162,602.7a50.78,50.78,0,0,0-25.22-11.12h0l1.65-2.49a37.12,37.12,0,0,0,4.32-24.89,27.29,27.29,0,0,0-5.81-12.28,26.44,26.44,0,0,0-9.62-9.46l-3.49-1.82a52.78,52.78,0,0,0,38.5-51.28,16.56,16.56,0,0,0,0-4,49.8,49.8,0,0,0,49.79-41.49,46.31,46.31,0,0,0-6-26.88h4.32a29.42,29.42,0,0,0,13.6-3.32,27.6,27.6,0,0,0,11.79-7.47,26.9,26.9,0,0,0,7.46-12,23,23,0,0,0,2.49-13.27,33.21,33.21,0,0,0-11.61-23.57l-3.65-2.49a44.79,44.79,0,0,0,5.8-4c2.49-3,5-6,7.64-8.79a40.67,40.67,0,0,0,7.13-21.58v-3.15a30,30,0,0,0-3.32-16.6,31.13,31.13,0,0,0-8.79-13.93l-3.49-3.32,7.14-8.47a40.79,40.79,0,0,0,6.47-20.91v-3a30.56,30.56,0,0,0-3.65-16.6,15.32,15.32,0,0,0,0-1.66l2.32-1a31.89,31.89,0,0,0,16.6-18.09A29.87,29.87,0,0,0,1263.1,190.66Z"
        transform="translate(-616.79 -6.53)" />
    <path class="cls-4"
        d="M1156.23,320.59c2.16-25.22-5.48-46.79-3.82-59.41h0c-22.23-27.38-36.17-59.57-66.37-79.15a394.55,394.55,0,0,0-112.52-47C878.94,111.33,785.84,180.53,756.63,270a5.38,5.38,0,0,1-1,1.66,340.22,340.22,0,0,1,6.14,48.95c-25.56,0-38.67,13.44-29.87,40.33,0,0,10,43.64,16.59,64.55a24.55,24.55,0,0,0,24.56,19.91V487a73.73,73.73,0,0,0,14.27,46.63c24.23,35.84,152.51,118.81,183.54,116,49.78,0,149.35-85.29,175.74-127.77a64.3,64.3,0,0,0,7.8-28.05V444.06a25.06,25.06,0,0,0,21.07-19.75c6.64-20.91,16.6-64.06,16.6-64.55C1201,333.54,1181.79,320.59,1156.23,320.59Z"
        transform="translate(-616.79 -6.53)" />
    <path class="cls-5"
        d="M958.42,88.27c-113.67,0-205.77,83-205.77,187.35A76.79,76.79,0,0,0,759.79,304C785,212.06,899.84,168.09,958.92,168.09S1131.17,206.26,1158.06,304a77,77,0,0,0,7.13-28.54C1164.36,171.24,1072.1,88.27,958.42,88.27Z"
        transform="translate(-616.79 -6.53)" />
    <path class="cls-6"
        d="M1232.73,744.58l-6.3-2-9.46-4c-20.41-8.79-153.83-54.26-153.83-54.26a31.36,31.36,0,0,1-19.25-17.93,149.36,149.36,0,0,1-3.82-48.45,367.54,367.54,0,0,1-70,23.73c-31,3-85.46-37.67-85.46-37.67s-1.66,49.78-3.82,61.56a27.88,27.88,0,0,1-20.91,18.76L731.08,727.16a132.73,132.73,0,0,0-36,15.1,128.77,128.77,0,0,0-54.27,77.66H640a73.63,73.63,0,0,0-1.49,10.13,82.47,82.47,0,0,0-2.32,21.57c-.83,7.8-1.5,99.57-2.33,108.2,132.76,92.59,271.66,102.72,446.4,102.72,76.83,0,153.17-43.81,215.73-75.34C1289,832.2,1303.43,766.32,1232.73,744.58Z"
        transform="translate(-616.79 -6.53)" />
    <g class="cls-7">
        <g class="cls-8">
            <ellipse class="cls-9" cx="227.63" cy="457.44" rx="32.69" ry="33.19" />
        </g>
        <g class="cls-8">
            <ellipse class="cls-9" cx="478.54" cy="457.44" rx="32.69" ry="33.19" />
        </g>
    </g>
    <line class="cls-10" x1="147.14" y1="313.56" x2="160.25" y2="440.35" />
    <line class="cls-10" x1="542.43" y1="305.93" x2="535.29" y2="440.35" />
    <path class="cls-11"
        d="M819.36,703.1c-3.65,147.86,293.39,156.65,272.82-11l83,27.71L1208.34,1030a666.11,666.11,0,0,1-492.86-21.74l16.59-276.63Z"
        transform="translate(-616.79 -6.53)" />
    <path class="cls-12"
        d="M966.22,500.64a44.12,44.12,0,0,0,33.19-14.93,2.48,2.48,0,0,0,0-3.32h0a2.32,2.32,0,0,0-3.15,0,44,44,0,0,1-59.58,0,2.32,2.32,0,0,0-3.15,0,2.5,2.5,0,0,0,0,3.32A44.47,44.47,0,0,0,966.22,500.64Z"
        transform="translate(-616.79 -6.53)" />
    <path class="cls-12" d="M981,612.16a1.5,1.5,0,1,0,0-3H951.62a1.5,1.5,0,0,0,0,3Z"
        transform="translate(-616.79 -6.53)" />
    <path id="leftEyebrow" class="cls-13"
        d="M932.2,286.24a347.45,347.45,0,0,0-123.13-12.78,3.24,3.24,0,1,0-.33,6.48c.83,0,84.3,14.6,110.35,23.73h1.33a5,5,0,0,0,3.49-1.33L934,291.05a2.66,2.66,0,0,0,0-2.82A4.31,4.31,0,0,0,932.2,286.24Z"
        transform="translate(-616.79 -6.53)" />
    <path id="rightEyebrow" class="cls-13"
        d="M998.58,283.09a344.76,344.76,0,0,1,123.63-6.47,3.24,3.24,0,1,1,0,6.47s-84.8,10.29-111.35,18.09h-1.33a4,4,0,0,1-3.31-1.5l-9.63-12.28a3,3,0,0,1,0-2.82A3.67,3.67,0,0,1,998.58,283.09Z"
        transform="translate(-616.79 -6.53)" />
    <path id="leftEye" class="cls-13"
        d="M873.46,335a23.22,23.22,0,0,0-20.08,13.77,11.54,11.54,0,0,1,3.32,0,13.77,13.77,0,0,1,0,27.38,11.6,11.6,0,0,1-6.14-1.82,25.56,25.56,0,0,0,22.9,21.57,31,31,0,0,0,0-60.4Z"
        transform="translate(-616.79 -6.53)" />
    <path id="rightEye" class="cls-13"
        d="M1055.83,335a22.41,22.41,0,0,0-17.92,10.45,10.07,10.07,0,0,1,4.48-1,13.77,13.77,0,0,1,0,27.38,12,12,0,0,1-10.29-6A24.56,24.56,0,1,0,1055.83,335Z"
        transform="translate(-616.79 -6.53)" />
    <path class="cls-10" d="M888.56,614.15s56.92,28.38,87.12,26.05A248.88,248.88,0,0,0,1049,615.48"
        transform="translate(-616.79 -6.53)" />
    <path class="cls-13"
        d="M937.85,327.89c-37.34-45.47-177.9-13.27-178.06-13.27,2.65,10.29,4.81,20.41,7,30.37,10.45,1.16,11,24.56,11.94,33.19C783.85,419.5,811.89,450,870,448.7a73.18,73.18,0,0,0,74.35-72v0A101.69,101.69,0,0,0,937.85,327.89Zm-6.64,50.78a61.07,61.07,0,0,1-61.38,60.76l-1.35,0H857.69c-58.08,0-68-51-69.2-83a34.36,34.36,0,0,1,31-35.85,350.09,350.09,0,0,1,36.5-1.16c43.32,0,62.23,10.46,67.38,18.75A75.44,75.44,0,0,1,931.21,378.67Z"
        transform="translate(-616.79 -6.53)" />
    <path class="cls-13"
        d="M979,376.68a73.35,73.35,0,0,0,74.65,72h0c58.41,1.33,86.12-29.2,91.1-70.52,1-8.63,1.66-32,12.12-33.19,2-10,4.31-20.08,6.8-30.37,0,0-140.72-32.2-178.06,13.27A104,104,0,0,0,979,376.68ZM1000.24,338c5-8.3,23.9-18.76,67.38-18.76a352.87,352.87,0,0,1,36.5,1.17,34.18,34.18,0,0,1,30.87,36c-1,32-11,83-69,83h-11a60.91,60.91,0,0,1-62.54-59.22c0-.51,0-1,0-1.52A72.24,72.24,0,0,1,1000.24,338Z"
        transform="translate(-616.79 -6.53)" />
    <path class="cls-13"
        d="M987,363.57a44,44,0,0,0-26.06-7.63,38.39,38.39,0,0,0-24.23,7.63c-2.48-7.13-5-14.1-7.63-21.07h66.38C992.11,349.47,989.62,356.44,987,363.57Z"
        transform="translate(-616.79 -6.53)" />
    <path id="mouth" class="cls-13"
        d="M1077.07,532.17a2.65,2.65,0,0,0,0-3.48h0a2.65,2.65,0,0,0-3.48,0,173.61,173.61,0,0,1-104.88,28.87,173.27,173.27,0,0,1-104.88-28.87,2.77,2.77,0,0,0-1.66,0,2.15,2.15,0,0,0-1.82,0,2.65,2.65,0,0,0,0,3.48,175.54,175.54,0,0,0,108,33.19A175.49,175.49,0,0,0,1077.07,532.17Z"
        transform="translate(-616.79 -6.53)" />
    <path class="cls-14"
        d="M1233.4,747.07l-5.65-2-9.45-4c-20.42-8.8-153.84-54.26-153.84-54.26a30.88,30.88,0,0,1-20.57-17.76,132.46,132.46,0,0,1-3.82-44.64,403.94,403.94,0,0,0,106.87-99.57,64.09,64.09,0,0,0,7.8-28V447a24.71,24.71,0,0,0,21.9-19.58c6.64-20.74,16.6-64,16.6-64.39,8.79-26.88-10.46-40.82-36-40.32,0-7.14,0-17.92,1-16.59a76.82,76.82,0,0,0,7.14-28.55c0-103.38-92.27-187.35-205.94-187.35s-205.77,84-205.77,187.35a75.79,75.79,0,0,0,8.13,27.22c.29,5.91.29,11.84,0,17.75-25.56,0-38.67,13.61-29.87,40.49,0,0,10,43.65,16.59,64.39a24.72,24.72,0,0,0,24.56,20.08V489a73.33,73.33,0,0,0,14.44,47.29c13.27,19.42,56.42,52.28,98.24,78.33,0,12.11-2.82,45-4.65,54.1a27.53,27.53,0,0,1-20.91,18.75l-128.44,43a181.64,181.64,0,0,0-36,15.1c-70.86,36-61.73,191-61.23,215.73a620.48,620.48,0,0,0,661.79,27.88C1292.8,857.76,1296.62,766.49,1233.4,747.07Z"
        transform="translate(-616.79 -6.53)" />


        <style>
            #rightEye, #leftEye {
                animation:Blink 8s infinite ease-in-out;
            }

            @keyframes Blink{
            0%{opacity: 0;}
            25%{opacity: 1;}
            45%{opacity: 1;}
            50%{opacity: 0;}
            65%{opacity: 1;}
            95%{opacity: 1;}
            100%{opacity: 0;}
        }
        </style>
</svg>