<svg id="Layer_1" data-name="Layer 1" xmlns="http://www.w3.org/2000/svg" viewBox="0 0 727.65 1082">
    <defs>
        <style>
            .cls-1 {
                fill: #895f3f;
            }

            .cls-2 {
                fill: #fdfcef;
            }

            .cls-2,
            .cls-3 {
                stroke: #cbc9bc;
                stroke-width: 10px;
            }

            .cls-2,
            .cls-4,
            .cls-7 {
                stroke-miterlimit: 10;
            }

            .cls-10,
            .cls-3,
            .cls-8,
            .cls-9 {
                fill: none;
                stroke-linejoin: round;
            }

            .cls-10,
            .cls-3,
            .cls-8 {
                stroke-linecap: round;
            }

            .cls-4,
            .cls-6,
            .cls-7 {
                fill: #512c2b;
            }

            .cls-4,
            .cls-8 {
                stroke: #3a2b29;
                stroke-width: 15px;
            }

            .cls-5 {
                fill: #a3754f;
            }

            .cls-7 {
                stroke: #42210b;
                stroke-width: 2px;
            }

            .cls-9 {
                stroke: #895d3d;
            }

            .cls-10,
            .cls-9 {
                stroke-width: 8px;
            }

            .cls-10 {
                stroke: #472b29;
            }

            .cls-11 {
                fill: #e0a825;
            }
        </style>
    </defs>
    <title>man-in-white-shirt</title>
    <path class="cls-1"
        d="M1308.16,793.1c-7.2-37.57-22.47-59.7-58.82-70.23a57.16,57.16,0,0,1-6-2.28l-10.89-4.74c-22-9-152.57-57.06-152.57-57.06a33.38,33.38,0,0,1-21.78-19,153.1,153.1,0,0,1-4-51.26,868.17,868.17,0,0,1-87.79,25.1c-33.36,3.16-105.35-40-105.35-40s-1.58,52.67-3.86,65.32a30,30,0,0,1-23,19.84l-125,45.29a143.65,143.65,0,0,0-38.8,16,133.32,133.32,0,0,0-55.48,73s-8.25,58.29-7.9,60.4c-.88,8.07-1.58,17.55-2.46,26.51,136.25,92.35,245.8,118.16,433.67,109.91,85.33-3.69,212.44-45.83,279-79.54C1313.78,836.29,1308.16,793.1,1308.16,793.1Z"
        transform="translate(-596.96 1.5)" />
    <path class="cls-2"
        d="M1248.82,723.22a57.33,57.33,0,0,1-6-2.28l-10.36-4C1219,711.11,1164,690.56,1124,675.64h-1.93c-44.07,22.65-106.92,56.18-165,56.18s-115.7-30.72-164.86-56.71l-5.44,1.58-77.78,28.1a143.18,143.18,0,0,0-38.8,16,133.29,133.29,0,0,0-55.49,73s-8.25,58.29-7.9,60.4c-.87,8.08-1.58,95.51-2.45,105.34,136.24,92.36,245.8,118.17,433.66,109.91,85.33-3.68,212.45-45.82,279-79.53-3.51-74.09-9.66-195.77-9.66-195.77C1300.44,756.23,1285.16,733.4,1248.82,723.22Z"
        transform="translate(-596.96 1.5)" />
    <line class="cls-3" x1="127.42" y1="960.34" x2="127.42" y2="1029.69" />
    <line class="cls-3" x1="589.7" y1="960.34" x2="589.7" y2="1041.81" />
    <path class="cls-4"
        d="M1230.91,334.85a28.25,28.25,0,0,0-15.28-16.15l-1.93-.88v-1.58a28.65,28.65,0,0,0,3.16-14.4V299a36.41,36.41,0,0,0-5.62-19.48l-6.32-7.38,3.16-3a28.28,28.28,0,0,0,7.73-12.47,27.3,27.3,0,0,0,2.81-14v-2.81a36.58,36.58,0,0,0-6-18.79l-6.67-7.73a44,44,0,0,0-4.92-3.68l3-2.11a31.12,31.12,0,0,0,10.36-21.07,22.56,22.56,0,0,0-2.29-11.76A33.53,33.53,0,0,0,1183.86,154H1180a41.23,41.23,0,0,0,5.27-24,43.71,43.71,0,0,0-43.54-36.87V89.57a46.88,46.88,0,0,0-44.25-47A55,55,0,0,0,1077.81,46a42.68,42.68,0,0,0-42.31-27,33.91,33.91,0,0,0-16.16,4.39h0l-5.09-6.84A35,35,0,0,0,991.43,6.18a24.81,24.81,0,0,0-13.35,2.1,30.73,30.73,0,0,0-17.55,12.47,21.52,21.52,0,0,0-5.62-6.32,23.33,23.33,0,0,0-11.42-6.15,24.31,24.31,0,0,0-13.16-2.1,35,35,0,0,0-23,10.36l-4.92,6.84h0A35.22,35.22,0,0,0,886.08,19a42.5,42.5,0,0,0-42.14,27,56.6,56.6,0,0,0-19.66-3.51A47.06,47.06,0,0,0,778.81,90.1v3.51a43.9,43.9,0,0,0-43.72,36.87,42.6,42.6,0,0,0,5.27,24.06h-3.69a22.78,22.78,0,0,0-11.94,3,22.52,22.52,0,0,0-10.36,6.67,22.21,22.21,0,0,0-6.5,10.54,20.93,20.93,0,0,0-2.28,11.76,30.22,30.22,0,0,0,10.19,21.07l3.16,2.11a32.17,32.17,0,0,0-4.92,3.68l-6.85,7.73a36.35,36.35,0,0,0-5.79,18.79v2.81a25.62,25.62,0,0,0,2.81,14,28.35,28.35,0,0,0,7.72,12.47l3,3-6.15,7.38A36.68,36.68,0,0,0,703,299v2.81a28.65,28.65,0,0,0,3.16,14.4v1.58l-1.93.88a28.25,28.25,0,0,0-15.28,16.15,27,27,0,0,0,1.23,20.89l3,5.62a29.45,29.45,0,0,0,17.55,14.4,21.14,21.14,0,0,0,9.31,1.4,33.15,33.15,0,0,0,8.78,14A21.57,21.57,0,0,0,737.9,396a25.21,25.21,0,0,0,10.36,1.58h2.28a29.73,29.73,0,0,0-4.92,16.33v2.81a35.16,35.16,0,0,0,10.19,22.65,25.64,25.64,0,0,0,10.71,6.32A25.28,25.28,0,0,0,779,448.1l9-1.06,2.63-.87A43.68,43.68,0,0,0,799,466.36a28.28,28.28,0,0,0,11.59,9.13A29.34,29.34,0,0,0,825,480.23h9.13a42.51,42.51,0,0,0,8.08-2.11,32.13,32.13,0,0,0,4,6,25.47,25.47,0,0,0,10.18,7.55,26.88,26.88,0,0,0,12.82,4h8.95a36.51,36.51,0,0,0,11.59-4A49.33,49.33,0,0,0,958.6,503c.48-.33.94-.68,1.4-1a49.52,49.52,0,0,0,69.41-9.25l.82-1.11a37,37,0,0,0,11.41,4h9.13a26.89,26.89,0,0,0,12.64-4,29.46,29.46,0,0,0,14.22-13.52,40.55,40.55,0,0,0,8.26,2.11h9.83a29.92,29.92,0,0,0,14.57-4.74,31.05,31.05,0,0,0,11.59-9.13,29,29,0,0,0,6.32-12.47,25.48,25.48,0,0,0,1.75-8.08l2.64.88,8.78,1.06a25.42,25.42,0,0,0,12.46-2.46,26.19,26.19,0,0,0,10.89-6.32,24.62,24.62,0,0,0,7.2-10.36,25,25,0,0,0,3-12.29v-2.81a29.91,29.91,0,0,0-5.09-16.33h2.46a25.77,25.77,0,0,0,10.36-1.58,22.89,22.89,0,0,0,9.13-4.74,20.94,20.94,0,0,0,6.32-8.25,21.38,21.38,0,0,0,2.46-5.8,21.41,21.41,0,0,0,9.3-1.4A30.05,30.05,0,0,0,1227.4,361l3-5.62A27.73,27.73,0,0,0,1230.91,334.85Z"
        transform="translate(-596.96 1.5)" />
    <path class="cls-5"
        d="M1172.27,327.48H1166c-17.56,0-21.77,6-20.9-4.57,1.23-18.61-1.23-94.1-1.23-98,0-78.3-81.81-142-183.82-145.55h-4C853.78,82.9,772.13,146.64,772.13,224.94c0,3.87-2.63,79.36-1.22,98,0,10.54-4,3.69-21.07,4.57h-6.32A39,39,0,0,0,706.82,355c2.28,1.41,10.71,65.49,24.41,90.77C738.78,460,750.71,462,763,471.1a26.33,26.33,0,0,1,10,17.55,155.32,155.32,0,0,0,47.06,71.81c10.18,10,78.83,83.23,137.82,79.54s127.64-70.23,138-79.54A158,158,0,0,0,1143,488.65a26.67,26.67,0,0,1,9.83-17.55c12.29-9.13,24.23-11.06,32-25.29,13.7-25.28,22.13-89.36,24.41-90.77A39,39,0,0,0,1172.27,327.48Z"
        transform="translate(-596.96 1.5)" />
    <path class="cls-6"
        d="M959,451.26A40.76,40.76,0,0,0,990,437.39a2.1,2.1,0,0,0,0-3h0a2.11,2.11,0,0,0-3,0h0a36,36,0,0,1-27.92,10.89A36.52,36.52,0,0,1,931,434.93a1.76,1.76,0,0,0-1.58,0,1.85,1.85,0,0,0-1.23,0,2.11,2.11,0,0,0,0,3h0A41.26,41.26,0,0,0,959,451.26Z"
        transform="translate(-596.96 1.5)" />
    <path id="leftEyebrow" class="cls-6"
        d="M920.85,289.38l7.55-14.57A197.52,197.52,0,0,0,828.67,278l9.48,14.22A156.9,156.9,0,0,1,920.85,289.38Z"
        transform="translate(-596.96 1.5)" />
    <path id="rightEyebrow" class="cls-6"
        d="M1081.85,289.38l7.55-14.57A197.52,197.52,0,0,0,989.67,278l9.66,14.22A156.44,156.44,0,0,1,1081.85,289.38Z"
        transform="translate(-596.96 1.5)" />
    <path id="leftEye" class="cls-6"
        d="M874.49,309.92a21.23,21.23,0,0,0-17.55,12.82,16.48,16.48,0,0,1,3,0,12.82,12.82,0,0,1,0,25.63,9.74,9.74,0,0,1-5.62-1.75,23.36,23.36,0,0,0,21.07,20.19,29.15,29.15,0,0,0,0-56.36Z"
        transform="translate(-596.96 1.5)" />
    <path id="rightEye" class="cls-6"
        d="M1042.69,309.92a20.7,20.7,0,0,0-17.55,9.66,10.92,10.92,0,0,1,4,0,12.82,12.82,0,0,1,0,25.63,10.53,10.53,0,0,1-9.3-5.62,25.29,25.29,0,0,0,21.95,27.57,29.15,29.15,0,0,0,0-56.36Z"
        transform="translate(-596.96 1.5)" />
    <path id="mouth" class="cls-7"
        d="M1052,483.91a2.1,2.1,0,0,0,0-3h0a1.93,1.93,0,0,0-2.73-.08l-.08.08A149.24,149.24,0,0,1,959,505.16a149.06,149.06,0,0,1-89.72-24.58H868a2.24,2.24,0,0,0-1.76,0,2.11,2.11,0,0,0,0,3h0a162.75,162.75,0,0,0,185.94,0Z"
        transform="translate(-596.96 1.5)" />
    <path class="cls-6"
        d="M785.3,264.8a418.94,418.94,0,0,1,40-109A23.85,23.85,0,0,0,799,147.34,296.45,296.45,0,0,0,762.13,295.7a271.84,271.84,0,0,0,12.46,70.23C780.21,332.22,778.1,298.16,785.3,264.8Z"
        transform="translate(-596.96 1.5)" />
    <path class="cls-6"
        d="M1132.59,264.8a413.13,413.13,0,0,0-40.21-109,24,24,0,0,1,26.51-8.43,294.91,294.91,0,0,1,37,148.36,272.27,272.27,0,0,1-12.47,70.23C1137.86,332.22,1140,298.16,1132.59,264.8Z"
        transform="translate(-596.96 1.5)" />
    <path class="cls-6"
        d="M983.53,576.44a2.63,2.63,0,0,0,2.1-2.81,2.46,2.46,0,0,0-2.1-2.63H938.4c-1,0-1.93,1.23-1.93,2.63s.88,2.81,1.93,2.81Z"
        transform="translate(-596.96 1.5)" />
    <path class="cls-8"
        d="M1308.16,796.26c-7.2-37.75-22.47-59.7-58.82-70.23a50.2,50.2,0,0,1-6-2.11L1233,719.71c-22.48-9.66-153.1-57.76-153.1-57.76a33.21,33.21,0,0,1-21.78-19.14,113.66,113.66,0,0,1-4.56-40.21,488.5,488.5,0,0,0,42-32.83,160.73,160.73,0,0,0,47.06-72.69,27.52,27.52,0,0,1,9.83-17.56c12.29-9.3,24.23-11.23,32-25.45a271.64,271.64,0,0,0,24.41-91.83,39.33,39.33,0,0,0-36.87-28.09h-6c-17.56,0-21.77,6.14-20.9-4.57,1.23-18.78-1.23-95.16-1.23-99,0-79.18-81.81-143.62-183.82-147.13h-4c-102.18,3.51-183.83,67.95-183.83,147.13,0,3.86-2.63,80.24-1.22,99,0,10.71-4,3.87-21.07,4.57h-6.32a39.16,39.16,0,0,0-36.7,28.09,277.72,277.72,0,0,0,24.41,90.25c7.55,14.22,19.48,16.15,31.77,25.45a27.06,27.06,0,0,1,10,17.56,158,158,0,0,0,47.06,72.69,453.14,453.14,0,0,0,39.85,30.37c0,16-1.75,35.12-3,41.79A30.23,30.23,0,0,1,834.11,662l-125,45.29a143.65,143.65,0,0,0-38.8,16,105.36,105.36,0,0,0-55.48,73c-10.36,38.1-9.48,155.91-10.36,165.39,136.25,92.18,245.8,118.16,433.67,109.91,85.33-3.86,212.44-46,279-79.54C1313.78,917.93,1308.16,796.26,1308.16,796.26Z"
        transform="translate(-596.96 1.5)" />
    <polyline class="cls-9" points="549.67 384.99 575.66 373.75 571.27 413.95" />
    <polyline class="cls-9" points="177.98 379.02 152 367.78 156.56 407.99" />
    <line class="cls-10" x1="177.63" y1="331.26" x2="174.82" y2="483.13" />
    <line class="cls-10" x1="547.21" y1="331.26" x2="550.2" y2="483.13" />
    <path class="cls-6"
        d="M1158.4,272.87c8.25-82.69-16.33-129.92-35.12-153.1A267.21,267.21,0,0,0,957,62.89a271.74,271.74,0,0,0-144.14,40.56c-34.06,33.53-74.27,95-54.08,169.42a701.72,701.72,0,0,0,17.56,109c3.33-34.24,3.69-106.58,10.88-138.71a391.4,391.4,0,0,1,22.13-68.65c48.1-51.09,247.38-48.81,298.47,0A391.37,391.37,0,0,1,1130,243.2c7.2,32.13,7.55,105.35,13.35,137.13A663.37,663.37,0,0,0,1158.4,272.87Z"
        transform="translate(-596.96 1.5)" />
    <path class="cls-11"
        d="M937,320.81c-35.12-42.14-164.51-12.29-164.69-12.29,2.46,9.48,4.57,18.78,6.32,28.09,9.66,1.05,10.36,22.65,11.24,30.55,4.74,38.45,30.37,66.54,84.27,65.31a67.77,67.77,0,0,0,69-66.52v-.2A98.67,98.67,0,0,0,937,320.81Zm-6.32,47.05a56.17,56.17,0,0,1-56.33,56l-1.61,0a98.3,98.3,0,0,1-10,0c-53.55,0-62.85-47.06-63.91-76.73a32,32,0,0,1,28.62-33.36c9.83-.88,21.07-.88,33.89-.88,40,0,57.58,9.49,62.15,17.56A67.5,67.5,0,0,1,930.68,367.86Z"
        transform="translate(-596.96 1.5)" />
    <path class="cls-11"
        d="M974.57,365.75a67.77,67.77,0,0,0,68.77,66.76l1.46,0c53.9,1.23,79.54-27,84.28-65.31,0-7.9,1.4-29.5,11.06-30.55,1.93-9.31,4-18.61,6.32-28.09,0,0-129.93-29.85-164.51,12.29A93.23,93.23,0,0,0,974.57,365.75Zm19.67-35.11c4.56-7.73,22.12-17.56,62.15-17.56,12.82,0,23.88,0,33.88.88a31.79,31.79,0,0,1,28.8,33.18c-1,29.67-10.18,76.73-63.91,76.73a98.3,98.3,0,0,1-10,0,56.54,56.54,0,0,1-57.92-55.11c0-.3,0-.6,0-.9a68.65,68.65,0,0,1,7.38-38.28Z"
        transform="translate(-596.96 1.5)" />
    <path class="cls-11"
        d="M982.3,353.81a41,41,0,0,0-24.23-7,35.13,35.13,0,0,0-22.3,7c-2.46-6.67-4.74-13.16-7.2-19.66h60.75C987,340.65,984.75,347.14,982.3,353.81Z"
        transform="translate(-596.96 1.5)" />
    <path class="cls-10" d="M859.75,593s69,50.91,104.11,46.87,90.07-43,90.07-43" transform="translate(-596.96 1.5)" />

    <style>
            #rightEye, #leftEye {
                animation:Blink 8s infinite ease-in-out;
            }

            @keyframes Blink{
            0%{opacity: 0;}
            25%{opacity: 1;}
            45%{opacity: 1;}
            50%{opacity: 0;}
            65%{opacity: 1;}
            95%{opacity: 1;}
            100%{opacity: 0;}
        }
        </style>
</svg>