<svg id="Layer_1" data-name="Layer 1" xmlns="http://www.w3.org/2000/svg" viewBox="0 0 800.53 1076.22">
    <defs>
        <style>
            .cls-1,
            .cls-13,
            .cls-15 {
                fill: #472b29;
            }

            .cls-1,
            .cls-17,
            .cls-8 {
                stroke: #42210b;
                stroke-miterlimit: 10;
            }

            .cls-1,
            .cls-16,
            .cls-17,
            .cls-8 {
                stroke-width: 15px;
            }

            .cls-2 {
                fill: #d8ad8f;
            }

            .cls-3 {
                fill: #b2876b;
            }

            .cls-4 {
                opacity: 0.3;
            }

            .cls-5 {
                opacity: 0.8;
            }

            .cls-6 {
                fill: #f4989e;
            }

            .cls-11,
            .cls-16,
            .cls-7 {
                fill: none;
                stroke: #472b29;
                stroke-linecap: round;
                stroke-linejoin: round;
            }

            .cls-7 {
                stroke-width: 8px;
            }

            .cls-8 {
                fill: #6d1b18;
            }

            .cls-9 {
                fill: #ee3e54;
            }

            .cls-10 {
                fill: #fdfcef;
            }

            .cls-11 {
                stroke-width: 0.4px;
            }

            .cls-12 {
                fill: #83ccb7;
            }

            .cls-13 {
                opacity: 0.41;
                isolation: isolate;
            }

            .cls-14,
            .cls-17 {
                fill: #512c2b;
            }

            .cls-18 {
                fill: #00a5a5;
            }
        </style>
    </defs>
    <title>two-ponytails-hair-lady-with-green-glasses</title>
    <path class="cls-1"
        d="M853.71,53.65S692-51.89,594.59,102.54s104.68,348.6,37.49,403c80.84-30.74,82.22-156.5,49-259.11C651.94,156.26,713.78,107,784.78,129.66,815.18,139.68,853.71,53.65,853.71,53.65Z"
        transform="translate(-560.03 -7.24)" />
    <path class="cls-1"
        d="M1066.87,51.75S1228.56-53.62,1326,100.64,1221.31,449.07,1288.5,504c-80.84-30.75-82.22-156.51-49-259.12,29.19-90.17-32.65-139.4-103.65-116.77C1105.4,138.13,1066.87,51.75,1066.87,51.75Z"
        transform="translate(-560.03 -7.24)" />
    <path class="cls-2"
        d="M1167.58,296.19c2.25-26.09-5.52-48.72-3.8-61.67h0c-23-28.33-37.48-62-69.09-82.23a403.5,403.5,0,0,0-117.13-48.71C879.1,78.7,782.36,150.91,752,244l-1,1.73a340.23,340.23,0,0,1,6.39,50.78c-26.6,0-40.07,14-30.92,42,0,0,10.37,45.43,17.28,67a25.91,25.91,0,0,0,25.56,20.9v43.18a78.06,78.06,0,0,0,14.17,48.54c26.08,37.49,159.44,124.38,191.75,120.93,51.82,0,155.47-88.79,182.93-133a68.94,68.94,0,0,0,8.12-29.19V425.06a25.76,25.76,0,0,0,21.94-20.56c6.91-21.59,17.27-66.68,17.27-67C1214.74,310.87,1194.53,295.67,1167.58,296.19Z"
        transform="translate(-560.03 -7.24)" />
    <path class="cls-3"
        d="M1247.74,737.9a49.47,49.47,0,0,1-5.88-2.08l-10-4.14c-21.24-9.16-160-56.32-160-56.32a32.8,32.8,0,0,1-21.07-19,154.49,154.49,0,0,1-4.15-50.1,384.92,384.92,0,0,1-73.07,24.53c-32.13,3.29-89-39.21-89-39.21s-1.56,51.82-3.8,64.09a29.19,29.19,0,0,1-21.77,19.69l-133.7,44.57a131.69,131.69,0,0,0-37.49,15.72,133.84,133.84,0,0,0-55.79,80.84h-.87c0,1.73-.86,5.53-1.55,10.37-2.42,12.44-2.77,124.89-2.42,127,0,7.94-1.56,26.6-2.25,35.75C792,1078.2,835.05,1076,1017,1076c80,0,227.16-69.1,297-111.25C1305.78,802,1321.33,760,1247.74,737.9Z"
        transform="translate(-560.03 -7.24)" />
    <g class="cls-4">
        <g class="cls-5">
            <ellipse class="cls-6" cx="283.49" cy="438.72" rx="34.03" ry="34.55" />
        </g>
        <g class="cls-5">
            <ellipse class="cls-6" cx="544.68" cy="438.72" rx="34.03" ry="34.55" />
        </g>
    </g>
    <line class="cls-7" x1="199.71" y1="288.78" x2="214.04" y2="427.84" />
    <line class="cls-7" x1="611.18" y1="280.83" x2="602.72" y2="420.24" />
    <path class="cls-8"
        d="M911.75,516.44a31.78,31.78,0,0,0-1,8.12c0,24.18,26.6,43.7,59.6,43.7s59.08-19.52,59.08-43.7a32.45,32.45,0,0,0,0-8.12Z"
        transform="translate(-560.03 -7.24)" />
    <path class="cls-9" d="M1001.75,561.52a52.87,52.87,0,0,0-62.88,0A76.67,76.67,0,0,0,1001.75,561.52Z"
        transform="translate(-560.03 -7.24)" />
    <path class="cls-10"
        d="M928.85,516.44h0v7.43c0,6.39,8.64,11.74,19,11.74h45.26c10.37,0,19-5.35,19-11.74v-7.43H928.85Z"
        transform="translate(-560.03 -7.24)" />
    <path class="cls-11"
        d="M911.75,516.44a31.78,31.78,0,0,0-1,8.12c0,24.18,26.6,43.7,59.6,43.7s59.08-19.52,59.08-43.7a32.45,32.45,0,0,0,0-8.12Z"
        transform="translate(-560.03 -7.24)" />
    <path class="cls-12"
        d="M815.7,689.87c-3.8,155.47,300.58,165.32,279.5-11.57l84.3,29.88,24.36,316.13s-258.08,110-490.08,7.08l11.75-310.94Z"
        transform="translate(-560.03 -7.24)" />
    <path class="cls-13"
        d="M970.31,483.62a46,46,0,0,0,34.55-15.55,2.26,2.26,0,0,0,.11-3.18l-.11-.1h0a2.41,2.41,0,0,0-3.28,0,45.11,45.11,0,0,1-61.85,0,2.6,2.6,0,0,0-1.9,0,1.83,1.83,0,0,0-1.38,0,2.24,2.24,0,0,0-.11,3.17l.11.11A46,46,0,0,0,970.31,483.62Z"
        transform="translate(-560.03 -7.24)" />
    <path class="cls-13" d="M985.68,600.22a1.56,1.56,0,1,0,0-3.11H954.93a1.56,1.56,0,0,0,0,3.11h30.75Z"
        transform="translate(-560.03 -7.24)" />
    <path id="leftEyebrow" class="cls-14"
        d="M935.07,276.32A362.8,362.8,0,0,0,806.72,263a3.46,3.46,0,0,0-1.54,6.74,3.63,3.63,0,0,0,1.54,0s87.58,15.2,114.7,24.7h1.38a5.26,5.26,0,0,0,2.94-.86l10.54-11.75a2.78,2.78,0,0,0,0-2.94A4.13,4.13,0,0,0,935.07,276.32Z"
        transform="translate(-560.03 -7.24)" />
    <path id="rightEyebrow" class="cls-14"
        d="M1004,272.52a360.13,360.13,0,0,1,129-6.74,3.37,3.37,0,1,1-.17,6.74s-88.27,10.54-115.91,18.83h-1.38a4.34,4.34,0,0,1-3.46-1.55l-10-12.27a3.3,3.3,0,0,1,0-3.11A4.58,4.58,0,0,1,1004,272.52Z"
        transform="translate(-560.03 -7.24)" />
    <path id="leftEye" class="cls-15"
        d="M873.92,311.73A24.18,24.18,0,0,0,853,326.07a12.46,12.46,0,0,1,3.45,0,14.34,14.34,0,0,1,0,28.68,13.85,13.85,0,0,1-6.39-1.9,26.59,26.59,0,0,0,23.84,21.59,32.31,32.31,0,0,0,0-62.71Z"
        transform="translate(-560.03 -7.24)" />
    <path id="rightEye" class="cls-15"
        d="M1064.94,310.73c-7.61.33-14.6,5.32-18.66,13.35a10.83,10.83,0,0,1,4.49-1.29c7.92,0,14.34,8,14.33,17.87s-6.41,17.85-14.33,17.85c-4.4-.11-8.45-3-10.71-7.75,3.63,17,17.63,27.12,31.28,22.61s21.76-22,18.14-39C1086.52,320.52,1076.47,310.83,1064.94,310.73Z"
        transform="translate(-560.03 -7.24)" />
    <path class="cls-7" d="M889.46,599.87s59.26,32.13,90.7,29.54a245.91,245.91,0,0,0,76.35-28.33"
        transform="translate(-560.03 -7.24)" />
    <path class="cls-16"
        d="M1248.43,740.66a56.49,56.49,0,0,1-5.88-2.25l-10-4c-21.25-9.15-160-56.49-160-56.49a32.64,32.64,0,0,1-21.07-18.65,142.88,142.88,0,0,1-4.15-46.64A418.93,418.93,0,0,0,1158.77,509a69.09,69.09,0,0,0,8.81-29.37V427.82a25.56,25.56,0,0,0,21.94-20.56c6.91-21.59,17.28-66.68,17.28-67,9.15-28-11.06-42.32-37.66-41.81,0-7.42,0-18.65,1.21-17.27a82.38,82.38,0,0,0,7.25-29.71c0-107.8-95.87-195-214.2-195S748.51,144,748.51,251.79a76.3,76.3,0,0,0,8.11,28.33A173.84,173.84,0,0,1,758,298.78c-26.61,0-40.08,14-30.93,42,0,0,10.37,45.43,17.28,67a25.91,25.91,0,0,0,25.91,20.9v43.19A77.72,77.72,0,0,0,785,520.58C799,540.79,843.69,575,887.39,602c0,12.78-3.11,47-4.84,56.48A29.16,29.16,0,0,1,860.79,678L727.08,722.52a190.71,190.71,0,0,0-37.48,15.72C611.69,778,625.86,980.08,625.17,989.58c41.11,37.49,214.2,86.38,323.89,86.38a643.83,643.83,0,0,0,365-112.81C1310.27,843.1,1309.58,760,1248.43,740.66Z"
        transform="translate(-560.03 -7.24)" />
    <path class="cls-17"
        d="M965.64,14.79c-191.57,4.14-243.91,167-253.07,200.9,5-5.36,10.2-10.71,15.55-15.55C716.55,261,751.61,310.7,778,361.31,751.79,310.87,873.92,178,966,147.8c-5.53,9.5-10.54,19.17-15.2,28.85s-19.52,69.1-25.74,71A266.27,266.27,0,0,0,1041,157a87.33,87.33,0,0,0,13.3-28c-8.46,111.42,111.6,170.33,107.62,235.8C1254,190,1121.81,11.33,965.64,14.79Z"
        transform="translate(-560.03 -7.24)" />
    <path class="cls-18"
        d="M940.77,304.13c-38.87-47.33-185.18-13.82-185.36-13.82,2.77,10.71,5,21.25,7.09,31.79,10.88,1,11.57,25.39,12.61,34.55,5.35,43.18,34.55,75,95,73.41a76.18,76.18,0,0,0,77.56-74.77v-.2A107,107,0,0,0,940.77,304.13Zm-6.91,53a63.4,63.4,0,0,1-63.71,63.08l-1.59,0a80.94,80.94,0,0,1-11.23,0c-60.46,0-70.82-53-72-86.37a35.76,35.76,0,0,1,32.13-37.49c11.23-1,23.67-1,38.18-1,45.08,0,64.78,10.71,70,19.35A76.74,76.74,0,0,1,933.86,357.17Z"
        transform="translate(-560.03 -7.24)" />
    <path class="cls-18"
        d="M983.61,354.92a76,76,0,0,0,77,75h.54c60.81,1.56,89.66-30.23,95-73.41,1-9,1.73-33.34,12.61-34.55,2.08-10.54,4.32-21.08,7.08-31.79,0,0-146.48-33.51-185.35,13.82A107,107,0,0,0,983.61,354.92Zm22.11-40.25c5.18-8.64,24.88-19.35,69.1-19.35,14.51,0,27,0,38.18,1a35.77,35.77,0,0,1,32.13,37.49c-1.21,33.51-11.58,86.37-72,86.37a80.94,80.94,0,0,1-11.23,0,63.4,63.4,0,0,1-65.27-61.47c0-.53,0-1.06,0-1.58A76.78,76.78,0,0,1,1005.72,314.67Z"
        transform="translate(-560.03 -7.24)" />
    <path class="cls-18" d="M991.9,341.27a46.47,46.47,0,0,0-27.29-7.77,40.44,40.44,0,0,0-25.22,7.77l-7.95-21.93h69.1Z"
        transform="translate(-560.03 -7.24)" />



        <style>
            #rightEye, #leftEye {
                animation:Blink 8s infinite ease-in-out;
            }

            @keyframes Blink{
            0%{opacity: 0;}
            25%{opacity: 1;}
            45%{opacity: 1;}
            50%{opacity: 0;}
            65%{opacity: 1;}
            95%{opacity: 1;}
            100%{opacity: 0;}
        }
        </style>
</svg>