<svg id="Layer_1" data-name="Layer 1" xmlns="http://www.w3.org/2000/svg" viewBox="0 0 758.82 1067.23">
    <defs>
        <style>
            .cls-1 {
                fill: #e2b18d;
            }

            .cls-2 {
                fill: #cacaea;
            }

            .cls-3 {
                fill: #8889b9;
            }

            .cls-4,
            .cls-7,
            .cls-8,
            .cls-9 {
                fill: none;
                stroke-linejoin: round;
            }

            .cls-4 {
                stroke: #a1a1ca;
                stroke-width: 14px;
            }

            .cls-4,
            .cls-7,
            .cls-9 {
                stroke-linecap: round;
            }

            .cls-5 {
                fill: #e9c5aa;
                stroke-miterlimit: 10;
            }

            .cls-5,
            .cls-7,
            .cls-9 {
                stroke: #472b29;
            }

            .cls-5,
            .cls-8,
            .cls-9 {
                stroke-width: 8px;
            }

            .cls-6 {
                fill: #512c2b;
            }

            .cls-7 {
                stroke-width: 15px;
            }

            .cls-8 {
                stroke: #895d3d;
            }

            .cls-10 {
                fill: #6d1b18;
            }

            .cls-11 {
                fill: #ee3e54;
            }

            .cls-12 {
                fill: #fdfcef;
            }
        </style>
    </defs>
    <title>man-inviolet-shirt</title>
    <path class="cls-1"
        d="M1323.47,777.32c-7.51-39.4-23.46-62.49-61.39-73.3l-6.23-2.2-10.81-4.4c-23.46-9.71-159.8-60.47-159.8-60.47a34.26,34.26,0,0,1-22.72-19.79,158.58,158.58,0,0,1-4.21-53.33,872.29,872.29,0,0,1-91.63,26c-34.82,3.3-109.95-41.59-109.95-41.59s-1.65,55-4,68a31,31,0,0,1-24,20.71L698.22,684.41a144,144,0,0,0-40.5,16.68,137.8,137.8,0,0,0-57.91,76.23s-8.61,60.66-8.24,62.86c-.92,8.61-1.65,18.32-2.57,27.67,142.2,96.39,256.55,123.32,452.63,114.71,89.06-3.85,221.73-47.83,291.19-82.83C1329.33,822.22,1323.47,777.32,1323.47,777.32Z"
        transform="translate(-581.68 -9.74)" />
    <path class="cls-2"
        d="M1261.53,704.2l-6.23-2.2-10.81-4.39c-14.11-6.05-71.47-27.49-113.25-43.07h-2c-46,23.64-111.6,59-171.89,59s-120.76-32.07-172.07-59L779.58,656l-81.18,29.5a144,144,0,0,0-40.5,16.68A137.79,137.79,0,0,0,600,778.42s-8.62,60.66-8.25,62.86c-.92,8.61-1.65,99.87-2.57,110,142.21,96.39,256.56,123.32,452.63,114.71,89.06-3.85,221.74-47.83,291.19-82.83-3.66-77.51-10.08-204.32-10.08-204.32C1315.41,738.65,1299.46,715.56,1261.53,704.2Z"
        transform="translate(-581.68 -9.74)" />
    <path class="cls-3" d="M819.9,648.13l-55,20.16,110,139.45,96-100.24S827,676.17,819.9,648.13Z"
        transform="translate(-581.68 -9.74)" />
    <path class="cls-3" d="M1105.59,648.13l48.19,28L1050.24,807.74l-96-100.24S1098.44,676.17,1105.59,648.13Z"
        transform="translate(-581.68 -9.74)" />
    <line class="cls-4" x1="132.48" y1="940.39" x2="132.48" y2="1012.77" />
    <line class="cls-4" x1="614.98" y1="940.39" x2="614.98" y2="1025.6" />
    <path class="cls-5"
        d="M1181.63,291.15H1175c-18.33-.91-22.73,6.24-21.81-4.76,1.28-19.42-1.28-98.22-1.28-102.25,0-81.55-85.4-148.25-191.87-151.92h-4.21C849.22,35.89,764,102.59,764,184.14c0,4-2.74,82.83-1.28,102.25,0,11-4.21,3.85-22,4.77h-6.6a40.66,40.66,0,0,0-38.29,28.95c2.38,1.46,11.17,68.35,25.47,94.74,7.88,14.66,20.34,16.68,33.17,26.2a27.86,27.86,0,0,1,10.44,18.33A163.65,163.65,0,0,0,814,534.51c10.63,10.45,82.28,86.86,143.85,82.83s133.23-73.3,144-82.83A166.55,166.55,0,0,0,1151,459.38a28.28,28.28,0,0,1,10.26-18.33c12.83-9.52,25.29-11.54,33.36-26.2,14.29-26.39,23.08-93.28,25.47-94.74A40.71,40.71,0,0,0,1181.63,291.15Z"
        transform="translate(-581.68 -9.74)" />
    <path class="cls-6"
        d="M959,420.53a42.51,42.51,0,0,0,32.44-14.66,2.21,2.21,0,0,0,0-3.11h0a2.2,2.2,0,0,0-3.11,0h0a37.73,37.73,0,0,1-29.13,11.55A38.31,38.31,0,0,1,930,402.75a2.46,2.46,0,0,0-1.65,0,2.15,2.15,0,0,0-1.28,0,2.4,2.4,0,0,0,0,3.12A43.25,43.25,0,0,0,959,420.53Z"
        transform="translate(-581.68 -9.74)" />
    <path id="leftEyebrow" class="cls-6"
        d="M919.22,251.39l7.88-15.21A206.11,206.11,0,0,0,823,239.48l9.9,14.84A163.81,163.81,0,0,1,919.22,251.39Z"
        transform="translate(-581.68 -9.74)" />
    <path id="rightEyebrow" class="cls-6"
        d="M1087.26,251.39l7.88-15.21a206.11,206.11,0,0,0-104.09,3.3l10.08,14.84A163.35,163.35,0,0,1,1087.26,251.39Z"
        transform="translate(-581.68 -9.74)" />
    <path id="leftEye" class="cls-6"
        d="M870.84,273a22.17,22.17,0,0,0-18.32,13.38,9.55,9.55,0,0,1,3.11,0,13.38,13.38,0,0,1,0,26.76,11.54,11.54,0,0,1-5.86-1.84,24.37,24.37,0,0,0,22,20.89,30.24,30.24,0,0,0,0-58.64Z"
        transform="translate(-581.68 -9.74)" />
    <path id="rightEye" class="cls-6"
        d="M1046.4,273a21.27,21.27,0,0,0-18.33,10.08,8.8,8.8,0,0,1,4.21-.91,13.38,13.38,0,0,1,0,26.75,11.36,11.36,0,0,1-9.71-5.86,26.38,26.38,0,0,0,22.91,28.58,30.24,30.24,0,0,0,0-58.64Z"
        transform="translate(-581.68 -9.74)" />
    <path class="cls-6"
        d="M984.64,551a2.57,2.57,0,0,0,2.2-2.75,2.76,2.76,0,0,0-2.2-2.94h-47.1c-1.1,0-2,1.29-2,2.94s.91,2.75,2,2.75Z"
        transform="translate(-581.68 -9.74)" />
    <path class="cls-7"
        d="M1323.47,780.44c-7.51-39.22-23.46-62.31-61.39-73.3l-6.23-2.2-10.81-4.4c-23.46-10.08-159.8-60.29-159.8-60.29a34.84,34.84,0,0,1-22.72-19.79,119,119,0,0,1-4.76-42.15,484.06,484.06,0,0,0,43.79-34.09A168.12,168.12,0,0,0,1151,467.81a28.83,28.83,0,0,1,10.26-18.33c12.83-9.53,25.29-11.72,33.36-26.57a281.47,281.47,0,0,0,25.47-95.84,40.85,40.85,0,0,0-38.49-29.13H1175c-18.33,0-22.73,6.23-21.81-4.77,1.28-19.79-1.28-99.5-1.28-103.54,0-82.46-85.4-149.9-191.87-153.56h-4.21C849.22,39.73,764,107.17,764,189.63c0,4-2.74,83.75-1.28,103.54,0,11-4.21,3.85-22,4.77h-6.6a40.67,40.67,0,0,0-38.29,29.13,287.8,287.8,0,0,0,25.47,95.84c7.88,14.85,20.34,17,33.17,26.57a28.21,28.21,0,0,1,10.44,18.33A165,165,0,0,0,814,543.86a489.58,489.58,0,0,0,41.6,31.52c0,16.67-1.83,36.65-3.11,43.79a31.35,31.35,0,0,1-23.83,21.08L698.4,687.71a149.5,149.5,0,0,0-40.5,16.68A109.92,109.92,0,0,0,600,780.62c-10.82,39.76-9.9,162.73-10.82,172.62,142.21,96.39,256.55,123.33,452.63,114.72,89.06-3.85,221.74-47.83,291.19-83C1329.33,907.61,1323.47,780.44,1323.47,780.44Z"
        transform="translate(-581.68 -9.74)" />
    <polyline class="cls-8" points="573.2 340.06 600.32 328.14 595.74 370.29" />
    <polyline class="cls-8" points="185.25 333.82 158.13 321.91 162.9 364.06" />
    <line class="cls-9" x1="184.89" y1="283.8" x2="181.96" y2="442.31" />
    <line class="cls-9" x1="570.63" y1="283.8" x2="573.75" y2="442.31" />
    <path class="cls-6"
        d="M785,210.48a306.61,306.61,0,0,1,40.14-90,26.77,26.77,0,0,0-26.57-7.15A212.38,212.38,0,0,0,761.91,236a192.53,192.53,0,0,0,12.27,57.72C779.86,266.19,777.85,238.15,785,210.48Z"
        transform="translate(-581.68 -9.74)" />
    <path class="cls-6"
        d="M1131.42,210.48a301.7,301.7,0,0,0-40.13-90,26.94,26.94,0,0,1,26.57-7.15A212.7,212.7,0,0,1,1154.51,236a193,193,0,0,1-12.46,57.72C1136.74,266.19,1138.75,238.15,1131.42,210.48Z"
        transform="translate(-581.68 -9.74)" />
    <path class="cls-6"
        d="M980.79,136.67a185.79,185.79,0,0,0,110,2,123.71,123.71,0,0,0,73.3-84.3c-32.07,15.58-67.07-9.34-99-25.1A207.44,207.44,0,0,0,825,76.2c-32.25,34.45-47.83,65.06,5.5,56.26A333.5,333.5,0,0,1,980.79,136.67Z"
        transform="translate(-581.68 -9.74)" />
    <path class="cls-10"
        d="M916.64,489.47a24.64,24.64,0,0,0-.8,6.28c0,18.69,20.57,33.79,46.08,33.79s46.08-15.1,46.08-33.79a24.64,24.64,0,0,0-.8-6.28Z"
        transform="translate(-581.68 -9.74)" />
    <path id="tougn" class="cls-11" d="M983.77,524.7a40.49,40.49,0,0,0-48.19,0A58.84,58.84,0,0,0,983.77,524.7Z"
        transform="translate(-581.68 -9.74)" />
    <path id="teeth" class="cls-12"
        d="M927.9,490.14h0v5.7c0,4.89,6.62,9,14.56,9h34.69c7.94,0,14.56-4.11,14.56-9v-5.7H927.9Z"
        transform="translate(-581.68 -9.74)" />
    <path class="cls-9"
        d="M914.79,490.14a24.69,24.69,0,0,0-.79,6.23c0,18.53,20.39,33.49,45.67,33.49s45.68-15,45.68-33.49a24.25,24.25,0,0,0-.8-6.23Z"
        transform="translate(-581.68 -9.74)" />

        <style>
            #rightEye, #leftEye {
                animation:Blink 8s infinite ease-in-out;
            }

            @keyframes Blink{
            0%{opacity: 0;}
            25%{opacity: 1;}
            45%{opacity: 1;}
            50%{opacity: 0;}
            65%{opacity: 1;}
            95%{opacity: 1;}
            100%{opacity: 0;}
        }
        </style>
</svg>