<svg id="Layer_1" data-name="Layer 1" xmlns="http://www.w3.org/2000/svg" viewBox="0 0 680.22 1052.67">
    <defs>
        <style>
            .cls-1,
            .cls-11,
            .cls-13 {
                fill: #472b29;
            }

            .cls-1 {
                stroke: #42210b;
                stroke-miterlimit: 10;
            }

            .cls-1,
            .cls-14 {
                stroke-width: 15px;
            }

            .cls-2 {
                fill: #d8ad8f;
            }

            .cls-3 {
                opacity: 0.3;
            }

            .cls-4 {
                opacity: 0.8;
            }

            .cls-5 {
                fill: #f4989e;
            }

            .cls-14,
            .cls-6 {
                fill: none;
                stroke: #472b29;
                stroke-linecap: round;
                stroke-linejoin: round;
            }

            .cls-6 {
                stroke-width: 8px;
            }

            .cls-7 {
                fill: #6d1b18;
            }

            .cls-8 {
                fill: #ee3e54;
            }

            .cls-9 {
                fill: #fdfcef;
            }

            .cls-10 {
                fill: #8889b9;
            }

            .cls-11 {
                opacity: 0.41;
                isolation: isolate;
            }

            .cls-12 {
                fill: #512c2b;
            }

            .cls-15 {
                fill: #a1a1ca;
            }

            .cls-16 {
                fill: #fff;
            }
        </style>
    </defs>
    <title>Pigtail-hair-lady</title>
    <path class="cls-1"
        d="M1231.7,206.74a316.5,316.5,0,0,0-102-141.43,236.83,236.83,0,0,0-166.59-47,236.32,236.32,0,0,0-166.58,47A316.43,316.43,0,0,0,694.46,206.74a398.8,398.8,0,0,0,29.82,337,299.87,299.87,0,0,0,212.9,143.43v1.33h52.47v-1.33a299.86,299.86,0,0,0,212.73-143.43A398.81,398.81,0,0,0,1231.7,206.74Zm-269,413.63a731.48,731.48,0,0,1,0-477.44A731.48,731.48,0,0,1,962.66,620.37Z"
        transform="translate(-624.28 -8.83)" />
    <path class="cls-2"
        d="M1156.07,299.69c2.16-25.32-5.33-47-3.67-59.64h0c-22.15-27.48-36.15-59.8-66.63-79.46a393.87,393.87,0,0,0-112.94-47.14c-95-23.82-188.25,45.64-217.57,135.43l-1,1.67a335.35,335.35,0,0,1,5.83,49.14c-25.66,0-38.65,13.49-29.82,40.48,0,0,10,43.81,16.66,64.8a24.8,24.8,0,0,0,24.65,20v41.82a74.8,74.8,0,0,0,14.16,46.81C810.9,549.9,939.51,633.53,970.66,630.2c50,0,149.93-85.63,176.41-128.27a66.6,66.6,0,0,0,7.83-28.16v-50A25.15,25.15,0,0,0,1176.06,404c6.66-21,16.66-64.3,16.66-64.8C1201.21,312.68,1181.72,299.69,1156.07,299.69Z"
        transform="translate(-624.28 -8.83)" />
    <path class="cls-2"
        d="M1233.36,730.65a55.43,55.43,0,0,1-5.66-2.17l-9.66-3.83c-19.66-8.5-154.26-54.47-154.26-54.47a31.52,31.52,0,0,1-20.32-18,187.25,187.25,0,0,1-4.5-53.81,366.94,366.94,0,0,1-68.13,22.32c-31.16,3-87.46-31.32-87.46-31.32s-1.5,50-3.67,62a28,28,0,0,1-21,18.83l-128.93,43a131.78,131.78,0,0,0-36.15,15.15,129.59,129.59,0,0,0-54.64,78s-5,113.77-4.67,116.61c0,7.83-1.16,5.83-2,14.66,121.45,96.78,266.54,108.78,441.29,108.78,77,0,157.42-45.65,222.72-76.63C1289,812.77,1304.33,752.3,1233.36,730.65Z"
        transform="translate(-624.28 -8.83)" />
    <g class="cls-3">
        <g class="cls-4">
            <ellipse class="cls-5" cx="218.94" cy="434.79" rx="32.82" ry="33.32" />
        </g>
        <g class="cls-4">
            <ellipse class="cls-5" cx="470.82" cy="434.79" rx="32.82" ry="33.32" />
        </g>
    </g>
    <line class="cls-6" x1="138.15" y1="290.36" x2="151.81" y2="424.29" />
    <line class="cls-6" x1="534.96" y1="282.7" x2="526.79" y2="417.13" />
    <path class="cls-7"
        d="M909,511.59a32.16,32.16,0,0,0-1,8c0,23.16,25.66,42.15,57.48,42.15s57.47-19,57.47-42.15a32.16,32.16,0,0,0-1-8Z"
        transform="translate(-624.28 -8.83)" />
    <path id="toung" class="cls-8" d="M995.81,555.23a51,51,0,0,0-60.63,0A73.92,73.92,0,0,0,995.81,555.23Z"
        transform="translate(-624.28 -8.83)" />
    <path id="teeth" class="cls-9"
        d="M925.51,511.59v7.83c0,6.33,8.33,11.32,18.33,11.32h43.64c10,0,18.33-5,18.33-11.32v-7.83Z"
        transform="translate(-624.28 -8.83)" />
    <path class="cls-6"
        d="M909,511.59a32.16,32.16,0,0,0-1,8c0,23.16,25.66,42.15,57.48,42.15s57.47-19,57.47-42.15a32.16,32.16,0,0,0-1-8Z"
        transform="translate(-624.28 -8.83)" />
    <path class="cls-10"
        d="M842.72,680c25.66,21.49,216.56,31.66,268.37-11.32l81,28.82L1215,1012s-233.22,97.12-470.77-7.83L755.6,709.49Z"
        transform="translate(-624.28 -8.83)" />
    <path class="cls-11"
        d="M965.16,480.44a44.32,44.32,0,0,0,33.32-15,2.32,2.32,0,0,0,0-3.29l0,0h0a2.35,2.35,0,0,0-3.17,0,44,44,0,0,1-59.63,0,2.67,2.67,0,0,0-1.84-.83,1.8,1.8,0,0,0-1.33,0,2.34,2.34,0,0,0,0,3.3l0,0A44.36,44.36,0,0,0,965.16,480.44Z"
        transform="translate(-624.28 -8.83)" />
    <path class="cls-11" d="M980.32,592.38a1.5,1.5,0,0,0,0-3H950.67a1.5,1.5,0,0,0,0,3h29.65Z"
        transform="translate(-624.28 -8.83)" />
    <path id="leftEyebrow" class="cls-12"
        d="M931.85,279.7a349.87,349.87,0,0,0-124.11-13.33,3.5,3.5,0,0,0-3.33,3.17c0,1.66,1.16,3,3.16,3.5a1101.4,1101.4,0,0,1,110.62,23.82h1.33a4,4,0,0,0,3.5-1.33l10.16-11.16a2.85,2.85,0,0,0,0-3A3.33,3.33,0,0,0,931.85,279.7Z"
        transform="translate(-624.28 -8.83)" />
    <path id="rightEyebrow" class="cls-12"
        d="M998.48,276.37a351.08,351.08,0,0,1,124.27-6.5,3.67,3.67,0,0,1,3.17,3.33,3.51,3.51,0,0,1-3.33,3.34s-85.13,10.16-111.78,18h-1.34a4.18,4.18,0,0,1-3.33-1.5l-9.66-11.66a3.3,3.3,0,0,1,0-3A4,4,0,0,1,998.48,276.37Z"
        transform="translate(-624.28 -8.83)" />
    <path id="leftEye" class="cls-13"
        d="M872.37,314.18A23.32,23.32,0,0,0,852.22,328a11.61,11.61,0,0,1,3.33,0,13.83,13.83,0,0,1,0,27.49,11.6,11.6,0,0,1-6.16-1.84,25.65,25.65,0,0,0,23,21.66,31.15,31.15,0,0,0,0-60.64Z"
        transform="translate(-624.28 -8.83)" />
    <path id="rightEye" class="cls-13"
        d="M1055.45,314.18a22.35,22.35,0,0,0-18,10.5,9.58,9.58,0,0,1,4.33-1,13.83,13.83,0,0,1,0,27.49,12.36,12.36,0,0,1-10.33-6,24.66,24.66,0,1,0,24-31Z"
        transform="translate(-624.28 -8.83)" />
    <path class="cls-6" d="M887.53,592.05s57.14,31,87.46,28.48a233,233,0,0,0,73.46-27.15"
        transform="translate(-624.28 -8.83)" />
    <path class="cls-1"
        d="M1145.74,704.66c17.83-23.16,46.48-37.48,60.47-63.14a69.59,69.59,0,0,0,3.33-59,78.8,78.8,0,0,0-7.33-13.32,122.81,122.81,0,0,0-52.64-4.67,121.11,121.11,0,0,0-104,114.78,119.12,119.12,0,0,0,19.49,71.13A36,36,0,0,0,1129.58,737,86.7,86.7,0,0,1,1145.74,704.66Z"
        transform="translate(-624.28 -8.83)" />
    <path class="cls-1"
        d="M1132.91,716.15c-14,18.16-36.31,29.32-47.31,50a54.34,54.34,0,0,0-2.5,46,52.86,52.86,0,0,0,5.67,10.49,94,94,0,0,0,106.61-141.76,28.15,28.15,0,0,0-50,10.49A68.51,68.51,0,0,1,1132.91,716.15Z"
        transform="translate(-624.28 -8.83)" />
    <path class="cls-1"
        d="M1094.77,817.77a56.31,56.31,0,0,0-23.66,43.65c0,15,5.16,29.48,6.33,44.47A75.46,75.46,0,0,1,1050,969.53a102.12,102.12,0,0,0,138.94-96.95,76.86,76.86,0,0,0-11.83-41A61.12,61.12,0,0,0,1094.77,817.77Z"
        transform="translate(-624.28 -8.83)" />
    <path class="cls-14"
        d="M1297,973.69c-4-133.26,0-226.22-63.3-245.88l-5.67-2-9.66-4c-20.49-8.83-154.26-54.48-154.26-54.48a31,31,0,0,1-20.32-17.82,136.69,136.69,0,0,1-4-44.81,406.89,406.89,0,0,0,107.45-100,66.75,66.75,0,0,0,7.83-28.16v-50a24.84,24.84,0,0,0,21.16-19.82c6.66-20.83,16.65-64.31,16.65-64.64,8.83-27-10.66-41-36.31-40.48,0-7.16,0-18,1.16-16.66a78.1,78.1,0,0,0,7.33-28.65c0-103.78-92.45-188.08-206.56-188.08S751.6,152.6,751.6,256.38a74.92,74.92,0,0,0,7.83,27.49,168.54,168.54,0,0,1,1.33,17.82c-25.65,0-38.65,13.66-29.82,40.65,0,0,10,43.81,16.66,64.63a25,25,0,0,0,24.66,20.16v41.64a74.38,74.38,0,0,0,13.66,47.48c13.49,19.49,56.64,52.48,98.78,78.63-.83,12.16-3,45.14-4.66,54.31a27.68,27.68,0,0,1-21,18.82L730.11,711.16A173.69,173.69,0,0,0,694,726.32c-69.13,35.15-62.47,183.24-61.63,213.56A623.85,623.85,0,0,0,1297,974.36Z"
        transform="translate(-624.28 -8.83)" />
    <path class="cls-13"
        d="M960.66,71.47C894,50.15,704.62,138.1,756.6,284.7c2,0,22.65,85.62,56.14,114.61a86.26,86.26,0,0,1-17.49-73.8,213.7,213.7,0,0,1,20-55C886,237.22,939,152.6,961.33,133.94c21.16,17.82,80.79,94.62,143.43,131.1a229.06,229.06,0,0,1,22,60.47,87,87,0,0,1-16.66,73.8c33.32-29,54.14-114.61,56.14-114.61C1216.71,138.77,1027.13,49.81,960.66,71.47Z"
        transform="translate(-624.28 -8.83)" />
    <path class="cls-15"
        d="M989.82,113.78a220.1,220.1,0,0,0-130.11,9,206.91,206.91,0,0,0-100,90.12,215.09,215.09,0,0,1,92.29-105.12A243.45,243.45,0,0,1,994.31,81Z"
        transform="translate(-624.28 -8.83)" />
    <path class="cls-10"
        d="M1202.21,105l-3.83-.83a185.69,185.69,0,0,0-34.65,0,253.18,253.18,0,0,0-28.65,3.5l-11.5,1.5a33.11,33.11,0,0,0-8.32,2.83,11.82,11.82,0,0,0-2.17-1l-16.66-10-16.66-9.49a11.74,11.74,0,0,0-2-1.5,31.92,31.92,0,0,0-1.66-8.66c0-1.17-3.33-8.66-4.5-11-3.17-8.83-7-18-11.16-27a187.78,187.78,0,0,0-16.66-30.82,42.11,42.11,0,0,0-3-3.67s-33.32,1.67-65.3,59.47a122.09,122.09,0,0,0-10.33,45c0,6.5,0,9.33,5.83,10.5a85.93,85.93,0,0,0,29.49,5.16h11.66a238.34,238.34,0,0,0,42,.83c0,1,37.81,23.49,38.81,23.33a263,263,0,0,0,21.66,36.64c2.16,3.34,4.16,6.67,6.5,10a91.25,91.25,0,0,0,19,23.49c3.83,4.16,6.49,3.16,11.82,0a122.61,122.61,0,0,0,33.32-31.65C1217.21,135.1,1202.05,105.62,1202.21,105Z"
        transform="translate(-624.28 -8.83)" />
    <path class="cls-16"
        d="M1035.29,43.65a7,7,0,0,1-9.38,3.15l-.28-.15a7.66,7.66,0,0,1,7.5-13.16A7.49,7.49,0,0,1,1035.29,43.65Z"
        transform="translate(-624.28 -8.83)" />
    <path class="cls-16"
        d="M1010,74.13a7,7,0,0,1-9.38,3.15l-.28-.15A7.32,7.32,0,0,1,998.1,67c.12-.19.25-.37.38-.54a7.16,7.16,0,0,1,9.66-3,7.33,7.33,0,0,1,2.21,10.13A6.42,6.42,0,0,1,1010,74.13Z"
        transform="translate(-624.28 -8.83)" />
    <path class="cls-16"
        d="M998.48,112.12a7.33,7.33,0,0,1-9.66,3.16,7.5,7.5,0,0,1-2.34-10.16,7.17,7.17,0,0,1,9.65-3.1l.18.1A7.5,7.5,0,0,1,998.48,112.12Z"
        transform="translate(-624.28 -8.83)" />
    <path class="cls-16" d="M1051,77.8a7,7,0,0,1-9.38,3.15l-.28-.15a7.6,7.6,0,0,1,7.5-13.16A7.65,7.65,0,0,1,1051,77.8Z"
        transform="translate(-624.28 -8.83)" />
    <path class="cls-16"
        d="M1033.63,111.12a7.18,7.18,0,0,1-9.62,3.19l0,0a7.5,7.5,0,0,1-2.34-10.16,7.18,7.18,0,0,1,9.65-3.1l.18.1A7.5,7.5,0,0,1,1033.63,111.12Z"
        transform="translate(-624.28 -8.83)" />
    <path class="cls-16"
        d="M1068.94,110.12a7,7,0,0,1-9.38,3.14l-.28-.14a7.17,7.17,0,0,1-2.24-9.88l.08-.12a7,7,0,0,1,9.24-3.54l.42.21a7.32,7.32,0,0,1,2.31,10.1Z"
        transform="translate(-624.28 -8.83)" />
    <path class="cls-16"
        d="M1110.09,134.44a7,7,0,0,1-9.38,3.14l-.28-.14a7.5,7.5,0,0,1-2.17-10,7.18,7.18,0,0,1,9.62-3.19l0,0a7.33,7.33,0,0,1,2.18,10.13Z"
        transform="translate(-624.28 -8.83)" />
    <path class="cls-16"
        d="M1148.41,134.77a7.17,7.17,0,0,1-9.62,3.19l0,0a7.5,7.5,0,0,1-2.33-10.16,7.17,7.17,0,0,1,9.65-3.1l.18.1A7.49,7.49,0,0,1,1148.41,134.77Z"
        transform="translate(-624.28 -8.83)" />
    <path class="cls-16"
        d="M1186.39,133.11a7.17,7.17,0,0,1-9.62,3.18l0,0a7.49,7.49,0,0,1-2.34-10.16A7.17,7.17,0,0,1,1184,123l.18.1A7.5,7.5,0,0,1,1186.39,133.11Z"
        transform="translate(-624.28 -8.83)" />
    <path class="cls-16"
        d="M1173.39,170.59a7.33,7.33,0,0,1-9.82,3,7.67,7.67,0,0,1-2.17-10.17,7.15,7.15,0,0,1,9.66-3A7.5,7.5,0,0,1,1173.39,170.59Z"
        transform="translate(-624.28 -8.83)" />
    <path class="cls-16"
        d="M1150.24,202.07a7.34,7.34,0,0,1-9.66,3.17,7.5,7.5,0,0,1-2.34-10.16,7,7,0,0,1,9.39-3.15l.28.15A7.33,7.33,0,0,1,1150.24,202.07Z"
        transform="translate(-624.28 -8.83)" />
    <path class="cls-16"
        d="M1128.92,167.59a7.18,7.18,0,0,1-9.67,3,7.33,7.33,0,0,1-2.18-10.14l0,0a7,7,0,0,1,9.38-3.15l.28.15a7.32,7.32,0,0,1,2.18,10.13Z"
        transform="translate(-624.28 -8.83)" />


        <style>
            #rightEye, #leftEye {
                animation:Blink 8s infinite ease-in-out;
            }

            @keyframes Blink{
            0%{opacity: 0;}
            25%{opacity: 1;}
            45%{opacity: 1;}
            50%{opacity: 0;}
            65%{opacity: 1;}
            95%{opacity: 1;}
            100%{opacity: 0;}
        }
        </style>
</svg>