<svg id="Layer_1" data-name="Layer 1" xmlns="http://www.w3.org/2000/svg" viewBox="0 0 716.33 1076.84">
    <defs>
        <style>
            .cls-1 {
                fill: #ce9065;
            }

            .cls-2 {
                fill: #fdfcef;
            }

            .cls-3 {
                fill: #83ccb7;
            }

            .cls-10,
            .cls-11,
            .cls-4,
            .cls-5,
            .cls-9 {
                fill: none;
            }

            .cls-4 {
                stroke: #6fbca4;
            }

            .cls-11,
            .cls-12,
            .cls-4,
            .cls-9 {
                stroke-linecap: round;
            }

            .cls-10,
            .cls-11,
            .cls-12,
            .cls-4,
            .cls-5,
            .cls-9 {
                stroke-linejoin: round;
            }

            .cls-4,
            .cls-5 {
                stroke-width: 13px;
            }

            .cls-5 {
                stroke: #00a5a5;
                stroke-linecap: square;
            }

            .cls-6 {
                fill: #db9e71;
                stroke: #42210b;
            }

            .cls-10,
            .cls-11,
            .cls-6 {
                stroke-width: 8px;
            }

            .cls-7,
            .cls-8 {
                fill: #512c2b;
            }

            .cls-11,
            .cls-8,
            .cls-9 {
                stroke: #472b29;
            }

            .cls-8 {
                stroke-width: 4px;
            }

            .cls-9 {
                stroke-width: 15px;
            }

            .cls-10 {
                stroke: #895d3d;
            }

            .cls-12,
            .cls-14 {
                fill: #dd851d;
            }

            .cls-12 {
                stroke: #dd851d;
                stroke-width: 0.5px;
            }

            .cls-13 {
                fill: #ef9922;
            }

            .cls-14 {
                opacity: 0.54;
                isolation: isolate;
            }
        </style>
    </defs>
    <title>man-in-green-shirt</title>
    <path class="cls-1"
        d="M1303,792.62c-7.08-37.15-22.11-58.75-57.88-69.11a48.7,48.7,0,0,1-5.87-2.08l-10.2-4.14c-22.11-9.68-150.67-56.85-150.67-56.85a33,33,0,0,1-21.42-18.83,149.66,149.66,0,0,1-4-50.28,823.63,823.63,0,0,1-86.39,24.53c-32.83,3.28-103.67-39.22-103.67-39.22s-1.55,51.84-3.8,64.1a29.7,29.7,0,0,1-22.63,19.7L713.43,705a141.13,141.13,0,0,0-38.18,15.72,131.19,131.19,0,0,0-54.6,71.88s-8.12,57.37-7.78,59.27c-.86,8.12-1.55,17.27-2.42,26.26,134.08,90.71,241.9,116.28,426.78,108.16,84-3.63,209.07-45.09,274.56-78.27C1308.5,835.13,1303,792.62,1303,792.62Z"
        transform="translate(-602.95 1.43)" />
    <path class="cls-2"
        d="M1244.57,723.68a50.44,50.44,0,0,1-5.87-2.07l-10.2-4.15c-13.3-5.53-67.38-25.75-106.78-40.43h-1.9c-43.37,22.29-105.22,55.81-162.07,55.81S843.89,702.6,795.51,676.51l-5.36,1.38-76.54,27.82a141.19,141.19,0,0,0-38.19,15.72,131.19,131.19,0,0,0-54.6,71.88s-8.12,57.37-7.78,59.27c-.86,8.12-1.55,94.17-2.41,103.67,134.08,90.71,241.89,116.28,426.77,108.16,84-3.8,209.07-45.27,274.56-78.27-3.46-72.92-9.5-192.66-9.5-192.66C1295.37,756.16,1280.34,734.57,1244.57,723.68Z"
        transform="translate(-602.95 1.43)" />
    <path class="cls-3"
        d="M629.11,766c7.26-17.28,55.29-50.45,73.78-55.63L728,701h0l99.87-38.53c26.09,66.7,86.39,342,117.66,406.74a581.7,581.7,0,0,1-162.42-19.35,902.6,902.6,0,0,1-175.37-90.54C610.63,945.54,606.48,820.27,629.11,766Z"
        transform="translate(-602.95 1.43)" />
    <path class="cls-3"
        d="M1291.4,765.67A54.77,54.77,0,0,0,1253,729.21l-25-9.33h0L1090.79,668c-25.39,80.69-87.6,308.25-118.7,404.32a586.1,586.1,0,0,0,192.66-23.15c108.68-30.59,149.63-56.5,149.46-57.71C1312,977.67,1309.19,826.83,1291.4,765.67Z"
        transform="translate(-602.95 1.43)" />
    <line class="cls-4" x1="128.1" y1="957.34" x2="128.1" y2="1024.89" />
    <line class="cls-4" x1="580.11" y1="957.34" x2="580.11" y2="1036.82" />
    <line class="cls-5" x1="229.87" y1="680.88" x2="335.96" y2="1052.89" />
    <line class="cls-5" x1="481.28" y1="687.1" x2="376.91" y2="1052.89" />
    <path class="cls-6"
        d="M1169.24,334.22H1163c-17.28,0-17.28,4-16.42-6.39,1.39-18.32-5.35-90.71-5.35-94.34,0-77.06-80.52-139.78-180.91-143.41h-4c-100.56,3.63-180.91,66.35-180.91,143.41,0,3.63-2.59,77.92-1.21,96.24,0,10.37-4,3.8-20.73,4.49H747.3a38.54,38.54,0,0,0-36.11,27.3c2.24,1.38,10.54,64.45,24,89.33,7.43,13.83,19.18,15.9,31.28,24.71a26.63,26.63,0,0,1,9.85,17.28,152.84,152.84,0,0,0,46.3,71.53c10,9.85,77.58,81.9,135.64,78.27s125.61-69.11,135.81-78.27a155.43,155.43,0,0,0,46.3-70.67,27.18,27.18,0,0,1,9.68-17.28c12.09-8.81,23.84-10.88,31.45-24.7,13.47-24.88,21.77-88,24-89.33A38.53,38.53,0,0,0,1169.24,334.22Z"
        transform="translate(-602.95 1.43)" />
    <path class="cls-7"
        d="M959.31,456.21a40.1,40.1,0,0,0,30.58-13.82,1.73,1.73,0,0,0,.34-2.42,1.61,1.61,0,0,0-.34-.35h0a2.07,2.07,0,0,0-2.93,0h0a36.07,36.07,0,0,1-27.47,10.71A36.6,36.6,0,0,1,932,439.62a1.72,1.72,0,0,0-1.56,0,1.49,1.49,0,0,0-1.29,2.69.6.6,0,0,1,.08.08A40.77,40.77,0,0,0,959.31,456.21Z"
        transform="translate(-602.95 1.43)" />
    <path id="leftEyebrow" class="cls-7"
        d="M921.81,296.9l7.43-14.51a196.38,196.38,0,0,0-98.14,3.11l9.33,14A152.81,152.81,0,0,1,921.81,296.9Z"
        transform="translate(-602.95 1.43)" />
    <path id="rightEyebrow" class="cls-7"
        d="M1080.25,296.9l7.43-14.51a196.39,196.39,0,0,0-98.14,3.11l9.51,14A152.24,152.24,0,0,1,1080.25,296.9Z"
        transform="translate(-602.95 1.43)" />
    <path id="leftEye" class="cls-7"
        d="M876.2,317.12a20.88,20.88,0,0,0-17.28,12.61,9,9,0,0,1,2.93,0,12.62,12.62,0,0,1,0,25.23,11,11,0,0,1-5.52-1.73,23,23,0,0,0,20.73,19.7,28.51,28.51,0,0,0,0-55.29Z"
        transform="translate(-602.95 1.43)" />
    <path id="rightEye" class="cls-7"
        d="M1041.72,317.12a20,20,0,0,0-17.27,9.5,11,11,0,0,1,4-.86,12.61,12.61,0,0,1,0,25.22,10.71,10.71,0,0,1-9.16-5.53,24.72,24.72,0,0,0,21.6,27,28.51,28.51,0,0,0,0-55.29Z"
        transform="translate(-602.95 1.43)" />
    <path id="mouth" class="cls-8"
        d="M1050.88,488.35a2.09,2.09,0,0,0,0-2.94h0a1.91,1.91,0,0,0-2.69-.08l-.07.08a146.86,146.86,0,0,1-89,24.53A146.6,146.6,0,0,1,871,485.06a1.8,1.8,0,0,0-1.21,0,2.25,2.25,0,0,0-1.73,0,2.08,2.08,0,0,0,0,2.94h0a160.16,160.16,0,0,0,183,0Z"
        transform="translate(-602.95 1.43)" />
    <path class="cls-7"
        d="M788.42,272.71a412.56,412.56,0,0,1,39.4-107.3,23,23,0,0,0-25.92-8.29,291.83,291.83,0,0,0-36.29,146,265.5,265.5,0,0,0,12.27,69.12C783.41,339.75,781.34,305.19,788.42,272.71Z"
        transform="translate(-602.95 1.43)" />
    <path class="cls-7"
        d="M1130.19,272.71a406.72,406.72,0,0,0-39.57-107.3,23.15,23.15,0,0,1,26.09-8.29,290.23,290.23,0,0,1,36.46,146,265.08,265.08,0,0,1-12.27,69.12C1135.37,339.75,1137.45,305.19,1130.19,272.71Z"
        transform="translate(-602.95 1.43)" />
    <path class="cls-7"
        d="M983.5,579.4a2.59,2.59,0,0,0,2.07-2.76c0-1.38-1-2.76-2.07-2.76H939.09c-1,0-1.9,1.38-1.9,2.76s.86,2.76,1.9,2.76Z"
        transform="translate(-602.95 1.43)" />
    <path class="cls-9"
        d="M1303,795.73c-7.08-37.15-22.11-58.92-57.88-69.11l-5.87-2.08-10.72-4.66c-21.59-9.16-150.15-56.5-150.15-56.5a32.33,32.33,0,0,1-21.42-18.66,112.19,112.19,0,0,1-4.49-39.74,459.37,459.37,0,0,0,41.29-32.14A159.17,159.17,0,0,0,1140,501.31a27.11,27.11,0,0,1,9.67-18.32c12.1-9,23.85-10.89,31.45-25.05a265.57,265.57,0,0,0,24-90.2,38.37,38.37,0,0,0-36.29-27.64H1163c-17.28,0-17.28,3.28-17.28-7.09,1.38-18.66-5-91-5-94.86,0-77.92-80.52-141.33-180.91-145h-4c-100.56,3.63-180.91,67-180.91,145,0,3.81-2.59,79-1.21,97.45,0,10.37-4,3.63-20.73,4.5h-6.22a38.36,38.36,0,0,0-36.11,27.64,271.62,271.62,0,0,0,24,90.2C742.11,472.1,753.86,474,766,483a26.62,26.62,0,0,1,9.85,18.32,155.51,155.51,0,0,0,46.3,71.53,447.78,447.78,0,0,0,39.23,29.89c0,15.55-1.73,34.56-2.94,41.12a29.21,29.21,0,0,1-21.94,19.53l-123,44.75a135.89,135.89,0,0,0-38.18,15.72,103.65,103.65,0,0,0-54.6,71.88c-10.2,37.32-9.33,153.43-10.2,162.59,134.08,90.89,241.9,116.29,426.78,108.17,84-3.63,209.07-45.1,274.56-78.1C1308.5,915.3,1303,795.73,1303,795.73Z"
        transform="translate(-602.95 1.43)" />
    <polyline class="cls-10" points="541.06 390.95 566.63 379.89 562.31 419.46" />
    <polyline class="cls-10" points="175.27 385.07 149.7 373.84 154.19 413.58" />
    <line class="cls-11" x1="174.93" y1="338.07" x2="172.16" y2="487.36" />
    <line class="cls-11" x1="538.64" y1="338.07" x2="541.58" y2="487.36" />
    <path class="cls-12"
        d="M1142.73,344.68a43.43,43.43,0,0,1,2.31,6.12l3.38-2.45a61.15,61.15,0,0,0,6.76-8.39c2.67-19.23,4.44-38.64,5.16-49.3,8.36-77.28-16.54-121.33-35.58-143.19A286.22,286.22,0,0,0,955.62,95,291.73,291.73,0,0,0,809.77,133c-34.51,31.47-56.92,58.57-54.61,158.4,0,10,2.85,28,5.7,46.33a8.76,8.76,0,0,1,1.6,4.19,11,11,0,0,0,3.2,2.1c4.27,1.22,6.22-3.85,8.53-7.34a29.74,29.74,0,0,1,2.32-4,446.26,446.26,0,0,1,7.11-68.89A344.2,344.2,0,0,1,806,199.57c48.56-47.9,250.43-45.8,302.37,0a343.48,343.48,0,0,1,22.41,64.16C1136.15,281.39,1142,344.68,1142.73,344.68Z"
        transform="translate(-602.95 1.43)" />
    <path class="cls-13"
        d="M797.23,144.85a44.6,44.6,0,0,0,17.28,41.47A65.32,65.32,0,0,0,846,200.14a62.49,62.49,0,0,0,40.26-6.39,95.21,95.21,0,0,0,103.67,47,112.14,112.14,0,0,0,48.72-20.05,56.87,56.87,0,0,0,56,24.37,58.52,58.52,0,0,0,15.55-4.84,43.2,43.2,0,0,0,36.45,11.06,42,42,0,0,0,23-11.24c18.67-5.18,35.6-22.46,35.77-63.23A40.27,40.27,0,0,1,1182,196a45.73,45.73,0,0,0-5-11.05,41.75,41.75,0,0,0-40.2-66.19h0a52.2,52.2,0,0,0,0-17.28,53.92,53.92,0,0,0-61.69-44.75,51.86,51.86,0,0,0-14.34,4.32,8,8,0,0,0,0-2.07A65.66,65.66,0,0,0,984.19,7.14a67.72,67.72,0,0,0-48.38,32.48A90.59,90.59,0,0,0,884,33.23c-44.06,6.91-75,42.33-69.11,79.14"
        transform="translate(-602.95 1.43)" />
    <path class="cls-14"
        d="M1182,196.17a39.11,39.11,0,0,0-4.84-10.89,41.64,41.64,0,0,0-40.09-66h0a56.65,56.65,0,0,0,0-16.24,53,53,0,0,0-76-39.74V61.22A64.28,64.28,0,0,0,992,9.39a82.76,82.76,0,0,1,48.55,81.21v2.76a67,67,0,0,1,19.53-1,69.32,69.32,0,0,1,56.67,95.38h0a54.42,54.42,0,0,1,49.59,54.43l2.59-2.08c18.49-5.35,34.56-22.46,35.6-62.89A38.93,38.93,0,0,1,1182,196.17Z"
        transform="translate(-602.95 1.43)" />
    <path class="cls-9"
        d="M797.23,144.85a51.84,51.84,0,0,0,48.19,55.25l.71,0a62.49,62.49,0,0,0,40.26-6.39,95.21,95.21,0,0,0,103.67,47,112.18,112.18,0,0,0,48.73-20.05,56.85,56.85,0,0,0,56,24.37,58.52,58.52,0,0,0,15.55-4.84,43.22,43.22,0,0,0,36.46,11.06,42,42,0,0,0,23-11.24c18.66-5.18,35.59-22.46,35.76-63.23"
        transform="translate(-602.95 1.43)" />
    <path class="cls-9"
        d="M1159.91,339.75c2.94-20.91,5-42.33,5.7-53.56a261.31,261.31,0,0,0,1.21-41.3,42.82,42.82,0,0,0,8.64-6c19.18-5.19,36.8-22.47,37-63.24a39.91,39.91,0,0,1-24.54,19,43.26,43.26,0,0,0-5.87-10.36,40.64,40.64,0,0,0,8.12-31.62,43.37,43.37,0,0,0-49.77-34.56h0a51.39,51.39,0,0,0,0-16.42,55.63,55.63,0,0,0-63.93-44.92,60.37,60.37,0,0,0-14.68,4.49V59.15A68.09,68.09,0,0,0,982.46,7.31,71.55,71.55,0,0,0,932.35,39.8a96.44,96.44,0,0,0-53-6.4c-45.62,7.09-77.76,42.51-71.71,79.14l-14.86,27.82C764.92,167,747.64,200,750.06,286.71c0,10.36,3.11,28.85,6.05,47.69"
        transform="translate(-602.95 1.43)" />

        <style>
            #rightEye, #leftEye {
                animation:Blink 8s infinite ease-in-out;
            }

            @keyframes Blink{
            0%{opacity: 0;}
            25%{opacity: 1;}
            45%{opacity: 1;}
            50%{opacity: 0;}
            65%{opacity: 1;}
            95%{opacity: 1;}
            100%{opacity: 0;}
        }
        </style>
</svg>