<svg id="long-hair-lady" xmlns="http://www.w3.org/2000/svg" viewBox="0 0 684.04 1053.38">
    <defs>
        <style>
            .cls-1,
            .cls-16 {
                fill: #efa21b;
            }

            .cls-1,
            .cls-14,
            .cls-15,
            .cls-6 {
                stroke: #472b29;
            }

            .cls-1 {
                stroke-miterlimit: 10;
            }

            .cls-1,
            .cls-14 {
                stroke-width: 15px;
            }

            .cls-2 {
                fill: #f6cca4;
            }

            .cls-3 {
                fill: #edbc94;
            }

            .cls-4 {
                opacity: 0.8;
            }

            .cls-5 {
                fill: #f4989e;
            }

            .cls-14,
            .cls-15,
            .cls-6 {
                fill: none;
                stroke-linecap: round;
                stroke-linejoin: round;
            }

            .cls-6 {
                stroke-width: 8px;
            }

            .cls-7 {
                fill: #6d1b18;
            }

            .cls-8 {
                fill: #ee3e54;
            }

            .cls-9 {
                fill: #fdfcef;
            }

            .cls-10 {
                fill: #836f61;
            }

            .cls-11,
            .cls-13 {
                fill: #472b29;
            }

            .cls-11 {
                opacity: 0.41;
                isolation: isolate;
            }

            .cls-12 {
                fill: #512c2b;
            }

            .cls-15 {
                stroke-width: 11px;
            }

            .cls-17 {
                opacity: 0.27;
            }
        </style>
    </defs>
    <title>Long-hair-lady</title>
    <path class="cls-1"
        d="M1219.71,672.33c0,1.67,0,3-1,4.35a375.57,375.57,0,0,1-13,41.27,187.7,187.7,0,0,1-27.9,53.13,78.11,78.11,0,0,1-16.71,16.71,81.33,81.33,0,0,1-46.45,12.53h-284a79.62,79.62,0,0,1-48.12-13.7,76.35,76.35,0,0,1-15.54-14.87A188,188,0,0,1,739,718.62a377.73,377.73,0,0,1-13-41.27l-2-5C679.34,497.06,692.54,186.27,793.63,92.7a244.31,244.31,0,0,1,178.12-72,237.44,237.44,0,0,1,150.38,49.12,305.48,305.48,0,0,1,27.23,23.06,119.61,119.61,0,0,1,10,10.36C1251.45,207.66,1262.81,503.41,1219.71,672.33Z"
        transform="translate(-642.92 -13.12)" />
    <path class="cls-2"
        d="M1175.59,298.89c2.18-25.4-5.34-47.12-3.67-59.82h0c-22.22-27.57-36.26-60-66.84-79.7A395.14,395.14,0,0,0,991.8,112.09C896.56,88.19,803,157.87,773.58,247.93l-1,1.67a336.86,336.86,0,0,1,6.18,49.12c-25.73,0-38.76,13.54-29.91,40.61,0,0,10,44.11,16.71,65a25.23,25.23,0,0,0,24.73,20.22v41.77a75.06,75.06,0,0,0,14.2,47c25.23,36.42,154.22,120.3,185.47,117,50.13,0,150.38-85.89,177-128.66a67,67,0,0,0,7.85-28.24V423.21A25.24,25.24,0,0,0,1195.31,405C1202,384.11,1212,340.5,1212,340,1220.88,312.26,1201.33,298.39,1175.59,298.89Z"
        transform="translate(-642.92 -13.12)" />
    <path class="cls-3"
        d="M1252.79,726.14l-5.68-2-9.69-4c-20.55-8.85-154.73-54.64-154.73-54.64a31.08,31.08,0,0,1-20.38-18,150.08,150.08,0,0,1-3.84-48.79,369.16,369.16,0,0,1-70.68,23.56c-31.08,3-86-37.93-86-37.93s-1.51,50.12-3.68,62a27.75,27.75,0,0,1-21,18.88L747.68,708.26a280.62,280.62,0,0,0-36.26,15.2c-72.85,31.08-60.31,229.92-61,238.94,113.62,117,272.35,91.56,448.29,91.56a421.59,421.59,0,0,0,219.56-67.83C1311.1,829.4,1324,748,1252.79,726.14Z"
        transform="translate(-642.92 -13.12)" />
    <g id="leftChin" class="cls-4">
        <ellipse class="cls-5" cx="218.89" cy="430.63" rx="32.92" ry="33.42" />
    </g>
    <g id="rightChin" class="cls-4">
        <ellipse class="cls-5" cx="471.52" cy="430.63" rx="32.92" ry="33.42" />
    </g>
    <line class="cls-6" x1="137.85" y1="285.6" x2="151.55" y2="419.94" />
    <line class="cls-6" x1="535.85" y1="277.92" x2="527.66" y2="412.76" />
    <path class="cls-7"
        d="M930.64,495.72a31.06,31.06,0,0,0-1,7.85c0,23.4,25.9,42.28,57.65,42.28s57.64-18.88,57.64-42.28a30.62,30.62,0,0,0-1-7.85Z"
        transform="translate(-642.92 -13.12)" />
    <path id="toung" class="cls-8" d="M1017.53,538.66a51.13,51.13,0,0,0-60.82,0A74.13,74.13,0,0,0,1017.53,538.66Z"
        transform="translate(-642.92 -13.12)" />
    <path id="teeth" class="cls-9"
        d="M947.19,495.72v7.85c0,6.19,8.35,11.37,18.38,11.37h43.61c10,0,18.37-5.18,18.37-11.37v-7.85Z"
        transform="translate(-642.92 -13.12)" />
    <path class="cls-6"
        d="M930.64,495.72a31.06,31.06,0,0,0-1,7.85c0,23.4,25.9,42.28,57.65,42.28s57.64-18.88,57.64-42.28a30.62,30.62,0,0,0-1-7.85Z"
        transform="translate(-642.92 -13.12)" />
    <path class="cls-10"
        d="M834.9,679.52l47.29-16.71,97.74,228.74,75.36-185.8L1074,662.81l112.78,33.42,25.9,337s-240.27,70.52-481.22-22.39l16.71-302.26Z"
        transform="translate(-642.92 -13.12)" />
    <polygon class="cls-9"
        points="166.59 704.49 247.46 734.74 215.71 778.35 337.02 879.27 251.8 652.36 166.59 704.49" />
    <polygon class="cls-9"
        points="507.45 704.49 422.23 652.36 337.02 879.27 458.32 778.35 426.58 734.74 507.45 704.49" />
    <path class="cls-11"
        d="M987.29,463.31A30.62,30.62,0,0,0,1012,449.44a2.54,2.54,0,0,0,0-2.84h0a1.51,1.51,0,0,0-2.09-.42,1.4,1.4,0,0,0-.42.42,27.9,27.9,0,0,1-44.11,0,1.5,1.5,0,0,0-1.34,0,1.43,1.43,0,0,0-1,0,2.34,2.34,0,0,0,0,2.84A30.07,30.07,0,0,0,987.29,463.31Z"
        transform="translate(-642.92 -13.12)" />
    <path class="cls-11" d="M1002.16,576.76a1.51,1.51,0,0,0,0-3H972.42a1.51,1.51,0,1,0,0,3Z"
        transform="translate(-642.92 -13.12)" />
    <path class="cls-12"
        d="M953.7,278.17a346.5,346.5,0,0,0-124-13,3.27,3.27,0,1,0-.33,6.52s84.88,14.7,111.11,23.89h1.34a3.8,3.8,0,0,0,3.34-1.34l10.36-11.36a3,3,0,0,0,0-2.84A3.67,3.67,0,0,0,953.7,278.17Z"
        transform="translate(-642.92 -13.12)" />
    <path class="cls-12"
        d="M1020.54,274.83A351.08,351.08,0,0,1,1145,268.31a3.52,3.52,0,0,1,3.34,3.35A3.68,3.68,0,0,1,1145,275s-85.38,10.19-112.12,18h-1.34a4,4,0,0,1-3.34-1.5l-9.69-11.86a2.5,2.5,0,0,1,0-2.84A3.7,3.7,0,0,1,1020.54,274.83Z"
        transform="translate(-642.92 -13.12)" />
    <path id="leftEye" class="cls-13"
        d="M894.39,312.76a23,23,0,0,0-20,13.87,10.4,10.4,0,0,1,3.34,0,13.87,13.87,0,0,1,0,27.57,11.25,11.25,0,0,1-6.19-1.84,25.23,25.23,0,0,0,22.9,21.55,31.08,31.08,0,0,0,0-60.65Z"
        transform="translate(-642.92 -13.12)" />
    <path id="rightEye" class="cls-13"
        d="M1078.18,312.76a21.89,21.89,0,0,0-18,10.36,12.63,12.63,0,0,1,4.34-.84,13.87,13.87,0,0,1,0,27.57,12.18,12.18,0,0,1-10.36-6,24.73,24.73,0,1,0,24.06-31.08Z"
        transform="translate(-642.92 -13.12)" />
    <path class="cls-14"
        d="M1253.46,728.64a49,49,0,0,1-5.68-2l-9.69-4.18c-20.56-8.86-154.73-54.64-154.73-54.64a31.06,31.06,0,0,1-20.38-18,136.52,136.52,0,0,1-4-44.28,405.34,405.34,0,0,0,107.77-100.25,66.83,66.83,0,0,0,7.85-28.24V426.88A24.89,24.89,0,0,0,1195.81,407c6.69-20.89,16.71-64.5,16.71-64.83,8.86-27.07-10.69-41.11-36.42-40.6,0-7,0-18.05,1.17-16.71a78.61,78.61,0,0,0,7.35-28.91c0-104.26-92.74-188.81-207.19-188.81S770.07,151.69,770.07,256a74.9,74.9,0,0,0,7.86,27.4,170.21,170.21,0,0,1,1.33,18c-25.73,0-38.76,13.53-29.91,40.6,0,0,10,43.94,16.71,64.83a25.07,25.07,0,0,0,24.73,20.22v41.77A74.69,74.69,0,0,0,805,515.77c13.54,19.55,56.81,52.63,99.09,78.87-.84,12.2-3,45.45-4.68,54.47a27.73,27.73,0,0,1-21,18.88L749,711.27a174.19,174.19,0,0,0-36.26,15.2c-75.36,38.26-61,227.24-61.65,236.26,164.24,155.56,611.2,91.57,668.35,23.4C1311.1,829.4,1324.64,750.53,1253.46,728.64Z"
        transform="translate(-642.92 -13.12)" />
    <path class="cls-15" d="M906.25,594.47S963.56,625.54,994,623a234,234,0,0,0,73.69-27.24"
        transform="translate(-642.92 -13.12)" />
    <path class="cls-16"
        d="M984.11,32.89C802,36.9,753,216.68,758.21,212.17a284,284,0,0,0,39.1,160.91,320.56,320.56,0,0,1,15-108.94,180.83,180.83,0,0,0,7.85,50.12c-1.51-5.18,76.52-123.31,164.41-152.55-5.34,9.19-10.19,18.55-14.53,27.91s-18.55,66.83-24.4,68.67a253.67,253.67,0,0,0,110.11-87.22,83.53,83.53,0,0,0,12.7-27.07h6.68c0,2.17,1.51,4.35,2.34,6.35A253.34,253.34,0,0,0,1105.42,193c36.92,52,69.34,117,65.5,179.62,41.77-59.49,29.24-129.5,13.2-199.51C1184.62,171.07,1132.65,29.55,984.11,32.89Z"
        transform="translate(-642.92 -13.12)" />
    <g class="cls-17">
        <g class="cls-4">
            <circle class="cls-5" cx="286.64" cy="381.41" r="3.68" />
        </g>
        <g class="cls-4">
            <circle class="cls-5" cx="292.12" cy="409.79" r="3.68" />
        </g>
        <g class="cls-4">
            <circle class="cls-5" cx="319.52" cy="392.35" r="3.68" />
        </g>
        <g class="cls-4">
            <circle class="cls-5" cx="369.82" cy="388.95" r="3.68" />
        </g>
        <g class="cls-4">
            <circle class="cls-5" cx="385.71" cy="412.88" r="3.68" />
        </g>
        <g class="cls-4">
            <circle class="cls-5" cx="401.59" cy="387.45" r="3.68" />
        </g>
    </g>
    <path class="cls-15"
        d="M757.71,212.51a284,284,0,0,0,39.1,160.9A317.41,317.41,0,0,1,812,264.47a177.14,177.14,0,0,0,7.69,50.13c-1.51-5.35,76.52-123.31,164.41-152.72-5.34,9.19-10.19,18.55-14.53,27.9s-18.55,66.84-24.4,68.68a252.44,252.44,0,0,0,110.11-87.39,81,81,0,0,0,12.37-27.4h6.68c0,2,1.5,4.17,2.34,6.18a252.67,252.67,0,0,0,27.9,42.61c36.93,52,72.69,117,68.84,179.28"
        transform="translate(-642.92 -13.12)" />

        <style>
            #rightEye, #leftEye {
                animation:Blink 8s infinite ease-in-out;
            }

            @keyframes Blink{
            0%{opacity: 0;}
            25%{opacity: 1;}
            45%{opacity: 1;}
            50%{opacity: 0;}
            65%{opacity: 1;}
            95%{opacity: 1;}
            100%{opacity: 0;}
        }
        </style>
</svg>