<svg id="Layer_1" data-name="Layer 1" xmlns="http://www.w3.org/2000/svg" xmlns:xlink="http://www.w3.org/1999/xlink"
    viewBox="0 0 1046 824.1">
    <defs>
        <style>
            .cls-1,
            .cls-11,
            .cls-2 {
                fill: #f9bd18;
            }

            .cls-2 {
                fill-rule: evenodd;
            }

            .cls-3 {
                fill: #fbd111;
            }

            .cls-4 {
                fill: #f9c316;
            }

            .cls-5 {
                fill: #f9bc18;
            }

            .cls-6 {
                fill: #f9c415;
            }

            .cls-7 {
                fill: #fde30c;
            }

            .cls-8 {
                fill: #fdec08;
            }

            .cls-9 {
                fill: #fce10c;
            }

            .cls-10 {
                fill: url(#linear-gradient);
            }

            .cls-11 {
                isolation: isolate;
                font-size: 590.97px;
                font-family: ArialMT, Arial;
            }
        </style>
        <linearGradient id="linear-gradient" x1="729.71" y1="12.72" x2="909.12" y2="12.72"
            gradientTransform="matrix(0.78, 0, 0, -0.75, -88, 815.23)" gradientUnits="userSpaceOnUse">
            <stop offset="0" stop-color="#fded07" />
            <stop offset="0.2" stop-color="#fce00c" />
            <stop offset="0.71" stop-color="#f9c315" />
            <stop offset="1" stop-color="#f8b819" />
        </linearGradient>
    </defs>
    <title>gold</title>
    <g id="bubble">
        <path class="cls-1"
            d="M799.56,221.18c18.58,0,33.64-13.29,33.64-29.69s-15.06-29.69-33.64-29.69-33.63,13.29-33.63,29.69S781,221.18,799.56,221.18Z"
            transform="translate(-20 -126.41)" />
        <path class="cls-1"
            d="M698.65,503.27c9.29,0,16.82-6.65,16.82-14.85s-7.53-14.85-16.82-14.85-16.82,6.65-16.82,14.85S689.36,503.27,698.65,503.27Z"
            transform="translate(-20 -126.41)" />
        <path class="cls-1"
            d="M690.24,280.57c4.64,0,8.41-3.32,8.41-7.42s-3.77-7.43-8.41-7.43-8.41,3.33-8.41,7.43S685.59,280.57,690.24,280.57Z"
            transform="translate(-20 -126.41)" />
        <path class="cls-1"
            d="M808,414.19c4.65,0,8.41-3.33,8.41-7.43s-3.76-7.42-8.41-7.42-8.41,3.33-8.41,7.42S803.33,414.19,808,414.19Z"
            transform="translate(-20 -126.41)" />
        <path class="cls-1"
            d="M555.68,191.49c4.65,0,8.41-3.32,8.41-7.42s-3.76-7.43-8.41-7.43-8.41,3.33-8.41,7.43S551,191.49,555.68,191.49Z"
            transform="translate(-20 -126.41)" />
        <path class="cls-1"
            d="M606.14,651.73c4.64,0,8.41-3.32,8.41-7.42s-3.77-7.42-8.41-7.42-8.41,3.32-8.41,7.42S601.5,651.73,606.14,651.73Z"
            transform="translate(-20 -126.41)" />
        <path class="cls-1"
            d="M269.75,889.28c4.64,0,8.41-3.33,8.41-7.42s-3.77-7.43-8.41-7.43-8.41,3.33-8.41,7.43S265.11,889.28,269.75,889.28Z"
            transform="translate(-20 -126.41)" />
        <path class="cls-1"
            d="M866.84,340c9.29,0,16.82-6.65,16.82-14.85s-7.53-14.85-16.82-14.85S850,316.91,850,325.11,857.55,340,866.84,340Z"
            transform="translate(-20 -126.41)" />
        <path class="cls-1"
            d="M328.62,473.57c9.29,0,16.82-6.64,16.82-14.84s-7.53-14.85-16.82-14.85-16.82,6.65-16.82,14.85S319.33,473.57,328.62,473.57Z"
            transform="translate(-20 -126.41)" />
        <path class="cls-1"
            d="M160.42,354.8c9.29,0,16.82-6.65,16.82-14.84s-7.53-14.85-16.82-14.85S143.6,331.76,143.6,340,151.13,354.8,160.42,354.8Z"
            transform="translate(-20 -126.41)" />
        <path class="cls-1"
            d="M143.6,740.81c9.29,0,16.82-6.64,16.82-14.84s-7.53-14.85-16.82-14.85-16.82,6.65-16.82,14.85S134.32,740.81,143.6,740.81Z"
            transform="translate(-20 -126.41)" />
        <path class="cls-1"
            d="M749.11,933.82c9.29,0,16.82-6.65,16.82-14.85s-7.53-14.84-16.82-14.84-16.82,6.64-16.82,14.84S739.82,933.82,749.11,933.82Z"
            transform="translate(-20 -126.41)" />
        <path class="cls-1"
            d="M908.89,894.74c13.93,0,25.23-10,25.23-22.27s-11.3-22.27-25.23-22.27-25.23,10-25.23,22.27S895,894.74,908.89,894.74Z"
            transform="translate(-20 -126.41)" />
        <path class="cls-1"
            d="M337,295.42c13.93,0,25.23-10,25.23-22.27S351,250.88,337,250.88s-25.23,10-25.23,22.27S323.1,295.42,337,295.42Z"
            transform="translate(-20 -126.41)" />
        <path class="cls-1"
            d="M412.72,577.5c18.58,0,33.64-13.29,33.64-29.69s-15.06-29.7-33.64-29.7-33.64,13.3-33.64,29.7S394.14,577.5,412.72,577.5Z"
            transform="translate(-20 -126.41)" />
    </g>
    <g id="Lleaf">
        <path class="cls-2"
            d="M105.78,412.88l8.41-29.69c5,14.84,6.73,31.17,6.73,46v4.45c-3.37,8.91-13.46,14.85-23.55,13.37s-16.82-10.4-15.14-19.31c5-17.81,16.82-32.66,32-44.53Z"
            transform="translate(-20 -126.41)" />
        <path class="cls-2"
            d="M72.14,500.48C50.28,484.15,31.77,463.36,20,441.09l42.05,26.73L20,441.09a416.6,416.6,0,0,1,74,20.79c1.68,1.48,3.36,1.48,6.72,3,11.78,4.45,15.14,16.33,10.1,26.72-1.69,1.49-1.69,3-3.37,4.46C99.05,504.93,83.91,506.42,72.14,500.48Z"
            transform="translate(-20 -126.41)" />
        <path class="cls-2"
            d="M26.73,512.34c25.23,0,50.45,4.45,75.68,10.39,3.37,0,5,1.49,6.73,3,13.46,4.45,18.5,17.82,13.46,28.21v1.48a33.79,33.79,0,0,1-35.32,8.91A274.54,274.54,0,0,1,26.73,512.34Z"
            transform="translate(-20 -126.41)" />
        <path class="cls-2"
            d="M146.15,592.53C163,597,173.06,611.83,168,626.68,161.28,641.53,142.78,649,126,643h-1.68c-1.68,0-3.36-1.48-5-1.48-30.28-13.36-58.87-31.18-82.42-52a383.12,383.12,0,0,1,100.92,0c3.36,0,5,0,8.41,3Z"
            transform="translate(-20 -126.41)" />
        <path class="cls-2"
            d="M210.06,665.28c18.51,3,30.28,17.82,26.91,34.15-5,14.85-23.54,23.76-40.36,19.3h-3.37c-1.68,0-5-1.48-6.72-1.48-32-11.88-60.55-26.73-87.47-46,33.64-7.42,69-8.91,102.6-5.94Z"
            transform="translate(-20 -126.41)" />
        <path class="cls-2"
            d="M124.28,470.79,163,447A148.67,148.67,0,0,1,117.55,502c-11.77,5.94-26.91,4.45-35.32-4.45s-6.73-20.79,3.37-28.21l1.68-1.49c1.68-1.48,3.36-1.48,5-3a275.69,275.69,0,0,1,69-17.81Z"
            transform="translate(-20 -126.41)" />
        <path class="cls-2"
            d="M102.42,525.71l-3.37,3c-8.4,8.9-8.4,20.78,0,29.69,11.78,8.91,28.6,7.42,38.69-1.49l5-4.45c13.45-17.82,25.22-35.63,32-56.42A251.42,251.42,0,0,0,102.42,525.71Z"
            transform="translate(-20 -126.41)" />
        <path class="cls-2"
            d="M134.37,583.61l-1.68,1.48c-8.41,10.4-5,25.24,6.73,32.67a34,34,0,0,0,40.37-5.94c1.68-1.49,3.36-3,3.36-5.94,11.77-20.79,18.5-43.06,21.87-65.33-25.23,10.4-50.46,23.76-70.65,40.09C136.06,580.64,136.06,582.12,134.37,583.61Z"
            transform="translate(-20 -126.41)" />
        <path class="cls-2"
            d="M215.11,589.56a174.55,174.55,0,0,0-23.55,63.84c0,3-1.68,4.45-1.68,7.42,0,13.36,13.45,25.24,28.59,25.24h1.68c15.14,0,26.91-10.39,26.91-23.75v-1.49c0-1.48,0-4.45-1.68-5.94A158.63,158.63,0,0,0,215.11,589.56Z"
            transform="translate(-20 -126.41)" />
        <path class="cls-1"
            d="M341.25,746.93c-40.37-4.45-80.73-16.33-114.37-35.63-35.32-19.3-65.6-44.54-89.15-75.72S99.05,570.26,92.32,533.14c-6.73-35.63-1.68-72.75,13.46-106.89-6.73,34.14-3.37,69.78,5,103.92,10.09,32.66,25.23,65.33,47.1,93.54a328.41,328.41,0,0,0,80.73,74.23C268.93,717.24,304.25,733.57,341.25,746.93Z"
            transform="translate(-20 -126.41)" />
    </g>
    <g id="RLeaf">
        <path class="cls-2"
            d="M968.45,439.42V435a112.37,112.37,0,0,1,5-47.51l8.41,29.7-8.41-29.7c15.14,11.88,25.23,28.21,33.64,44.54,1.68,8.91-3.36,16.33-13.46,19.3C983.58,452.78,971.81,448.32,968.45,439.42Z"
            transform="translate(-20 -126.41)" />
        <path class="cls-2"
            d="M965.08,476.53,926.4,454.26c10.09,20.79,26.91,38.6,47.09,53.45,11.77,5.94,25.23,4.45,33.64-4.45s5-22.27-5-28.21c0,0-1.68,0-1.68-1.49-1.68-1.48-3.36-1.48-5-3-21.87-8.9-47.1-13.36-70.65-16.33Z"
            transform="translate(-20 -126.41)" />
        <path class="cls-2"
            d="M990.31,531.48c1.68,0,1.68,1.48,3.36,1.48,10.1,7.42,10.1,19.3,1.69,28.21l-1.69,1.48c-10.09,8.91-28.59,8.91-38.68,0l-5-4.45c-15.13-16.33-26.91-35.63-33.64-54.93,25.23,4.45,50.46,13.36,72.33,26.72C990.31,530,990.31,530,990.31,531.48Z"
            transform="translate(-20 -126.41)" />
        <path class="cls-2"
            d="M970.13,598.28l1.68,1.48c10.09,11.88,6.73,29.7-6.73,38.61-16.82,10.39-38.69,7.42-50.46-7.43-1.68-1.48-3.36-4.45-3.36-5.94A213.6,213.6,0,0,1,881,549.29c30.28,10.39,58.87,26.72,84.1,44.54C966.76,596.8,968.44,596.8,970.13,598.28Z"
            transform="translate(-20 -126.41)" />
        <path class="cls-2"
            d="M874.26,596.81a246.35,246.35,0,0,1,32,74.24c0,3,1.69,5.93,1.69,8.9,0,16.34-15.14,31.18-33.64,31.18s-33.64-11.88-33.64-28.21v-1.48c0-3,0-4.46,1.68-7.42C847.34,645.81,859.12,620.57,874.26,596.81Z"
            transform="translate(-20 -126.41)" />
        <path class="cls-2"
            d="M1024,492.89c18.5-14.85,32-32.67,42-52l-35.32,23.76,33.64-23.76c-21.87,4.46-42,11.88-62.23,20.79-1.69,0-3.37,1.48-5.05,3l-1.68,1.48h-1.68c-8.41,5.94-10.1,17.82-3.37,25.24C1000.4,497.34,1013.86,497.34,1024,492.89Z"
            transform="translate(-20 -126.41)" />
        <path class="cls-2"
            d="M1064.31,515.16c-25.22,0-52.14,5.94-75.68,13.36-3.37,0-5,1.48-6.73,3-13.46,4.45-18.5,17.81-13.46,29.69,8.41,10.39,23.55,13.36,35.32,7.42A245.55,245.55,0,0,0,1064.31,515.16Z"
            transform="translate(-20 -126.41)" />
        <path class="cls-2"
            d="M1059.27,589.37c-20.18,19.3-43.73,34.15-69,46-1.68,1.49-3.37,1.49-5,1.49H981.9c-13.46,4.45-30.28-1.49-35.32-13.36s3.36-25.24,16.82-29.7h3.36c1.68,0,5-1.48,6.73-1.48C1002.08,586.4,1030.68,584.92,1059.27,589.37Z"
            transform="translate(-20 -126.41)" />
        <path class="cls-2"
            d="M887.71,674c-16.82,3-28.59,19.3-25.23,34.15C869.21,723,886,730.41,902.85,726h3.36c1.68,0,3.36-1.49,5-1.49a439.52,439.52,0,0,0,87.46-49l-65.6,14.84L997,674c-33.64-5.94-67.28-5.94-100.92-3-1.68,0-5,0-6.73,1.49Z"
            transform="translate(-20 -126.41)" />
        <path class="cls-1"
            d="M759.88,758.62A396.53,396.53,0,0,0,860.8,705.17c30.27-20.79,55.5-46,77.37-75.72a285.55,285.55,0,0,0,43.73-93.53c8.41-34.15,8.41-69.78,3.36-103.93,16.82,34.15,21.87,69.78,16.82,106.9S981.9,610.15,960,641.33c-23.55,31.18-52.14,56.42-87.46,77.2C838.93,739.32,800.25,752.68,759.88,758.62Z"
            transform="translate(-20 -126.41)" />
    </g>
    <g id="LleafF">
        <path class="cls-2"
            d="M282.39,631.11c-1.68,25.24,0,84.63,18.5,118.77,11.77,17.82,35.32,25.24,57.19,19.3,20.18-7.42,30.27-29.69,21.86-47.5,0-1.49-1.68-1.49-1.68-3a31.11,31.11,0,0,0-6.73-8.91,425.54,425.54,0,0,0-89.14-78.69l35.32,66.81Z"
            transform="translate(-20 -126.41)" />
        <path class="cls-2"
            d="M316,730.61h3.37c23.55-3,43.73,10.39,50.46,29.69,1.68,19.3-13.46,37.12-35.32,40.09H321.07A547.13,547.13,0,0,1,189.88,779.6c35.32-22.27,75.69-38.6,117.74-49Z"
            transform="translate(-20 -126.41)" />
    </g>
    <g id="RleafF">
        <path class="cls-2"
            d="M818.75,642.83c1.68,22.27,3.36,72.75-11.78,102.44C798.56,761.6,776.7,769,758.2,763.09c-16.82-5.94-26.91-22.27-20.19-38.6,0-1.49,1.69-3,1.69-3,1.68-3,3.36-4.46,5-7.42,20.18-26.73,45.41-50.48,74-71.27l-28.6,57.9Z"
            transform="translate(-20 -126.41)" />
        <path class="cls-2"
            d="M783.43,740.8h-3.36c-23.55-1.48-43.73,13.36-48.78,32.66-1.68,19.3,15.14,37.12,37,38.6h13.46c45.41-3,89.14-10.39,131.19-25.24l-85.78-7.42,85.78,7.42a422.62,422.62,0,0,0-119.42-44.54C788.48,742.28,786.8,740.8,783.43,740.8Z"
            transform="translate(-20 -126.41)" />
    </g>
    <g id="rays">
        <path class="cls-3"
            d="M547.27,659.16h0c4.65,0,8.41,3.32,8.41,7.42v44.54c0,4.1-3.76,7.42-8.41,7.42h0c-4.64,0-8.41-3.32-8.41-7.42V666.58C538.86,662.48,542.63,659.16,547.27,659.16Z"
            transform="translate(-20 -126.41)" />
        <path class="cls-4"
            d="M651.25,694.1h0a6.82,6.82,0,0,1,0,10.5l-35.68,31.49a9.21,9.21,0,0,1-11.89,0h0a6.83,6.83,0,0,1,0-10.5l35.68-31.49A9.21,9.21,0,0,1,651.25,694.1Z"
            transform="translate(-20 -126.41)" />
        <path class="cls-5"
            d="M710.42,800.2h0c0,4.1-3.76,7.42-8.41,7.42H651.56c-4.65,0-8.41-3.32-8.41-7.42h0c0-4.1,3.76-7.42,8.41-7.42H702C706.66,792.78,710.42,796.1,710.42,800.2Z"
            transform="translate(-20 -126.41)" />
        <path class="cls-3"
            d="M548.65,891.12h0c4.65,0,8.41,3.32,8.41,7.42v44.54c0,4.1-3.76,7.43-8.41,7.43h0c-4.64,0-8.41-3.33-8.41-7.43V898.54C540.24,894.44,544,891.12,548.65,891.12Z"
            transform="translate(-20 -126.41)" />
        <path class="cls-6"
            d="M667.19,904.61h0a9.21,9.21,0,0,1-11.89,0l-35.68-31.49a6.82,6.82,0,0,1,0-10.5h0a9.21,9.21,0,0,1,11.89,0l35.68,31.5A6.81,6.81,0,0,1,667.19,904.61Z"
            transform="translate(-20 -126.41)" />
        <path class="cls-7"
            d="M429.84,694.1h0a6.83,6.83,0,0,0,0,10.5l35.68,31.49a9.21,9.21,0,0,0,11.89,0h0a6.82,6.82,0,0,0,0-10.5L441.73,694.1A9.21,9.21,0,0,0,429.84,694.1Z"
            transform="translate(-20 -126.41)" />
        <path class="cls-8"
            d="M387.49,800.2h0c0,4.1,3.76,7.42,8.41,7.42h50.46c4.64,0,8.41-3.32,8.41-7.42h0c0-4.1-3.77-7.42-8.41-7.42H395.9C391.25,792.78,387.49,796.1,387.49,800.2Z"
            transform="translate(-20 -126.41)" />
        <path class="cls-9"
            d="M422.52,901.86h0a9.23,9.23,0,0,0,11.9,0l35.68-31.49a6.83,6.83,0,0,0,0-10.5h0a9.23,9.23,0,0,0-11.9,0l-35.68,31.5A6.82,6.82,0,0,0,422.52,901.86Z"
            transform="translate(-20 -126.41)" />
    </g>
    <path id="sun" class="cls-10"
        d="M547.27,870.56c37.16,0,67.28-29,67.28-64.87s-30.12-64.88-67.28-64.88S480,769.85,480,805.69,510.12,870.56,547.27,870.56Z"
        transform="translate(-20 -126.41)" /><text id="One" class="cls-11"
        transform="translate(334.91 507.15) scale(1.03 1)">1</text>


        <style>

        #One{
            animation: opa2 4s ease-in-out ;
            transform-box: fill-box;
            transform-origin: center;
        }

        #rays{
            animation: anime 1s ease-in-out infinite;
            animation-delay: 5s;
            transform-box: fill-box;
            transform-origin: center;
            opacity: 0;
        }

        #bubble{
            animation: rotation 10s ease-in-out infinite;
            
        }

        #LleafF, #RleafF{
            animation: opa 2s ease-in-out;
        }

        #RLeaf{
            animation: rotation2 4s ease-out ;
        }

        #Lleaf{
            animation: rotation3 4s ease-out ;
        }


        @keyframes opa{
            0%{
                opacity: 0;
            }
            100%{
                opacity: 1;
            }
        }

        @keyframes opa2{
            0%{
                opacity: 0;
            }
            50%{
                opacity: 0;
            }
            100%{
                opacity: 1;
            }
        }

        @keyframes anime {
            0% {
                transform: scale(1,1,1);
                opacity: 1;
            }

            50% {
                transform: scale(2,2,1);
                opacity: 1;
            }

            100% {
                transform: scale(0,0);
                opacity: 1;
            }
        }

        @keyframes rotation {
            0% {
                transform: rotateZ(0deg);
                transform: scale(1));
                opacity :1;
                
            }
            33% {

                transform: rotateZ(360deg);
                transform: scale(2);
                transform-box: fill-box;
                transform-origin: center;
                opacity :0;
            }
        
            66% {
                transform: rotateZ(0deg);
                transform: scale(1));
                opacity :1;
                
            }
            100% {

                transform: rotateZ(360deg);
                transform: scale(2);
                transform-box: fill-box;
                transform-origin: center;
                opacity :0;
            }
        }


        @keyframes rotation2 {
            0% {
                transform: rotateZ(-180deg); 
                transform-origin: center;
                opacity: 0;
            }
            30% {
                transform: rotateZ(-180deg); 
                transform-origin: center;
                opacity: 0;
            }
            100% {

                transform: rotateZ(0deg);   
                opacity: 1;
            }
        }

         @keyframes rotation3 {
            0% {
                transform: rotateZ(180deg); 
                transform-origin: center;
                opacity: 0;
            }
            50% {
                transform: rotateZ(180deg); 
                transform-origin: center;
                opacity: 0;
            }
            100% {

                transform: rotateZ(0deg);   
                opacity: 1;
            }
        }


        @keyframes flot {
            0%{transform: translate(0px, 300px);
            opacity :1;
            }

            100%{transform: translate(-10px, -800px);
            opacity :0;
            }
        }



    </style>
</svg>