<svg id="Layer_2" data-name="Layer 2" xmlns="http://www.w3.org/2000/svg" xmlns:xlink="http://www.w3.org/1999/xlink"
    viewBox="0 0 1055 838.17">
    <defs>
        <style>
            .cls-1,
            .cls-2,
            .cls-8 {
                fill: #bdbdbd;
            }

            .cls-2 {
                fill-rule: evenodd;
            }

            .cls-3 {
                fill: #afafaf;
            }

            .cls-4 {
                fill: #b2b2b2;
            }

            .cls-5 {
                fill: #cbcbcb;
            }

            .cls-6 {
                fill: #ccc;
            }

            .cls-7 {
                fill: url(#linear-gradient);
            }

            .cls-8 {
                isolation: isolate;
                font-size: 600.78px;
                font-family: ArialMT, Arial;
            }
        </style>
        <linearGradient id="linear-gradient" x1="-740.76" y1="-348.23" x2="-740.76" y2="-540.26"
            gradientTransform="matrix(0.21, -0.75, -0.45, -0.13, 487.66, 189.71)" gradientUnits="userSpaceOnUse">
            <stop offset="0" stop-color="#ebebeb" />
            <stop offset="1" stop-color="#bdbdbd" />
        </linearGradient>
    </defs>
    <title>silver</title>
    <g id="bubble">
        <path class="cls-1"
            d="M800.14,210.48c18.89,0,34.2-13.51,34.2-30.18s-15.31-30.19-34.2-30.19S766,163.62,766,180.3,781.26,210.48,800.14,210.48Z"
            transform="translate(-16 -113.74)" />
        <path class="cls-1"
            d="M802.16,571.17c9.44,0,17.1-6.76,17.1-15.09S811.6,541,802.16,541s-17.1,6.74-17.1,15.09S792.71,571.17,802.16,571.17Z"
            transform="translate(-16 -113.74)" />
        <path class="cls-1"
            d="M689,270.85c4.72,0,8.55-3.37,8.55-7.54s-3.83-7.55-8.55-7.55-8.55,3.38-8.55,7.55S684.28,270.85,689,270.85Z"
            transform="translate(-16 -113.74)" />
        <path class="cls-1"
            d="M808.69,406.69c4.72,0,8.55-3.38,8.55-7.55s-3.83-7.54-8.55-7.54-8.55,3.38-8.55,7.54S804,406.69,808.69,406.69Z"
            transform="translate(-16 -113.74)" />
        <path class="cls-1"
            d="M333.23,170.53c4.74,0,8.55-3.38,8.55-7.55s-3.81-7.54-8.55-7.54-8.55,3.38-8.55,7.54S328.51,170.53,333.23,170.53Z"
            transform="translate(-16 -113.74)" />
        <path class="cls-1"
            d="M270.15,356.69c4.72,0,8.55-3.38,8.55-7.55s-3.83-7.55-8.55-7.55-8.54,3.39-8.54,7.55S265.44,356.69,270.15,356.69Z"
            transform="translate(-16 -113.74)" />
        <path class="cls-1"
            d="M261.54,889.67c4.72,0,8.55-3.38,8.55-7.55s-3.83-7.55-8.55-7.55S253,878,253,882.12,256.82,889.67,261.54,889.67Z"
            transform="translate(-16 -113.74)" />
        <path class="cls-1"
            d="M868.54,331.23c9.44,0,17.1-6.76,17.1-15.1S878,301,868.54,301s-17.1,6.76-17.1,15.09S859.09,331.23,868.54,331.23Z"
            transform="translate(-16 -113.74)" />
        <path class="cls-1"
            d="M321.38,467.06c9.45,0,17.1-6.75,17.1-15.09s-7.65-15.09-17.1-15.09-17.1,6.75-17.1,15.09S311.94,467.06,321.38,467.06Z"
            transform="translate(-16 -113.74)" />
        <path class="cls-1"
            d="M150.4,346.32c9.44,0,17.09-6.76,17.09-15.09s-7.65-15.1-17.09-15.1-17.1,6.76-17.1,15.1S141,346.32,150.4,346.32Z"
            transform="translate(-16 -113.74)" />
        <path class="cls-1"
            d="M133.3,738.74c9.44,0,17.1-6.76,17.1-15.1s-7.66-15.09-17.1-15.09-17.1,6.76-17.1,15.09S123.85,738.74,133.3,738.74Z"
            transform="translate(-16 -113.74)" />
        <path class="cls-1"
            d="M748.85,934.94c9.44,0,17.1-6.75,17.1-15.09s-7.66-15.09-17.1-15.09-17.1,6.76-17.1,15.09S739.4,934.94,748.85,934.94Z"
            transform="translate(-16 -113.74)" />
        <path class="cls-1"
            d="M911.28,895.22c14.16,0,25.65-10.14,25.65-22.64s-11.49-22.64-25.65-22.64-25.64,10.13-25.64,22.64S897.13,895.22,911.28,895.22Z"
            transform="translate(-16 -113.74)" />
        <path class="cls-1"
            d="M329.93,286c14.17,0,25.65-10.14,25.65-22.64s-11.48-22.64-25.65-22.64-25.65,10.13-25.65,22.64S315.77,286,329.93,286Z"
            transform="translate(-16 -113.74)" />
        <path class="cls-1"
            d="M351.08,578.3c18.9,0,34.2-13.53,34.2-30.19s-15.3-30.18-34.2-30.18-34.19,13.5-34.19,30.18S332.21,578.3,351.08,578.3Z"
            transform="translate(-16 -113.74)" />
    </g>
    <g id="Lleaf">
        <path class="cls-2"
            d="M103.2,408.15,111.75,378c5.13,15.09,6.84,31.69,6.84,46.78v4.53c-3.42,9.06-13.68,15.09-23.94,13.59s-17.1-10.57-15.39-19.63c5.13-18.11,17.1-33.2,32.49-45.27Z"
            transform="translate(-16 -113.74)" />
        <path class="cls-2"
            d="M69,497.21c-22.23-16.6-41-37.73-53-60.37L58.75,464,16,436.84A423.45,423.45,0,0,1,91.23,458c1.71,1.51,3.42,1.51,6.84,3,12,4.53,15.39,16.6,10.26,27.17-1.71,1.51-1.71,3-3.42,4.53C96.36,501.74,81,503.25,69,497.21Z"
            transform="translate(-16 -113.74)" />
        <path class="cls-2"
            d="M22.84,509.26c25.65,0,51.3,4.53,76.94,10.56,3.42,0,5.13,1.51,6.84,3,13.68,4.53,18.81,18.11,13.68,28.68V553a34.37,34.37,0,0,1-35.91,9.05A279.43,279.43,0,0,1,22.84,509.26Z"
            transform="translate(-16 -113.74)" />
        <path class="cls-2"
            d="M144.24,590.79c17.1,4.53,27.36,19.62,22.23,34.71-6.84,15.1-25.65,22.64-42.75,16.61H122c-1.71,0-3.42-1.51-5.13-1.51C86.1,627,57,608.9,33.1,587.77a388.92,388.92,0,0,1,102.59,0c3.42,0,5.13,0,8.55,3Z"
            transform="translate(-16 -113.74)" />
        <path class="cls-2"
            d="M209.21,664.75c18.81,3,30.78,18.11,27.36,34.71-5.13,15.09-23.94,24.15-41,19.62h-3.42c-1.71,0-5.13-1.51-6.84-1.51-32.49-12.07-61.56-27.17-88.92-46.79,34.2-7.54,70.11-9,104.3-6Z"
            transform="translate(-16 -113.74)" />
        <path class="cls-2"
            d="M122,467l39.33-24.15a151,151,0,0,1-46.17,55.84c-12,6-27.36,4.53-35.91-4.52s-6.83-21.13,3.42-28.68L84.39,464c1.71-1.51,3.42-1.51,5.13-3a280.11,280.11,0,0,1,70.11-18.11Z"
            transform="translate(-16 -113.74)" />
        <path class="cls-2"
            d="M99.78,522.86l-3.42,3c-8.55,9-8.55,21.13,0,30.18,12,9.06,29.07,7.55,39.33-1.51l5.13-4.52c13.68-18.12,25.65-36.23,32.49-57.36A255.8,255.8,0,0,0,99.78,522.86Z"
            transform="translate(-16 -113.74)" />
        <path class="cls-2"
            d="M132.27,581.72l-1.71,1.51c-8.55,10.56-5.13,25.66,6.84,33.2a34.59,34.59,0,0,0,41-6c1.71-1.51,3.42-3,3.42-6,12-21.13,18.8-43.77,22.22-66.41-25.64,10.57-51.29,24.15-71.81,40.75C134,578.7,134,580.21,132.27,581.72Z"
            transform="translate(-16 -113.74)" />
        <path class="cls-2"
            d="M214.34,587.77a177.6,177.6,0,0,0-23.93,64.9c0,3-1.71,4.53-1.71,7.55,0,13.58,13.67,25.66,29.06,25.66h1.71c15.39,0,27.36-10.57,27.36-24.15v-1.51c0-1.51,0-4.53-1.71-6A161.36,161.36,0,0,0,214.34,587.77Z"
            transform="translate(-16 -113.74)" />
        <path class="cls-1"
            d="M342.58,747.76c-41-4.53-82.07-16.6-116.27-36.23-35.9-19.62-66.68-45.27-90.62-77S96.36,568.15,89.52,530.42c-6.84-36.22-1.71-74,13.68-108.67-6.84,34.71-3.42,70.94,5.13,105.65,10.26,33.21,25.65,66.41,47.88,95.09A333.85,333.85,0,0,0,238.28,698C269.06,717.57,305,734.17,342.58,747.76Z"
            transform="translate(-16 -113.74)" />
    </g>
    <g id="LleafF">
        <path class="cls-2"
            d="M282.74,630c-1.71,25.66,0,86,18.81,120.75,12,18.11,35.9,25.65,58.13,19.62,20.52-7.55,30.78-30.19,22.23-48.3,0-1.51-1.71-1.51-1.71-3a31.42,31.42,0,0,0-6.84-9,432.42,432.42,0,0,0-90.62-80l35.91,67.92Z"
            transform="translate(-16 -113.74)" />
        <path class="cls-2"
            d="M316.94,731.16h3.42c23.93-3,44.45,10.56,51.29,30.18,1.71,19.62-13.68,37.73-35.91,40.75H322.07A555.74,555.74,0,0,1,188.7,781c35.9-22.64,76.94-39.24,119.69-49.8Z"
            transform="translate(-16 -113.74)" />
    </g>
    <g id="RLeaf">
        <path class="cls-2"
            d="M971.83,432.34v-4.53a114.26,114.26,0,0,1,5.13-48.3l8.55,30.19L977,379.51c15.38,12.08,25.64,28.68,34.19,45.28,1.71,9.06-3.42,16.6-13.68,19.62C987.22,445.92,975.25,441.39,971.83,432.34Z"
            transform="translate(-16 -113.74)" />
        <path class="cls-2"
            d="M968.41,470.07l-39.33-22.64c10.26,21.13,27.36,39.24,47.88,54.33,12,6,25.64,4.53,34.19-4.52s5.13-22.64-5.13-28.68c0,0-1.71,0-1.71-1.51-1.71-1.51-3.42-1.51-5.13-3-22.22-9-47.87-13.58-71.81-16.6Z"
            transform="translate(-16 -113.74)" />
        <path class="cls-2"
            d="M994.05,525.92c1.71,0,1.71,1.51,3.42,1.51,10.26,7.55,10.26,19.63,1.71,28.68l-1.71,1.51c-10.25,9.06-29.06,9.06-39.32,0L953,553.09c-15.39-16.6-27.36-36.22-34.2-55.84,25.65,4.53,51.3,13.58,73.52,27.17C994.05,524.42,994.05,524.42,994.05,525.92Z"
            transform="translate(-16 -113.74)" />
        <path class="cls-2"
            d="M973.53,593.84l1.71,1.51c10.26,12.07,6.84,30.18-6.84,39.24-17.09,10.56-39.32,7.54-51.29-7.55-1.71-1.51-3.42-4.53-3.42-6a217,217,0,0,1-30.78-77c30.78,10.57,59.85,27.17,85.49,45.28C970.11,592.33,971.82,592.33,973.53,593.84Z"
            transform="translate(-16 -113.74)" />
        <path class="cls-2"
            d="M876.07,592.35a250.27,250.27,0,0,1,32.49,75.46c0,3,1.71,6,1.71,9.06,0,16.6-15.39,31.69-34.2,31.69s-34.19-12.07-34.19-28.67v-1.51c0-3,0-4.53,1.71-7.55C848.72,642.15,860.69,616.49,876.07,592.35Z"
            transform="translate(-16 -113.74)" />
        <path class="cls-2"
            d="M1028.25,486.7c18.81-15.1,32.49-33.21,42.75-52.83L1035.09,458l34.2-24.15c-22.23,4.53-42.75,12.07-63.26,21.13-1.71,0-3.42,1.51-5.13,3l-1.71,1.51h-1.71c-8.55,6-10.26,18.11-3.42,25.66C1004.32,491.22,1018,491.22,1028.25,486.7Z"
            transform="translate(-16 -113.74)" />
        <path class="cls-2"
            d="M1069.29,509.33c-25.65,0-53,6-76.95,13.59-3.42,0-5.13,1.51-6.84,3-13.68,4.52-18.8,18.11-13.68,30.18,8.55,10.57,23.94,13.59,35.91,7.55A249.88,249.88,0,0,0,1069.29,509.33Z"
            transform="translate(-16 -113.74)" />
        <path class="cls-2"
            d="M1064.16,584.78c-20.52,19.62-44.46,34.71-70.11,46.79-1.71,1.51-3.42,1.51-5.13,1.51H985.5c-13.68,4.52-30.77-1.51-35.9-13.59s3.42-25.66,17.1-30.18h3.41c1.71,0,5.13-1.51,6.84-1.51C1006,581.76,1035.09,580.25,1064.16,584.78Z"
            transform="translate(-16 -113.74)" />
        <path class="cls-2"
            d="M889.75,670.81c-17.1,3-29.07,19.62-25.65,34.71,6.84,15.09,23.94,22.64,41,18.11h3.42c1.71,0,3.42-1.51,5.13-1.51a446.54,446.54,0,0,0,88.91-49.8l-66.68,15.09,65-16.6c-34.2-6-68.39-6-102.59-3-1.71,0-5.13,0-6.84,1.51Z"
            transform="translate(-16 -113.74)" />
        <path class="cls-1"
            d="M759.8,756.84A403.2,403.2,0,0,0,862.39,702.5c30.78-21.13,56.43-46.79,78.65-77a290.18,290.18,0,0,0,44.46-95.09c8.55-34.71,8.55-70.94,3.42-105.65,17.1,34.71,22.23,70.94,17.1,108.67S985.5,605.91,963.27,637.6c-23.94,31.7-53,57.35-88.91,78.48C840.16,737.21,800.84,750.8,759.8,756.84Z"
            transform="translate(-16 -113.74)" />
    </g>
    <g id="RleafF">
        <path class="cls-2"
            d="M819.64,639.13c1.71,22.64,3.42,74-12,104.14-8.54,16.6-30.77,24.15-49.58,18.11-17.1-6-27.36-22.64-20.52-39.24,0-1.51,1.71-3,1.71-3,1.71-3,3.42-4.53,5.13-7.55,20.52-27.16,46.17-51.31,75.23-72.44L790.58,698Z"
            transform="translate(-16 -113.74)" />
        <path class="cls-2"
            d="M783.74,738.72h-3.42c-23.93-1.51-44.45,13.59-49.58,33.21-1.71,19.62,15.39,37.73,37.61,39.24H782c46.17-3,90.63-10.57,133.37-25.66L828.2,778l87.2,7.55A429.46,429.46,0,0,0,794,740.23C788.87,740.23,787.16,738.72,783.74,738.72Z"
            transform="translate(-16 -113.74)" />
    </g>
    <g id="rays">
        <path class="cls-1"
            d="M543.66,655.72h0c4.73,0,8.55,3.38,8.55,7.55v45.28c0,4.17-3.82,7.55-8.55,7.55h0c-4.72,0-8.55-3.38-8.55-7.55V663.27C535.11,659.1,538.94,655.72,543.66,655.72Z"
            transform="translate(-16 -113.74)" />
        <path class="cls-3"
            d="M649.37,691.25h0a6.93,6.93,0,0,1,0,10.67l-36.27,32a9.39,9.39,0,0,1-12.09,0h0a6.94,6.94,0,0,1,0-10.68l36.27-32A9.36,9.36,0,0,1,649.37,691.25Z"
            transform="translate(-16 -113.74)" />
        <path class="cls-4"
            d="M709.52,799.11h0c0,4.17-3.82,7.54-8.55,7.54H649.68c-4.72,0-8.55-3.37-8.55-7.54h0c0-4.17,3.83-7.55,8.55-7.55H701C705.7,791.56,709.52,794.94,709.52,799.11Z"
            transform="translate(-16 -113.74)" />
        <path class="cls-1"
            d="M545.07,891.54h0c4.72,0,8.55,3.38,8.55,7.54v45.28c0,4.17-3.83,7.55-8.55,7.55h0c-4.73,0-8.55-3.38-8.55-7.55V899.08C536.52,894.92,540.34,891.54,545.07,891.54Z"
            transform="translate(-16 -113.74)" />
        <path class="cls-1"
            d="M665.57,905.25h0a9.36,9.36,0,0,1-12.09,0l-36.27-32a6.93,6.93,0,0,1,0-10.67h0a9.36,9.36,0,0,1,12.09,0l36.27,32A6.93,6.93,0,0,1,665.57,905.25Z"
            transform="translate(-16 -113.74)" />
        <path class="cls-1"
            d="M424.28,691.25h0a6.93,6.93,0,0,0,0,10.67l36.27,32a9.39,9.39,0,0,0,12.09,0h0a6.94,6.94,0,0,0,0-10.68l-36.27-32A9.36,9.36,0,0,0,424.28,691.25Z"
            transform="translate(-16 -113.74)" />
        <path class="cls-5"
            d="M381.23,799.11h0c0,4.17,3.83,7.54,8.55,7.54h51.29c4.72,0,8.55-3.37,8.55-7.54h0c0-4.17-3.83-7.55-8.55-7.55H389.78C385.06,791.56,381.23,794.94,381.23,799.11Z"
            transform="translate(-16 -113.74)" />
        <path class="cls-6"
            d="M416.84,902.46h0a9.38,9.38,0,0,0,12.1,0l36.27-32a6.93,6.93,0,0,0,0-10.67h0a9.36,9.36,0,0,0-12.09,0l-36.28,32A7,7,0,0,0,416.84,902.46Z"
            transform="translate(-16 -113.74)" />
    </g>
    <path id="sun" class="cls-7"
        d="M543.66,870.63c37.78,0,68.4-29.52,68.4-65.94s-30.62-66-68.4-66-68.39,29.52-68.39,66S505.89,870.63,543.66,870.63Z"
        transform="translate(-16 -113.74)" /><text id="Two" class="cls-8"
        transform="translate(351.65 515.56) scale(1.03 1)">2</text>


         <style>

        #Two{
            animation: opa2 4s ease-in-out ;
            transform-box: fill-box;
            transform-origin: center;
        }

        #rays{
            animation: anime 1s ease-in-out infinite;
            animation-delay: 5s;
            transform-box: fill-box;
            transform-origin: center;
            opacity: 0;
        }

        #bubble{
            animation: rotation 10s ease-in-out infinite;
            
        }

        #LleafF, #RleafF{
            animation: opa 2s ease-in-out;
        }

        #RLeaf{
            animation: rotation2 4s ease-out ;
        }

        #Lleaf{
            animation: rotation3 4s ease-out ;
        }


        @keyframes opa{
            0%{
                opacity: 0;
            }
            100%{
                opacity: 1;
            }
        }

        @keyframes opa2{
            0%{
                opacity: 0;
            }
            50%{
                opacity: 0;
            }
            100%{
                opacity: 1;
            }
        }

        @keyframes anime {
            0% {
                transform: scale(1,1,1);
                opacity: 1;
            }

            50% {
                transform: scale(2,2,1);
                opacity: 1;
            }

            100% {
                transform: scale(0,0);
                opacity: 1;
            }
        }

        @keyframes rotation {
            0% {
                transform: rotateZ(0deg);
                transform: scale(1));
                opacity :1;
                
            }
            33% {

                transform: rotateZ(360deg);
                transform: scale(2);
                transform-box: fill-box;
                transform-origin: center;
                opacity :0;
            }
        
            66% {
                transform: rotateZ(0deg);
                transform: scale(1));
                opacity :1;
                
            }
            100% {

                transform: rotateZ(360deg);
                transform: scale(2);
                transform-box: fill-box;
                transform-origin: center;
                opacity :0;
            }
        }


        @keyframes rotation2 {
            0% {
                transform: rotateZ(-180deg); 
                transform-origin: center;
                opacity: 0;
            }
            30% {
                transform: rotateZ(-180deg); 
                transform-origin: center;
                opacity: 0;
            }
            100% {

                transform: rotateZ(0deg);   
                opacity: 1;
            }
        }

         @keyframes rotation3 {
            0% {
                transform: rotateZ(180deg); 
                transform-origin: center;
                opacity: 0;
            }
            50% {
                transform: rotateZ(180deg); 
                transform-origin: center;
                opacity: 0;
            }
            100% {

                transform: rotateZ(0deg);   
                opacity: 1;
            }
        }


        @keyframes flot {
            0%{transform: translate(0px, 300px);
            opacity :1;
            }

            100%{transform: translate(-10px, -800px);
            opacity :0;
            }
        }



    </style>
</svg>