<svg id="Layer_3" data-name="Layer 3" xmlns="http://www.w3.org/2000/svg" xmlns:xlink="http://www.w3.org/1999/xlink"
    viewBox="0 0 1048 848">
    <defs>
        <style>
            .cls-1,
            .cls-10,
            .cls-2 {
                fill: #cd7f32;
            }

            .cls-2 {
                fill-rule: evenodd;
            }

            .cls-3 {
                fill: #db852f;
            }

            .cls-4 {
                fill: #e48e37;
            }

            .cls-5 {
                fill: #df9953;
            }

            .cls-6 {
                fill: #cc8c4b;
            }

            .cls-7 {
                fill: #de9247;
            }

            .cls-8 {
                fill: #e89f55;
            }

            .cls-9 {
                fill: url(#linear-gradient);
            }

            .cls-10 {
                isolation: isolate;
                font-size: 606.21px;
                font-family: ArialMT, Arial;
            }
        </style>
        <linearGradient id="linear-gradient" x1="605.96" y1="14.37" x2="785.7" y2="14.37"
            gradientTransform="matrix(0.78, 0, 0, -0.75, 5.19, 815.23)" gradientUnits="userSpaceOnUse">
            <stop offset="0" stop-color="#eabd90" />
            <stop offset="0.2" stop-color="#e59f59" />
            <stop offset="0.71" stop-color="#e4903b" />
            <stop offset="1" stop-color="#d07d2a" />
        </linearGradient>
    </defs>
    <title>browns</title>
    <g id="bubble">
        <path class="cls-1"
            d="M797.06,204.87c18.61,0,33.7-13.63,33.7-30.46S815.67,144,797.06,144s-33.71,13.64-33.71,30.46S778.44,204.87,797.06,204.87Z"
            transform="translate(-16 -105)" />
        <path class="cls-1"
            d="M799,568.82c9.31,0,16.86-6.82,16.86-15.23s-7.55-15.23-16.86-15.23-16.85,6.81-16.85,15.23S789.72,568.82,799,568.82Z"
            transform="translate(-16 -105)" />
        <path class="cls-1"
            d="M687.52,265.79c4.65,0,8.43-3.41,8.43-7.62s-3.78-7.61-8.43-7.61-8.43,3.41-8.43,7.61S682.87,265.79,687.52,265.79Z"
            transform="translate(-16 -105)" />
        <path class="cls-1"
            d="M805.48,402.85c4.65,0,8.43-3.41,8.43-7.61s-3.78-7.62-8.43-7.62-8.42,3.41-8.42,7.62S800.83,402.85,805.48,402.85Z"
            transform="translate(-16 -105)" />
        <path class="cls-1"
            d="M336.89,164.56c4.67,0,8.42-3.41,8.42-7.61s-3.75-7.62-8.42-7.62-8.43,3.41-8.43,7.62S332.24,164.56,336.89,164.56Z"
            transform="translate(-16 -105)" />
        <path class="cls-1"
            d="M603.26,646.52c4.65,0,8.43-3.41,8.43-7.61s-3.78-7.62-8.43-7.62-8.42,3.41-8.42,7.62S598.61,646.52,603.26,646.52Z"
            transform="translate(-16 -105)" />
        <path class="cls-1"
            d="M266.23,890.19c4.65,0,8.42-3.41,8.42-7.61s-3.77-7.62-8.42-7.62-8.43,3.41-8.43,7.62S261.58,890.19,266.23,890.19Z"
            transform="translate(-16 -105)" />
        <path class="cls-1"
            d="M864.46,326.71c9.31,0,16.85-6.82,16.85-15.23s-7.54-15.23-16.85-15.23-16.85,6.82-16.85,15.23S855.15,326.71,864.46,326.71Z"
            transform="translate(-16 -105)" />
        <path class="cls-1"
            d="M325.21,463.77c9.31,0,16.85-6.82,16.85-15.23s-7.54-15.23-16.85-15.23-16.85,6.82-16.85,15.23S315.9,463.77,325.21,463.77Z"
            transform="translate(-16 -105)" />
        <path class="cls-1"
            d="M156.69,341.94c9.31,0,16.85-6.82,16.85-15.23s-7.54-15.23-16.85-15.23-16.85,6.82-16.85,15.23S147.39,341.94,156.69,341.94Z"
            transform="translate(-16 -105)" />
        <path class="cls-1"
            d="M139.84,737.9c9.31,0,16.85-6.82,16.85-15.23s-7.54-15.23-16.85-15.23S123,714.26,123,722.67,130.53,737.9,139.84,737.9Z"
            transform="translate(-16 -105)" />
        <path class="cls-1"
            d="M746.5,935.88c9.31,0,16.85-6.82,16.85-15.23s-7.54-15.23-16.85-15.23-16.85,6.82-16.85,15.23S737.19,935.88,746.5,935.88Z"
            transform="translate(-16 -105)" />
        <path class="cls-1"
            d="M906.59,895.8c13.95,0,25.28-10.24,25.28-22.85s-11.33-22.84-25.28-22.84S881.31,860.33,881.31,873,892.64,895.8,906.59,895.8Z"
            transform="translate(-16 -105)" />
        <path class="cls-1"
            d="M333.63,281c14,0,25.28-10.23,25.28-22.85s-11.32-22.84-25.28-22.84-25.27,10.23-25.27,22.84S319.67,281,333.63,281Z"
            transform="translate(-16 -105)" />
        <path class="cls-1"
            d="M354.48,576c18.62,0,33.7-13.64,33.7-30.46s-15.08-30.46-33.7-30.46-33.7,13.63-33.7,30.46S335.88,576,354.48,576Z"
            transform="translate(-16 -105)" />
    </g>
    <g id="Lleaf">
        <path class="cls-2"
            d="M101.94,401.51l8.43-30.46c5,15.23,6.74,32,6.74,47.21v4.57c-3.37,9.14-13.48,15.23-23.59,13.71s-16.86-10.66-15.17-19.8c5.05-18.28,16.85-33.5,32-45.69Z"
            transform="translate(-16 -105)" />
        <path class="cls-2"
            d="M68.24,491.37C46.33,474.62,27.8,453.3,16,430.45l42.13,27.42L16,430.45a410.08,410.08,0,0,1,74.15,21.32c1.68,1.53,3.37,1.53,6.74,3.05,11.79,4.57,15.16,16.75,10.11,27.41-1.69,1.53-1.69,3-3.37,4.57C95.2,495.94,80,497.46,68.24,491.37Z"
            transform="translate(-16 -105)" />
        <path class="cls-2"
            d="M22.74,503.54c25.28,0,50.55,4.56,75.83,10.66,3.37,0,5.06,1.52,6.74,3,13.48,4.57,18.54,18.28,13.48,28.94v1.52a33.31,33.31,0,0,1-35.38,9.14A277.23,277.23,0,0,1,22.74,503.54Z"
            transform="translate(-16 -105)" />
        <path class="cls-2"
            d="M142.39,585.8c16.85,4.57,27,19.8,21.9,35-6.74,15.22-25.27,22.84-42.12,16.75h-1.69c-1.68,0-3.37-1.53-5.06-1.53-30.33-13.7-59-32-82.57-53.3a374.55,374.55,0,0,1,101.11,0c3.37,0,5.06,0,8.43,3Z"
            transform="translate(-16 -105)" />
        <path class="cls-2"
            d="M206.43,660.42c18.53,3.05,30.33,18.28,27,35-5.06,15.23-23.59,24.37-40.44,19.8h-3.37c-1.69,0-5.06-1.52-6.75-1.52-32-12.19-60.66-27.42-87.62-47.21,33.7-7.62,69.09-9.14,102.79-6.1Z"
            transform="translate(-16 -105)" />
        <path class="cls-2"
            d="M120.48,460.92l38.76-24.37a151.7,151.7,0,0,1-45.5,56.35c-11.8,6.09-27,4.57-35.39-4.57S71.61,467,81.72,459.39l1.69-1.52c1.68-1.52,3.37-1.52,5-3a270.69,270.69,0,0,1,69.09-18.28Z"
            transform="translate(-16 -105)" />
        <path class="cls-2"
            d="M98.58,517.25l-3.37,3c-8.43,9.14-8.43,21.32,0,30.46,11.79,9.14,28.64,7.62,38.75-1.52l5.06-4.57c13.48-18.27,25.28-36.55,32-57.87A248.66,248.66,0,0,0,98.58,517.25Z"
            transform="translate(-16 -105)" />
        <path class="cls-2"
            d="M130.59,576.64l-1.68,1.53c-8.43,10.66-5.06,25.89,6.74,33.5a33.5,33.5,0,0,0,40.44-6.09c1.69-1.52,3.37-3.05,3.37-6.09,11.8-21.32,18.54-44.17,21.91-67-25.28,10.66-50.55,24.36-70.78,41.12C132.28,573.6,132.28,575.12,130.59,576.64Z"
            transform="translate(-16 -105)" />
        <path class="cls-2"
            d="M211.48,582.75a181.8,181.8,0,0,0-23.59,65.48c0,3-1.69,4.57-1.69,7.62,0,13.7,13.48,25.89,28.65,25.89h1.69c15.16,0,27-10.66,27-24.37v-1.52c0-1.53,0-4.57-1.69-6.09A164.43,164.43,0,0,0,211.48,582.75Z"
            transform="translate(-16 -105)" />
        <path class="cls-1"
            d="M337.86,744.18c-40.44-4.57-80.88-16.75-114.59-36.55C187.88,687.83,157.55,661.94,134,630S95.2,563,88.46,524.87c-6.74-36.55-1.69-74.62,13.48-109.65-6.74,35-3.37,71.58,5.06,106.61,10.11,33.5,25.27,67,47.18,95.94a332,332,0,0,0,80.89,76.15C265.4,713.72,300.79,730.47,337.86,744.18Z"
            transform="translate(-16 -105)" />
    </g>
    <g id="LleafF">
        <path class="cls-2"
            d="M278.89,625.37c-1.69,25.89,0,86.81,18.54,121.84,11.79,18.27,35.38,25.89,57.29,19.79,20.22-7.61,30.33-30.46,21.91-48.73,0-1.52-1.69-1.52-1.69-3a31.69,31.69,0,0,0-6.74-9.13,429.37,429.37,0,0,0-89.31-80.72l35.39,68.53Z"
            transform="translate(-16 -105)" />
        <path class="cls-2"
            d="M312.59,727.43H316c23.59-3,43.82,10.66,50.56,30.46C368.2,777.69,353,796,331.13,799H317.65A536.4,536.4,0,0,1,186.2,777.69c35.39-22.84,75.84-39.6,118-50.26Z"
            transform="translate(-16 -105)" />
    </g>
    <g id="RLeaf">
        <path class="cls-2"
            d="M966.26,428.73v-4.57a117.88,117.88,0,0,1,5-48.73l8.43,30.46-8.43-30.46c15.17,12.18,25.28,28.93,33.71,45.69,1.68,9.13-3.37,16.75-13.48,19.8C981.43,442.44,969.63,437.87,966.26,428.73Z"
            transform="translate(-16 -105)" />
        <path class="cls-2"
            d="M962.89,466.81,924.13,444c10.11,21.32,27,39.6,47.18,54.83,11.8,6.09,25.28,4.57,33.71-4.57s5.05-22.85-5.06-28.94c0,0-1.68,0-1.68-1.52-1.69-1.52-3.37-1.52-5.06-3.05C971.31,451.58,946,447,922.44,444Z"
            transform="translate(-16 -105)" />
        <path class="cls-2"
            d="M988.17,523.17c1.68,0,1.68,1.52,3.37,1.52,10.11,7.61,10.11,19.8,1.68,28.93l-1.68,1.53c-10.11,9.14-28.65,9.14-38.76,0l-5.06-4.57c-15.16-16.75-27-36.55-33.7-56.35,25.28,4.57,50.55,13.71,72.46,27.41C988.17,521.64,988.17,521.64,988.17,523.17Z"
            transform="translate(-16 -105)" />
        <path class="cls-2"
            d="M967.94,591.69l1.69,1.53c10.11,12.18,6.74,30.45-6.74,39.59-16.86,10.66-38.76,7.62-50.56-7.61-1.68-1.53-3.37-4.57-3.37-6.09a222,222,0,0,1-30.33-77.67c30.33,10.66,59,27.41,84.26,45.68C964.57,590.17,966.26,590.17,967.94,591.69Z"
            transform="translate(-16 -105)" />
        <path class="cls-2"
            d="M871.89,590.19a255.68,255.68,0,0,1,32,76.14c0,3,1.68,6.1,1.68,9.14,0,16.75-15.16,32-33.7,32s-33.7-12.18-33.7-28.93V677c0-3,0-4.56,1.68-7.61C844.93,640.44,856.72,614.55,871.89,590.19Z"
            transform="translate(-16 -105)" />
        <path class="cls-2"
            d="M1021.87,483.58c18.54-15.23,32-33.5,42.13-53.3l-35.39,24.37,33.7-24.37c-21.9,4.57-42.12,12.18-62.35,21.32-1.68,0-3.37,1.52-5.05,3l-1.69,1.52h-1.68c-8.43,6.09-10.11,18.27-3.37,25.89C998.28,488.15,1011.76,488.15,1021.87,483.58Z"
            transform="translate(-16 -105)" />
        <path class="cls-2"
            d="M1062.31,506.43c-25.28,0-52.24,6.09-75.83,13.7-3.37,0-5.06,1.53-6.74,3-13.48,4.57-18.54,18.27-13.48,30.46a28.77,28.77,0,0,0,35.39,7.61A248.24,248.24,0,0,0,1062.31,506.43Z"
            transform="translate(-16 -105)" />
        <path class="cls-2"
            d="M1057.26,582.55c-20.23,19.8-43.82,35-69.1,47.21-1.68,1.53-3.37,1.53-5,1.53h-3.37c-13.48,4.56-30.33-1.53-35.39-13.71s3.37-25.89,16.85-30.46h3.37c1.69,0,5.06-1.52,6.74-1.52C1000,579.51,1028.61,578,1057.26,582.55Z"
            transform="translate(-16 -105)" />
        <path class="cls-2"
            d="M885.37,669.36c-16.85,3-28.65,19.8-25.28,35,6.74,15.22,23.59,22.84,40.44,18.27h3.37c1.69,0,3.37-1.52,5.06-1.52a437.52,437.52,0,0,0,87.63-50.26l-65.72,15.23,64-16.75c-33.7-6.09-67.4-6.09-101.11-3.05-1.68,0-5,0-6.74,1.52Z"
            transform="translate(-16 -105)" />
        <path class="cls-1"
            d="M757.29,756.16A393.94,393.94,0,0,0,858.4,701.34C888.74,680,914,654.13,935.92,623.67a295.94,295.94,0,0,0,43.81-95.95c8.43-35,8.43-71.58,3.38-106.6,16.85,35,21.9,71.58,16.85,109.65s-20.23,73.1-42.13,105.08c-23.59,32-52.24,57.87-87.63,79.19C836.5,736.37,797.74,750.07,757.29,756.16Z"
            transform="translate(-16 -105)" />
    </g>
    <g id="RleafF">
        <path class="cls-2"
            d="M816.27,637.39c1.69,22.85,3.37,74.63-11.79,105.09-8.43,16.75-30.34,24.36-48.87,18.27-16.85-6.09-27-22.84-20.22-39.6,0-1.52,1.68-3,1.68-3,1.69-3.05,3.37-4.57,5.06-7.62,20.22-27.41,45.5-51.78,74.14-73.1l-28.64,59.4Z"
            transform="translate(-16 -105)" />
        <path class="cls-2"
            d="M780.89,737.89h-3.37c-23.59-1.53-43.81,13.7-48.87,33.5-1.68,19.8,15.17,38.07,37.08,39.6h13.48c45.5-3,89.31-10.66,131.44-25.89l-85.94-7.62,85.94,7.62A417.22,417.22,0,0,0,791,739.41C786,739.41,784.26,737.89,780.89,737.89Z"
            transform="translate(-16 -105)" />
    </g>
    <g id="rays">
        <path class="cls-3"
            d="M544.28,654.14h0c4.65,0,8.43,3.41,8.43,7.61v45.69c0,4.21-3.78,7.62-8.43,7.62h0c-4.65,0-8.43-3.41-8.43-7.62V661.75C535.85,657.55,539.63,654.14,544.28,654.14Z"
            transform="translate(-16 -105)" />
        <path class="cls-4"
            d="M648.46,690h0a7.11,7.11,0,0,1,0,10.77l-35.75,32.31a9.07,9.07,0,0,1-11.91,0h0a7.11,7.11,0,0,1,0-10.77L636.54,690A9.09,9.09,0,0,1,648.46,690Z"
            transform="translate(-16 -105)" />
        <path class="cls-5"
            d="M707.74,798.82h0c0,4.2-3.77,7.61-8.42,7.61H648.76c-4.65,0-8.42-3.41-8.42-7.61h0c0-4.21,3.77-7.62,8.42-7.62h50.56C704,791.2,707.74,794.61,707.74,798.82Z"
            transform="translate(-16 -105)" />
        <path class="cls-6"
            d="M545.66,892.08h0c4.66,0,8.43,3.41,8.43,7.62v45.69c0,4.2-3.77,7.61-8.43,7.61h0c-4.65,0-8.42-3.41-8.42-7.61V899.7C537.24,895.49,541,892.08,545.66,892.08Z"
            transform="translate(-16 -105)" />
        <path class="cls-7"
            d="M664.43,905.92h0a9.06,9.06,0,0,1-11.92,0l-35.74-32.3a7.1,7.1,0,0,1,0-10.77h0a9.07,9.07,0,0,1,11.91,0l35.75,32.31A7.1,7.1,0,0,1,664.43,905.92Z"
            transform="translate(-16 -105)" />
        <path class="cls-8"
            d="M426.62,690h0a7.11,7.11,0,0,0,0,10.77l35.75,32.31a9.09,9.09,0,0,0,11.92,0h0a7.11,7.11,0,0,0,0-10.77L438.54,690A9.09,9.09,0,0,0,426.62,690Z"
            transform="translate(-16 -105)" />
        <path class="cls-8"
            d="M384.19,798.82h0c0,4.2,3.77,7.61,8.43,7.61h50.55c4.65,0,8.43-3.41,8.43-7.61h0c0-4.21-3.78-7.62-8.43-7.62H392.62C388,791.2,384.19,794.61,384.19,798.82Z"
            transform="translate(-16 -105)" />
        <path class="cls-8"
            d="M419.29,903.1h0a9.06,9.06,0,0,0,11.92,0L467,870.8A7.11,7.11,0,0,0,467,860h0A9.06,9.06,0,0,0,455,860l-35.75,32.3A7.11,7.11,0,0,0,419.29,903.1Z"
            transform="translate(-16 -105)" />
    </g>
    <path id="sun" class="cls-9"
        d="M544.28,871c37.23,0,67.41-29.79,67.41-66.54s-30.18-66.55-67.41-66.55-67.41,29.79-67.41,66.55S507.06,871,544.28,871Z"
        transform="translate(-16 -105)" /><text id="Three" class="cls-10"
        transform="translate(357.55 520.22) scale(1.01 1)">3</text>



         <style>

        #Three{
            animation: opa2 4s ease-in-out ;
            transform-box: fill-box;
            transform-origin: center;
        }

        #rays{
            animation: anime 1s ease-in-out infinite;
            animation-delay: 5s;
            transform-box: fill-box;
            transform-origin: center;
            opacity: 0;
        }

        #bubble{
            animation: rotation 10s ease-in-out infinite;
            
        }

        #LleafF, #RleafF{
            animation: opa 2s ease-in-out;
        }

        #RLeaf{
            animation: rotation2 4s ease-out ;
        }

        #Lleaf{
            animation: rotation3 4s ease-out ;
        }


        @keyframes opa{
            0%{
                opacity: 0;
            }
            100%{
                opacity: 1;
            }
        }

        @keyframes opa2{
            0%{
                opacity: 0;
            }
            50%{
                opacity: 0;
            }
            100%{
                opacity: 1;
            }
        }

        @keyframes anime {
            0% {
                transform: scale(1,1,1);
                opacity: 1;
            }

            50% {
                transform: scale(2,2,1);
                opacity: 1;
            }

            100% {
                transform: scale(0,0);
                opacity: 1;
            }
        }

        @keyframes rotation {
            0% {
                transform: rotateZ(0deg);
                transform: scale(1));
                opacity :1;
                
            }
            33% {

                transform: rotateZ(360deg);
                transform: scale(2);
                transform-box: fill-box;
                transform-origin: center;
                opacity :0;
            }
        
            66% {
                transform: rotateZ(0deg);
                transform: scale(1));
                opacity :1;
                
            }
            100% {

                transform: rotateZ(360deg);
                transform: scale(2);
                transform-box: fill-box;
                transform-origin: center;
                opacity :0;
            }
        }


        @keyframes rotation2 {
            0% {
                transform: rotateZ(-180deg); 
                transform-origin: center;
                opacity: 0;
            }
            30% {
                transform: rotateZ(-180deg); 
                transform-origin: center;
                opacity: 0;
            }
            100% {

                transform: rotateZ(0deg);   
                opacity: 1;
            }
        }

         @keyframes rotation3 {
            0% {
                transform: rotateZ(180deg); 
                transform-origin: center;
                opacity: 0;
            }
            50% {
                transform: rotateZ(180deg); 
                transform-origin: center;
                opacity: 0;
            }
            100% {

                transform: rotateZ(0deg);   
                opacity: 1;
            }
        }


        @keyframes flot {
            0%{transform: translate(0px, 300px);
            opacity :1;
            }

            100%{transform: translate(-10px, -800px);
            opacity :0;
            }
        }



    </style>
</svg>