<svg xmlns="http://www.w3.org/2000/svg" xmlns:xlink="http://www.w3.org/1999/xlink" viewBox="0 0 1067.78 1919.92">
    <defs>
        <style>
            .cls-1,
            .cls-9 {
                fill: #2d2d2d;
            }

            .cls-1,
            .cls-4,
            .cls-5,
            .cls-8 {
                stroke: #351500;
            }

            .cls-1,
            .cls-4,
            .cls-5,
            .cls-6,
            .cls-8 {
                stroke-miterlimit: 10;
            }

            .cls-1,
            .cls-4,
            .cls-5 {
                stroke-width: 15px;
            }

            .cls-2 {
                fill: #ffcdab;
            }

            .cls-3,
            .cls-7 {
                fill: #351500;
            }

            .cls-3 {
                opacity: 0.1;
            }

            .cls-10,
            .cls-3,
            .cls-6 {
                isolation: isolate;
            }

            .cls-4,
            .cls-5,
            .cls-8 {
                fill: none;
            }

            .cls-5,
            .cls-8 {
                stroke-linecap: round;
            }

            .cls-6 {
                fill: #ff52ad;
                stroke: #42210b;
                stroke-width: 12px;
            }

            .cls-10,
            .cls-6 {
                opacity: 0.4;
            }

            .cls-8 {
                stroke-width: 8px;
            }

            .cls-10,
            .cls-28,
            .cls-40,
            .cls-43 {
                fill: #fff;
            }

            .cls-11 {
                fill: #d3d8d9;
            }

            .cls-12 {
                fill: #ededed;
            }

            .cls-13 {
                fill: #a8b1b3;
            }

            .cls-14 {
                fill: #7c8b8d;
            }

            .cls-15 {
                fill: #fb8a8a;
            }

            .cls-16 {
                fill: #fcb1b1;
            }

            .cls-17 {
                fill: #f96363;
            }

            .cls-18 {
                fill: #333;
            }

            .cls-19 {
                fill: #d3d9d9;
            }

            .cls-20 {
                fill: #a8b2b4;
            }

            .cls-21 {
                fill: #912cfb;
            }

            .cls-22 {
                fill: #7c8b8e;
            }

            .cls-23 {
                opacity: 0.49;
            }

            .cls-24,
            .cls-33 {
                fill: #3fa8f4;
            }

            .cls-25,
            .cls-30 {
                fill: #7ac843;
            }

            .cls-26,
            .cls-32,
            .cls-46 {
                fill: #ff1d25;
            }

            .cls-27,
            .cls-31 {
                fill: #ff921e;
            }

            .cls-29 {
                opacity: 0.5;
            }

            .cls-30 {
                stroke: #fdfff7;
            }

            .cls-30,
            .cls-31,
            .cls-32,
            .cls-33,
            .cls-34 {
                stroke-width: 2px;
            }

            .cls-31,
            .cls-32,
            .cls-33,
            .cls-34 {
                stroke: #fff;
            }

            .cls-34 {
                fill: url(#linear-gradient);
            }

            .cls-35 {
                fill: url(#linear-gradient-2);
            }

            .cls-36 {
                fill: url(#linear-gradient-3);
            }

            .cls-37 {
                fill: url(#linear-gradient-4);
            }

            .cls-38 {
                fill: url(#linear-gradient-5);
            }

            .cls-39 {
                fill: url(#linear-gradient-6);
            }

            .cls-40 {
                font-size: 158px;
            }

            .cls-40,
            .cls-43,
            .cls-46 {
                font-family: Dongle-Regular, Dongle;
            }

            .cls-41 {
                letter-spacing: -0.01em;
            }

            .cls-42 {
                opacity: 0.49;
            }

            .cls-43 {
                font-size: 107px;
            }

            .cls-44 {
                letter-spacing: -0.01em;
            }

            .cls-45 {
                letter-spacing: -0.01em;
            }

            .cls-46 {
                font-size: 173px;
            }
        </style>
        <linearGradient id="linear-gradient" x1="981.25" y1="1490.63" x2="981.25" y2="1357.26"
            gradientTransform="matrix(1, 0, 0, -1, -317.19, 2065)" gradientUnits="userSpaceOnUse">
            <stop offset="0" stop-color="#f8ef74" />
            <stop offset="0.45" stop-color="#efde46" />
            <stop offset="0.94" stop-color="#ffc804" />
        </linearGradient>
        <linearGradient id="linear-gradient-2" x1="637.94" y1="1482.93" x2="637.94" y2="1354.1"
            gradientTransform="matrix(1, 0, 0, -1, -317.19, 2065)" gradientUnits="userSpaceOnUse">
            <stop offset="0" stop-color="#a4df79" />
            <stop offset="0.51" stop-color="#90d45f" />
            <stop offset="1" stop-color="#4ca50d" />
        </linearGradient>
        <linearGradient id="linear-gradient-3" x1="755.78" y1="1483.61" x2="755.78" y2="1354.06"
            gradientTransform="matrix(1, 0, 0, -1, -317.19, 2065)" gradientUnits="userSpaceOnUse">
            <stop offset="0" stop-color="#fec587" />
            <stop offset="0.83" stop-color="#ff8400" />
        </linearGradient>
        <linearGradient id="linear-gradient-4" x1="841.41" y1="1482.48" x2="841.41" y2="1354"
            gradientTransform="matrix(1, 0, 0, -1, -317.19, 2065)" gradientUnits="userSpaceOnUse">
            <stop offset="0" stop-color="#ff888c" />
            <stop offset="0.2" stop-color="#d9575b" />
            <stop offset="1" stop-color="#da1b22" />
        </linearGradient>
        <linearGradient id="linear-gradient-5" x1="914.63" y1="1482.93" x2="914.63" y2="1354.24"
            gradientTransform="matrix(1, 0, 0, -1, -317.19, 2065)" gradientUnits="userSpaceOnUse">
            <stop offset="0" stop-color="#8ac9f6" />
            <stop offset="1" stop-color="#0775c4" />
        </linearGradient>
        <linearGradient id="linear-gradient-6" x1="989.21" y1="1482.69" x2="989.21" y2="1352.92"
            xlink:href="#linear-gradient" />
    </defs>
    <title>maintains</title>
    <g id="chap">
        <path class="cls-1"
            d="M443.64,1698.53H625c54.39,0,54.39,72.47,54.39,72.47H389.25S389.25,1698.53,443.64,1698.53Z"
            transform="translate(-35 -549)" />
        <path class="cls-2" d="M570.56,1698.53s0,36.24-36.26,36.24S498,1698.53,498,1698.53V1571.71h72.53Z"
            transform="translate(-35 -549)" />
        <path class="cls-3" d="M570.56,1698.53s0,36.24-36.26,36.24S498,1698.53,498,1698.53V1571.71h72.53Z"
            transform="translate(-35 -549)" />
        <path class="cls-4" d="M570.56,1698.53s0,36.24-36.26,36.24S498,1698.53,498,1698.53V1571.71h72.53Z"
            transform="translate(-35 -549)" />
        <path class="cls-2"
            d="M443.64,1481.12a72.53,72.53,0,0,0-145,0c0,40,32.48,90.59,72.53,90.59S443.64,1521.14,443.64,1481.12Z"
            transform="translate(-35 -549)" />
        <path class="cls-3"
            d="M443.64,1481.12a72.53,72.53,0,0,0-145,0c0,40,32.48,90.59,72.53,90.59S443.64,1521.14,443.64,1481.12Z"
            transform="translate(-35 -549)" />
        <path class="cls-4"
            d="M443.64,1481.12a72.53,72.53,0,0,0-145,0c0,40,32.48,90.59,72.53,90.59S443.64,1521.14,443.64,1481.12Z"
            transform="translate(-35 -549)" />
        <path class="cls-2"
            d="M770,1481.12a72.53,72.53,0,0,0-145,0c0,40,32.47,90.59,72.53,90.59S770,1521.14,770,1481.12Z"
            transform="translate(-35 -549)" />
        <path class="cls-3"
            d="M770,1481.12a72.53,72.53,0,0,0-145,0c0,40,32.47,90.59,72.53,90.59S770,1521.14,770,1481.12Z"
            transform="translate(-35 -549)" />
        <path class="cls-4"
            d="M770,1481.12a72.53,72.53,0,0,0-145,0c0,40,32.47,90.59,72.53,90.59S770,1521.14,770,1481.12Z"
            transform="translate(-35 -549)" />
        <path class="cls-2"
            d="M715.61,1463c0-110.07-71.17-199.3-181.31-199.3S353,1352.94,353,1463,424.15,1662.3,534.3,1662.3,715.61,1573.07,715.61,1463Z"
            transform="translate(-35 -549)" />
        <path class="cls-5"
            d="M715.61,1463c0-110.07-71.17-199.3-181.31-199.3S353,1352.94,353,1463,424.15,1662.3,534.3,1662.3,715.61,1573.07,715.61,1463Z"
            transform="translate(-35 -549)" />
        <path class="cls-6"
            d="M532.15,1548a21.63,21.63,0,0,1-21.51-21.7c0-20.26,13.22-74.33,21.55-75.94,8.25,1.62,21.46,55.68,21.46,75.94A21.62,21.62,0,0,1,532.15,1548Z"
            transform="translate(-35 -549)" />
        <ellipse id="lEye" class="cls-7" cx="390.51" cy="914.01" rx="27.2" ry="27.18" />
        <ellipse id="rEye" class="cls-7" cx="608.08" cy="914.01" rx="27.2" ry="27.18" />
        <path id="mouth" class="cls-5" d="M461.77,1607.94s18.13-36.23,72.53-36.23,72.52,36.23,72.52,36.23"
            transform="translate(-35 -549)" />
        <line id="lEyebrow" class="cls-8" x1="354.25" y1="895.89" x2="426.77" y2="859.65" />
        <line id="rEyebrow" class="cls-8" x1="571.82" y1="859.65" x2="644.34" y2="895.89" />
        <path class="cls-9"
            d="M688.23,1345.24H380.36a156.5,156.5,0,0,1,1.82-15.76,149.4,149.4,0,0,1,17-49.1,115,115,0,0,1,7.25-11.77c4.17,2.89,13.42,8.69,28.29,14.67,21,8.34,53.67,16.67,99.54,16.67,77.05,0,116.58-23.55,127.64-31.53a107.55,107.55,0,0,1,7.43,12,149.42,149.42,0,0,1,17,49.1C687.14,1334.55,687.87,1340,688.23,1345.24Z"
            transform="translate(-35 -549)" />
        <path class="cls-1"
            d="M697.48,1354.3H371.12A163.35,163.35,0,0,1,391.24,1276a150.1,150.1,0,0,1,8.34-13.4,162.8,162.8,0,0,1,269.43,0,150.1,150.1,0,0,1,8.34,13.4,163.59,163.59,0,0,1,20.13,78.27Z"
            transform="translate(-35 -549)" />
        <path class="cls-10"
            d="M688.23,1345.24H380.36a156.5,156.5,0,0,1,1.82-15.76,149.4,149.4,0,0,1,17-49.1,115,115,0,0,1,7.25-11.77c4.17,2.89,13.42,8.69,28.29,14.67,21,8.34,53.67,16.67,99.54,16.67,77.05,0,116.58-23.55,127.64-31.53a107.55,107.55,0,0,1,7.43,12,149.42,149.42,0,0,1,17,49.1C687.14,1334.55,687.87,1340,688.23,1345.24Z"
            transform="translate(-35 -549)" />
        <path class="cls-1"
            d="M534.3,1399.59c-136.62,0-198-59.76-200.55-62.3A27.19,27.19,0,0,1,372,1298.68c2.43,2.3,50.46,46.56,162.26,46.56,112.32,0,160.29-44.69,162.27-46.6a27.35,27.35,0,0,1,38.36.51,27,27,0,0,1-.1,38.12C732.29,1339.83,670.91,1399.59,534.3,1399.59Z"
            transform="translate(-35 -549)" />
    </g>
    <g id="tools">
        <path class="cls-11"
            d="M814,1723.9a51.79,51.79,0,1,1-20.51-85.78l-38.34,38.33,6.84,26.21,26.21,6.84,38.33-38.33A51.64,51.64,0,0,1,814,1723.9Z"
            transform="translate(-35 -549)" />
        <path class="cls-12"
            d="M793.62,1638.12l-6.84,6.84A51.67,51.67,0,0,0,746,1728.25a48.5,48.5,0,0,1-5.07-4.45,51.68,51.68,0,0,1,52.73-85.68Z"
            transform="translate(-35 -549)" />
        <path class="cls-13"
            d="M814,1723.9a51.85,51.85,0,0,1-73.25,0,40,40,0,0,1-4.35-5,51.75,51.75,0,0,0,83.3-40.92l6.83-6.84A51.64,51.64,0,0,1,814,1723.9Z"
            transform="translate(-35 -549)" />
        <path class="cls-11"
            d="M553.16,1838.28a51.79,51.79,0,1,1,20.52,85.78L612,1885.73l-6.84-26.21L579,1852.68,540.63,1891A51.61,51.61,0,0,1,553.16,1838.28Z"
            transform="translate(-35 -549)" />
        <path class="cls-13"
            d="M573.68,1924.06l6.83-6.84a51.67,51.67,0,0,0,40.82-83.29,49.63,49.63,0,0,1,5.08,4.45,51.68,51.68,0,0,1-52.73,85.68Z"
            transform="translate(-35 -549)" />
        <path class="cls-12"
            d="M553.16,1838.28a51.85,51.85,0,0,1,73.25,0,39.2,39.2,0,0,1,4.35,5,51.75,51.75,0,0,0-83.3,40.92l-6.83,6.84A51.82,51.82,0,0,1,553.16,1838.28Z"
            transform="translate(-35 -549)" />
        <path class="cls-13"
            d="M700.48,1797.87c-20,20-41,39.16-62.78,57.19a52.38,52.38,0,0,0-11.19-16.78,50.64,50.64,0,0,0-16.78-11.19q27.19-32.79,57.19-62.78t62.78-57.19A52.7,52.7,0,0,0,741,1723.9a50.64,50.64,0,0,0,16.78,11.19Q730.43,1767.88,700.48,1797.87Z"
            transform="translate(-35 -549)" />
        <path class="cls-14"
            d="M757.67,1735.09q-27.2,32.79-57.19,62.78c-20,20-40.92,39.16-62.78,57.19a49.19,49.19,0,0,0-6-10.67c20.93-17.4,41-35.85,60.19-55.12S729.49,1750,747,1729.08A49,49,0,0,0,757.67,1735.09Z"
            transform="translate(-35 -549)" />
        <path class="cls-11"
            d="M729.59,1707.12a52.59,52.59,0,0,0,6,10.67q-31.38,26.26-60.19,55.12c-19.17,19.27-37.61,39.36-55.11,60.19a49.26,49.26,0,0,0-10.68-6q27.2-32.79,57.19-62.78Q696.81,1734.16,729.59,1707.12Z"
            transform="translate(-35 -549)" />
        <rect class="cls-11" x="643.11" y="1674" width="27.76" height="161.3"
            transform="translate(-1083.3 429.49) rotate(-45)" />
        <rect class="cls-12" x="591.72" y="1695.28" width="27.76" height="15.75"
            transform="translate(-1061.93 378.07) rotate(-45)" />
        <rect class="cls-13" x="694.58" y="1798.19" width="27.76" height="15.75"
            transform="translate(-1104.58 480.94) rotate(-45)" />
        <polygon class="cls-11"
            points="574.83 1138.75 555.15 1158.43 544.68 1151.07 527.69 1139.26 513.6 1116.89 533.29 1097.2 555.67 1111.29 567.48 1128.28 574.83 1138.75" />
        <polygon class="cls-12" points="543.75 1103.83 520.23 1127.35 513.6 1116.89 533.29 1097.2 543.75 1103.83" />
        <polygon class="cls-13" points="574.83 1138.75 555.15 1158.43 544.68 1151.07 567.48 1128.28 574.83 1138.75" />
        <path class="cls-15"
            d="M696.44,1841.39l74.91,74.9c12.53,12.53,32.94,14,46.3,2.38a33.41,33.41,0,0,0,1.66-48.9l-75.63-75.63a8.64,8.64,0,0,0-12.12,0l-35.12,35.12A8.65,8.65,0,0,0,696.44,1841.39Z"
            transform="translate(-35 -549)" />
        <path class="cls-16"
            d="M815.06,1920.54l2.59-2a33.43,33.43,0,0,0,11.5-25.28,33.07,33.07,0,0,0-9.84-23.62L743.68,1794a8.62,8.62,0,0,0-12.12,0l-7.87,7.87a8.64,8.64,0,0,1,12.12,0l75.63,75.63a33.87,33.87,0,0,1,9.84,23.62A32.92,32.92,0,0,1,815.06,1920.54Z"
            transform="translate(-35 -549)" />
        <path class="cls-17"
            d="M696.44,1841.39l74.91,74.9c12.53,12.53,32.94,14,46.3,2.38a28.32,28.32,0,0,0,5.29-5.9c-13.37,9.42-32,7.35-43.72-4.35l-74.9-74.91a8.62,8.62,0,0,1,0-12.12l-7.88,7.87A8.65,8.65,0,0,0,696.44,1841.39Z"
            transform="translate(-35 -549)" />
        <path class="cls-18"
            d="M746.69,1791.14a12.77,12.77,0,0,0-18,0l-4.87,4.87-8-8q22.36-23.31,43.09-48.07a55.84,55.84,0,0,0,71.59-70.14,4,4,0,0,0-3-2.69,4.31,4.31,0,0,0-3.94,1.14l-36.67,36.67-21.55-5.59-5.6-21.55L796.52,1641a4.1,4.1,0,0,0,1.14-3.83,4.17,4.17,0,0,0-2.69-3,55.76,55.76,0,0,0-70,71.59c-16.47,13.68-32.53,28.18-48.07,43.1l-63.71-63.71-19.07-27.25a4.28,4.28,0,0,0-1.24-1.14l-22.38-14.09a4.1,4.1,0,0,0-5.18.62L545.6,1663a4.21,4.21,0,0,0-.62,5.18l14.09,22.37a3.87,3.87,0,0,0,1.14,1.14l27.14,19,63.71,63.72c-14.91,15.54-29.31,31.49-43,47.86a55.84,55.84,0,0,0-71.59,70.14,4,4,0,0,0,3,2.69,4.29,4.29,0,0,0,3.93-1.14l36.68-36.67,21.55,5.59,5.59,21.55-36.57,36.78a4.21,4.21,0,0,0-1.14,3.93,4.16,4.16,0,0,0,2.69,3,57.75,57.75,0,0,0,17.62,2.9,55.82,55.82,0,0,0,52.52-74.39c16.37-13.67,32.33-28.07,47.87-43l8,8-4.87,4.87a12.75,12.75,0,0,0,0,18l74.91,74.91c14.29,14.29,37.09,15.43,52,2.48a37.61,37.61,0,0,0,2-55Zm-2.9-137.58a47.27,47.27,0,0,1,33.56-14,43.61,43.61,0,0,1,8.19.73l-33.15,33.15a4,4,0,0,0-1,3.94l6.84,26.21a4.36,4.36,0,0,0,3,3l26.11,6.84a4.19,4.19,0,0,0,3.94-1l33.15-33.15a47.62,47.62,0,0,1-80.6,41.75A47.82,47.82,0,0,1,743.79,1653.56Zm-15.65,60.09a54.86,54.86,0,0,0,9.74,13.15,56.35,56.35,0,0,0,13.06,9.74c-13.06,15.54-26.84,30.77-41,45.48l-27.45-27.45C697.37,1740.48,712.6,1726.7,728.14,1713.65ZM565.8,1685.36l-11.91-18.85,15-15,18.86,11.81,16.67,23.93-14.71,14.71Zm57.71,223.16a47.28,47.28,0,0,1-41.75,13.26l33.15-33.15a4,4,0,0,0,1-3.94l-6.83-26.21a4.39,4.39,0,0,0-3-3L580,1848.64a3.93,3.93,0,0,0-3.93,1l-33.15,33.16a47.62,47.62,0,0,1,80.6-41.76A47.85,47.85,0,0,1,623.51,1908.52Zm15.54-60a54.59,54.59,0,0,0-9.74-13.15,56.51,56.51,0,0,0-13-9.74q19.57-23.31,40.92-45.38l27.35,27.35C669.82,1821.7,654.59,1835.48,639.05,1848.53Zm-43-141.1,13.78-13.78L718,1801.81l-13.78,13.78Zm218.91,208c-11.6,10-29.42,9.12-40.71-2.18l-74.91-74.9a4.49,4.49,0,0,1-1.34-3.11,4.06,4.06,0,0,1,1.34-3.1L734.46,1797a4.53,4.53,0,0,1,3.11-1.34,4.1,4.1,0,0,1,3.11,1.34l75.63,75.63A29.15,29.15,0,0,1,815,1915.46Z"
            transform="translate(-35 -549)" />
        <path class="cls-18"
            d="M803.05,1890.7l-66.83-66.82a4.18,4.18,0,0,1,5.91-5.91L809,1884.79a4.18,4.18,0,0,1-5.9,5.91Z"
            transform="translate(-35 -549)" />
        <path class="cls-18" d="M786.68,1905.83l-66.2-66.21a4.17,4.17,0,0,1,5.9-5.9l66.2,66.2a4.18,4.18,0,0,1-5.9,5.91Z"
            transform="translate(-35 -549)" />
    </g>
    <g id="monitor">
        <path class="cls-19"
            d="M82.7,2292.68V2320A12.25,12.25,0,0,0,95,2332.3H469.71A12.31,12.31,0,0,0,482.07,2320v-27.34Z"
            transform="translate(-35 -549)" />
        <path class="cls-20"
            d="M440.23,2332.3h29.56a12.21,12.21,0,0,0,12.2-12.2v-27.42H452.51v27.42A12.22,12.22,0,0,1,440.23,2332.3Z"
            transform="translate(-35 -549)" />
        <path class="cls-12"
            d="M124.54,2332.3H94.91a12.21,12.21,0,0,1-12.21-12.2v-27.42h29.48v27.42A12.25,12.25,0,0,0,124.54,2332.3Z"
            transform="translate(-35 -549)" />
        <path id="Screen" class="cls-21"
            d="M482.07,2037.45v255.23H82.7V2037.45a12.28,12.28,0,0,1,12.21-12.28H469.63A12.43,12.43,0,0,1,482.07,2037.45Z"
            transform="translate(-35 -549)" />
        <path class="cls-18"
            d="M469.71,2022H95a15.47,15.47,0,0,0-15.46,15.45V2320A15.47,15.47,0,0,0,95,2335.47H238l-17.11,37.88H210.52a3.17,3.17,0,1,0,0,6.34H354.41a3.17,3.17,0,0,0,0-6.34H344l-17.27-37.88h143A15.54,15.54,0,0,0,485.24,2320V2037.45A15.48,15.48,0,0,0,469.71,2022ZM336.9,2373.35H227.79l17.12-37.88h74.8Zm142-53.33a9.18,9.18,0,0,1-9.19,9.11H95a9.17,9.17,0,0,1-9.12-9.11v-24.17h393Zm0-30.51h-393V2037.45a9,9,0,0,1,9-9.11H469.63a9.18,9.18,0,0,1,9.19,9.11v252.06Z"
            transform="translate(-35 -549)" />
        <path class="cls-22" d="M268.6,2312.49a5.63,5.63,0,1,1-5.63-5.63A5.6,5.6,0,0,1,268.6,2312.49Z"
            transform="translate(-35 -549)" />
        <path class="cls-22" d="M288,2312.49a5.6,5.6,0,0,1-5.62,5.63,5.63,5.63,0,1,1,5.62-5.63Z"
            transform="translate(-35 -549)" />
        <path class="cls-22" d="M307.51,2312.49a5.63,5.63,0,1,1-5.63-5.63A5.6,5.6,0,0,1,307.51,2312.49Z"
            transform="translate(-35 -549)" />
    </g>
    <g id="logo">
        <g id="shodow2" class="cls-23">
            <path id="Sbottom" class="cls-24"
                d="M752.31,700.67l52.24-50.56,52.25,50.56c-4.12,4.44-10.43,11-18.52,18.52-17.57,16.35-26.53,24.52-35.12,24.16-6.74-.28-14.22-7.09-28.93-20.78C764.65,713.68,757.2,705.94,752.31,700.67Z"
                transform="translate(-35 -549)" />
            <path id="Stop" class="cls-25"
                d="M856.8,591.69l-52.25,50.56-52.24-50.56c4.11-4.43,10.42-11,18.52-18.53C788.4,556.82,797.36,548.65,806,549c6.73.27,14.22,7.11,28.93,20.79C844.47,578.68,851.91,586.42,856.8,591.69Z"
                transform="translate(-35 -549)" />
            <path id="Sright" class="cls-26"
                d="M859.05,593.93q-25.29,26.16-50.57,52.25,25.29,26.15,50.57,52.25c4.43-4.12,11-10.43,18.52-18.53,16.34-17.57,24.52-26.53,24.15-35.12-.27-6.73-7.08-14.22-20.78-28.92C872.06,606.27,864.32,598.83,859.05,593.93Z"
                transform="translate(-35 -549)" />
            <path id="Sleft" class="cls-27"
                d="M750.06,698.43l50.57-52.25-50.57-52.25c-4.43,4.12-11,10.43-18.52,18.52C715.19,630,707,639,707.39,647.57c.27,6.74,7.11,14.23,20.78,28.93C737.05,686.09,744.79,693.53,750.06,698.43Z"
                transform="translate(-35 -549)" />
        </g>
        <path id="bottom" class="cls-24"
            d="M758.09,695.34l46.67-45.17,46.67,45.17c-3.67,4-9.31,9.81-16.56,16.56-15.69,14.59-23.7,21.89-31.37,21.58-6-.25-12.71-6.35-25.84-18.57C769.11,707,762.46,700.05,758.09,695.34Z"
            transform="translate(-35 -549)" />
        <path id="top" class="cls-25"
            d="M851.43,598l-46.67,45.17L758.09,598c3.67-4,9.31-9.81,16.56-16.56,15.69-14.6,23.7-21.89,31.37-21.58,6,.24,12.7,6.36,25.84,18.57C840.41,586.36,847.06,593.27,851.43,598Z"
            transform="translate(-35 -549)" />
        <path id="right" class="cls-26"
            d="M853.44,600l-45.17,46.68,45.17,46.7c4-3.68,9.81-9.32,16.56-16.56,14.6-15.7,21.89-23.71,21.58-31.38-.24-6-6.36-12.7-18.57-25.84C865.07,611,858.15,604.36,853.44,600Z"
            transform="translate(-35 -549)" />
        <path id="left" class="cls-27"
            d="M756.08,693.36l45.17-46.68Q778.66,623.36,756.08,600c-4,3.67-9.81,9.31-16.56,16.56-14.6,15.69-21.89,23.7-21.58,31.37.24,6,6.36,12.71,18.57,25.84C744.46,682.31,751.37,689,756.08,693.36Z"
            transform="translate(-35 -549)" />
        <path id="_" data-name="+" class="cls-28"
            d="M788.53,603.33A6.25,6.25,0,0,1,784,601.7a6.11,6.11,0,0,1,0-8.45,6.29,6.29,0,0,1,4.57-1.63h10.13a.56.56,0,0,0,.6-.5V580.89a6.08,6.08,0,1,1,12.13,0V591a.55.55,0,0,0,.49.6h10.25a6.29,6.29,0,0,1,4.57,1.63,6.13,6.13,0,0,1,0,8.45,6.29,6.29,0,0,1-4.57,1.63H812a.55.55,0,0,0-.59.5.17.17,0,0,0,0,.1v10.14a6.28,6.28,0,0,1-1.75,4.76,6.08,6.08,0,0,1-10.38-4.76V603.93a.55.55,0,0,0-.49-.6H788.53Z"
            transform="translate(-35 -549)" />
        <path id="x" class="cls-28"
            d="M739.82,638.48a6.29,6.29,0,0,1-2.11-4.36,6.11,6.11,0,0,1,5.91-6,6.26,6.26,0,0,1,4.41,2l7.23,7.09a.55.55,0,0,0,.77.07l.08-.07,7.08-7.23a6.08,6.08,0,0,1,10.75,3.87,6.31,6.31,0,0,1-2.1,4.62l-7.09,7.23a.55.55,0,0,0-.07.77l.07.08,7.24,7.08A6.25,6.25,0,0,1,774.1,658a6.12,6.12,0,0,1-5.91,6,6.3,6.3,0,0,1-4.41-2l-7.23-7.08a.55.55,0,0,0-.77-.08.27.27,0,0,0-.07.08l-7.09,7.23a6.08,6.08,0,1,1-8.65-8.5l7.08-7.23a.54.54,0,0,0,.08-.77l-.08-.07Z"
            transform="translate(-35 -549)" />
        <path id="_-" data-name="-" class="cls-28"
            d="M793.86,704a8.24,8.24,0,0,1-5.48-1.69,5.75,5.75,0,0,1-.61-8.11,5.85,5.85,0,0,1,.61-.61,8.26,8.26,0,0,1,5.48-1.69h21.9a8.13,8.13,0,0,1,5.45,1.69,5.75,5.75,0,0,1,.61,8.11,5.85,5.85,0,0,1-.61.61,8.21,8.21,0,0,1-5.45,1.69Z"
            transform="translate(-35 -549)" />
        <g id="_2" data-name="/">
            <path class="cls-28"
                d="M843.54,655.82a8.19,8.19,0,0,1-5.45-1.69,5.75,5.75,0,0,1-.61-8.11,5.85,5.85,0,0,1,.61-.61,8.21,8.21,0,0,1,5.45-1.69h21.9a8.06,8.06,0,0,1,5.45,1.69,5.74,5.74,0,0,1,.63,8.09q-.3.33-.63.63a8.23,8.23,0,0,1-5.45,1.69Z"
                transform="translate(-35 -549)" />
            <circle class="cls-28" cx="818.98" cy="83.57" r="5.98" />
            <circle class="cls-28" cx="818.98" cy="116.69" r="5.98" />
        </g>
        <g id="shadow1" class="cls-29">
            <path class="cls-30"
                d="M275.68,574.09q11.19,0,12.85,14.06v91.39h55.08q13,0,16.45,10l.54,3.52q0,11.93-14.6,13.49H275q-12.84-2.58-12.84-12.29V586.94Q262.17,576.23,275.68,574.09Z"
                transform="translate(-35 -549)" />
            <path class="cls-31"
                d="M446.41,652.37l-14.88-34.28-34.75,76.06c-.25.49-.49,1-.74,1.38l-1.2,2.5q-7.39,11.93-17.37,7.21-11.19-7.77-6.66-17.38l8.6-18.3,39.77-87.42a6.66,6.66,0,0,1,.64-.93,18.26,18.26,0,0,1,2.4-3.14,19.05,19.05,0,0,1,3.24-2.77c.31-.19.58-.37.83-.55Q436.36,570,443.94,582l40.32,87.43,8.68,18.3q4.63,9.6-6.74,17.37-10.08,4.71-17.56-7.21l-1.2-2.49c-.25-.43-.49-.89-.74-1.39l-7.95-15.06-4.53-.18-27.17.09q-10.71,0-12.84-13.5,0-11.18,14-12.84H431a11.67,11.67,0,0,1,1.56-.1Z"
                transform="translate(-35 -549)" />
            <path class="cls-32"
                d="M476.34,601q-12.66-.18-14.79-13.68,0-11.17,14.05-12.66a13.77,13.77,0,0,1,1.57-.09l78.19.09q10.71,0,12.84,13.5,0,11.18-14,12.93H544.9V601Zm51.11,76.61v15.62q0,11.19-13.49,13.41-11.19,0-12.94-14.71l.09-52.22h.09V624.09q0-11.18,13.49-13.39,11.19,0,12.94,14.71l-.09,52.21Z"
                transform="translate(-35 -549)" />
            <path class="cls-33"
                d="M578.09,607.18V586.94q0-10.73,13.5-12.85,11.17,0,12.84,14.06v2.78a11.93,11.93,0,0,1,.1,1.57l-.1,101q0,10.72-13.49,12.84-11.18,0-12.94-14.05Z"
                transform="translate(-35 -549)" />
            <path class="cls-34"
                d="M647.82,640.92,627,611.64,615.2,595.19q-6.29-8.69,3.42-18.3,9.06-6.54,18.67,3.88l1.57,2.22a6.92,6.92,0,0,1,1,1.29l24.41,34.29,16.17-22,11.83-16.34q6.29-8.68,18.48-2.5,9.06,6.54,2.12,18.95l-1.57,2.21a10.79,10.79,0,0,1-.92,1.39l-30,40.86L713,686.91q6.28,8.72-3.41,18.3-9.07,6.54-18.76-3.81l-26.9-37.8-28,38.26q-6.28,8.67-18.49,2.49-9-6.52-2.21-19.06Z"
                transform="translate(-35 -549)" />
        </g>
        <path id="L" class="cls-35"
            d="M286,582.07q10.89,0,12.5,13.66v88.91h53.58q12.69,0,16,9.71l.54,3.42q0,11.6-14.2,13.13H285.37q-12.5-2.52-12.5-12V594.57Q272.87,584.13,286,582.07Z"
            transform="translate(-35 -549)" />
        <path id="A" class="cls-36"
            d="M452.75,658.22l-14.48-33.35-33.78,74q-.36.72-.72,1.35l-1.22,2.41q-7.2,11.61-16.89,7-10.89-7.56-6.47-16.89l8.34-17.81,38.69-85.05a9,9,0,0,1,.62-.9,17.35,17.35,0,0,1,2.34-3.06,18,18,0,0,1,3.15-2.69c.3-.18.54-.36.81-.55q9.81-4.59,17.17,7l39.23,85.06L498,692.57q4.48,9.34-6.54,16.89-9.81,4.59-17.09-7L473.17,700q-.36-.63-.72-1.35L464.72,684l-4.41-.18-26.42.09q-10.44,0-12.5-13.13,0-10.89,13.66-12.49h2.7a11.22,11.22,0,0,1,1.53-.09Z"
            transform="translate(-35 -549)" />
        <path id="T" class="cls-37"
            d="M486.73,608.23q-12.33-.18-14.39-13.3,0-10.9,13.67-12.32a12.79,12.79,0,0,1,1.52-.09l76.07.09q10.42,0,12.5,13.12,0,10.9-13.67,12.6h-9v-.1Zm49.72,74.54V698q0,10.9-13.13,13-10.91,0-12.59-14.3l.09-50.79h.09v-15.2q0-10.9,13.13-13,10.89,0,12.59,14.29l-.1,50.8Z"
            transform="translate(-35 -549)" />
        <path id="I" class="cls-38"
            d="M584.63,614.26V594.57q0-10.44,13.12-12.5,10.9,0,12.5,13.66v2.7a11.22,11.22,0,0,1,.09,1.53l-.09,98.3q0,10.43-13.12,12.5-10.9,0-12.59-13.67Z"
            transform="translate(-35 -549)" />
        <path id="X-2" data-name="X" class="cls-39"
            d="M656.21,647.05,636,618.55l-11.51-16q-6.12-8.46,3.33-17.8,8.81-6.39,18.16,3.77l1.52,2.18a7.59,7.59,0,0,1,1,1.26l23.73,33.36L688,603.94,699.45,588q6.12-8.46,18-2.43Q726.25,592,719.5,604L718,606.21a13.07,13.07,0,0,1-.9,1.34l-29.13,39.74,31.65,44.51q6.12,8.44-3.33,17.8Q707.46,716,698,705.92l-26.15-36.78-27.24,37.22q-6.12,8.46-18,2.43-8.82-6.37-2.18-18.52Z"
            transform="translate(-35 -549)" />
    </g>
    <g id="try"><text class="cls-40" transform="translate(492.67 1586.38)">
            <tspan class="cls-41">T</tspan>
            <tspan x="50.56" y="0">ry us using </tspan>
            <tspan x="90.14" y="143">Desktop</tspan>
        </text></g>
    <g id="logoicon">
        <g id="shodow2-2" data-name="shodow2" class="cls-42">
            <path id="Sbottom-2" data-name="Sbottom" class="cls-24"
                d="M227.42,2217.4l53.35-51.64,53.35,51.64c-4.21,4.53-10.65,11.22-18.92,18.91-17.94,16.69-27.08,25-35.86,24.66-6.87-.27-14.52-7.23-29.53-21.21C240,2230.68,232.42,2222.78,227.42,2217.4Z"
                transform="translate(-35 -549)" />
            <path id="Stop-2" data-name="Stop" class="cls-25"
                d="M334.12,2106.11l-53.35,51.63-53.35-51.63c4.2-4.52,10.64-11.23,18.91-18.92,17.94-16.69,27.09-25,35.86-24.66,6.88.28,14.53,7.26,29.54,21.23C321.52,2092.82,329.12,2100.73,334.12,2106.11Z"
                transform="translate(-35 -549)" />
            <path id="Sright-2" data-name="Sright" class="cls-26"
                d="M336.41,2108.4q-25.82,26.7-51.63,53.35,25.82,26.72,51.63,53.35c4.53-4.2,11.23-10.64,18.92-18.91,16.69-17.94,25-27.09,24.66-35.86-.28-6.88-7.23-14.52-21.22-29.54C349.7,2121,341.8,2113.4,336.41,2108.4Z"
                transform="translate(-35 -549)" />
            <path id="Sleft-2" data-name="Sleft" class="cls-27"
                d="M225.12,2215.1l51.64-53.35-51.64-53.35c-4.52,4.21-11.22,10.65-18.91,18.92-16.69,17.94-25,27.09-24.66,35.86.27,6.87,7.26,14.52,21.22,29.53C211.84,2202.5,219.74,2210.1,225.12,2215.1Z"
                transform="translate(-35 -549)" />
        </g>
        <path id="bottom-2" data-name="bottom" class="cls-24"
            d="M233.32,2212,281,2165.83,328.64,2212c-3.76,4-9.51,10-16.91,16.9-16,14.91-24.2,22.36-32,22-6.12-.25-13-6.49-26.39-19C244.57,2223.84,237.78,2216.76,233.32,2212Z"
            transform="translate(-35 -549)" />
        <path id="top-2" data-name="top" class="cls-25"
            d="M328.64,2112.53,281,2158.66l-47.66-46.13c3.75-4,9.51-10,16.91-16.91,16-14.9,24.2-22.35,32-22,6.12.25,13,6.49,26.39,19C317.38,2100.67,324.17,2107.73,328.64,2112.53Z"
            transform="translate(-35 -549)" />
        <path id="right-2" data-name="right" class="cls-26"
            d="M330.69,2114.58l-46.13,47.66,46.13,47.69c4-3.76,10-9.51,16.91-16.91,14.9-16,22.35-24.21,22-32-.25-6.12-6.49-13-18.95-26.39C342.56,2125.84,335.49,2119.05,330.69,2114.58Z"
            transform="translate(-35 -549)" />
        <path id="left-2" data-name="left" class="cls-27"
            d="M231.27,2209.93l46.13-47.67q-23.07-23.82-46.13-47.66c-4,3.76-10,9.52-16.91,16.92-14.91,16-22.35,24.2-22,32,.25,6.11,6.49,13,19,26.38C219.4,2198.65,226.46,2205.44,231.27,2209.93Z"
            transform="translate(-35 -549)" />
        <path id="_3" data-name="+" class="cls-28"
            d="M264.41,2118a6.42,6.42,0,0,1-4.67-1.67,6.23,6.23,0,0,1,0-8.62,6.42,6.42,0,0,1,4.67-1.67h10.34a.56.56,0,0,0,.61-.5v-10.46a6.21,6.21,0,1,1,12.38,0v10.35a.56.56,0,0,0,.5.61h10.47a6.42,6.42,0,0,1,4.67,1.67,6.25,6.25,0,0,1,0,8.62,6.42,6.42,0,0,1-4.67,1.67H288.36a.57.57,0,0,0-.61.5V2129a6.21,6.21,0,1,1-12.38,0v-10.35a.55.55,0,0,0-.5-.61H264.41Z"
            transform="translate(-35 -549)" />
        <path id="x-3" data-name="x" class="cls-28"
            d="M214.66,2153.89a6.42,6.42,0,0,1-2.15-4.45,6.24,6.24,0,0,1,6-6.16,6.39,6.39,0,0,1,4.5,2.08l7.39,7.23a.55.55,0,0,0,.78.08l.08-.08,7.23-7.38a6.21,6.21,0,1,1,8.83,8.68l-7.23,7.38a.55.55,0,0,0-.08.78.3.3,0,0,0,.08.08l7.39,7.23a6.42,6.42,0,0,1,2.15,4.45,6.23,6.23,0,0,1-6,6.18,6.47,6.47,0,0,1-4.51-2.07l-7.38-7.23a.55.55,0,0,0-.78-.08.3.3,0,0,0-.08.08l-7.24,7.39a6.59,6.59,0,0,1-4.67,2.22,6.21,6.21,0,0,1-4.16-10.9l7.23-7.39a.56.56,0,0,0,.08-.78.6.6,0,0,0-.08-.08Z"
            transform="translate(-35 -549)" />
        <path id="_--2" data-name="-" class="cls-28"
            d="M269.85,2220.8a8.45,8.45,0,0,1-5.6-1.73,5.86,5.86,0,0,1-.62-8.28,6,6,0,0,1,.62-.62,8.46,8.46,0,0,1,5.6-1.73h22.36a8.3,8.3,0,0,1,5.56,1.73,5.87,5.87,0,0,1,.63,8.28,5.28,5.28,0,0,1-.63.62,8.37,8.37,0,0,1-5.56,1.73Z"
            transform="translate(-35 -549)" />
        <g id="_4" data-name="/">
            <path class="cls-28"
                d="M320.58,2171.59a8.34,8.34,0,0,1-5.57-1.72,5.88,5.88,0,0,1-.62-8.28,6,6,0,0,1,.62-.62,8.42,8.42,0,0,1,5.57-1.73h22.36a8.22,8.22,0,0,1,5.57,1.73,5.87,5.87,0,0,1,.64,8.26,6.44,6.44,0,0,1-.64.64,8.43,8.43,0,0,1-5.57,1.72Z"
                transform="translate(-35 -549)" />
            <circle class="cls-28" cx="296.24" cy="1598.86" r="6.11" />
            <circle class="cls-28" cx="296.24" cy="1632.68" r="6.11" />
        </g>
    </g>
    <g id="we"><text id="Oops_We_are_not_available_yet_for_Mobile_devices."
            data-name="Oops! We are not available yet for Mobile devices." class="cls-43"
            transform="translate(107.11 482.63)">
            <tspan class="cls-44">W</tspan>
            <tspan x="54.03" y="0">e a</tspan>
            <tspan class="cls-45" x="149.8" y="0">r</tspan>
            <tspan x="174.94" y="0">e not a</tspan>
            <tspan class="cls-45" x="393.75" y="0">v</tspan>
            <tspan x="426.38" y="0">ailable </tspan>
            <tspan class="cls-45" x="647.87" y="0">y</tspan>
            <tspan x="681.04" y="0">et for </tspan>
            <tspan x="192.86" y="97">Mobile devices.</tspan>
        </text></g>
    <g id="oops"><text class="cls-46" transform="translate(345.75 343.38) scale(1.12 1)">Oops!</text></g>


    <style>

        #tools, #we, #chap, #monitor, #try, #logo, #oops {
            animation: anime3 2s ease-in-out;
            transform-box: fill-box;
            transform-origin: center;
            opacity: 1;
        }

         #left, #right, #top, #bottom{
            
        }

        .cls-27{
            animation: colorChanger1 2s step-start infinite ;
        }

        .cls-25 {
            animation: colorChanger2 2s step-start infinite ; 
        }
        
        .cls-26 {
            animation: colorChanger3 2s step-start infinite ;
        }
        .cls-24 {
            animation: colorChanger4 2s step-start infinite ;
        }

        #oops{
            animation: anime2 5s ease-in-out infinite;
            animation-delay: 3s;
            transform-box: fill-box;
            transform-origin: center;   
        }


        #tools {
            animation: anime1 12s ease-in-out infinite;
            transform-box: fill-box;
            transform-origin: center;
        }


        
        #try{
            animation: anime2 1s ease-in-out infinite;
            transform-box: fill-box;
            transform-origin: center;
           
        }
        #rEye, #lEye {
                animation:Blink 2s infinite ease-in-out;
            }

            @keyframes Blink{
            0%{opacity: 0;}
            25%{opacity: 1;}
            45%{opacity: 1;}
            50%{opacity: 0;}
            65%{opacity: 1;}
            95%{opacity: 1;}
            100%{opacity: 0;}
        }


        @keyframes anime1 {
            0% {
                transform: rotateZ(0deg);
            }
            25% {
                transform: rotateZ(90deg);
            }
            50% {
                transform: rotateZ(180deg);
            }
            75% {
                transform: rotateZ(270deg);
            }
            100% {
                transform: rotateZ(360deg);
            }
         }

        @keyframes anime2 {
            25% {
                transform: scale(1,1);
                transform-origin: center;
                transform-box: fill-box;
                opacity: 1;
            }

            50% {
                transform: scale(1.2, 1.2);
                transform-origin: center;
                transform-box: fill-box;
                opacity: 1;
            }

            75% {
                transform: scale(1,1);
                transform-origin: center;
                transform-box: fill-box;
                opacity: 1;
            }
        }

         @keyframes anime3 {
            0%{
                opacity: 0;
            } 
            50% {
                transform: scale(1,1);
                transform-origin: center;
                transform-box: fill-box;
                opacity: 1;
            }

            75% {
                transform: scale(1.2, 1.2);
                transform-origin: center;
                transform-box: fill-box;
                opacity: 1;
            }

            100% {
                transform: scale(1,1);
                transform-origin: center;
                transform-box: fill-box;
                opacity: 1;
            }
        }

        @keyframes colorChanger1{
            20% {
                fill: #ff921e;
            }
            60%{
                fill: #3fa8f4;
            }
            80%{
                fill: #ff1d25;
            }
            100%{
                fill: #7ac843;
            }
        }

        @keyframes colorChanger2{
            20%{
                fill: #7ac843;
            }
            60%{
                fill: #ff1d25;
            }
            80%{
                fill: #3fa8f4;
            }
            100%{
                fill: #ff921e;
            }
        }

        @keyframes colorChanger3{
            20% {
                fill: #ff1d25;
            }
            60%{
                fill: #7ac843;
            }
            80%{
                fill: #ff921e;
            }
            100%{
                fill: #3fa8f4;
            }
        }

        @keyframes colorChanger4{
            20% {
                fill: #3fa8f4;
            }
            60%{
                fill: #ff921e;
            }
            80%{
                fill: #7ac843;
            }
            100%{
                fill: #ff1d25;
            }
        }
    </style>
</svg>