<svg xmlns="http://www.w3.org/2000/svg" xmlns:xlink="http://www.w3.org/1999/xlink" viewBox="0 0 985.33 1954.69">
    <defs>
        <style>
            .cls-1,
            .cls-9 {
                fill: #2d2d2d;
            }

            .cls-1,
            .cls-4,
            .cls-5,
            .cls-8 {
                stroke: #351500;
            }

            .cls-1,
            .cls-4,
            .cls-5,
            .cls-6,
            .cls-8 {
                stroke-miterlimit: 10;
            }

            .cls-1,
            .cls-4,
            .cls-5 {
                stroke-width: 15px;
            }

            .cls-2 {
                fill: #ffcdab;
            }

            .cls-3,
            .cls-7 {
                fill: #351500;
            }

            .cls-3 {
                opacity: 0.1;
            }

            .cls-10,
            .cls-3,
            .cls-6 {
                isolation: isolate;
            }

            .cls-4,
            .cls-5,
            .cls-8 {
                fill: none;
            }

            .cls-5,
            .cls-8 {
                stroke-linecap: round;
            }

            .cls-6 {
                fill: #ff52ad;
                stroke: #42210b;
                stroke-width: 12px;
            }

            .cls-10,
            .cls-6 {
                opacity: 0.4;
            }

            .cls-8 {
                stroke-width: 8px;
            }

            .cls-10,
            .cls-28 {
                fill: #fff;
            }

            .cls-11 {
                fill: #d3d8d9;
            }

            .cls-12 {
                fill: #ededed;
            }

            .cls-13 {
                fill: #a8b1b3;
            }

            .cls-14 {
                fill: #7c8b8d;
            }

            .cls-15 {
                fill: #fb8a8a;
            }

            .cls-16 {
                fill: #fcb1b1;
            }

            .cls-17 {
                fill: #f96363;
            }

            .cls-18 {
                fill: #333;
            }

            .cls-19 {
                fill: #d3d9d9;
            }

            .cls-20 {
                fill: #a8b2b4;
            }

            .cls-21 {
                fill: #912cfb;
            }

            .cls-22 {
                fill: #7c8b8e;
            }

            .cls-23 {
                opacity: 0.49;
            }

            .cls-24,
            .cls-33 {
                fill: #3fa8f4;
            }

            .cls-25,
            .cls-30 {
                fill: #7ac843;
            }

            .cls-26,
            .cls-32 {
                fill: #ff1d25;
            }

            .cls-27,
            .cls-31 {
                fill: #ff921e;
            }

            .cls-29 {
                opacity: 0.5;
            }

            .cls-30 {
                stroke: #fdfff7;
            }

            .cls-30,
            .cls-31,
            .cls-32,
            .cls-33,
            .cls-34 {
                stroke-width: 2px;
            }

            .cls-31,
            .cls-32,
            .cls-33,
            .cls-34 {
                stroke: #fff;
            }

            .cls-34 {
                fill: url(#linear-gradient);
            }

            .cls-35 {
                fill: url(#linear-gradient-2);
            }

            .cls-36 {
                fill: url(#linear-gradient-3);
            }

            .cls-37 {
                fill: url(#linear-gradient-4);
            }

            .cls-38 {
                fill: url(#linear-gradient-5);
            }

            .cls-39 {
                fill: url(#linear-gradient-6);
            }
            
            .cls-47 {
                fill: #ff1d25;
            }
        </style>
        <linearGradient id="linear-gradient" x1="981.25" y1="1771.63" x2="981.25" y2="1638.26"
            gradientTransform="matrix(1, 0, 0, -1, -317.19, 2065)" gradientUnits="userSpaceOnUse">
            <stop offset="0" stop-color="#f8ef74" />
            <stop offset="0.45" stop-color="#efde46" />
            <stop offset="0.94" stop-color="#ffc804" />
        </linearGradient>
        <linearGradient id="linear-gradient-2" x1="637.94" y1="1763.93" x2="637.94" y2="1635.1"
            gradientTransform="matrix(1, 0, 0, -1, -317.19, 2065)" gradientUnits="userSpaceOnUse">
            <stop offset="0" stop-color="#a4df79" />
            <stop offset="0.51" stop-color="#90d45f" />
            <stop offset="1" stop-color="#4ca50d" />
        </linearGradient>
        <linearGradient id="linear-gradient-3" x1="755.78" y1="1764.61" x2="755.78" y2="1635.06"
            gradientTransform="matrix(1, 0, 0, -1, -317.19, 2065)" gradientUnits="userSpaceOnUse">
            <stop offset="0" stop-color="#fec587" />
            <stop offset="0.83" stop-color="#ff8400" />
        </linearGradient>
        <linearGradient id="linear-gradient-4" x1="841.41" y1="1763.48" x2="841.41" y2="1635"
            gradientTransform="matrix(1, 0, 0, -1, -317.19, 2065)" gradientUnits="userSpaceOnUse">
            <stop offset="0" stop-color="#ff888c" />
            <stop offset="0.2" stop-color="#d9575b" />
            <stop offset="1" stop-color="#da1b22" />
        </linearGradient>
        <linearGradient id="linear-gradient-5" x1="914.63" y1="1763.93" x2="914.63" y2="1635.24"
            gradientTransform="matrix(1, 0, 0, -1, -317.19, 2065)" gradientUnits="userSpaceOnUse">
            <stop offset="0" stop-color="#8ac9f6" />
            <stop offset="1" stop-color="#0775c4" />
        </linearGradient>
        <linearGradient id="linear-gradient-6" x1="989.21" y1="1763.69" x2="989.21" y2="1633.92"
            xlink:href="#linear-gradient" />
    </defs>
    <title>maintains2</title>
    <g id="chap">
        <path class="cls-1"
            d="M443.64,1541.53H625c54.39,0,54.39,72.47,54.39,72.47H389.25S389.25,1541.53,443.64,1541.53Z"
            transform="translate(-79.53 -268)" />
        <path class="cls-2" d="M570.56,1541.53s0,36.24-36.26,36.24S498,1541.53,498,1541.53V1414.71h72.53Z"
            transform="translate(-79.53 -268)" />
        <path class="cls-3" d="M570.56,1541.53s0,36.24-36.26,36.24S498,1541.53,498,1541.53V1414.71h72.53Z"
            transform="translate(-79.53 -268)" />
        <path class="cls-4" d="M570.56,1541.53s0,36.24-36.26,36.24S498,1541.53,498,1541.53V1414.71h72.53Z"
            transform="translate(-79.53 -268)" />
        <path class="cls-2"
            d="M443.64,1324.12a72.53,72.53,0,0,0-145,0c0,40,32.48,90.59,72.53,90.59S443.64,1364.14,443.64,1324.12Z"
            transform="translate(-79.53 -268)" />
        <path class="cls-3"
            d="M443.64,1324.12a72.53,72.53,0,0,0-145,0c0,40,32.48,90.59,72.53,90.59S443.64,1364.14,443.64,1324.12Z"
            transform="translate(-79.53 -268)" />
        <path class="cls-4"
            d="M443.64,1324.12a72.53,72.53,0,0,0-145,0c0,40,32.48,90.59,72.53,90.59S443.64,1364.14,443.64,1324.12Z"
            transform="translate(-79.53 -268)" />
        <path class="cls-2"
            d="M770,1324.12a72.53,72.53,0,0,0-145,0c0,40,32.47,90.59,72.53,90.59S770,1364.14,770,1324.12Z"
            transform="translate(-79.53 -268)" />
        <path class="cls-3"
            d="M770,1324.12a72.53,72.53,0,0,0-145,0c0,40,32.47,90.59,72.53,90.59S770,1364.14,770,1324.12Z"
            transform="translate(-79.53 -268)" />
        <path class="cls-4"
            d="M770,1324.12a72.53,72.53,0,0,0-145,0c0,40,32.47,90.59,72.53,90.59S770,1364.14,770,1324.12Z"
            transform="translate(-79.53 -268)" />
        <path class="cls-2"
            d="M715.61,1306c0-110.07-71.17-199.3-181.31-199.3S353,1195.94,353,1306,424.15,1505.3,534.3,1505.3,715.61,1416.07,715.61,1306Z"
            transform="translate(-79.53 -268)" />
        <path class="cls-5"
            d="M715.61,1306c0-110.07-71.17-199.3-181.31-199.3S353,1195.94,353,1306,424.15,1505.3,534.3,1505.3,715.61,1416.07,715.61,1306Z"
            transform="translate(-79.53 -268)" />
        <path class="cls-6"
            d="M532.15,1391a21.63,21.63,0,0,1-21.51-21.7c0-20.26,13.22-74.33,21.55-75.94,8.25,1.62,21.46,55.68,21.46,75.94A21.62,21.62,0,0,1,532.15,1391Z"
            transform="translate(-79.53 -268)" />
        <ellipse id="lEye" class="cls-7" cx="345.98" cy="1038.01" rx="27.2" ry="27.18" />
        <ellipse id="rEye" class="cls-7" cx="563.55" cy="1038.01" rx="27.2" ry="27.18" />
        <path id="mouth" class="cls-5" d="M461.77,1450.94s18.13-36.23,72.53-36.23,72.52,36.23,72.52,36.23"
            transform="translate(-79.53 -268)" />
        <line id="lEyebrow" class="cls-8" x1="309.71" y1="1019.89" x2="382.24" y2="983.65" />
        <line id="rEyebrow" class="cls-8" x1="527.29" y1="983.65" x2="599.81" y2="1019.89" />
        <path class="cls-9"
            d="M688.23,1188.24H380.36a156.5,156.5,0,0,1,1.82-15.76,149.4,149.4,0,0,1,17-49.1,115,115,0,0,1,7.25-11.77c4.17,2.89,13.42,8.69,28.29,14.67,21,8.34,53.67,16.67,99.54,16.67,77.05,0,116.58-23.55,127.64-31.53a107.55,107.55,0,0,1,7.43,12,149.42,149.42,0,0,1,17,49.1C687.14,1177.55,687.87,1183,688.23,1188.24Z"
            transform="translate(-79.53 -268)" />
        <path class="cls-1"
            d="M697.48,1197.3H371.12A163.35,163.35,0,0,1,391.24,1119a150.1,150.1,0,0,1,8.34-13.4,162.8,162.8,0,0,1,269.43,0,150.1,150.1,0,0,1,8.34,13.4,163.59,163.59,0,0,1,20.13,78.27Z"
            transform="translate(-79.53 -268)" />
        <path class="cls-10"
            d="M688.23,1188.24H380.36a156.5,156.5,0,0,1,1.82-15.76,149.4,149.4,0,0,1,17-49.1,115,115,0,0,1,7.25-11.77c4.17,2.89,13.42,8.69,28.29,14.67,21,8.34,53.67,16.67,99.54,16.67,77.05,0,116.58-23.55,127.64-31.53a107.55,107.55,0,0,1,7.43,12,149.42,149.42,0,0,1,17,49.1C687.14,1177.55,687.87,1183,688.23,1188.24Z"
            transform="translate(-79.53 -268)" />
        <path class="cls-1"
            d="M534.3,1242.59c-136.62,0-198-59.76-200.55-62.3A27.19,27.19,0,0,1,372,1141.68c2.43,2.3,50.46,46.56,162.26,46.56,112.32,0,160.29-44.69,162.27-46.6a27.35,27.35,0,0,1,38.36.51,27,27,0,0,1-.1,38.12C732.29,1182.83,670.91,1242.59,534.3,1242.59Z"
            transform="translate(-79.53 -268)" />
    </g>
    <g id="tools">
        <path class="cls-11"
            d="M814,1566.9a51.79,51.79,0,1,1-20.51-85.78l-38.34,38.33,6.84,26.21,26.21,6.84,38.33-38.33A51.64,51.64,0,0,1,814,1566.9Z"
            transform="translate(-79.53 -268)" />
        <path class="cls-12"
            d="M793.62,1481.12l-6.84,6.84A51.67,51.67,0,0,0,746,1571.25a48.5,48.5,0,0,1-5.07-4.45,51.68,51.68,0,0,1,52.73-85.68Z"
            transform="translate(-79.53 -268)" />
        <path class="cls-13"
            d="M814,1566.9a51.85,51.85,0,0,1-73.25,0,40,40,0,0,1-4.35-5,51.75,51.75,0,0,0,83.3-40.92l6.83-6.84A51.64,51.64,0,0,1,814,1566.9Z"
            transform="translate(-79.53 -268)" />
        <path class="cls-11"
            d="M553.16,1681.28a51.79,51.79,0,1,1,20.52,85.78L612,1728.73l-6.84-26.21L579,1695.68,540.63,1734A51.61,51.61,0,0,1,553.16,1681.28Z"
            transform="translate(-79.53 -268)" />
        <path class="cls-13"
            d="M573.68,1767.06l6.83-6.84a51.67,51.67,0,0,0,40.82-83.29,49.63,49.63,0,0,1,5.08,4.45,51.68,51.68,0,0,1-52.73,85.68Z"
            transform="translate(-79.53 -268)" />
        <path class="cls-12"
            d="M553.16,1681.28a51.85,51.85,0,0,1,73.25,0,39.2,39.2,0,0,1,4.35,5,51.75,51.75,0,0,0-83.3,40.92l-6.83,6.84A51.82,51.82,0,0,1,553.16,1681.28Z"
            transform="translate(-79.53 -268)" />
        <path class="cls-13"
            d="M700.48,1640.87c-20,20-41,39.16-62.78,57.19a52.38,52.38,0,0,0-11.19-16.78,50.64,50.64,0,0,0-16.78-11.19q27.19-32.79,57.19-62.78t62.78-57.19A52.7,52.7,0,0,0,741,1566.9a50.64,50.64,0,0,0,16.78,11.19Q730.43,1610.88,700.48,1640.87Z"
            transform="translate(-79.53 -268)" />
        <path class="cls-14"
            d="M757.67,1578.09q-27.2,32.79-57.19,62.78c-20,20-40.92,39.16-62.78,57.19a49.19,49.19,0,0,0-6-10.67c20.93-17.4,41-35.85,60.19-55.12S729.49,1593,747,1572.08A49,49,0,0,0,757.67,1578.09Z"
            transform="translate(-79.53 -268)" />
        <path class="cls-11"
            d="M729.59,1550.12a52.59,52.59,0,0,0,6,10.67q-31.38,26.26-60.19,55.12c-19.17,19.27-37.61,39.36-55.11,60.19a49.26,49.26,0,0,0-10.68-6q27.2-32.79,57.19-62.78Q696.81,1577.16,729.59,1550.12Z"
            transform="translate(-79.53 -268)" />
        <rect class="cls-11" x="643.11" y="1517" width="27.76" height="161.3"
            transform="translate(-1016.82 664.51) rotate(-45)" />
        <rect class="cls-12" x="591.72" y="1538.28" width="27.76" height="15.75"
            transform="translate(-995.45 613.09) rotate(-45)" />
        <rect class="cls-13" x="694.58" y="1641.19" width="27.76" height="15.75"
            transform="translate(-1038.09 715.96) rotate(-45)" />
        <polygon class="cls-11"
            points="530.3 1262.75 510.61 1282.43 500.15 1275.07 483.16 1263.26 469.07 1240.89 488.75 1221.2 511.13 1235.29 522.94 1252.28 530.3 1262.75" />
        <polygon class="cls-12" points="499.22 1227.83 475.7 1251.35 469.07 1240.89 488.75 1221.2 499.22 1227.83" />
        <polygon class="cls-13" points="530.3 1262.75 510.61 1282.43 500.15 1275.07 522.94 1252.28 530.3 1262.75" />
        <path class="cls-15"
            d="M696.44,1684.39l74.91,74.9c12.53,12.53,32.94,14,46.3,2.38a33.41,33.41,0,0,0,1.66-48.9l-75.63-75.63a8.64,8.64,0,0,0-12.12,0l-35.12,35.12A8.65,8.65,0,0,0,696.44,1684.39Z"
            transform="translate(-79.53 -268)" />
        <path class="cls-16"
            d="M815.06,1763.54l2.59-2a33.43,33.43,0,0,0,11.5-25.28,33.07,33.07,0,0,0-9.84-23.62L743.68,1637a8.62,8.62,0,0,0-12.12,0l-7.87,7.87a8.64,8.64,0,0,1,12.12,0l75.63,75.63a33.87,33.87,0,0,1,9.84,23.62A32.92,32.92,0,0,1,815.06,1763.54Z"
            transform="translate(-79.53 -268)" />
        <path class="cls-17"
            d="M696.44,1684.39l74.91,74.9c12.53,12.53,32.94,14,46.3,2.38a28.32,28.32,0,0,0,5.29-5.9c-13.37,9.42-32,7.35-43.72-4.35l-74.9-74.91a8.62,8.62,0,0,1,0-12.12l-7.88,7.87A8.65,8.65,0,0,0,696.44,1684.39Z"
            transform="translate(-79.53 -268)" />
        <path class="cls-18"
            d="M746.69,1634.14a12.77,12.77,0,0,0-18,0l-4.87,4.87-8-8q22.36-23.31,43.09-48.07a55.84,55.84,0,0,0,71.59-70.14,4,4,0,0,0-3-2.69,4.31,4.31,0,0,0-3.94,1.14l-36.67,36.67-21.55-5.59-5.6-21.55L796.52,1484a4.1,4.1,0,0,0,1.14-3.83,4.17,4.17,0,0,0-2.69-3,55.76,55.76,0,0,0-70,71.59c-16.47,13.68-32.53,28.18-48.07,43.1l-63.71-63.71-19.07-27.25a4.28,4.28,0,0,0-1.24-1.14l-22.38-14.09a4.1,4.1,0,0,0-5.18.62L545.6,1506a4.21,4.21,0,0,0-.62,5.18l14.09,22.37a3.87,3.87,0,0,0,1.14,1.14l27.14,19,63.71,63.72c-14.91,15.54-29.31,31.49-43,47.86a55.84,55.84,0,0,0-71.59,70.14,4,4,0,0,0,3,2.69,4.29,4.29,0,0,0,3.93-1.14l36.68-36.67,21.55,5.59,5.59,21.55-36.57,36.78a4.21,4.21,0,0,0-1.14,3.93,4.16,4.16,0,0,0,2.69,3,57.75,57.75,0,0,0,17.62,2.9,55.82,55.82,0,0,0,52.52-74.39c16.37-13.67,32.33-28.07,47.87-43l8,8-4.87,4.87a12.75,12.75,0,0,0,0,18l74.91,74.91c14.29,14.29,37.09,15.43,52,2.48a37.61,37.61,0,0,0,2-55Zm-2.9-137.58a47.27,47.27,0,0,1,33.56-14,43.61,43.61,0,0,1,8.19.73l-33.15,33.15a4,4,0,0,0-1,3.94l6.84,26.21a4.36,4.36,0,0,0,3,3l26.11,6.84a4.19,4.19,0,0,0,3.94-1l33.15-33.15a47.62,47.62,0,0,1-80.6,41.75A47.82,47.82,0,0,1,743.79,1496.56Zm-15.65,60.09a54.86,54.86,0,0,0,9.74,13.15,56.35,56.35,0,0,0,13.06,9.74c-13.06,15.54-26.84,30.77-41,45.48l-27.45-27.45C697.37,1583.48,712.6,1569.7,728.14,1556.65ZM565.8,1528.36l-11.91-18.85,15-15,18.86,11.81,16.67,23.93-14.71,14.71Zm57.71,223.16a47.28,47.28,0,0,1-41.75,13.26l33.15-33.15a4,4,0,0,0,1-3.94l-6.83-26.21a4.39,4.39,0,0,0-3-3L580,1691.64a3.93,3.93,0,0,0-3.93,1l-33.15,33.16a47.62,47.62,0,0,1,80.6-41.76A47.85,47.85,0,0,1,623.51,1751.52Zm15.54-60a54.59,54.59,0,0,0-9.74-13.15,56.51,56.51,0,0,0-13-9.74q19.57-23.31,40.92-45.38l27.35,27.35C669.82,1664.7,654.59,1678.48,639.05,1691.53Zm-43-141.1,13.78-13.78L718,1644.81l-13.78,13.78Zm218.91,208c-11.6,10-29.42,9.12-40.71-2.18l-74.91-74.9a4.49,4.49,0,0,1-1.34-3.11,4.06,4.06,0,0,1,1.34-3.1L734.46,1640a4.53,4.53,0,0,1,3.11-1.34,4.1,4.1,0,0,1,3.11,1.34l75.63,75.63A29.15,29.15,0,0,1,815,1758.46Z"
            transform="translate(-79.53 -268)" />
        <path class="cls-18"
            d="M803.05,1733.7l-66.83-66.82a4.18,4.18,0,0,1,5.91-5.91L809,1727.79a4.18,4.18,0,0,1-5.9,5.91Z"
            transform="translate(-79.53 -268)" />
        <path class="cls-18" d="M786.68,1748.83l-66.2-66.21a4.17,4.17,0,0,1,5.9-5.9l66.2,66.2a4.18,4.18,0,0,1-5.9,5.91Z"
            transform="translate(-79.53 -268)" />
    </g>
    <g id="monitor">
        <path class="cls-19"
            d="M82.7,2135.68V2163A12.25,12.25,0,0,0,95,2175.3H469.71A12.31,12.31,0,0,0,482.07,2163v-27.34Z"
            transform="translate(-79.53 -268)" />
        <path class="cls-20"
            d="M440.23,2175.3h29.56a12.21,12.21,0,0,0,12.2-12.2v-27.42H452.51v27.42A12.22,12.22,0,0,1,440.23,2175.3Z"
            transform="translate(-79.53 -268)" />
        <path class="cls-12"
            d="M124.54,2175.3H94.91a12.21,12.21,0,0,1-12.21-12.2v-27.42h29.48v27.42A12.25,12.25,0,0,0,124.54,2175.3Z"
            transform="translate(-79.53 -268)" />
        <path id="Screen" class="cls-21"
            d="M482.07,1880.45v255.23H82.7V1880.45a12.28,12.28,0,0,1,12.21-12.28H469.63A12.43,12.43,0,0,1,482.07,1880.45Z"
            transform="translate(-79.53 -268)" />
        <path class="cls-18"
            d="M469.71,1865H95a15.47,15.47,0,0,0-15.46,15.45V2163A15.47,15.47,0,0,0,95,2178.47H238l-17.11,37.88H210.52a3.17,3.17,0,1,0,0,6.34H354.41a3.17,3.17,0,0,0,0-6.34H344l-17.27-37.88h143A15.54,15.54,0,0,0,485.24,2163V1880.45A15.48,15.48,0,0,0,469.71,1865ZM336.9,2216.35H227.79l17.12-37.88h74.8Zm142-53.33a9.18,9.18,0,0,1-9.19,9.11H95a9.17,9.17,0,0,1-9.12-9.11v-24.17h393Zm0-30.51h-393V1880.45a9,9,0,0,1,9-9.11H469.63a9.18,9.18,0,0,1,9.19,9.11v252.06Z"
            transform="translate(-79.53 -268)" />
        <path class="cls-22" d="M268.6,2155.49a5.63,5.63,0,1,1-5.63-5.63A5.6,5.6,0,0,1,268.6,2155.49Z"
            transform="translate(-79.53 -268)" />
        <path class="cls-22" d="M288,2155.49a5.6,5.6,0,0,1-5.62,5.63,5.63,5.63,0,1,1,5.62-5.63Z"
            transform="translate(-79.53 -268)" />
        <path class="cls-22" d="M307.51,2155.49a5.63,5.63,0,1,1-5.63-5.63A5.6,5.6,0,0,1,307.51,2155.49Z"
            transform="translate(-79.53 -268)" />
    </g>
    <g id="logo">
        <g id="shodow2" class="cls-23">
            <path id="Sbottom" class="cls-24"
                d="M752.31,419.67l52.24-50.56,52.25,50.56c-4.12,4.44-10.43,11-18.52,18.52-17.57,16.35-26.53,24.52-35.12,24.16-6.74-.28-14.22-7.09-28.93-20.78C764.65,432.68,757.2,424.94,752.31,419.67Z"
                transform="translate(-79.53 -268)" />
            <path id="Stop" class="cls-25"
                d="M856.8,310.69l-52.25,50.56-52.24-50.56c4.11-4.43,10.42-11,18.52-18.53C788.4,275.82,797.36,267.65,806,268c6.73.27,14.22,7.11,28.93,20.79C844.47,297.68,851.91,305.42,856.8,310.69Z"
                transform="translate(-79.53 -268)" />
            <path id="Sright" class="cls-26"
                d="M859.05,312.93q-25.29,26.16-50.57,52.25,25.29,26.15,50.57,52.25c4.43-4.12,11-10.43,18.52-18.53,16.34-17.57,24.52-26.53,24.15-35.12-.27-6.73-7.08-14.22-20.78-28.92C872.06,325.27,864.32,317.83,859.05,312.93Z"
                transform="translate(-79.53 -268)" />
            <path id="Sleft" class="cls-27"
                d="M750.06,417.43l50.57-52.25-50.57-52.25c-4.43,4.12-11,10.43-18.52,18.52C715.19,349,707,358,707.39,366.57c.27,6.74,7.11,14.23,20.78,28.93C737.05,405.09,744.79,412.53,750.06,417.43Z"
                transform="translate(-79.53 -268)" />
        </g>
        <path id="bottom" class="cls-24"
            d="M758.09,414.34l46.67-45.17,46.67,45.17c-3.67,4-9.31,9.81-16.56,16.56-15.69,14.59-23.7,21.89-31.37,21.58-6-.25-12.71-6.35-25.84-18.57C769.11,426,762.46,419.05,758.09,414.34Z"
            transform="translate(-79.53 -268)" />
        <path id="top" class="cls-25"
            d="M851.43,317l-46.67,45.17L758.09,317c3.67-4,9.31-9.81,16.56-16.56,15.69-14.6,23.7-21.89,31.37-21.58,6,.24,12.7,6.36,25.84,18.57C840.41,305.36,847.06,312.27,851.43,317Z"
            transform="translate(-79.53 -268)" />
        <path id="right" class="cls-26"
            d="M853.44,319l-45.17,46.68,45.17,46.7c4-3.68,9.81-9.32,16.56-16.56,14.6-15.7,21.89-23.71,21.58-31.38-.24-6-6.36-12.7-18.57-25.84C865.07,330,858.15,323.36,853.44,319Z"
            transform="translate(-79.53 -268)" />
        <path id="left" class="cls-27"
            d="M756.08,412.36l45.17-46.68Q778.66,342.36,756.08,319c-4,3.67-9.81,9.31-16.56,16.56-14.6,15.69-21.89,23.7-21.58,31.37.24,6,6.36,12.71,18.57,25.84C744.46,401.31,751.37,408,756.08,412.36Z"
            transform="translate(-79.53 -268)" />
        <path id="_" data-name="+" class="cls-28"
            d="M788.53,322.33A6.25,6.25,0,0,1,784,320.7a6.11,6.11,0,0,1,0-8.45,6.29,6.29,0,0,1,4.57-1.63h10.13a.56.56,0,0,0,.6-.5V299.89a6.08,6.08,0,1,1,12.13,0V310a.55.55,0,0,0,.49.6h10.25a6.29,6.29,0,0,1,4.57,1.63,6.13,6.13,0,0,1,0,8.45,6.29,6.29,0,0,1-4.57,1.63H812a.55.55,0,0,0-.59.5.17.17,0,0,0,0,.1v10.14a6.28,6.28,0,0,1-1.75,4.76,6.08,6.08,0,0,1-10.38-4.76V322.93a.55.55,0,0,0-.49-.6H788.53Z"
            transform="translate(-79.53 -268)" />
        <path id="x" class="cls-28"
            d="M739.82,357.48a6.29,6.29,0,0,1-2.11-4.36,6.11,6.11,0,0,1,5.91-6,6.26,6.26,0,0,1,4.41,2l7.23,7.09a.55.55,0,0,0,.77.07l.08-.07,7.08-7.23a6.08,6.08,0,0,1,10.75,3.87,6.31,6.31,0,0,1-2.1,4.62l-7.09,7.23a.55.55,0,0,0-.07.77l.07.08,7.24,7.08A6.25,6.25,0,0,1,774.1,377a6.12,6.12,0,0,1-5.91,6.05,6.3,6.3,0,0,1-4.41-2l-7.23-7.08a.55.55,0,0,0-.77-.08.27.27,0,0,0-.07.08l-7.09,7.23a6.08,6.08,0,1,1-8.65-8.5l7.08-7.23a.54.54,0,0,0,.08-.77l-.08-.07Z"
            transform="translate(-79.53 -268)" />
        <path id="_-" data-name="-" class="cls-28"
            d="M793.86,423a8.24,8.24,0,0,1-5.48-1.69,5.75,5.75,0,0,1-.61-8.11,5.85,5.85,0,0,1,.61-.61,8.26,8.26,0,0,1,5.48-1.69h21.9a8.13,8.13,0,0,1,5.45,1.69,5.75,5.75,0,0,1,.61,8.11,5.85,5.85,0,0,1-.61.61,8.21,8.21,0,0,1-5.45,1.69Z"
            transform="translate(-79.53 -268)" />
        <g id="_2" data-name="/">
            <path class="cls-28"
                d="M843.54,374.82a8.19,8.19,0,0,1-5.45-1.69,5.75,5.75,0,0,1-.61-8.11,5.85,5.85,0,0,1,.61-.61,8.21,8.21,0,0,1,5.45-1.69h21.9a8.06,8.06,0,0,1,5.45,1.69,5.74,5.74,0,0,1,.63,8.09q-.3.33-.63.63a8.23,8.23,0,0,1-5.45,1.69Z"
                transform="translate(-79.53 -268)" />
            <circle class="cls-28" cx="774.44" cy="83.57" r="5.98" />
            <circle class="cls-28" cx="774.44" cy="116.69" r="5.98" />
        </g>
        <g id="shadow1" class="cls-29">
            <path class="cls-30"
                d="M275.68,293.09q11.19,0,12.85,14.06v91.39h55.08q13,0,16.45,10l.54,3.52q0,11.93-14.6,13.49H275q-12.84-2.58-12.84-12.29V305.94Q262.17,295.23,275.68,293.09Z"
                transform="translate(-79.53 -268)" />
            <path class="cls-31"
                d="M446.41,371.37l-14.88-34.28-34.75,76.06c-.25.49-.49,1-.74,1.38l-1.2,2.5q-7.39,11.93-17.37,7.21-11.19-7.77-6.66-17.38l8.6-18.3,39.77-87.42a6.66,6.66,0,0,1,.64-.93,18.26,18.26,0,0,1,2.4-3.14,19.05,19.05,0,0,1,3.24-2.77c.31-.19.58-.37.83-.55Q436.36,289,443.94,301l40.32,87.43,8.68,18.3q4.63,9.6-6.74,17.37-10.08,4.71-17.56-7.21l-1.2-2.49c-.25-.43-.49-.89-.74-1.39l-7.95-15.06-4.53-.18-27.17.09q-10.71,0-12.84-13.5,0-11.18,14-12.84H431a11.67,11.67,0,0,1,1.56-.1Z"
                transform="translate(-79.53 -268)" />
            <path class="cls-32"
                d="M476.34,320q-12.66-.18-14.79-13.68,0-11.18,14.05-12.66a13.77,13.77,0,0,1,1.57-.09l78.19.09q10.71,0,12.84,13.5,0,11.18-14,12.93H544.9V320Zm51.11,76.61v15.62q0,11.19-13.49,13.41-11.19,0-12.94-14.71l.09-52.22h.09V343.09q0-11.18,13.49-13.39,11.19,0,12.94,14.71l-.09,52.21Z"
                transform="translate(-79.53 -268)" />
            <path class="cls-33"
                d="M578.09,326.18V305.94q0-10.72,13.5-12.85,11.17,0,12.84,14.06v2.78a11.93,11.93,0,0,1,.1,1.57l-.1,101q0,10.73-13.49,12.84-11.18,0-12.94-14.05Z"
                transform="translate(-79.53 -268)" />
            <path class="cls-34"
                d="M647.82,359.92,627,330.64,615.2,314.19q-6.29-8.69,3.42-18.3,9.06-6.54,18.67,3.88l1.57,2.22a6.92,6.92,0,0,1,1,1.29l24.41,34.29,16.17-22,11.83-16.34q6.29-8.69,18.48-2.5,9.06,6.54,2.12,18.95l-1.57,2.21a10.79,10.79,0,0,1-.92,1.39l-30,40.86L713,405.91q6.28,8.71-3.41,18.3-9.07,6.54-18.76-3.81l-26.9-37.8-28,38.26q-6.28,8.67-18.49,2.49-9-6.53-2.21-19.06Z"
                transform="translate(-79.53 -268)" />
        </g>
        <path id="L" class="cls-35"
            d="M286,301.07q10.89,0,12.5,13.66v88.91h53.58q12.69,0,16,9.71l.54,3.42q0,11.6-14.2,13.13H285.37q-12.5-2.52-12.5-12V313.57Q272.87,303.13,286,301.07Z"
            transform="translate(-79.53 -268)" />
        <path id="A" class="cls-36"
            d="M452.75,377.22l-14.48-33.35-33.78,74q-.36.72-.72,1.35l-1.22,2.41q-7.2,11.61-16.89,7-10.89-7.56-6.47-16.89l8.34-17.81,38.69-85.05a9,9,0,0,1,.62-.9,17.35,17.35,0,0,1,2.34-3.06,18,18,0,0,1,3.15-2.69c.3-.18.54-.36.81-.55q9.81-4.59,17.17,7l39.23,85.06L498,411.57q4.48,9.35-6.54,16.89-9.81,4.59-17.09-7L473.17,419q-.36-.63-.72-1.35L464.72,403l-4.41-.18-26.42.09q-10.44,0-12.5-13.13,0-10.89,13.66-12.49h2.7a11.22,11.22,0,0,1,1.53-.09Z"
            transform="translate(-79.53 -268)" />
        <path id="T" class="cls-37"
            d="M486.73,327.23q-12.33-.18-14.39-13.3,0-10.9,13.67-12.32a12.79,12.79,0,0,1,1.52-.09l76.07.09q10.42,0,12.5,13.12,0,10.9-13.67,12.6h-9v-.1Zm49.72,74.54V417q0,10.91-13.13,13-10.91,0-12.59-14.3l.09-50.79h.09v-15.2q0-10.9,13.13-13,10.89,0,12.59,14.29l-.1,50.8Z"
            transform="translate(-79.53 -268)" />
        <path id="I" class="cls-38"
            d="M584.63,333.26V313.57q0-10.44,13.12-12.5,10.9,0,12.5,13.66v2.7a11.22,11.22,0,0,1,.09,1.53l-.09,98.3q0,10.42-13.12,12.5-10.9,0-12.59-13.67Z"
            transform="translate(-79.53 -268)" />
        <path id="X-2" data-name="X" class="cls-39"
            d="M656.21,366.05,636,337.55l-11.51-16q-6.12-8.46,3.33-17.8,8.81-6.39,18.16,3.77l1.52,2.18a7.59,7.59,0,0,1,1,1.26l23.73,33.36L688,322.94,699.45,307q6.12-8.46,18-2.43Q726.25,311,719.5,323L718,325.21a13.07,13.07,0,0,1-.9,1.34l-29.13,39.74,31.65,44.51q6.12,8.44-3.33,17.8Q707.46,435,698,424.92l-26.15-36.78-27.24,37.22q-6.12,8.46-18,2.43-8.82-6.37-2.18-18.52Z"
            transform="translate(-79.53 -268)" />
    </g>
    <g id="try">
        <path class="cls-28"
            d="M553.74,1980a5.59,5.59,0,0,1-4-1.42,4.77,4.77,0,0,1-1.51-3.64v-46q0-3.95-4.1-4h-10c-3.26,0-4.9-1.63-4.9-4.89s1.64-4.9,4.9-4.9h39a5.09,5.09,0,0,1,3.63,1.34,5.16,5.16,0,0,1,0,7.11,5,5,0,0,1-3.63,1.34h-9.8q-4.11,0-4.11,4v46a4.8,4.8,0,0,1-1.5,3.64A5.6,5.6,0,0,1,553.74,1980Z"
            transform="translate(-79.53 -268)" />
        <path class="cls-28"
            d="M595.3,1955v20.06a4.33,4.33,0,0,1-1.66,3.64,6.11,6.11,0,0,1-7.43,0,4.33,4.33,0,0,1-1.66-3.64v-37.13a4.9,4.9,0,0,1,1.66-4,5.82,5.82,0,0,1,7.43,0,4.9,4.9,0,0,1,1.66,4v.63a16.81,16.81,0,0,1,5.76-4.89,15.69,15.69,0,0,1,7.51-1.9,15.86,15.86,0,0,1,3.79.47,4.63,4.63,0,0,1,2.85,1.9,5.58,5.58,0,0,1,.94,3.16,5.76,5.76,0,0,1-1.34,3.71,4.69,4.69,0,0,1-3.87,1.66,8.48,8.48,0,0,1-2.29-.32,12.09,12.09,0,0,0-2.92-.31,9.38,9.38,0,0,0-7.51,3.47Q595.29,1949,595.3,1955Z"
            transform="translate(-79.53 -268)" />
        <path class="cls-28"
            d="M618.52,1937.14a4.83,4.83,0,0,1,1.74-4,5.85,5.85,0,0,1,3.79-1.42,4.88,4.88,0,0,1,4.74,3.32l12.33,30.17a1.86,1.86,0,0,0,3.47.16l10.59-30.17a4.81,4.81,0,0,1,4.9-3.48,6.4,6.4,0,0,1,4,1.42,4.28,4.28,0,0,1,1.81,3.48,7.73,7.73,0,0,1-.47,2.21l-24.18,58.93a4.8,4.8,0,0,1-4.89,3.48,6.19,6.19,0,0,1-3.87-1.42,4.26,4.26,0,0,1-1.82-3.48,3.87,3.87,0,0,1,.47-2.21l7.74-15.8a5.16,5.16,0,0,1-4.58-3.16L618.84,1939A8.76,8.76,0,0,1,618.52,1937.14Z"
            transform="translate(-79.53 -268)" />
        <path class="cls-28"
            d="M738.13,1937a5,5,0,0,1,1.5-3.71,5.24,5.24,0,0,1,3.87-1.5,5.31,5.31,0,0,1,3.79,1.5,4.93,4.93,0,0,1,1.58,3.71v22.28q0,7.11-3.16,11.69a19.15,19.15,0,0,1-8.22,6.8,27.2,27.2,0,0,1-21.48,0,19.1,19.1,0,0,1-8.22-6.8q-3.16-4.58-3.16-11.69V1937a5,5,0,0,1,1.5-3.71,5.24,5.24,0,0,1,3.87-1.5,5.29,5.29,0,0,1,3.79,1.5,4.9,4.9,0,0,1,1.59,3.71v22.28c0,3.9,1.15,6.69,3.47,8.37a13.72,13.72,0,0,0,15.88,0c2.26-1.68,3.4-4.47,3.4-8.37Z"
            transform="translate(-79.53 -268)" />
        <path class="cls-28"
            d="M777.15,1980a38.3,38.3,0,0,1-9.32-1.19,25.08,25.08,0,0,1-8.37-3.71,5.08,5.08,0,0,1-1.9-3.79,4.89,4.89,0,0,1,1.66-3.64,5.25,5.25,0,0,1,3.71-1.58,4.42,4.42,0,0,1,2.21.64,25.39,25.39,0,0,0,6.56,2.76,26.17,26.17,0,0,0,7,1,12.38,12.38,0,0,0,5.45-1.11,3.75,3.75,0,0,0,2.29-3.63,4.09,4.09,0,0,0-2.21-3.79c-1.47-.84-4-1.48-7.58-1.9-1.48-.21-3.24-.47-5.3-.79a25.11,25.11,0,0,1-6.08-1.74,12.69,12.69,0,0,1-5-3.79,10.44,10.44,0,0,1-2.06-6.79,13.41,13.41,0,0,1,5.14-11.06q5.13-4.11,13.82-4.11a35.33,35.33,0,0,1,9.56,1.26,18,18,0,0,1,6.72,3.16,4.23,4.23,0,0,1,1.73,3.32,5.25,5.25,0,0,1-1.42,3.63,4.65,4.65,0,0,1-5.53,1.11,20.66,20.66,0,0,0-5.61-2.13,26,26,0,0,0-5.92-.71,13.75,13.75,0,0,0-5.61,1,3.4,3.4,0,0,0-2.29,3.24,3.57,3.57,0,0,0,1.34,2.77c.89.79,3.24,1.45,7,2,1.79.22,3.82.53,6.08.95a31,31,0,0,1,6.56,2,12.22,12.22,0,0,1,5.22,4.18,13.06,13.06,0,0,1,2,7.74,12.14,12.14,0,0,1-2.84,8.3,17.09,17.09,0,0,1-7.35,4.82A29.23,29.23,0,0,1,777.15,1980Z"
            transform="translate(-79.53 -268)" />
        <path class="cls-28"
            d="M870.84,1937a5,5,0,0,1,1.51-3.71,5.22,5.22,0,0,1,3.87-1.5,5.33,5.33,0,0,1,3.79,1.5,4.93,4.93,0,0,1,1.58,3.71v22.28q0,7.11-3.16,11.69a19.15,19.15,0,0,1-8.22,6.8,27.23,27.23,0,0,1-21.49,0,19.07,19.07,0,0,1-8.21-6.8q-3.16-4.58-3.16-11.69V1937a5,5,0,0,1,1.5-3.71,5.24,5.24,0,0,1,3.87-1.5,5.31,5.31,0,0,1,3.79,1.5,4.93,4.93,0,0,1,1.58,3.71v22.28q0,5.85,3.48,8.37a13.72,13.72,0,0,0,15.88,0q3.39-2.52,3.39-8.37Z"
            transform="translate(-79.53 -268)" />
        <path class="cls-28"
            d="M909.87,1980a38.3,38.3,0,0,1-9.32-1.19,25.13,25.13,0,0,1-8.38-3.71,5.1,5.1,0,0,1-1.89-3.79,4.89,4.89,0,0,1,1.66-3.64,5.25,5.25,0,0,1,3.71-1.58,4.47,4.47,0,0,1,2.21.64,25.39,25.39,0,0,0,6.56,2.76,26.17,26.17,0,0,0,7,1,12.41,12.41,0,0,0,5.45-1.11,3.75,3.75,0,0,0,2.29-3.63A4.11,4.11,0,0,0,917,1962c-1.48-.84-4-1.48-7.58-1.9-1.48-.21-3.24-.47-5.3-.79a25.11,25.11,0,0,1-6.08-1.74,12.79,12.79,0,0,1-5.06-3.79,10.44,10.44,0,0,1-2.05-6.79,13.43,13.43,0,0,1,5.13-11.06q5.15-4.11,13.83-4.11a35.33,35.33,0,0,1,9.56,1.26,17.86,17.86,0,0,1,6.71,3.16,4.21,4.21,0,0,1,1.74,3.32,5.25,5.25,0,0,1-1.42,3.63,4.65,4.65,0,0,1-5.53,1.11,20.92,20.92,0,0,0-5.61-2.13,26,26,0,0,0-5.92-.71,13.72,13.72,0,0,0-5.61,1,3.4,3.4,0,0,0-2.29,3.24,3.57,3.57,0,0,0,1.34,2.77c.89.79,3.24,1.45,7,2,1.79.22,3.82.53,6.08.95a31,31,0,0,1,6.56,2,12.2,12.2,0,0,1,5.21,4.18,13,13,0,0,1,2.06,7.74,12.09,12.09,0,0,1-2.85,8.3,17,17,0,0,1-7.34,4.82A29.31,29.31,0,0,1,909.87,1980Z"
            transform="translate(-79.53 -268)" />
        <path class="cls-28"
            d="M944.94,1923.08a7.27,7.27,0,0,1-5.13-2,6.3,6.3,0,0,1-2.13-4.81,6.18,6.18,0,0,1,2.13-4.67,7.3,7.3,0,0,1,5.13-2,6.84,6.84,0,0,1,4.9,2,6.29,6.29,0,0,1,2.06,4.67,6.41,6.41,0,0,1-2.06,4.81A6.81,6.81,0,0,1,944.94,1923.08Zm-.15,56.88a6,6,0,0,1-3.72-1.26,4.33,4.33,0,0,1-1.66-3.64v-37.92a4.9,4.9,0,0,1,1.66-4,5.82,5.82,0,0,1,7.43,0,4.87,4.87,0,0,1,1.66,4v37.92a4.3,4.3,0,0,1-1.66,3.64A6,6,0,0,1,944.79,1980Z"
            transform="translate(-79.53 -268)" />
        <path class="cls-28"
            d="M1002.61,1980a6,6,0,0,1-3.71-1.26,4.3,4.3,0,0,1-1.66-3.64v-19.91q0-6.95-3.08-10.27a10.59,10.59,0,0,0-8.14-3.32q-6.48,0-9.4,4.19a15.8,15.8,0,0,0-2.92,9.25v20.06a4.3,4.3,0,0,1-1.66,3.64,6.11,6.11,0,0,1-7.43,0,4.32,4.32,0,0,1-1.65-3.64v-37.13a4.9,4.9,0,0,1,1.65-4,5.82,5.82,0,0,1,7.43,0,4.87,4.87,0,0,1,1.66,4,20.8,20.8,0,0,1,6.95-4.42,21.4,21.4,0,0,1,8.06-1.74q8.85,0,14.06,5.69t5.22,16.75v20.85a4.24,4.24,0,0,1-1.74,3.64A6.11,6.11,0,0,1,1002.61,1980Z"
            transform="translate(-79.53 -268)" />
        <path class="cls-28"
            d="M1039.27,2000.5a49.5,49.5,0,0,1-7.43-.63,26.23,26.23,0,0,1-8.06-2.69,5.36,5.36,0,0,1-1.65-8.37,4.23,4.23,0,0,1,3.39-1.58,5.8,5.8,0,0,1,2.85.79,23.15,23.15,0,0,0,6,2.21,28.43,28.43,0,0,0,5.85.63,16.43,16.43,0,0,0,9.79-2.92q4.11-2.93,4.11-9.24v-4.43a19.41,19.41,0,0,1-6.24,4.19,20.34,20.34,0,0,1-8,1.5,22.58,22.58,0,0,1-11.77-3.16,23,23,0,0,1-8.38-8.69,25.26,25.26,0,0,1-3.08-12.48,25.67,25.67,0,0,1,3-12.49,22.5,22.5,0,0,1,8.21-8.68,19.57,19.57,0,0,1,11.85-2.69,25.29,25.29,0,0,1,8.14,1.82,20.73,20.73,0,0,1,6.24,4,4.8,4.8,0,0,1,1.5-3.64,6,6,0,0,1,7.74,0,4.8,4.8,0,0,1,1.5,3.64V1979a20.54,20.54,0,0,1-3.39,12.09,19.94,19.94,0,0,1-9.25,7.11A35.32,35.32,0,0,1,1039.27,2000.5Zm1.89-30.34a11.84,11.84,0,0,0,9.48-4q3.48-4,3.48-10.66c0-4.21-1.16-7.59-3.48-10.11s-5.47-3.8-9.48-3.8a13.46,13.46,0,0,0-10,3.8q-3.8,3.78-3.79,10.27a14.91,14.91,0,0,0,3.71,10.42A12.84,12.84,0,0,0,1041.16,1970.16Z"
            transform="translate(-79.53 -268)" />
        <path class="cls-28"
            d="M634.09,2121.38a10.2,10.2,0,0,1-6.25-2.21,7.45,7.45,0,0,1-2.92-6.32v-46.46a7.75,7.75,0,0,1,2.45-5.92,8.16,8.16,0,0,1,5.77-2.29h14.22a34.66,34.66,0,0,1,16.67,3.87,27.75,27.75,0,0,1,11.21,11q4,7.11,4,17.06a33.62,33.62,0,0,1-3.71,15.8,29.18,29.18,0,0,1-10.27,11.3,27.43,27.43,0,0,1-15.09,4.19Zm6.47-9.8h7q10.26,0,15.64-5.45t5.21-16q-.15-10.74-5.53-16.43T647.36,2068h-6.64q-4.74,0-4.74,4.74v34.13Q636,2111.58,640.56,2111.58Z"
            transform="translate(-79.53 -268)" />
        <path class="cls-28"
            d="M711.5,2123q-11.85,0-18.48-6.79t-6.64-18.33q0-10.11,6.72-16.59t17.3-6.48q10.26,0,16.43,5.92a19.48,19.48,0,0,1,6.16,14.62,6.87,6.87,0,0,1-1.82,5.21,6.45,6.45,0,0,1-4.66,1.74H699c-1,0-1.42.58-1.1,1.74a11.63,11.63,0,0,0,5.13,6.87,16,16,0,0,0,8.77,2.45,26.15,26.15,0,0,0,7-1,17.83,17.83,0,0,0,5.93-2.84,3.18,3.18,0,0,1,2.05-.63,4.28,4.28,0,0,1,3.16,1.5,5,5,0,0,1,1.42,3.55,6,6,0,0,1-.31,1.9,4.63,4.63,0,0,1-1.43,1.9,24.14,24.14,0,0,1-8.77,4.1A40.39,40.39,0,0,1,711.5,2123Zm9.17-28.92a.84.84,0,0,0,1-.94,8,8,0,0,0-3.24-6.32,12.09,12.09,0,0,0-8-2.69,15.07,15.07,0,0,0-7.82,2.21,9,9,0,0,0-4.51,5.85v.16a2.66,2.66,0,0,0-.07,1.1c0,.32.49.48,1.34.48Z"
            transform="translate(-79.53 -268)" />
        <path class="cls-28"
            d="M758.9,2123a38.36,38.36,0,0,1-9.32-1.19,25.08,25.08,0,0,1-8.37-3.71,5.08,5.08,0,0,1-1.9-3.79,4.89,4.89,0,0,1,1.66-3.64,5.27,5.27,0,0,1,3.71-1.58,4.42,4.42,0,0,1,2.21.64,25.54,25.54,0,0,0,6.56,2.76,26.17,26.17,0,0,0,7,1,12.35,12.35,0,0,0,5.45-1.11,3.75,3.75,0,0,0,2.29-3.63A4.09,4.09,0,0,0,766,2105c-1.47-.84-4-1.48-7.58-1.9q-2.22-.32-5.29-.79a25.06,25.06,0,0,1-6.09-1.74,12.69,12.69,0,0,1-5-3.79,10.44,10.44,0,0,1-2.06-6.79,13.41,13.41,0,0,1,5.14-11.06q5.13-4.11,13.82-4.11a35.33,35.33,0,0,1,9.56,1.26,18,18,0,0,1,6.72,3.16,4.23,4.23,0,0,1,1.73,3.32,5.25,5.25,0,0,1-1.42,3.63,4.65,4.65,0,0,1-5.53,1.11,20.66,20.66,0,0,0-5.61-2.13,26,26,0,0,0-5.92-.71,13.75,13.75,0,0,0-5.61,1,3.4,3.4,0,0,0-2.29,3.24,3.6,3.6,0,0,0,1.34,2.77c.89.79,3.24,1.45,7,2,1.79.22,3.82.53,6.09,1a31.13,31.13,0,0,1,6.55,2,12.22,12.22,0,0,1,5.22,4.18,13.06,13.06,0,0,1,2,7.74,12.14,12.14,0,0,1-2.84,8.3,17.09,17.09,0,0,1-7.35,4.82A29.23,29.23,0,0,1,758.9,2123Z"
            transform="translate(-79.53 -268)" />
        <path class="cls-28"
            d="M793.66,2123a6,6,0,0,1-3.71-1.26,4.3,4.3,0,0,1-1.66-3.64v-60a4.87,4.87,0,0,1,1.66-4,5.82,5.82,0,0,1,7.43,0,4.9,4.9,0,0,1,1.65,4v30.81c0,1.05.16,1.58.48,1.58a2.34,2.34,0,0,0,1.26-.63l19.59-14.06a6.66,6.66,0,0,1,3.16-.95,4.8,4.8,0,0,1,3.64,1.5,4.63,4.63,0,0,1,1.42,3.24,4.83,4.83,0,0,1-2.53,4.27l-16.11,10.11c-1,.63-1.43,1.26-1.43,1.89a3.08,3.08,0,0,0,1.11,2.06l17.22,16.27a6.12,6.12,0,0,1,1.74,3.79,4.76,4.76,0,0,1-1.58,3.56,5.13,5.13,0,0,1-3.63,1.5,5.3,5.3,0,0,1-3.8-1.74l-18.48-18.33c-.74-.73-1.21-1.1-1.42-1.1-.43,0-.64.63-.64,1.89v14.38a4.32,4.32,0,0,1-1.65,3.64A6,6,0,0,1,793.66,2123Z"
            transform="translate(-79.53 -268)" />
        <path class="cls-28"
            d="M854.33,2123a14,14,0,0,1-10.11-3.79q-3.94-3.8-4-11.38v-20.07a1.4,1.4,0,0,0-1.58-1.58h-2.84a4.86,4.86,0,0,1-3.48-1.34,4.44,4.44,0,0,1-1.42-3.39,4.92,4.92,0,0,1,1.42-3.64,4.73,4.73,0,0,1,3.48-1.42h2.84a1.4,1.4,0,0,0,1.58-1.58V2061.5a4.55,4.55,0,0,1,1.5-3.56,5.39,5.39,0,0,1,3.71-1.34,5.65,5.65,0,0,1,3.88,1.34,4.55,4.55,0,0,1,1.5,3.56v13.27a1.4,1.4,0,0,0,1.58,1.58H861a4.55,4.55,0,0,1,3.32,1.42,5,5,0,0,1,1.42,3.64,4.6,4.6,0,0,1-1.34,3.39,4.81,4.81,0,0,1-3.56,1.34h-8.37a1.4,1.4,0,0,0-1.58,1.58v18.65q0,6.63,5.37,6.63a12.48,12.48,0,0,0,3.32-.47,10.59,10.59,0,0,1,2.37-.47,4.16,4.16,0,0,1,3.39,1.42,5,5,0,0,1,1.19,3.32,5.41,5.41,0,0,1-.79,2.76,4.62,4.62,0,0,1-2.53,2,23,23,0,0,1-4.35,1A29.66,29.66,0,0,1,854.33,2123Z"
            transform="translate(-79.53 -268)" />
        <path class="cls-28"
            d="M895.73,2123a25.17,25.17,0,0,1-12.56-3.16,22.54,22.54,0,0,1-8.77-8.77,25.09,25.09,0,0,1-3.16-12.56,23.52,23.52,0,0,1,3.16-12.17,22.43,22.43,0,0,1,8.77-8.45,25.65,25.65,0,0,1,12.56-3.08,25.26,25.26,0,0,1,12.48,3.08,23.06,23.06,0,0,1,12,20.62A24.74,24.74,0,0,1,917,2111a23.44,23.44,0,0,1-8.77,8.77A24.79,24.79,0,0,1,895.73,2123Zm0-9.8a13,13,0,0,0,9.95-4q3.8-4,3.79-10.66c0-4.21-1.26-7.59-3.79-10.11a13.46,13.46,0,0,0-9.95-3.8q-6.33,0-10,3.8c-2.47,2.52-3.71,5.9-3.71,10.11q0,6.63,3.71,10.66T895.73,2113.16Z"
            transform="translate(-79.53 -268)" />
        <path class="cls-28"
            d="M954.34,2123a19.77,19.77,0,0,1-7.9-1.5,19,19,0,0,1-6-4v22a4.3,4.3,0,0,1-1.66,3.64,6.11,6.11,0,0,1-7.43,0,4.32,4.32,0,0,1-1.65-3.64v-58.46a4.9,4.9,0,0,1,1.65-4,5.8,5.8,0,0,1,3.72-1.34,5.64,5.64,0,0,1,3.47,1.18,4.94,4.94,0,0,1,1.9,3.4,20.65,20.65,0,0,1,6-3.87,19.77,19.77,0,0,1,7.9-1.5,23.94,23.94,0,0,1,12.25,3.08,22,22,0,0,1,8.29,8.45,24.53,24.53,0,0,1,3,12.17,26.19,26.19,0,0,1-3,12.56,22.17,22.17,0,0,1-8.29,8.77A23.5,23.5,0,0,1,954.34,2123Zm-1-9.8a13,13,0,0,0,10-4q3.79-4,3.79-10.66c0-4.21-1.26-7.59-3.79-10.11a13.47,13.47,0,0,0-10-3.8,12.19,12.19,0,0,0-9.47,3.8c-2.32,2.52-3.48,5.9-3.48,10.11q0,6.63,3.48,10.66A11.83,11.83,0,0,0,953.39,2113.16Z"
            transform="translate(-79.53 -268)" />
    </g>
    <g id="logoicon">
        <g id="shodow2-2" data-name="shodow2" class="cls-23">
            <path id="Sbottom-2" data-name="Sbottom" class="cls-24"
                d="M227.42,2060.4l53.35-51.64,53.35,51.64c-4.21,4.53-10.65,11.22-18.92,18.91-17.94,16.69-27.08,25-35.86,24.66-6.87-.27-14.52-7.23-29.53-21.21C240,2073.68,232.42,2065.78,227.42,2060.4Z"
                transform="translate(-79.53 -268)" />
            <path id="Stop-2" data-name="Stop" class="cls-25"
                d="M334.12,1949.11l-53.35,51.63-53.35-51.63c4.2-4.52,10.64-11.23,18.91-18.92,17.94-16.69,27.09-25,35.86-24.66,6.88.28,14.53,7.26,29.54,21.23C321.52,1935.82,329.12,1943.73,334.12,1949.11Z"
                transform="translate(-79.53 -268)" />
            <path id="Sright-2" data-name="Sright" class="cls-26"
                d="M336.41,1951.4q-25.82,26.7-51.63,53.35,25.82,26.71,51.63,53.35c4.53-4.2,11.23-10.64,18.92-18.91,16.69-17.94,25-27.09,24.66-35.86-.28-6.88-7.23-14.52-21.22-29.54C349.7,1964,341.8,1956.4,336.41,1951.4Z"
                transform="translate(-79.53 -268)" />
            <path id="Sleft-2" data-name="Sleft" class="cls-27"
                d="M225.12,2058.1l51.64-53.35-51.64-53.35c-4.52,4.21-11.22,10.65-18.91,18.92-16.69,17.94-25,27.09-24.66,35.86.27,6.87,7.26,14.52,21.22,29.53C211.84,2045.5,219.74,2053.1,225.12,2058.1Z"
                transform="translate(-79.53 -268)" />
        </g>
        <path id="bottom-2" data-name="bottom" class="cls-24"
            d="M233.32,2055,281,2008.83,328.64,2055c-3.76,4-9.51,10-16.91,16.9-16,14.91-24.2,22.36-32,22-6.12-.25-13-6.49-26.39-19C244.57,2066.84,237.78,2059.76,233.32,2055Z"
            transform="translate(-79.53 -268)" />
        <path id="top-2" data-name="top" class="cls-25"
            d="M328.64,1955.53,281,2001.66l-47.66-46.13c3.75-4,9.51-10,16.91-16.91,16-14.9,24.2-22.35,32-22,6.12.25,13,6.49,26.39,19C317.38,1943.67,324.17,1950.73,328.64,1955.53Z"
            transform="translate(-79.53 -268)" />
        <path id="right-2" data-name="right" class="cls-26"
            d="M330.69,1957.58l-46.13,47.66,46.13,47.69c4-3.76,10-9.51,16.91-16.91,14.9-16,22.35-24.21,22-32-.25-6.12-6.49-13-18.95-26.39C342.56,1968.84,335.49,1962.05,330.69,1957.58Z"
            transform="translate(-79.53 -268)" />
        <path id="left-2" data-name="left" class="cls-27"
            d="M231.27,2052.93l46.13-47.67q-23.07-23.82-46.13-47.66c-4,3.76-10,9.52-16.91,16.92-14.91,16-22.35,24.2-22,32,.25,6.11,6.49,13,19,26.38C219.4,2041.65,226.46,2048.44,231.27,2052.93Z"
            transform="translate(-79.53 -268)" />
        <path id="_3" data-name="+" class="cls-28"
            d="M264.41,1961a6.42,6.42,0,0,1-4.67-1.67,6.23,6.23,0,0,1,0-8.62,6.42,6.42,0,0,1,4.67-1.67h10.34a.56.56,0,0,0,.61-.5v-10.46a6.21,6.21,0,1,1,12.38,0v10.35a.56.56,0,0,0,.5.61h10.47a6.42,6.42,0,0,1,4.67,1.67,6.25,6.25,0,0,1,0,8.62,6.42,6.42,0,0,1-4.67,1.67H288.36a.57.57,0,0,0-.61.5V1972a6.21,6.21,0,1,1-12.38,0v-10.35a.55.55,0,0,0-.5-.61H264.41Z"
            transform="translate(-79.53 -268)" />
        <path id="x-3" data-name="x" class="cls-28"
            d="M214.66,1996.89a6.42,6.42,0,0,1-2.15-4.45,6.24,6.24,0,0,1,6-6.16,6.39,6.39,0,0,1,4.5,2.08l7.39,7.23a.55.55,0,0,0,.78.08l.08-.08,7.23-7.38a6.21,6.21,0,1,1,8.83,8.68l-7.23,7.38a.55.55,0,0,0-.08.78l.08.08,7.39,7.23a6.42,6.42,0,0,1,2.15,4.45,6.23,6.23,0,0,1-6,6.18,6.47,6.47,0,0,1-4.51-2.07l-7.38-7.23a.55.55,0,0,0-.78-.08l-.08.08-7.24,7.39a6.59,6.59,0,0,1-4.67,2.22,6.21,6.21,0,0,1-4.16-10.9l7.23-7.39a.56.56,0,0,0,.08-.78l-.08-.08Z"
            transform="translate(-79.53 -268)" />
        <path id="_--2" data-name="-" class="cls-28"
            d="M269.85,2063.8a8.45,8.45,0,0,1-5.6-1.73,5.86,5.86,0,0,1-.62-8.28,6,6,0,0,1,.62-.62,8.46,8.46,0,0,1,5.6-1.73h22.36a8.3,8.3,0,0,1,5.56,1.73,5.87,5.87,0,0,1,.63,8.28,5.28,5.28,0,0,1-.63.62,8.37,8.37,0,0,1-5.56,1.73Z"
            transform="translate(-79.53 -268)" />
        <g id="_4" data-name="/">
            <path class="cls-28"
                d="M320.58,2014.59a8.34,8.34,0,0,1-5.57-1.72,5.88,5.88,0,0,1-.62-8.28,6,6,0,0,1,.62-.62,8.42,8.42,0,0,1,5.57-1.73h22.36a8.22,8.22,0,0,1,5.57,1.73,5.87,5.87,0,0,1,.64,8.26,6.44,6.44,0,0,1-.64.64,8.43,8.43,0,0,1-5.57,1.72Z"
                transform="translate(-79.53 -268)" />
            <circle class="cls-28" cx="251.7" cy="1722.86" r="6.11" />
            <circle class="cls-28" cx="251.7" cy="1756.68" r="6.11" />
        </g>
    </g>
    <g id="we">
        <path class="cls-28"
            d="M157.09,829.7a5.06,5.06,0,0,1-3.37-1.23,5.66,5.66,0,0,1-1.87-3.16L144.79,789a3.12,3.12,0,0,1,1.07-2.78,4.05,4.05,0,0,1,5-.22,3.19,3.19,0,0,1,1.33,2.36l5,28.78c.14.79.43,1.18.86,1.18s.64-.36.85-1.07l6.42-24.19a4.24,4.24,0,0,1,1.93-2.51,5.41,5.41,0,0,1,2.67-.8,5.68,5.68,0,0,1,2.73.8,3.79,3.79,0,0,1,1.88,2.51L181,817.29c.21.71.49,1.07.85,1.07s.71-.39.86-1.18l5-28.78a3.56,3.56,0,0,1,1.39-2.36,3.84,3.84,0,0,1,2.24-.75,4.34,4.34,0,0,1,2.73,1,2.86,2.86,0,0,1,1,2.78l-7.17,36.27a5.6,5.6,0,0,1-1.87,3.16,5,5,0,0,1-3.37,1.23q-3.85,0-5.46-4.17l-6.31-22.69c-.22-.78-.54-1.17-1-1.17s-.74.39-1,1.17l-6.42,22.69Q160.95,829.7,157.09,829.7Z"
            transform="translate(-79.53 -268)" />
        <path class="cls-28"
            d="M215.3,829.7q-8,0-12.52-4.6t-4.49-12.41a14.91,14.91,0,0,1,4.55-11.24,16.18,16.18,0,0,1,11.71-4.39q7,0,11.13,4a13.17,13.17,0,0,1,4.17,9.89,4.66,4.66,0,0,1-1.23,3.53,4.35,4.35,0,0,1-3.15,1.18H206.85c-.72,0-1,.4-.75,1.18a7.86,7.86,0,0,0,3.48,4.65,10.8,10.8,0,0,0,5.94,1.66,17.58,17.58,0,0,0,4.76-.64,12,12,0,0,0,4-1.93,2.19,2.19,0,0,1,1.39-.42,2.92,2.92,0,0,1,2.14,1,3.39,3.39,0,0,1,1,2.41,4,4,0,0,1-.21,1.28,3.09,3.09,0,0,1-1,1.29,16.61,16.61,0,0,1-5.94,2.78A27.52,27.52,0,0,1,215.3,829.7Zm6.21-19.58a.57.57,0,0,0,.64-.64A5.42,5.42,0,0,0,220,805.2a8.18,8.18,0,0,0-5.41-1.82,10.15,10.15,0,0,0-5.29,1.5,6,6,0,0,0-3,4v.11a1.83,1.83,0,0,0-.06.75c0,.21.34.32.91.32Z"
            transform="translate(-79.53 -268)" />
        <path class="cls-28"
            d="M271.48,829.7a15.89,15.89,0,0,1-8.24-2.14,14.88,14.88,0,0,1-5.67-5.94,17.69,17.69,0,0,1-2-8.51,16.52,16.52,0,0,1,2-8.23,14.73,14.73,0,0,1,5.67-5.73,16.26,16.26,0,0,1,8.24-2.09,13.36,13.36,0,0,1,5.35,1,14.11,14.11,0,0,1,4.06,2.62,3.31,3.31,0,0,1,1.29-2.3,3.89,3.89,0,0,1,4.86.11,3.3,3.3,0,0,1,1.13,2.73v25.14a2.91,2.91,0,0,1-1.13,2.46,4.09,4.09,0,0,1-5,0,2.91,2.91,0,0,1-1.13-2.46V826a12.89,12.89,0,0,1-4.06,2.73A13.36,13.36,0,0,1,271.48,829.7Zm.64-6.64a8,8,0,0,0,6.42-2.72,10.68,10.68,0,0,0,2.35-7.23,9.72,9.72,0,0,0-2.35-6.84,8.25,8.25,0,0,0-6.42-2.57,9.08,9.08,0,0,0-6.74,2.57,9.21,9.21,0,0,0-2.57,6.84,10.09,10.09,0,0,0,2.57,7.23A8.82,8.82,0,0,0,272.12,823.06Z"
            transform="translate(-79.53 -268)" />
        <path class="cls-28"
            d="M303.47,812.79v13.59a2.91,2.91,0,0,1-1.13,2.46,4.11,4.11,0,0,1-5,0,2.93,2.93,0,0,1-1.12-2.46V801.24a3.33,3.33,0,0,1,1.12-2.73,3.93,3.93,0,0,1,5,0,3.3,3.3,0,0,1,1.13,2.73v.43a11.39,11.39,0,0,1,3.9-3.32,10.59,10.59,0,0,1,7.65-1,3.16,3.16,0,0,1,1.93,1.29,3.74,3.74,0,0,1,.64,2.14,3.86,3.86,0,0,1-.91,2.51,3.18,3.18,0,0,1-2.62,1.13,5.69,5.69,0,0,1-1.55-.22,8,8,0,0,0-2-.21,6.33,6.33,0,0,0-5.08,2.35A9.66,9.66,0,0,0,303.47,812.79Z"
            transform="translate(-79.53 -268)" />
        <path class="cls-28"
            d="M336.21,829.7q-8,0-12.52-4.6t-4.49-12.41a14.94,14.94,0,0,1,4.54-11.24,16.2,16.2,0,0,1,11.72-4.39q7,0,11.13,4a13.17,13.17,0,0,1,4.17,9.89,4.66,4.66,0,0,1-1.23,3.53,4.36,4.36,0,0,1-3.16,1.18H327.76c-.72,0-1,.4-.75,1.18a7.88,7.88,0,0,0,3.47,4.65,10.85,10.85,0,0,0,5.94,1.66,17.52,17.52,0,0,0,4.76-.64,11.92,11.92,0,0,0,4-1.93,2.17,2.17,0,0,1,1.39-.42,2.92,2.92,0,0,1,2.14,1,3.39,3.39,0,0,1,1,2.41,4,4,0,0,1-.21,1.28,3.13,3.13,0,0,1-1,1.29,16.49,16.49,0,0,1-5.93,2.78A27.52,27.52,0,0,1,336.21,829.7Zm6.21-19.58a.57.57,0,0,0,.64-.64,5.43,5.43,0,0,0-2.2-4.28,8.13,8.13,0,0,0-5.4-1.82,10.19,10.19,0,0,0-5.3,1.5,6.07,6.07,0,0,0-3.05,4v.11a1.81,1.81,0,0,0-.05.75c0,.21.34.32.91.32Z"
            transform="translate(-79.53 -268)" />
        <path class="cls-28"
            d="M405.44,829.7a4.07,4.07,0,0,1-2.52-.86,2.9,2.9,0,0,1-1.12-2.46V812.9q0-4.71-2.09-6.95a7.16,7.16,0,0,0-5.51-2.25c-2.92,0-5.05.94-6.36,2.83a10.7,10.7,0,0,0-2,6.26v13.59a2.91,2.91,0,0,1-1.13,2.46,4.11,4.11,0,0,1-5,0,2.9,2.9,0,0,1-1.12-2.46V801.24a3.3,3.3,0,0,1,1.12-2.73,3.93,3.93,0,0,1,5,0,3.3,3.3,0,0,1,1.13,2.73,14,14,0,0,1,4.7-3,14.63,14.63,0,0,1,5.46-1.18,12.26,12.26,0,0,1,9.52,3.86c2.36,2.56,3.54,6.35,3.54,11.34v14.12a2.87,2.87,0,0,1-1.18,2.46A4.16,4.16,0,0,1,405.44,829.7Z"
            transform="translate(-79.53 -268)" />
        <path class="cls-28"
            d="M431.54,829.7a17,17,0,0,1-8.5-2.14,15.28,15.28,0,0,1-5.94-5.94,17,17,0,0,1-2.14-8.51,15.88,15.88,0,0,1,2.14-8.23,15.16,15.16,0,0,1,5.94-5.73,17.35,17.35,0,0,1,8.5-2.09,17.11,17.11,0,0,1,8.46,2.09,15.86,15.86,0,0,1,5.94,5.73,15.63,15.63,0,0,1,2.19,8.23,16.72,16.72,0,0,1-2.19,8.51,16,16,0,0,1-5.94,5.94A16.73,16.73,0,0,1,431.54,829.7Zm0-6.64a8.8,8.8,0,0,0,6.74-2.72,10.09,10.09,0,0,0,2.57-7.23,9.21,9.21,0,0,0-2.57-6.84,10.19,10.19,0,0,0-13.53,0,9.34,9.34,0,0,0-2.52,6.84,10.24,10.24,0,0,0,2.52,7.23A8.76,8.76,0,0,0,431.54,823.06Z"
            transform="translate(-79.53 -268)" />
        <path class="cls-28"
            d="M466.64,829.7a9.5,9.5,0,0,1-6.85-2.57q-2.67-2.57-2.67-7.7V805.84a1,1,0,0,0-1.07-1.07h-1.93a3.31,3.31,0,0,1-2.35-.91,3,3,0,0,1-1-2.3,3.3,3.3,0,0,1,1-2.46,3.2,3.2,0,0,1,2.35-1h1.93a.94.94,0,0,0,1.07-1.07v-9a3.07,3.07,0,0,1,1-2.41,3.63,3.63,0,0,1,2.52-.91,3.77,3.77,0,0,1,2.62.91,3.08,3.08,0,0,1,1,2.41v9a.94.94,0,0,0,1.06,1.07h5.78a3.09,3.09,0,0,1,2.25,1,3.33,3.33,0,0,1,1,2.46,3.1,3.1,0,0,1-.91,2.3,3.27,3.27,0,0,1-2.4.91h-5.68a.94.94,0,0,0-1.06,1.07v12.62q0,4.5,3.63,4.5a8.72,8.72,0,0,0,2.25-.32,7.11,7.11,0,0,1,1.6-.32,2.85,2.85,0,0,1,2.31,1,3.42,3.42,0,0,1,.8,2.25,3.63,3.63,0,0,1-.54,1.87,3.14,3.14,0,0,1-1.71,1.34,16,16,0,0,1-2.94.69A20.57,20.57,0,0,1,466.64,829.7Z"
            transform="translate(-79.53 -268)" />
        <path class="cls-28"
            d="M515.43,829.7a15.89,15.89,0,0,1-8.24-2.14,14.88,14.88,0,0,1-5.67-5.94,17.69,17.69,0,0,1-2-8.51,16.52,16.52,0,0,1,2-8.23,14.73,14.73,0,0,1,5.67-5.73,16.26,16.26,0,0,1,8.24-2.09,13.33,13.33,0,0,1,5.35,1,14.16,14.16,0,0,1,4.07,2.62,3.33,3.33,0,0,1,1.28-2.3,3.9,3.9,0,0,1,4.87.11,3.3,3.3,0,0,1,1.12,2.73v25.14a2.9,2.9,0,0,1-1.12,2.46,4.11,4.11,0,0,1-5,0,2.9,2.9,0,0,1-1.12-2.46V826a12.94,12.94,0,0,1-4.07,2.73A13.33,13.33,0,0,1,515.43,829.7Zm.64-6.64a8,8,0,0,0,6.42-2.72,10.68,10.68,0,0,0,2.36-7.23,9.72,9.72,0,0,0-2.36-6.84,8.25,8.25,0,0,0-6.42-2.57,9.08,9.08,0,0,0-6.74,2.57,9.25,9.25,0,0,0-2.57,6.84,10.13,10.13,0,0,0,2.57,7.23A8.82,8.82,0,0,0,516.07,823.06Z"
            transform="translate(-79.53 -268)" />
        <path class="cls-28"
            d="M552.77,829.7a6.48,6.48,0,0,1-3-.7,4.29,4.29,0,0,1-2-2.08L537.15,802a6,6,0,0,1-.21-1.29,3.26,3.26,0,0,1,1.17-2.67,4,4,0,0,1,2.57-1,3.6,3.6,0,0,1,1.87.54,3.17,3.17,0,0,1,1.34,1.71l7.49,19.37a1.6,1.6,0,0,0,1.39,1.07,1.34,1.34,0,0,0,1.39-1.07l7.39-19.37a3.15,3.15,0,0,1,1.33-1.71,3.64,3.64,0,0,1,1.88-.54,3.88,3.88,0,0,1,2.62,1,3.2,3.2,0,0,1,1.12,2.56,6.16,6.16,0,0,1-.21,1.4L557.8,826.92a4.32,4.32,0,0,1-2,2.08A6.55,6.55,0,0,1,552.77,829.7Z"
            transform="translate(-79.53 -268)" />
        <path class="cls-28"
            d="M586.58,829.7a15.92,15.92,0,0,1-8.24-2.14,15,15,0,0,1-5.67-5.94,17.8,17.8,0,0,1-2-8.51,16.62,16.62,0,0,1,2-8.23,14.86,14.86,0,0,1,5.67-5.73,16.28,16.28,0,0,1,8.24-2.09,13.33,13.33,0,0,1,5.35,1A14,14,0,0,1,596,800.7a3.33,3.33,0,0,1,1.28-2.3,3.9,3.9,0,0,1,4.87.11,3.3,3.3,0,0,1,1.12,2.73v25.14a2.9,2.9,0,0,1-1.12,2.46,4.11,4.11,0,0,1-5,0,2.9,2.9,0,0,1-1.12-2.46V826a12.83,12.83,0,0,1-4.07,2.73A13.33,13.33,0,0,1,586.58,829.7Zm.64-6.64a8,8,0,0,0,6.42-2.72,10.68,10.68,0,0,0,2.36-7.23,9.72,9.72,0,0,0-2.36-6.84,8.25,8.25,0,0,0-6.42-2.57,9.1,9.1,0,0,0-6.74,2.57,9.24,9.24,0,0,0-2.56,6.84,10.13,10.13,0,0,0,2.56,7.23A8.83,8.83,0,0,0,587.22,823.06Z"
            transform="translate(-79.53 -268)" />
        <path class="cls-28"
            d="M615.15,791.18a5,5,0,0,1-3.48-1.34,4.28,4.28,0,0,1-1.44-3.26,4.18,4.18,0,0,1,1.44-3.16,5,5,0,0,1,3.48-1.34,4.65,4.65,0,0,1,3.32,1.34,4.27,4.27,0,0,1,1.39,3.16,4.38,4.38,0,0,1-1.39,3.26A4.65,4.65,0,0,1,615.15,791.18ZM615,829.7a4.06,4.06,0,0,1-2.51-.86,2.9,2.9,0,0,1-1.12-2.46V800.7a3.31,3.31,0,0,1,1.12-2.73,3.93,3.93,0,0,1,5,0,3.31,3.31,0,0,1,1.12,2.73v25.68a2.9,2.9,0,0,1-1.12,2.46A4.07,4.07,0,0,1,615,829.7Z"
            transform="translate(-79.53 -268)" />
        <path class="cls-28"
            d="M631,829.7a4.07,4.07,0,0,1-2.52-.86,2.9,2.9,0,0,1-1.12-2.46V785.72a3.31,3.31,0,0,1,1.12-2.73,3.93,3.93,0,0,1,5,0,3.31,3.31,0,0,1,1.12,2.73v40.66a2.9,2.9,0,0,1-1.12,2.46A4.06,4.06,0,0,1,631,829.7Z"
            transform="translate(-79.53 -268)" />
        <path class="cls-28"
            d="M657.2,829.7a15.89,15.89,0,0,1-8.24-2.14,14.88,14.88,0,0,1-5.67-5.94,17.69,17.69,0,0,1-2-8.51,16.52,16.52,0,0,1,2-8.23,14.73,14.73,0,0,1,5.67-5.73,16.26,16.26,0,0,1,8.24-2.09,13.33,13.33,0,0,1,5.35,1,14.16,14.16,0,0,1,4.07,2.62,3.33,3.33,0,0,1,1.28-2.3,3.9,3.9,0,0,1,4.87.11,3.3,3.3,0,0,1,1.12,2.73v25.14a2.9,2.9,0,0,1-1.12,2.46,4.11,4.11,0,0,1-5,0,2.9,2.9,0,0,1-1.12-2.46V826a12.94,12.94,0,0,1-4.07,2.73A13.33,13.33,0,0,1,657.2,829.7Zm.64-6.64a8,8,0,0,0,6.42-2.72,10.68,10.68,0,0,0,2.36-7.23,9.72,9.72,0,0,0-2.36-6.84,8.25,8.25,0,0,0-6.42-2.57,9.08,9.08,0,0,0-6.74,2.57,9.25,9.25,0,0,0-2.57,6.84,10.13,10.13,0,0,0,2.57,7.23A8.82,8.82,0,0,0,657.84,823.06Z"
            transform="translate(-79.53 -268)" />
        <path class="cls-28"
            d="M698.61,829.7a13.33,13.33,0,0,1-5.35-1,12.83,12.83,0,0,1-4.07-2.73v.43a2.9,2.9,0,0,1-1.12,2.46,4.11,4.11,0,0,1-5,0,2.9,2.9,0,0,1-1.12-2.46V785.72A3.31,3.31,0,0,1,683,783a3.93,3.93,0,0,1,5,0,3.31,3.31,0,0,1,1.12,2.73v15a12.2,12.2,0,0,1,4.07-2.67,13.87,13.87,0,0,1,5.35-1,16.18,16.18,0,0,1,8.29,2.09,15,15,0,0,1,5.62,5.73,16.62,16.62,0,0,1,2,8.23,17.8,17.8,0,0,1-2,8.51,15.1,15.1,0,0,1-5.62,5.94A15.82,15.82,0,0,1,698.61,829.7Zm-.65-6.64a8.84,8.84,0,0,0,6.75-2.72,10.13,10.13,0,0,0,2.56-7.23,9.24,9.24,0,0,0-2.56-6.84A9.11,9.11,0,0,0,698,803.7a8.25,8.25,0,0,0-6.42,2.57,9.72,9.72,0,0,0-2.35,6.84,10.68,10.68,0,0,0,2.35,7.23A8,8,0,0,0,698,823.06Z"
            transform="translate(-79.53 -268)" />
        <path class="cls-28"
            d="M724.61,829.7a4.07,4.07,0,0,1-2.52-.86,2.9,2.9,0,0,1-1.12-2.46V785.72a3.31,3.31,0,0,1,1.12-2.73,3.93,3.93,0,0,1,5,0,3.31,3.31,0,0,1,1.12,2.73v40.66a2.9,2.9,0,0,1-1.12,2.46A4.06,4.06,0,0,1,724.61,829.7Z"
            transform="translate(-79.53 -268)" />
        <path class="cls-28"
            d="M751.89,829.7q-8,0-12.52-4.6t-4.49-12.41a14.91,14.91,0,0,1,4.55-11.24,16.18,16.18,0,0,1,11.71-4.39q7,0,11.13,4a13.17,13.17,0,0,1,4.17,9.89,4.66,4.66,0,0,1-1.23,3.53,4.35,4.35,0,0,1-3.15,1.18H743.44c-.72,0-1,.4-.75,1.18a7.86,7.86,0,0,0,3.48,4.65,10.8,10.8,0,0,0,5.94,1.66,17.58,17.58,0,0,0,4.76-.64,12,12,0,0,0,4-1.93,2.19,2.19,0,0,1,1.39-.42,2.92,2.92,0,0,1,2.14,1,3.39,3.39,0,0,1,1,2.41,4,4,0,0,1-.21,1.28,3.09,3.09,0,0,1-1,1.29,16.61,16.61,0,0,1-5.94,2.78A27.52,27.52,0,0,1,751.89,829.7Zm6.21-19.58a.57.57,0,0,0,.64-.64,5.42,5.42,0,0,0-2.19-4.28,8.18,8.18,0,0,0-5.41-1.82,10.15,10.15,0,0,0-5.29,1.5,6,6,0,0,0-3.05,4v.11a1.83,1.83,0,0,0-.06.75c0,.21.34.32.91.32Z"
            transform="translate(-79.53 -268)" />
        <path class="cls-28"
            d="M791.05,800.7a3.24,3.24,0,0,1,1.18-2.67,3.93,3.93,0,0,1,2.57-1,3.31,3.31,0,0,1,3.21,2.25l8.34,20.44a1.27,1.27,0,0,0,2.36.1l7.17-20.43a3.26,3.26,0,0,1,3.31-2.36,4.28,4.28,0,0,1,2.73,1,2.9,2.9,0,0,1,1.23,2.35,5.24,5.24,0,0,1-.32,1.5l-16.37,39.91a3.26,3.26,0,0,1-3.32,2.35,4.18,4.18,0,0,1-2.62-1,2.9,2.9,0,0,1-1.23-2.35,2.6,2.6,0,0,1,.32-1.5l5.24-10.7a3.51,3.51,0,0,1-3.1-2.14L791.27,802A5.51,5.51,0,0,1,791.05,800.7Z"
            transform="translate(-79.53 -268)" />
        <path class="cls-28"
            d="M842.3,829.7q-8,0-12.51-4.6t-4.5-12.41a15,15,0,0,1,4.55-11.24,16.2,16.2,0,0,1,11.72-4.39q6.95,0,11.12,4a13.15,13.15,0,0,1,4.18,9.89,4.66,4.66,0,0,1-1.23,3.53,4.39,4.39,0,0,1-3.16,1.18H833.85c-.71,0-1,.4-.75,1.18a7.86,7.86,0,0,0,3.48,4.65,10.85,10.85,0,0,0,5.94,1.66,17.52,17.52,0,0,0,4.76-.64,12,12,0,0,0,4-1.93,2.19,2.19,0,0,1,1.39-.42,2.91,2.91,0,0,1,2.14,1,3.36,3.36,0,0,1,1,2.41,4.05,4.05,0,0,1-.22,1.28,3,3,0,0,1-1,1.29,16.61,16.61,0,0,1-5.94,2.78A27.45,27.45,0,0,1,842.3,829.7Zm6.21-19.58a.57.57,0,0,0,.64-.64A5.42,5.42,0,0,0,847,805.2a8.13,8.13,0,0,0-5.4-1.82,10.16,10.16,0,0,0-5.3,1.5,6,6,0,0,0-3,4v.11a1.81,1.81,0,0,0-.05.75c0,.21.33.32.91.32Z"
            transform="translate(-79.53 -268)" />
        <path class="cls-28"
            d="M875.37,829.7a9.48,9.48,0,0,1-6.85-2.57q-2.68-2.57-2.68-7.7V805.84a.94.94,0,0,0-1.07-1.07h-1.92a3.33,3.33,0,0,1-2.36-.91,3,3,0,0,1-1-2.3,3.33,3.33,0,0,1,1-2.46,3.22,3.22,0,0,1,2.36-1h1.92a.94.94,0,0,0,1.07-1.07v-9a3.08,3.08,0,0,1,1-2.41,3.61,3.61,0,0,1,2.51-.91,3.79,3.79,0,0,1,2.63.91,3.1,3.1,0,0,1,1,2.41v9a.94.94,0,0,0,1.07,1.07h5.78a3.11,3.11,0,0,1,2.25,1,3.33,3.33,0,0,1,1,2.46,3.1,3.1,0,0,1-.91,2.3,3.29,3.29,0,0,1-2.41.91h-5.67a1,1,0,0,0-1.07,1.07v12.62q0,4.5,3.64,4.5a8.78,8.78,0,0,0,2.25-.32,7.11,7.11,0,0,1,1.6-.32,2.82,2.82,0,0,1,2.3,1,3.38,3.38,0,0,1,.81,2.25,3.63,3.63,0,0,1-.54,1.87,3.21,3.21,0,0,1-1.71,1.34,16.42,16.42,0,0,1-2.94.69A20.69,20.69,0,0,1,875.37,829.7Z"
            transform="translate(-79.53 -268)" />
        <path class="cls-28"
            d="M917,829.7a3.48,3.48,0,0,1-2.57-1,3.36,3.36,0,0,1-1-2.46V805.84a1,1,0,0,0-1.07-1.07h-2.47a3.33,3.33,0,0,1-2.35-.91,3,3,0,0,1-1-2.3,3.33,3.33,0,0,1,1-2.46,3.22,3.22,0,0,1,2.35-1h2.47a.94.94,0,0,0,1.07-1.07v-2.78a12.24,12.24,0,0,1,2.83-8.5q2.84-3.16,8.08-3.16a11.27,11.27,0,0,1,2.41.27c.82.18,1.44.34,1.87.48a2.92,2.92,0,0,1,2,3,3.37,3.37,0,0,1-1,2.63,3.52,3.52,0,0,1-2.41.9,4.45,4.45,0,0,1-1.39-.21,6.16,6.16,0,0,0-1.82-.21,2.72,2.72,0,0,0-2.57,1.28,7.57,7.57,0,0,0-.75,3.75v2.56a.94.94,0,0,0,1.07,1.07h4.6a3.09,3.09,0,0,1,2.25,1,3.33,3.33,0,0,1,1,2.46,3.1,3.1,0,0,1-.91,2.3,3.27,3.27,0,0,1-2.4.91h-4.5a1,1,0,0,0-1.07,1.07v20.44a3.2,3.2,0,0,1-1.07,2.46A3.84,3.84,0,0,1,917,829.7Z"
            transform="translate(-79.53 -268)" />
        <path class="cls-28"
            d="M949.94,829.7a17,17,0,0,1-8.5-2.14,15.28,15.28,0,0,1-5.94-5.94,17,17,0,0,1-2.14-8.51,15.88,15.88,0,0,1,2.14-8.23,15.16,15.16,0,0,1,5.94-5.73,17.35,17.35,0,0,1,8.5-2.09,17,17,0,0,1,8.45,2.09,15.66,15.66,0,0,1,8.14,14,16.73,16.73,0,0,1-2.2,8.51,15.83,15.83,0,0,1-5.94,5.94A16.67,16.67,0,0,1,949.94,829.7Zm0-6.64a8.82,8.82,0,0,0,6.74-2.72,10.13,10.13,0,0,0,2.57-7.23,9.25,9.25,0,0,0-2.57-6.84,10.19,10.19,0,0,0-13.53,0,9.34,9.34,0,0,0-2.52,6.84,10.24,10.24,0,0,0,2.52,7.23A8.76,8.76,0,0,0,949.94,823.06Z"
            transform="translate(-79.53 -268)" />
        <path class="cls-28"
            d="M980.22,812.79v13.59a2.9,2.9,0,0,1-1.12,2.46,4.11,4.11,0,0,1-5,0,2.9,2.9,0,0,1-1.12-2.46V801.24a3.3,3.3,0,0,1,1.12-2.73,3.93,3.93,0,0,1,5,0,3.3,3.3,0,0,1,1.12,2.73v.43a11.34,11.34,0,0,1,3.91-3.32,10.6,10.6,0,0,1,5.08-1.29,10.77,10.77,0,0,1,2.57.32,3.14,3.14,0,0,1,1.92,1.29,3.75,3.75,0,0,1,.65,2.14,3.92,3.92,0,0,1-.91,2.51,3.18,3.18,0,0,1-2.62,1.13,5.81,5.81,0,0,1-1.56-.22,7.9,7.9,0,0,0-2-.21,6.33,6.33,0,0,0-5.08,2.35A9.66,9.66,0,0,0,980.22,812.79Z"
            transform="translate(-79.53 -268)" />
        <path class="cls-28"
            d="M341.93,926.7a3.67,3.67,0,0,1-2.83-1.23,3.49,3.49,0,0,1-.91-2.94l4.6-36a4.3,4.3,0,0,1,1.66-3.21,5.19,5.19,0,0,1,3.15-1.07,6.35,6.35,0,0,1,3.16.81,4.15,4.15,0,0,1,2,2.4l8.45,24c.36.86.71,1.29,1.07,1.29s.79-.43,1.07-1.29l8.45-24a4.15,4.15,0,0,1,2-2.4,6.16,6.16,0,0,1,3.05-.81,5.45,5.45,0,0,1,3.21,1.07,4.29,4.29,0,0,1,1.72,3.21l4.6,36a3.63,3.63,0,0,1-3.75,4.17,3.76,3.76,0,0,1-2.51-1,3.88,3.88,0,0,1-1.34-2.46l-2.35-26.43c-.08-.86-.36-1.29-.86-1.29s-.86.36-1.07,1.07l-7.7,21.29a4.8,4.8,0,0,1-1.82,2.47,4.89,4.89,0,0,1-2.68.74c-1.92,0-3.39-1.07-4.39-3.21l-7.81-21.29c-.28-.71-.64-1.07-1.07-1.07s-.5.43-.64,1.29l-2.57,26.43a3.46,3.46,0,0,1-1.23,2.46A3.91,3.91,0,0,1,341.93,926.7Z"
            transform="translate(-79.53 -268)" />
        <path class="cls-28"
            d="M408.27,926.7a17,17,0,0,1-8.51-2.14,15.32,15.32,0,0,1-5.93-5.94,17,17,0,0,1-2.14-8.51,15.88,15.88,0,0,1,2.14-8.23,15.2,15.2,0,0,1,5.93-5.73,17.42,17.42,0,0,1,8.51-2.09,17,17,0,0,1,8.45,2.09,15.66,15.66,0,0,1,8.14,14,16.73,16.73,0,0,1-2.2,8.51,15.83,15.83,0,0,1-5.94,5.94A16.67,16.67,0,0,1,408.27,926.7Zm0-6.64a8.82,8.82,0,0,0,6.74-2.72,10.13,10.13,0,0,0,2.57-7.23,9.25,9.25,0,0,0-2.57-6.84,10.19,10.19,0,0,0-13.53,0,9.34,9.34,0,0,0-2.52,6.84,10.24,10.24,0,0,0,2.52,7.23A8.76,8.76,0,0,0,408.27,920.06Z"
            transform="translate(-79.53 -268)" />
        <path class="cls-28"
            d="M448,926.7a13.33,13.33,0,0,1-5.35-1,12.83,12.83,0,0,1-4.07-2.73v.43a2.9,2.9,0,0,1-1.12,2.46,4.11,4.11,0,0,1-5,0,2.91,2.91,0,0,1-1.13-2.46V882.72A3.31,3.31,0,0,1,432.4,880a3.93,3.93,0,0,1,5,0,3.31,3.31,0,0,1,1.12,2.73v15a12.2,12.2,0,0,1,4.07-2.67,13.87,13.87,0,0,1,5.35-1,16.18,16.18,0,0,1,8.29,2.09,15,15,0,0,1,5.62,5.73,16.62,16.62,0,0,1,2,8.23,17.8,17.8,0,0,1-2,8.51,15.1,15.1,0,0,1-5.62,5.94A15.82,15.82,0,0,1,448,926.7Zm-.64-6.64a8.83,8.83,0,0,0,6.74-2.72,10.13,10.13,0,0,0,2.56-7.23,9.24,9.24,0,0,0-2.56-6.84,9.1,9.1,0,0,0-6.74-2.57,8.22,8.22,0,0,0-6.42,2.57,9.72,9.72,0,0,0-2.36,6.84,10.68,10.68,0,0,0,2.36,7.23A8,8,0,0,0,447.33,920.06Z"
            transform="translate(-79.53 -268)" />
        <path class="cls-28"
            d="M474.18,888.18a5,5,0,0,1-3.48-1.34,4.28,4.28,0,0,1-1.44-3.26,4.18,4.18,0,0,1,1.44-3.16,5,5,0,0,1,3.48-1.34,4.65,4.65,0,0,1,3.32,1.34,4.27,4.27,0,0,1,1.39,3.16,4.38,4.38,0,0,1-1.39,3.26A4.65,4.65,0,0,1,474.18,888.18Zm-.11,38.52a4.06,4.06,0,0,1-2.51-.86,2.9,2.9,0,0,1-1.12-2.46V897.7a3.31,3.31,0,0,1,1.12-2.73,3.93,3.93,0,0,1,5,0,3.31,3.31,0,0,1,1.12,2.73v25.68a2.9,2.9,0,0,1-1.12,2.46A4.07,4.07,0,0,1,474.07,926.7Z"
            transform="translate(-79.53 -268)" />
        <path class="cls-28"
            d="M490,926.7a4.07,4.07,0,0,1-2.52-.86,2.9,2.9,0,0,1-1.12-2.46V882.72A3.31,3.31,0,0,1,487.5,880a3.93,3.93,0,0,1,5,0,3.31,3.31,0,0,1,1.12,2.73v40.66a2.9,2.9,0,0,1-1.12,2.46A4.06,4.06,0,0,1,490,926.7Z"
            transform="translate(-79.53 -268)" />
        <path class="cls-28"
            d="M517.3,926.7q-8,0-12.52-4.6t-4.49-12.41a14.94,14.94,0,0,1,4.54-11.24,16.22,16.22,0,0,1,11.72-4.39q7,0,11.13,4a13.17,13.17,0,0,1,4.17,9.89,4.66,4.66,0,0,1-1.23,3.53,4.35,4.35,0,0,1-3.15,1.18H508.85c-.72,0-1,.4-.75,1.18a7.86,7.86,0,0,0,3.48,4.65,10.79,10.79,0,0,0,5.93,1.66,17.65,17.65,0,0,0,4.77-.64,12,12,0,0,0,4-1.93,2.17,2.17,0,0,1,1.39-.42,2.92,2.92,0,0,1,2.14,1,3.39,3.39,0,0,1,1,2.41,4,4,0,0,1-.21,1.28,3.18,3.18,0,0,1-1,1.29,16.61,16.61,0,0,1-5.94,2.78A27.52,27.52,0,0,1,517.3,926.7Zm6.21-19.58a.57.57,0,0,0,.64-.64A5.42,5.42,0,0,0,522,902.2a8.18,8.18,0,0,0-5.41-1.82,10.22,10.22,0,0,0-5.3,1.5,6,6,0,0,0-3,4v.11a1.83,1.83,0,0,0-.06.75c0,.21.34.32.91.32Z"
            transform="translate(-79.53 -268)" />
        <path class="cls-28"
            d="M573.47,926.7a15.88,15.88,0,0,1-8.23-2.14,15,15,0,0,1-5.68-5.94,17.8,17.8,0,0,1-2-8.51,16.62,16.62,0,0,1,2-8.23,14.82,14.82,0,0,1,5.68-5.73,16.24,16.24,0,0,1,8.23-2.09,13.87,13.87,0,0,1,5.35,1,12.2,12.2,0,0,1,4.07,2.67v-15A3.34,3.34,0,0,1,584,880a3.93,3.93,0,0,1,5,0,3.31,3.31,0,0,1,1.13,2.73v40.66a2.91,2.91,0,0,1-1.13,2.46,4.11,4.11,0,0,1-5,0,2.93,2.93,0,0,1-1.12-2.46V923a12.83,12.83,0,0,1-4.07,2.73A13.33,13.33,0,0,1,573.47,926.7Zm.65-6.64a8,8,0,0,0,6.42-2.72,10.68,10.68,0,0,0,2.35-7.23,9.72,9.72,0,0,0-2.35-6.84,8.25,8.25,0,0,0-6.42-2.57,9.07,9.07,0,0,0-6.74,2.57,9.21,9.21,0,0,0-2.57,6.84,10.09,10.09,0,0,0,2.57,7.23A8.8,8.8,0,0,0,574.12,920.06Z"
            transform="translate(-79.53 -268)" />
        <path class="cls-28"
            d="M613.06,926.7q-8,0-12.52-4.6t-4.49-12.41a14.91,14.91,0,0,1,4.55-11.24,16.18,16.18,0,0,1,11.71-4.39q7,0,11.13,4a13.18,13.18,0,0,1,4.18,9.89,4.66,4.66,0,0,1-1.24,3.53,4.35,4.35,0,0,1-3.15,1.18H604.61c-.71,0-1,.4-.75,1.18a7.86,7.86,0,0,0,3.48,4.65,10.85,10.85,0,0,0,5.94,1.66,17.58,17.58,0,0,0,4.76-.64,12,12,0,0,0,4-1.93,2.19,2.19,0,0,1,1.39-.42,2.91,2.91,0,0,1,2.14,1,3.39,3.39,0,0,1,1,2.41,4,4,0,0,1-.21,1.28,3,3,0,0,1-1,1.29,16.61,16.61,0,0,1-5.94,2.78A27.52,27.52,0,0,1,613.06,926.7Zm6.21-19.58a.57.57,0,0,0,.64-.64,5.42,5.42,0,0,0-2.19-4.28,8.18,8.18,0,0,0-5.41-1.82,10.15,10.15,0,0,0-5.29,1.5,6,6,0,0,0-3,4v.11a2,2,0,0,0-.06.75c0,.21.34.32.91.32Z"
            transform="translate(-79.53 -268)" />
        <path class="cls-28"
            d="M646.66,926.7a6.55,6.55,0,0,1-3-.7,4.32,4.32,0,0,1-2-2.08L631,899a5.51,5.51,0,0,1-.22-1.29A3.27,3.27,0,0,1,632,895a4,4,0,0,1,2.57-1,3.6,3.6,0,0,1,1.87.54,3.17,3.17,0,0,1,1.34,1.71l7.49,19.37a1.6,1.6,0,0,0,1.39,1.07,1.34,1.34,0,0,0,1.39-1.07l7.38-19.37a3.17,3.17,0,0,1,1.34-1.71,3.63,3.63,0,0,1,1.87-.54,3.89,3.89,0,0,1,2.63,1,3.2,3.2,0,0,1,1.12,2.56,6.16,6.16,0,0,1-.21,1.4l-10.49,24.93a4.32,4.32,0,0,1-2,2.08A6.55,6.55,0,0,1,646.66,926.7Z"
            transform="translate(-79.53 -268)" />
        <path class="cls-28"
            d="M671.59,888.18a5,5,0,0,1-3.48-1.34,4.28,4.28,0,0,1-1.44-3.26,4.18,4.18,0,0,1,1.44-3.16,5,5,0,0,1,3.48-1.34,4.65,4.65,0,0,1,3.32,1.34,4.27,4.27,0,0,1,1.39,3.16,4.38,4.38,0,0,1-1.39,3.26A4.65,4.65,0,0,1,671.59,888.18Zm-.11,38.52a4,4,0,0,1-2.51-.86,2.91,2.91,0,0,1-1.13-2.46V897.7A3.31,3.31,0,0,1,669,895a3.93,3.93,0,0,1,5,0,3.31,3.31,0,0,1,1.12,2.73v25.68a2.9,2.9,0,0,1-1.12,2.46A4.07,4.07,0,0,1,671.48,926.7Z"
            transform="translate(-79.53 -268)" />
        <path class="cls-28"
            d="M698,926.7a15.93,15.93,0,0,1-11.77-4.6,17.68,17.68,0,0,1-2.46-20.33,15,15,0,0,1,5.83-5.67,17.07,17.07,0,0,1,8.4-2,19.18,19.18,0,0,1,10.91,3,3,3,0,0,1,1.5,2.68,3.41,3.41,0,0,1-1.07,2.67,3.56,3.56,0,0,1-2.46,1,3.44,3.44,0,0,1-1.71-.42c-2.64-1.79-5.1-2.57-7.39-2.36a10.24,10.24,0,0,0-6.52,2.84,9.3,9.3,0,0,0-2.36,6.79,10,10,0,0,0,2.52,7.22c1.67,1.75,4,2.62,7.11,2.62a13.41,13.41,0,0,0,8.14-3.1,3.26,3.26,0,0,1,2.24-.75,2.68,2.68,0,0,1,2.41,1.23,4.23,4.23,0,0,1,.8,2.3,3.77,3.77,0,0,1-1.39,2.79,15,15,0,0,1-5.88,3.26A25.31,25.31,0,0,1,698,926.7Z"
            transform="translate(-79.53 -268)" />
        <path class="cls-28"
            d="M732.9,926.7q-8,0-12.52-4.6t-4.49-12.41a14.94,14.94,0,0,1,4.54-11.24,16.22,16.22,0,0,1,11.72-4.39q7,0,11.13,4a13.17,13.17,0,0,1,4.17,9.89,4.66,4.66,0,0,1-1.23,3.53,4.35,4.35,0,0,1-3.15,1.18H724.45c-.72,0-1,.4-.75,1.18a7.86,7.86,0,0,0,3.48,4.65,10.79,10.79,0,0,0,5.93,1.66,17.65,17.65,0,0,0,4.77-.64,12,12,0,0,0,4-1.93,2.17,2.17,0,0,1,1.39-.42,2.92,2.92,0,0,1,2.14,1,3.39,3.39,0,0,1,1,2.41,4,4,0,0,1-.21,1.28,3.18,3.18,0,0,1-1,1.29,16.61,16.61,0,0,1-5.94,2.78A27.52,27.52,0,0,1,732.9,926.7Zm6.21-19.58a.57.57,0,0,0,.64-.64,5.41,5.41,0,0,0-2.2-4.28,8.13,8.13,0,0,0-5.4-1.82,10.19,10.19,0,0,0-5.3,1.5,6.07,6.07,0,0,0-3.05,4v.11a1.81,1.81,0,0,0,0,.75c0,.21.34.32.91.32Z"
            transform="translate(-79.53 -268)" />
        <path class="cls-28"
            d="M765,926.7a26.17,26.17,0,0,1-6.31-.8,17.36,17.36,0,0,1-5.68-2.52,3.46,3.46,0,0,1-1.28-2.57,3.36,3.36,0,0,1,1.12-2.46,3.58,3.58,0,0,1,2.52-1.07,3.06,3.06,0,0,1,1.5.43,16.9,16.9,0,0,0,4.44,1.87,17.58,17.58,0,0,0,4.76.7,8.38,8.38,0,0,0,3.69-.75,2.55,2.55,0,0,0,1.55-2.46,2.78,2.78,0,0,0-1.5-2.57,14.52,14.52,0,0,0-5.13-1.28c-1-.14-2.2-.32-3.59-.54A16.89,16.89,0,0,1,757,911.5a8.72,8.72,0,0,1-3.42-2.56,7.07,7.07,0,0,1-1.39-4.6,9.08,9.08,0,0,1,3.48-7.49c2.31-1.86,5.44-2.79,9.36-2.79a23.85,23.85,0,0,1,6.47.86,12,12,0,0,1,4.55,2.14,2.86,2.86,0,0,1,1.18,2.25,3.55,3.55,0,0,1-1,2.46,3,3,0,0,1-2.35,1.07,3.12,3.12,0,0,1-1.39-.32,14.27,14.27,0,0,0-3.8-1.45,17.89,17.89,0,0,0-4-.48,9.15,9.15,0,0,0-3.8.7,2.28,2.28,0,0,0-1.55,2.19,2.41,2.41,0,0,0,.91,1.87c.6.54,2.19,1,4.76,1.34,1.21.14,2.58.36,4.12.64a21.45,21.45,0,0,1,4.44,1.34,8.32,8.32,0,0,1,3.53,2.83,8.81,8.81,0,0,1,1.39,5.25,8.2,8.2,0,0,1-1.93,5.62,11.53,11.53,0,0,1-5,3.26A19.83,19.83,0,0,1,765,926.7Z"
            transform="translate(-79.53 -268)" />
        <path class="cls-28"
            d="M791.43,927.23A4.93,4.93,0,0,1,788,925.9a4.21,4.21,0,0,1-1.45-3.16,4.29,4.29,0,0,1,1.45-3.26,4.9,4.9,0,0,1,3.48-1.34,4.57,4.57,0,0,1,3.31,1.34,4.34,4.34,0,0,1,1.39,3.26,4.25,4.25,0,0,1-1.39,3.16A4.6,4.6,0,0,1,791.43,927.23Z"
            transform="translate(-79.53 -268)" />
    </g>
    <g id="oops">
        <path class="cls-47"
            d="M400.36,658.08a62.72,62.72,0,0,1-29.22-6.8,54.39,54.39,0,0,1-20.9-18.54,47.16,47.16,0,0,1-7.76-26.58q0-15.58,7.76-27.2a53,53,0,0,1,20.9-18.17,64.6,64.6,0,0,1,29.22-6.55,62.91,62.91,0,0,1,28.94,6.55A52.52,52.52,0,0,1,449.79,579q7.6,11.63,7.61,27.2a47.84,47.84,0,0,1-7.61,26.58,54,54,0,0,1-20.49,18.54A61.09,61.09,0,0,1,400.36,658.08Zm0-15.08a37.19,37.19,0,0,0,19.52-5.07A36.17,36.17,0,0,0,433,624.46a36.94,36.94,0,0,0,4.7-18.3q0-15.82-10.52-26.21t-26.86-10.38q-16.62,0-27.14,10.38T362.7,606.16a36.84,36.84,0,0,0,4.7,18.3,35.74,35.74,0,0,0,13.3,13.47A37.9,37.9,0,0,0,400.36,643Z"
            transform="translate(-79.53 -268)" />
        <path class="cls-47"
            d="M512.79,658.08a48.37,48.37,0,0,1-22-4.94,37.82,37.82,0,0,1-15.37-13.73,36,36,0,0,1-5.54-19.65,33.84,33.84,0,0,1,5.54-19,38,38,0,0,1,15.37-13.23,49.37,49.37,0,0,1,22-4.82,48.48,48.48,0,0,1,21.87,4.82A39.25,39.25,0,0,1,550,600.72a33.26,33.26,0,0,1,5.68,19A35.42,35.42,0,0,1,550,639.41a39,39,0,0,1-15.37,13.73A47.5,47.5,0,0,1,512.79,658.08Zm0-15.33q10.8,0,17.44-6.3t6.65-16.69q0-9.88-6.65-15.83T512.79,598q-11.08,0-17.59,5.93t-6.5,15.83q0,10.38,6.5,16.69T512.79,642.75Z"
            transform="translate(-79.53 -268)" />
        <path class="cls-47"
            d="M615.52,658.08a38.14,38.14,0,0,1-13.84-2.35,33.68,33.68,0,0,1-10.53-6.3V683.8a6.47,6.47,0,0,1-2.9,5.68,11.69,11.69,0,0,1-13,0,6.45,6.45,0,0,1-2.91-5.68V592.31a7.26,7.26,0,0,1,2.91-6.3,10.86,10.86,0,0,1,6.51-2.1,10.7,10.7,0,0,1,6.09,1.85,7.57,7.57,0,0,1,3.32,5.32A36.73,36.73,0,0,1,601.68,585a38.14,38.14,0,0,1,13.84-2.35A45.93,45.93,0,0,1,637,587.49a36.8,36.8,0,0,1,14.54,13.23,35.1,35.1,0,0,1,5.26,19,37.42,37.42,0,0,1-5.26,19.65A36.71,36.71,0,0,1,637,653.14,45,45,0,0,1,615.52,658.08Zm-1.66-15.33q10.8,0,17.45-6.3T638,619.76q0-9.88-6.64-15.83T613.86,598q-10.53,0-16.61,5.93t-6.1,15.83q0,10.38,6.1,16.69T613.86,642.75Z"
            transform="translate(-79.53 -268)" />
        <path class="cls-47"
            d="M702.2,658.08a75.2,75.2,0,0,1-16.34-1.85,47.05,47.05,0,0,1-14.68-5.81c-2.21-1.82-3.32-3.79-3.32-5.94a7.33,7.33,0,0,1,2.9-5.68,9.8,9.8,0,0,1,6.51-2.48,8.6,8.6,0,0,1,3.88,1,47.46,47.46,0,0,0,11.49,4.33A51.57,51.57,0,0,0,705,643.25a24.15,24.15,0,0,0,9.56-1.73c2.67-1.16,4-3,4-5.69a6.36,6.36,0,0,0-3.87-5.94q-3.88-2-13.3-3-3.87-.49-9.27-1.24A48.82,48.82,0,0,1,681.43,623a22.45,22.45,0,0,1-8.87-5.93q-3.6-4-3.59-10.63a20.2,20.2,0,0,1,9-17.31q9-6.44,24.24-6.43a68.65,68.65,0,0,1,16.75,2q7.89,2,11.77,4.94,3,2.24,3,5.2a7.77,7.77,0,0,1-2.49,5.68,8.3,8.3,0,0,1-6.09,2.47,8.66,8.66,0,0,1-3.6-.74,40,40,0,0,0-9.83-3.34,51.57,51.57,0,0,0-10.39-1.11,26.58,26.58,0,0,0-9.83,1.61q-4,1.6-4,5.07a5.38,5.38,0,0,0,2.35,4.32q2.36,1.86,12.33,3.1,4.69.49,10.66,1.48a60.48,60.48,0,0,1,11.49,3.09,21.17,21.17,0,0,1,9.14,6.55c2.39,3,3.6,7,3.6,12.12a17.72,17.72,0,0,1-5,13,30.4,30.4,0,0,1-12.87,7.54A57,57,0,0,1,702.2,658.08Z"
            transform="translate(-79.53 -268)" />
        <path class="cls-47"
            d="M770.59,659.32a13.68,13.68,0,0,1-9-3.09,9.23,9.23,0,0,1-3.74-7.3,9.48,9.48,0,0,1,3.74-7.54,13.68,13.68,0,0,1,9-3.09,12.75,12.75,0,0,1,8.59,3.09,9.63,9.63,0,0,1,3.6,7.54,9.38,9.38,0,0,1-3.6,7.3A12.75,12.75,0,0,1,770.59,659.32Zm0-32.89a7,7,0,0,1-4.84-1.85,7.37,7.37,0,0,1-2.36-5.07l-3.32-57.11q-.29-4.7,3-7a12.58,12.58,0,0,1,7.47-2.35,12.2,12.2,0,0,1,7.2,2.35c2.22,1.57,3.23,3.92,3.05,7l-2.77,57.11a7.18,7.18,0,0,1-7.48,6.92Z"
            transform="translate(-79.53 -268)" />
    </g>

    <style>

        #tools, #we, #chap, #monitor, #try, #logo, #oops {
            animation: anime3 2s ease-in-out;
            transform-box: fill-box;
            transform-origin: center;
            opacity: 1;
        }


        #oops{
            animation: anime2 5s ease-in-out infinite;
            animation-delay: 3s;
            transform-box: fill-box;
            transform-origin: center;   
        }


        .cls-27{
            animation: colorChanger1 2s step-start infinite ;
        }

        .cls-25 {
            animation: colorChanger2 2s step-start infinite ; 
        }
        
        .cls-26 {
            animation: colorChanger3 2s step-start infinite ;
        }
        .cls-24 {
            animation: colorChanger4 2s step-start infinite ;
        }

       


        #tools {
            animation: anime1 12s ease-in-out infinite;
            transform-box: fill-box;
            transform-origin: center;
        }


        
        #try{
            animation: anime2 1s ease-in-out infinite;
            transform-box: fill-box;
            transform-origin: center;
           
        }

        #rEye, #lEye {
                animation:Blink 2s infinite ease-in-out;
            }

            @keyframes Blink{
            0%{opacity: 0;}
            25%{opacity: 1;}
            45%{opacity: 1;}
            50%{opacity: 0;}
            65%{opacity: 1;}
            95%{opacity: 1;}
            100%{opacity: 0;}
        }


        @keyframes anime1 {
            0% {
                transform: rotateZ(0deg);
            }
            25% {
                transform: rotateZ(90deg);
            }
            50% {
                transform: rotateZ(180deg);
            }
            75% {
                transform: rotateZ(270deg);
            }
            100% {
                transform: rotateZ(360deg);
            }
         }

        @keyframes anime2 {
            25% {
                transform: scale(1,1);
                transform-origin: center;
                transform-box: fill-box;
                opacity: 1;
            }

            50% {
                transform: scale(1.2, 1.2);
                transform-origin: center;
                transform-box: fill-box;
                opacity: 1;
            }

            75% {
                transform: scale(1,1);
                transform-origin: center;
                transform-box: fill-box;
                opacity: 1;
            }
        }

         @keyframes anime3 {
            0%{
                opacity: 0;
            } 
            50% {
                transform: scale(1,1);
                transform-origin: center;
                transform-box: fill-box;
                opacity: 1;
            }

            75% {
                transform: scale(1.2, 1.2);
                transform-origin: center;
                transform-box: fill-box;
                opacity: 1;
            }

            100% {
                transform: scale(1,1);
                transform-origin: center;
                transform-box: fill-box;
                opacity: 1;
            }
        }

        @keyframes colorChanger1{
            20% {
                fill: #ff921e;
            }
            60%{
                fill: #3fa8f4;
            }
            80%{
                fill: #ff1d25;
            }
            100%{
                fill: #7ac843;
            }
        }

        @keyframes colorChanger2{
            20%{
                fill: #7ac843;
            }
            60%{
                fill: #ff1d25;
            }
            80%{
                fill: #3fa8f4;
            }
            100%{
                fill: #ff921e;
            }
        }

        @keyframes colorChanger3{
            20% {
                fill: #ff1d25;
            }
            60%{
                fill: #7ac843;
            }
            80%{
                fill: #ff921e;
            }
            100%{
                fill: #3fa8f4;
            }
        }

        @keyframes colorChanger4{
            20% {
                fill: #3fa8f4;
            }
            60%{
                fill: #ff921e;
            }
            80%{
                fill: #7ac843;
            }
            100%{
                fill: #ff1d25;
            }
        }
    </style>
</svg>