<svg xmlns="http://www.w3.org/2000/svg" viewBox="0 0 1920 1087">
    <defs>
        <style>
            .cls-1 {
                fill: #ccc;
                opacity: 0.12;
            }

            .cls-2,
            .cls-3,
            .cls-5,
            .cls-6 {
                fill: none;
                stroke-linejoin: round;
            }

            .cls-2 {
                stroke: #b2b3b4;
            }

            .cls-2,
            .cls-3,
            .cls-6 {
                stroke-linecap: round;
            }

            .cls-2,
            .cls-3 {
                stroke-width: 7px;
            }

            .cls-3 {
                stroke: #333;
            }

            .cls-4 {
                fill: #2fbbf4;
            }

            .cls-4,
            .cls-7 {
                fill-rule: evenodd;
            }

            .cls-5 {
                stroke: #092933;
            }

            .cls-5,
            .cls-6 {
                stroke-width: 15px;
            }

            .cls-6 {
                stroke: #fff;
                stroke-dasharray: 1 2 6 2 3;
            }

            .cls-7 {
                fill: #332e09;
                opacity: 0.2;
                isolation: isolate;
            }
        </style>
    </defs>
    <!-- <title>countdown3</title> -->
    <g id="bg">
        <rect class="cls-1" y="1.5" />
    </g>
    <g id="target">
        <line class="cls-2" x1="1523" y1="543.5" x2="443" y2="543.5" />
        <line class="cls-2" x1="983" y1="3.5" x2="983" y2="1083.5" />
        <circle class="cls-2" cx="983" cy="543.5" r="293.48" />
        <circle class="cls-3" cx="983" cy="543.5" r="423.91" />
    </g>
    <g id="_1" data-name="1">
        <path id="Fill-1" class="cls-4"
            d="M942,725.32V436.79q-80.54,61.83-108.43,61.83-13.34,0-23.63-10.62t-10.29-24.58q0-16.16,10.14-23.78T845.61,420Q884,401.93,907,381.94a258.78,258.78,0,0,0,40.75-44.7q17.76-24.75,23.15-30.44t20.28-5.71q16.82,0,27,13t10.14,35.84V713q0,63.72-43.43,63.73-19.35,0-31.07-13T942,725.32"
            transform="translate(-0.5 2)" />
        <path id="Stroke-3" class="cls-5"
            d="M942,725.32V436.79q-80.54,61.83-108.43,61.83-13.34,0-23.63-10.62t-10.29-24.58q0-16.16,10.14-23.78T845.61,420Q884,401.93,907,381.94a258.78,258.78,0,0,0,40.75-44.7q17.76-24.75,23.15-30.44t20.28-5.71q16.82,0,27,13t10.14,35.84V713q0,63.72-43.43,63.73-19.35,0-31.07-13T942,725.32Z"
            transform="translate(-0.5 2)" />
        <path id="Stroke-5" class="cls-6" d="M856.43,443.06A68.91,68.91,0,0,0,870.35,437"
            transform="translate(-0.5 2)" />
        <path id="Fill-7" class="cls-7"
            d="M984.8,751.21c-10.48,0-18.56-3.33-24.76-10.21s-9.55-18-9.55-32.66v17C950.49,740,953.7,751,960,758s14.28,10.2,24.76,10.2c15,0,35-5.72,35-55.23V696c0,49.51-20,55.24-35,55.24"
            transform="translate(-0.5 2)" />
        <path id="Stroke-5-2" data-name="Stroke-5" class="cls-6" d="M889.82,424c14-7,25.49-14.52,34.13-22.47"
            transform="translate(-0.5 2)" />
    </g>
    <g id="_2" data-name="2">
        <path id="Fill-1-2" data-name="Fill-1" class="cls-4"
            d="M928.33,698.55h170.43q25.47,0,38.86,10.44T1151,737.41q0,16-10.61,27.1t-32.15,11.1H867.92q-24.49,0-38.2-13.56T816,730.22q0-11.75,8.8-31.19t19.27-30.51q43.44-45.07,78.36-77.23t50-42.28Q999.17,530.08,1017,511t27.09-39.18q9.32-20.07,9.32-39.34,0-20.9-10-37.39a69.07,69.07,0,0,0-27.11-25.63,78.23,78.23,0,0,0-37.39-9.13q-42.75,0-67.25,37.55-3.28,4.88-10.94,26.76t-17.31,33.63Q873.79,470,855.19,470q-16.34,0-27.11-10.78t-10.77-29.38q0-22.53,10.12-47a135.07,135.07,0,0,1,30.2-44.39q20.07-19.92,51-32.16T980.89,294q50,0,85.23,15.67a128.26,128.26,0,0,1,40.16,28.74,134.93,134.93,0,0,1,36.57,92.07q0,40.49-20.09,73.64t-41,51.91q-20.91,18.78-70,58.93t-67.43,62.37a183.69,183.69,0,0,0-16,21.22"
            transform="translate(-0.5 2)" />
        <path id="Stroke-3-2" data-name="Stroke-3" class="cls-5"
            d="M928.33,698.55h170.43q25.47,0,38.86,10.44T1151,737.41q0,16-10.61,27.1t-32.15,11.1H867.92q-24.49,0-38.2-13.56T816,730.22q0-11.75,8.8-31.19t19.27-30.51q43.44-45.07,78.36-77.23t50-42.28Q999.17,530.08,1017,511t27.09-39.18q9.32-20.07,9.32-39.34,0-20.9-10-37.39a69.07,69.07,0,0,0-27.11-25.63,78.23,78.23,0,0,0-37.39-9.13q-42.75,0-67.25,37.55-3.28,4.88-10.94,26.76t-17.31,33.63Q873.79,470,855.19,470q-16.34,0-27.11-10.78t-10.77-29.38q0-22.53,10.12-47a135.07,135.07,0,0,1,30.2-44.39q20.07-19.92,51-32.16T980.89,294q50,0,85.23,15.67a128.26,128.26,0,0,1,40.16,28.74,134.93,134.93,0,0,1,36.57,92.07q0,40.49-20.09,73.64t-41,51.91q-20.91,18.78-70,58.93t-67.43,62.37a183.69,183.69,0,0,0-16,21.22Z"
            transform="translate(-0.5 2)" />
        <path id="Stroke-5-3" data-name="Stroke-5" class="cls-6"
            d="M914.9,331.11c6.79-3.29,15.74-6,26.55-8.11s24.23-3.2,39.45-3.2" transform="translate(-0.5 2)" />
        <path id="Fill-7-2" data-name="Fill-7" class="cls-7"
            d="M1141.16,728.93a28.69,28.69,0,0,1-7,12.43c-5.37,5.61-14.09,8.45-25.94,8.45H867.92c-14.11,0-24.62-3.63-32.15-11.06a36,36,0,0,1-10-16.94,39.27,39.27,0,0,0-1.2,8.41c0,9.89,3.64,18.3,11.16,25.73s18,11.06,32.15,11.06h240.32c11.85,0,20.57-2.84,25.94-8.45,5.53-5.79,8.24-12.71,8.24-21.17a30.56,30.56,0,0,0-1.26-8.46"
            transform="translate(-0.5 2)" />
        <path id="Stroke-5-4" data-name="Stroke-5" class="cls-6"
            d="M876.36,356.76a76.51,76.51,0,0,1,5.66-5.47,73.91,73.91,0,0,1,11.85-8.43" transform="translate(-0.5 2)" />
    </g>
    <g id="_3" data-name="3">
        <path id="Fill-1-3" data-name="Fill-1" class="cls-4"
            d="M961.52,497.26q29.6,0,51-17.37t21.4-49.91a59.62,59.62,0,0,0-17.06-42.63q-17.05-17.88-46-17.88-19.64,0-32.34,5.48t-20.13,14.48a110.43,110.43,0,0,0-14,23.18q-6.58,14.14-12.07,26.72c-2.13,4.5-6,8-11.59,10.61a45.49,45.49,0,0,1-19.3,3.87q-12.88,0-23.66-10.46T827,415.5q0-16.74,10.14-35.23T866.72,345q19.49-16.74,48.44-26.88T979.86,308q31.21,0,57,8.54a133,133,0,0,1,44.73,24.62,106.48,106.48,0,0,1,28.66,37.34,109.33,109.33,0,0,1,9.64,45.7q0,32.18-14,55.2t-40.07,44.89q25.11,13.51,42.32,30.9a115.37,115.37,0,0,1,34.6,84A142,142,0,0,1,1131,695.85a144.24,144.24,0,0,1-34.59,48.75q-22.86,21.42-54.24,33.48t-69.36,12.07q-38.61,0-69.19-13.83t-50.38-34.61q-19.79-20.75-29.93-43t-10.14-36.7q0-18.67,12.07-30.1t30.1-11.42a32,32,0,0,1,17.37,5.31q8.37,5.31,11,12.72,16.74,44.75,35.89,66.45t53.91,21.73a81,81,0,0,0,38.45-9.81q18.52-9.81,30.59-29.14t12.07-44.73q0-37.66-20.6-59.07t-57.29-21.4q-6.45,0-19.95,1.29c-9,.86-14.81,1.29-17.4,1.29q-17.68,0-27.36-8.85T902.3,531.7q0-15.45,11.59-25t34.44-9.49Z"
            transform="translate(-0.5 2)" />
        <path id="Stroke-3-3" data-name="Stroke-3" class="cls-5"
            d="M961.52,497.26q29.6,0,51-17.37t21.4-49.91a59.62,59.62,0,0,0-17.06-42.63q-17.05-17.88-46-17.88-19.64,0-32.34,5.48t-20.13,14.48a110.43,110.43,0,0,0-14,23.18q-6.58,14.14-12.07,26.72c-2.13,4.5-6,8-11.59,10.61a45.49,45.49,0,0,1-19.3,3.87q-12.88,0-23.66-10.46T827,415.5q0-16.74,10.14-35.23T866.72,345q19.49-16.74,48.44-26.88T979.86,308q31.21,0,57,8.54a133,133,0,0,1,44.73,24.62,106.48,106.48,0,0,1,28.66,37.34,109.33,109.33,0,0,1,9.64,45.7q0,32.18-14,55.2t-40.07,44.89q25.11,13.51,42.32,30.9a115.37,115.37,0,0,1,34.6,84A142,142,0,0,1,1131,695.85a144.24,144.24,0,0,1-34.59,48.75q-22.86,21.42-54.24,33.48t-69.36,12.07q-38.61,0-69.19-13.83t-50.38-34.61q-19.79-20.75-29.93-43t-10.14-36.7q0-18.67,12.07-30.1t30.1-11.42a32,32,0,0,1,17.37,5.31q8.37,5.31,11,12.72,16.74,44.75,35.89,66.45t53.91,21.73a81,81,0,0,0,38.45-9.81q18.52-9.81,30.59-29.14t12.07-44.73q0-37.66-20.6-59.07t-57.29-21.4q-6.45,0-19.95,1.29c-9,.86-14.81,1.29-17.4,1.29q-17.68,0-27.36-8.85T902.3,531.7q0-15.45,11.59-25t34.44-9.49Z"
            transform="translate(-0.5 2)" />
        <path id="Stroke-5-5" data-name="Stroke-5" class="cls-6"
            d="M914.23,345.73c7.13-3.48,16.34-6.35,27.36-8.53a198.31,198.31,0,0,1,38.27-3.36"
            transform="translate(-0.5 2)" />
        <path id="Fill-7-3" data-name="Fill-7" class="cls-7"
            d="M1133.7,630.09a134.8,134.8,0,0,1-10.64,45.15,136.62,136.62,0,0,1-32.56,45.87,157.53,157.53,0,0,1-51.44,31.72c-19.83,7.62-42.12,11.5-66.28,11.5-24.41,0-46.49-4.41-65.64-13.07s-35.33-19.75-47.69-32.72-22-26.72-28.33-40.6c-4.31-9.4-7-17.57-8.37-24.52a39,39,0,0,0-1,8.63c0,8.38,3.15,19.52,9.37,33.11,6.32,13.88,15.84,27.53,28.33,40.6s28.41,24,47.69,32.72,41.23,13.07,65.64,13.07c24.16,0,46.45-3.88,66.28-11.5a157.53,157.53,0,0,0,51.44-31.72,136.56,136.56,0,0,0,32.56-45.88,134.36,134.36,0,0,0,11-53.26c0-3.08-.19-6.09-.41-9.1"
            transform="translate(-0.5 2)" />
        <path id="Stroke-5-6" data-name="Stroke-5" class="cls-6"
            d="M883.5,364.8c1.45-1.21,3-2.45,4.67-3.68,2.16-1.59,4.26-3,6.27-4.26" transform="translate(-0.5 2)" />
    </g>
    <g id="GO">
        <g id="G">
            <path id="Fill-1-4" data-name="Fill-1" class="cls-4"
                d="M965.3,569.18v52.69q0,10.5-2.06,16.78A26.69,26.69,0,0,1,955.65,650a71.2,71.2,0,0,1-14.16,9.75q-24.93,13.5-48,19.69a193.65,193.65,0,0,1-50.25,6.19q-31.68,0-57.74-9.76a121.36,121.36,0,0,1-44.44-28.31q-18.37-18.56-28.21-45T703,543.5q0-32.07,9.56-58.69t28.12-45.19q18.57-18.56,45.2-28.4t60.37-9.84q27.74,0,49.12,7.4t34.69,18.66q13.31,11.25,20.05,23.81t6.76,22.31a23.79,23.79,0,0,1-7.79,17.9,26,26,0,0,1-18.65,7.41,25,25,0,0,1-11.53-2.81,26.18,26.18,0,0,1-9.28-7.88q-10.32-16.12-17.44-24.37T873,449.93q-12.11-5.61-30.85-5.62-19.3,0-34.49,6.66a71.34,71.34,0,0,0-26,19.31q-10.77,12.64-16.49,31A136.23,136.23,0,0,0,759.43,542q0,48.38,22.22,74.43t62,26.06a126.49,126.49,0,0,0,36.28-5.06A184,184,0,0,0,914.3,623V578.37H871.18q-15.57,0-23.53-4.69t-8-15.94a19.57,19.57,0,0,1,6.66-15.19q6.64-6,18.09-6h63.19a80.89,80.89,0,0,1,19.68,2.06,22.32,22.32,0,0,1,13,9.18q5,7.13,5,21.38"
                transform="translate(-0.5 2)" />
            <path id="Stroke-3-4" data-name="Stroke-3" class="cls-5"
                d="M965.3,569.18v52.69q0,10.5-2.06,16.78A26.69,26.69,0,0,1,955.65,650a71.2,71.2,0,0,1-14.16,9.75q-24.93,13.5-48,19.69a193.65,193.65,0,0,1-50.25,6.19q-31.68,0-57.74-9.76a121.36,121.36,0,0,1-44.44-28.31q-18.37-18.56-28.21-45T703,543.5q0-32.07,9.56-58.69t28.12-45.19q18.57-18.56,45.2-28.4t60.37-9.84q27.74,0,49.12,7.4t34.69,18.66q13.31,11.25,20.05,23.81t6.76,22.31a23.79,23.79,0,0,1-7.79,17.9,26,26,0,0,1-18.65,7.41,25,25,0,0,1-11.53-2.81,26.18,26.18,0,0,1-9.28-7.88q-10.32-16.12-17.44-24.37T873,449.93q-12.11-5.61-30.85-5.62-19.3,0-34.49,6.66a71.34,71.34,0,0,0-26,19.31q-10.77,12.64-16.49,31A136.23,136.23,0,0,0,759.43,542q0,48.38,22.22,74.43t62,26.06a126.49,126.49,0,0,0,36.28-5.06A184,184,0,0,0,914.3,623V578.37H871.18q-15.57,0-23.53-4.69t-8-15.94a19.57,19.57,0,0,1,6.66-15.19q6.64-6,18.09-6h63.19a80.89,80.89,0,0,1,19.68,2.06,22.32,22.32,0,0,1,13,9.18q5,7.13,5,21.38Z"
                transform="translate(-0.5 2)" />
            <path id="Fill-5" class="cls-7"
                d="M958.41,626.92a21.32,21.32,0,0,1-6.19,9.18,66.63,66.63,0,0,1-13.14,9c-16.21,8.76-32,15.25-46.9,19.24a188.92,188.92,0,0,1-48.94,6c-20.4,0-39.24-3.17-56-9.42a117.18,117.18,0,0,1-42.6-27.13,120.71,120.71,0,0,1-27.08-43.2c-5.8-15.59-8.85-33.19-9.33-52.24,0,1.7-.19,3.36-.19,5.09,0,21,3.2,40.32,9.52,57.3A120.62,120.62,0,0,0,744.67,644a117.18,117.18,0,0,0,42.6,27.13c16.73,6.25,35.57,9.42,56,9.42a188.92,188.92,0,0,0,48.94-6c14.91-4,30.69-10.48,46.9-19.24a67.05,67.05,0,0,0,13.14-9,21.41,21.41,0,0,0,6.19-9.19c1.21-3.68,1.82-8.78,1.82-15.2V611.72c0,6.42-.61,11.52-1.82,15.2"
                transform="translate(-0.5 2)" />
            <path id="Stroke-7" class="cls-6" d="M787,426.79a138,138,0,0,1,59.2-10.19" transform="translate(-0.5 2)" />
            <path id="Stroke-7-2" data-name="Stroke-7" class="cls-6"
                d="M751.44,450.49a60.87,60.87,0,0,1,4.84-5.1,61.89,61.89,0,0,1,12.88-9.3"
                transform="translate(-0.5 2)" />
        </g>
        <g id="O">
            <path id="Fill-1-5" data-name="Fill-1" class="cls-4"
                d="M1205.52,540.43q0-30.73-9.92-53.28t-28.37-34.09q-18.42-11.55-42.3-11.55a76.63,76.63,0,0,0-31.41,6.39,69.11,69.11,0,0,0-24.83,18.62q-10.41,12.23-16.42,31.23t-6,42.68q0,23.87,6,43.16t17,32a71.47,71.47,0,0,0,25.2,19A79.61,79.61,0,0,0,1165.7,630q18.24-10.89,29-33.6t10.79-56m-80.59-144q43.54,0,74.77,17.66A114.51,114.51,0,0,1,1247,464.33q16,32.55,16,76.48,0,32.46-8.78,59a127.65,127.65,0,0,1-26.35,46,115.11,115.11,0,0,1-43.16,29.8q-25.59,10.3-58.63,10.31-32.85,0-58.82-10.6t-43.35-29.89q-17.38-19.28-26.26-46.4a187.35,187.35,0,0,1-8.88-58.63q0-32.28,9.27-59.21t26.83-45.82a115.91,115.91,0,0,1,42.77-28.93q25.2-10,57.29-10"
                transform="translate(-0.5 2)" />
            <path id="Stroke-3-5" data-name="Stroke-3" class="cls-5"
                d="M1205.52,540.43q0-30.73-9.92-53.28t-28.37-34.09q-18.42-11.55-42.3-11.55a76.63,76.63,0,0,0-31.41,6.39,69.11,69.11,0,0,0-24.83,18.62q-10.41,12.23-16.42,31.23t-6,42.68q0,23.87,6,43.16t17,32a71.47,71.47,0,0,0,25.2,19A79.61,79.61,0,0,0,1165.7,630q18.24-10.89,29-33.6t10.79-56Zm-80.59-144q43.54,0,74.77,17.66A114.51,114.51,0,0,1,1247,464.33q16,32.55,16,76.48,0,32.46-8.78,59a127.65,127.65,0,0,1-26.35,46,115.11,115.11,0,0,1-43.16,29.8q-25.59,10.3-58.63,10.31-32.85,0-58.82-10.6t-43.35-29.89q-17.38-19.28-26.26-46.4a187.35,187.35,0,0,1-8.88-58.63q0-32.28,9.27-59.21t26.83-45.82a115.91,115.91,0,0,1,42.77-28.93q25.2-10,57.29-10Z"
                transform="translate(-0.5 2)" />
            <path id="Fill-7-4" data-name="Fill-7" class="cls-7"
                d="M1257.63,536.43c-.5,18.66-3.21,36-8.32,51.43A123.31,123.31,0,0,1,1224,632.05a110.8,110.8,0,0,1-41.26,28.45c-16.35,6.6-35.43,9.94-56.7,9.94s-40.27-3.44-56.86-10.21a112.37,112.37,0,0,1-41.46-28.57c-11-12.26-19.53-27.25-25.18-44.55a180.35,180.35,0,0,1-8.44-51.79c0,1.71-.19,3.38-.19,5.12a182.8,182.8,0,0,0,8.63,57c5.65,17.3,14.13,32.29,25.18,44.55a112.37,112.37,0,0,0,41.46,28.57c16.59,6.77,35.73,10.21,56.86,10.21s40.35-3.34,56.7-9.94A110.71,110.71,0,0,0,1224,642.38a123.18,123.18,0,0,0,25.28-44.18c5.66-17.1,8.52-36.4,8.52-57.38,0-1.51-.17-2.9-.2-4.39"
                transform="translate(-0.5 2)" />
            <path id="Stroke-7-3" data-name="Stroke-7" class="cls-6" d="M1068.82,422.63A138.11,138.11,0,0,1,1128,412.44"
                transform="translate(-0.5 2)" />
            <path id="Stroke-7-4" data-name="Stroke-7" class="cls-6"
                d="M1033.23,446.33a59.28,59.28,0,0,1,4.84-5.1,61.85,61.85,0,0,1,12.87-9.3"
                transform="translate(-0.5 2)" />
        </g>
    </g>

    <style> 
        #target {
            animation: anime1 4s ease-in-out;
            transform-box: fill-box;
            transform-origin: center;
        }
        #GO, #_1, #_2, #_3{
            opacity: 0;
        }
        #_3{
            animation: anime2 1s ease-in-out;
            transform-box: fill-box;
            transform-origin: center;
           
        }
        #_2{
            animation: anime2 1s ease-in-out;
            animation-delay: 1s;
            transform-box: fill-box;
            transform-origin: center;
           
        }
        #_1{
            animation: anime2 1s ease-in-out;
            animation-delay: 2s;
            transform-box: fill-box;
            transform-origin: center;
           
        }
        #GO{
            animation: anime2 1s ease-in-out;
            animation-delay: 3s;
            transform-box: fill-box;
            transform-origin: center;
           
        }

         /* @keyframes anime1 {
            0% {
                transform: rotateZ(0deg);
            }
            25% {
                transform: rotateZ(90deg);
            }
            500% {
                transform: rotateZ(180deg);
            }
         } */

         @keyframes anime1 {
            0% {
                transform: rotateZ(0deg);
            }
            25% {
                transform: rotateZ(90deg);
            }
            50% {
                transform: rotateZ(180deg);
            }
            75% {
                transform: rotateZ(270deg);
            }
            100% {
                transform: rotateZ(360deg);
            }
         }
        @keyframes anime2 {
            0% {
                transform: scale(1,1);
                transform-origin: center;
                transform-box: fill-box;
                opacity: 1;
            }

            50% {
                transform: scale(2, 2);
                transform-origin: center;
                transform-box: fill-box;
                opacity: 1;
            }

            100% {
                transform: scale(1,1);
                transform-origin: center;
                transform-box: fill-box;
                opacity: 1;
            }
        }
        
    </style>

</svg>