<svg id="Layer_1" data-name="Layer 1" xmlns="http://www.w3.org/2000/svg" viewBox="0 0 956 956">
    <defs>
        <style>
            .cls-1 {
                opacity: 0.49;
            }

            .cls-2 {
                fill: #3fa8f4;
            }

            .cls-3 {
                fill: #7ac843;
            }

            .cls-4 {
                fill: #ff1d25;
            }

            .cls-5 {
                fill: #ff921e;
            }

            .cls-6 {
                fill: #fff;
            }
        </style>
    </defs>
    <title>Logo</title>
    <g id="shodow2" class="cls-1">
        <path id="Sbottom" class="cls-2"
            d="M242,769,499,520.32,756,769c-20.26,21.82-51.3,54.08-91.12,91.12C578.42,940.54,534.36,980.74,492.1,978.94,459,977.6,422.16,944.11,349.83,876.73,302.67,833,266.06,795,242,769Z"
            transform="translate(-20.96 -23)" />
        <path id="Stop" class="cls-3"
            d="M756,233,499,481.68,242,233c20.26-21.79,51.29-54.08,91.11-91.12C419.51,61.46,463.59,21.26,505.82,23.06c33.13,1.34,70,35,142.3,102.23C695.29,169,731.89,207.05,756,233Z"
            transform="translate(-20.96 -23)" />
        <path id="Sright" class="cls-4"
            d="M767,244Q642.65,372.64,518.28,501,642.66,629.63,767,758c21.81-20.26,54.08-51.29,91.11-91.11,80.39-86.42,120.59-130.51,118.8-172.74C975.57,461,942.07,424.2,874.7,351.87,831,304.7,792.94,268.1,767,244Z"
            transform="translate(-20.96 -23)" />
        <path id="Sleft" class="cls-5"
            d="M230.93,758,479.64,501,230.93,244c-21.79,20.26-54.08,51.29-91.11,91.11C59.42,421.54,19.23,465.63,21,507.86c1.34,33.12,35,70,102.24,142.27C166.94,697.3,205,733.9,230.93,758Z"
            transform="translate(-20.96 -23)" />
    </g>
    <path id="bottom" class="cls-2"
        d="M270.4,742.83,500,520.64,729.56,742.83c-18.09,19.45-45.82,48.23-81.47,81.43-77.2,71.8-116.57,107.68-154.33,106.15-29.47-1.2-62.49-31.25-127.1-91.33C324.62,800.07,291.89,766,270.4,742.83Z"
        transform="translate(-20.96 -23)" />
    <path id="top" class="cls-3"
        d="M729.56,263.92,500,486.1,270.4,263.92c18.09-19.48,45.8-48.24,81.47-81.47,77.2-71.79,116.57-107.65,154.3-106.12,29.48,1.18,62.49,31.25,127.1,91.33C675.35,206.76,708,240.76,729.56,263.92Z"
        transform="translate(-20.96 -23)" />
    <path id="right" class="cls-4"
        d="M739.42,273.78,517.24,503.36,739.42,733.07c19.48-18.11,48.24-45.82,81.47-81.47C892.68,574.4,928.54,535,927,497.27c-1.18-29.47-31.25-62.49-91.3-127.1C796.61,328,762.57,295.3,739.42,273.78Z"
        transform="translate(-20.96 -23)" />
    <path id="left" class="cls-5"
        d="M260.54,733.07l222.18-229.6Q371.61,388.72,260.54,273.89c-19.48,18.09-48.24,45.82-81.46,81.46C107.28,432.56,71.4,472,72.93,509.68c1.2,29.48,31.27,62.5,91.33,127.11C203.35,678.72,237.36,711.44,260.54,733.07Z"
        transform="translate(-20.96 -23)" />
    <path id="_" data-name="+" class="cls-6"
        d="M420.15,290.26a30.91,30.91,0,0,1-22.48-8,30.06,30.06,0,0,1,0-41.56,30.91,30.91,0,0,1,22.48-8H470a2.68,2.68,0,0,0,2.93-2.42,4.17,4.17,0,0,0,0-.5V179.85q0-15.16,8.57-23.47a31.32,31.32,0,0,1,42.5,0q8.58,8.33,8.58,23.47V229.7a2.68,2.68,0,0,0,2.41,2.92h50.43a31,31,0,0,1,22.49,8,30.16,30.16,0,0,1,0,41.56,31,31,0,0,1-22.49,8H535.54a2.68,2.68,0,0,0-2.92,2.42,4.17,4.17,0,0,0,0,.5v49.87q0,15.17-8.57,23.45a31.34,31.34,0,0,1-42.51,0Q473,358.22,473,343.05V293.18a2.68,2.68,0,0,0-2.42-2.92,2.09,2.09,0,0,0-.5,0Z"
        transform="translate(-20.96 -23)" />
    <path id="x" class="cls-6"
        d="M180.55,463.11a30.87,30.87,0,0,1-10.4-21.44A30.13,30.13,0,0,1,199.25,412,30.94,30.94,0,0,1,221,422l35.56,34.83a2.68,2.68,0,0,0,3.77.39,3.59,3.59,0,0,0,.39-.39l34.83-35.56q10.59-10.71,22.54-10.72a31.34,31.34,0,0,1,30.34,29.78q.28,11.94-10.35,22.75L303.2,498.67a2.69,2.69,0,0,0-.38,3.77,2.28,2.28,0,0,0,.38.38l35.59,34.84a30.85,30.85,0,0,1,10.4,21.44,30.09,30.09,0,0,1-29.08,29.74,30.94,30.94,0,0,1-21.7-10L262.85,544a2.68,2.68,0,0,0-3.77-.39,3.59,3.59,0,0,0-.39.39l-34.84,35.59q-10.71,10.71-22.53,10.71A31.32,31.32,0,0,1,171,560.55q-.27-11.91,10.32-22.73l34.84-35.59a2.68,2.68,0,0,0,.35-3.77,2.32,2.32,0,0,0-.35-.35Z"
        transform="translate(-20.96 -23)" />
    <path id="_-" data-name="-" class="cls-6"
        d="M446.36,785.41q-17,0-27-8.31a28.27,28.27,0,0,1,0-42.88q9.94-8.33,27-8.33H554.09q17,0,26.79,8.33a28.27,28.27,0,0,1,3,39.87,27.6,27.6,0,0,1-3,3q-9.92,8.34-26.79,8.31Z"
        transform="translate(-20.96 -23)" />
    <g id="_2" data-name="/">
        <path class="cls-6"
            d="M690.73,548.41q-17,0-26.8-8.31a28.27,28.27,0,0,1-3-39.87,29.49,29.49,0,0,1,3-3q9.92-8.33,26.8-8.31H798.46c11.36,0,20.31,2.68,26.8,8.31A28.23,28.23,0,0,1,828.35,537a29.08,29.08,0,0,1-3.09,3.09q-9.93,8.32-26.8,8.31Z"
            transform="translate(-20.96 -23)" />
        <circle class="cls-6" cx="721.11" cy="411.06" r="29.42" />
        <circle class="cls-6" cx="721.11" cy="573.99" r="29.42" />
    </g>
    <style>
        #left, #right, #top, #bottom{
            
        }

        .cls-5{
            animation: colorChanger1 0.25s ease-in infinite ;
        }

        .cls-3 {
            animation: colorChanger2 0.25s ease-in infinite ; 
        }
        
        .cls-4 {
            animation: colorChanger3 0.25s ease-in infinite ;
        }
        .cls-2 {
            animation: colorChanger4 0.25s ease-in infinite ;
        }


        @keyframes colorChanger1{
            20% {
                fill: #ff921e;
            }
            60%{
                fill: #3fa8f4;
            }
            80%{
                fill: #ff1d25;
            }
            100%{
                fill: #7ac843;
            }
        }

        @keyframes colorChanger2{
            20%{
                fill: #7ac843;
            }
            60%{
                fill: #ff1d25;
            }
            80%{
                fill: #3fa8f4;
            }
            100%{
                fill: #ff921e;
            }
        }

        @keyframes colorChanger3{
            20% {
                fill: #ff1d25;
            }
            60%{
                fill: #7ac843;
            }
            80%{
                fill: #ff921e;
            }
            100%{
                fill: #3fa8f4;
            }
        }

        @keyframes colorChanger4{
            20% {
                fill: #3fa8f4;
            }
            60%{
                fill: #ff921e;
            }
            80%{
                fill: #7ac843;
            }
            100%{
                fill: #ff1d25;
            }
        }
    </style>
</svg>