<?xml version="1.0" encoding="utf-8"?>
<svg viewBox="0 0 1173.95 356.8" xmlns="http://www.w3.org/2000/svg" xmlns:xlink="http://www.w3.org/1999/xlink" xmlns:bx="https://boxy-svg.com">
  <defs>
    <linearGradient id="gradient-5-1" gradientUnits="userSpaceOnUse" x1="1054.873" y1="419.594" x2="1054.873" y2="664.395" xlink:href="#gradient-5"/>
    <linearGradient id="gradient-5" bx:pinned="true">
      <stop style="stop-color: rgb(248, 239, 116);" offset="0"/>
      <stop offset="0.449" style="stop-color: rgb(239, 222, 70);"/>
      <stop style="stop-color: rgb(255, 200, 4);" offset="0.944"/>
    </linearGradient>
    <linearGradient id="gradient-1-0" gradientUnits="userSpaceOnUse" x1="424.725" y1="433.73" x2="424.725" y2="670.19" xlink:href="#gradient-1"/>
    <linearGradient id="gradient-1" bx:pinned="true">
      <stop style="stop-color: rgb(164, 223, 121);" offset="0"/>
      <stop offset="0.51" style="stop-color: rgb(144, 212, 95);"/>
      <stop offset="1" style="stop-color: rgb(76, 165, 13);"/>
    </linearGradient>
    <linearGradient id="gradient-2-0" gradientUnits="userSpaceOnUse" x1="641.012" y1="432.484" x2="641.012" y2="670.266" xlink:href="#gradient-2"/>
    <linearGradient id="gradient-2" bx:pinned="true">
      <stop style="stop-color: rgb(254, 197, 135);" offset="0"/>
      <stop style="stop-color: rgb(255, 132, 0);" offset="0.827"/>
    </linearGradient>
    <linearGradient id="gradient-3-0" gradientUnits="userSpaceOnUse" x1="798.185" y1="434.55" x2="798.185" y2="670.38" xlink:href="#gradient-3"/>
    <linearGradient id="gradient-3" bx:pinned="true">
      <stop style="stop-color: rgb(255, 136, 140);" offset="0"/>
      <stop offset="0.204" style="stop-color: rgb(217, 87, 91);"/>
      <stop style="stop-color: rgb(218, 27, 34);" offset="1"/>
    </linearGradient>
    <linearGradient id="gradient-4-0" gradientUnits="userSpaceOnUse" x1="932.585" y1="433.73" x2="932.585" y2="669.94" xlink:href="#gradient-4"/>
    <linearGradient id="gradient-4" bx:pinned="true">
      <stop style="stop-color: rgb(138, 201, 246);" offset="0"/>
      <stop style="stop-color: rgb(7, 117, 196);" offset="1"/>
    </linearGradient>
    <linearGradient id="gradient-5-0" gradientUnits="userSpaceOnUse" x1="1069.469" y1="434.162" x2="1069.469" y2="672.354" xlink:href="#gradient-5"/>
    <style>.cls-1{opacity:0.49;}.cls-2{fill:#3fa8f4;}.cls-3{fill:#7ac843;}.cls-4{fill:#ff1d25;}.cls-5{fill:#ff921e;}.cls-6{fill:#fff;}.cls-7{opacity:0.5;}.cls-8{fill:#1c4393;}</style>
  </defs>
  <g class="cls-1">
    <path class="cls-2" d="M1216.84,651.42l95.9-92.81,95.9,92.81c-7.56,8.14-19.14,20.18-34,34-32.25,30-48.69,45-64.46,44.33-12.36-.5-26.1-13-53.09-38.14C1239.49,675.3,1225.83,661.1,1216.84,651.42Z" transform="translate(-317.19 -373)" style="stroke-width: 2px;"/>
    <path class="cls-3" d="M1408.64,451.38l-95.9,92.81-95.9-92.81c7.56-8.13,19.14-20.18,34-34,32.25-30,48.7-45,64.46-44.33,12.36.5,26.11,13.05,53.1,38.15C1386,427.5,1399.66,441.71,1408.64,451.38Z" transform="translate(-317.19 -373)" style="stroke-width: 2px;"/>
    <path class="cls-4" d="M1412.76,455.5q-46.4,48-92.81,95.9,46.41,48,92.81,95.9c8.14-7.56,20.18-19.14,34-34,30-32.25,45-48.7,44.33-64.46-.5-12.36-13-26.1-38.14-53.09C1436.64,478.15,1422.44,464.49,1412.76,455.5Z" transform="translate(-317.19 -373)" style="stroke-width: 2px;"/>
    <path class="cls-5" d="M1212.72,647.3l92.81-95.9-92.81-95.9c-8.13,7.56-20.18,19.14-34,34-30,32.25-45,48.7-44.33,64.46.5,12.36,13.06,26.11,38.15,53.09C1188.84,624.65,1203.05,638.31,1212.72,647.3Z" transform="translate(-317.19 -373)" style="stroke-width: 2px;"/>
  </g>
  <path class="cls-2" d="M1227.45,641.64l85.67-82.91,85.67,82.91c-6.75,7.26-17.1,18-30.4,30.39-28.81,26.79-43.5,40.18-57.59,39.61-11-.45-23.32-11.66-47.43-34.08C1247.68,663,1235.47,650.28,1227.45,641.64Z" transform="matrix(1, 0, 0, 1, -317.190002, -373)"/>
  <path class="cls-3" d="M1398.79,462.93l-85.67,82.91-85.67-82.91c6.75-7.27,17.09-18,30.4-30.4,28.81-26.79,43.5-40.17,57.58-39.6,11,.44,23.32,11.66,47.43,34.08C1378.56,441.6,1390.76,454.29,1398.79,462.93Z" transform="matrix(1, 0, 0, 1, -317.190002, -373)"/>
  <path class="cls-4" d="M1402.47,466.61q-41.46,42.84-82.91,85.67L1402.47,638c7.27-6.76,18-17.1,30.4-30.4,26.79-28.81,40.17-43.51,39.6-57.59-.44-11-11.66-23.32-34.07-47.43C1423.81,486.84,1411.11,474.64,1402.47,466.61Z" transform="matrix(1, 0, 0, 1, -317.190002, -373)"/>
  <path class="cls-5" d="M1223.77,638l82.91-85.68q-41.46-42.82-82.91-85.67c-7.27,6.75-18,17.1-30.4,30.4-26.79,28.81-40.18,43.51-39.61,57.59.45,11,11.67,23.32,34.08,47.43C1202.43,617.72,1215.12,629.93,1223.77,638Z" transform="matrix(1, 0, 0, 1, -317.190002, -373)"/>
  <path class="cls-6" d="M1283.33,472.76a11.54,11.54,0,0,1-8.39-3,11.22,11.22,0,0,1,0-15.51,11.54,11.54,0,0,1,8.39-3h18.6a1,1,0,0,0,1.09-1.09v-18.6q0-5.66,3.2-8.76a11.69,11.69,0,0,1,15.86,0q3.2,3.11,3.2,8.76v18.6a1,1,0,0,0,1.09,1.09H1345a11.57,11.57,0,0,1,8.39,3,11.25,11.25,0,0,1,0,15.51,11.57,11.57,0,0,1-8.39,3h-18.61a1,1,0,0,0-1.09,1.09v18.61q0,5.66-3.2,8.75a11.69,11.69,0,0,1-15.86,0q-3.2-3.09-3.2-8.75V473.85a1,1,0,0,0-1.09-1.09Z" transform="matrix(1, 0, 0, 1, -317.190002, -373)"/>
  <path class="cls-6" d="M1193.92,537.26a11.51,11.51,0,0,1-3.88-8,11.24,11.24,0,0,1,10.86-11.07,11.54,11.54,0,0,1,8.1,3.74l13.27,13a1,1,0,0,0,1.55,0l13-13.27q3.95-4,8.41-4a11.69,11.69,0,0,1,11.32,11.11q.11,4.46-3.86,8.49l-13,13.27a1,1,0,0,0,0,1.55l13.28,13a11.51,11.51,0,0,1,3.88,8A11.23,11.23,0,0,1,1246,584.18a11.55,11.55,0,0,1-8.1-3.72l-13.27-13a1,1,0,0,0-1.55,0l-13,13.28q-4,4-8.41,4a11.69,11.69,0,0,1-11.32-11.12q-.1-4.44,3.85-8.48l13-13.28a1,1,0,0,0,0-1.54Z" transform="matrix(1, 0, 0, 1, -317.190002, -373)"/>
  <path class="cls-6" d="M1293.11,657.53q-6.36,0-10.06-3.1a10.55,10.55,0,0,1,0-16q3.71-3.11,10.06-3.11h40.2q6.35,0,10,3.11a10.55,10.55,0,0,1,0,16q-3.7,3.11-10,3.1Z" transform="matrix(1, 0, 0, 1, -317.190002, -373)"/>
  <path class="cls-6" d="M1384.3,569.09q-6.35,0-10-3.1a10.55,10.55,0,0,1,0-16q3.7-3.11,10-3.1h40.2c4.24,0,7.58,1,10,3.1a10.53,10.53,0,0,1,0,16c-2.47,2.07-5.81,3.1-10,3.1Z" transform="matrix(1, 0, 0, 1, -317.190002, -373)"/>
  <circle class="cls-6" cx="1086.27" cy="153.42" r="10.98"/>
  <circle class="cls-6" cx="1086.27" cy="214.22" r="10.98"/>
  <g class="cls-7">
    <path class="cls-3" d="M342,419.09q20.52,0,23.58,25.79V612.64h101.1q23.91,0,30.19,18.32l1,6.45q0,21.89-26.8,24.77H340.77q-23.58-4.75-23.58-22.56V442.67Q317.19,423,342,419.09Z" transform="translate(-317.19 -373)" style="stroke: rgb(253, 255, 247); stroke-width: 2px;"/>
    <path class="cls-5" d="M655.37,562.77l-27.31-62.93L564.27,639.45c-.45.9-.9,1.75-1.35,2.54l-2.21,4.58q-13.58,21.88-31.89,13.23-20.52-14.25-12.21-31.89l15.77-33.59,73-160.47a15.37,15.37,0,0,1,1.18-1.7,32.53,32.53,0,0,1,4.41-5.76,35.15,35.15,0,0,1,5.94-5.09c.57-.34,1.07-.68,1.53-1q18.48-8.65,32.4,13.23l74,160.47,15.94,33.59q8.49,17.64-12.38,31.89-18.49,8.65-32.23-13.23l-2.21-4.58c-.45-.79-.9-1.64-1.35-2.54l-14.59-27.65-8.31-.34-49.88.17q-19.66,0-23.57-24.77,0-20.52,25.78-23.58H627a23.74,23.74,0,0,1,2.88-.17Z" transform="translate(-317.19 -373)" style="stroke-width: 2px; stroke: rgb(255, 255, 255);"/>
    <path class="cls-4" d="M710.31,468.46q-23.25-.34-27.15-25.11,0-20.52,25.79-23.24a23.74,23.74,0,0,1,2.88-.17l143.51.17q19.68,0,23.58,24.77,0,20.52-25.78,23.75h-17v-.17Zm93.8,140.62v28.67q0,20.52-24.76,24.6-20.54,0-23.75-27l.17-95.84h.17V510.86q0-20.52,24.76-24.59,20.53,0,23.75,27l-.17,95.84Z" transform="translate(-317.19 -373)" style="stroke-width: 2px; stroke: rgb(255, 255, 255);"/>
    <path class="cls-2" d="M897.07,479.82V442.67q0-19.68,24.77-23.58,20.52,0,23.58,25.79V450a23.74,23.74,0,0,1,.17,2.88l-.17,185.41q0,19.68-24.77,23.58-20.52,0-23.75-25.79Z" transform="translate(-317.19 -373)" style="stroke-width: 2px; stroke: rgb(255, 255, 255);"/>
    <path class="cls-8" d="M1025.06,541.74,986.9,488l-21.72-30.19q-11.53-15.94,6.28-33.59,16.62-12,34.27,7.13l2.88,4.07a13.18,13.18,0,0,1,1.86,2.37l44.79,62.94,29.68-40.38,21.72-30q11.53-15.94,33.92-4.58,16.64,12,3.9,34.77l-2.88,4.07a24,24,0,0,1-1.7,2.55l-55,75,59.71,84q11.53,16-6.27,33.59-16.64,12-34.44-7l-49.36-69.38-51.4,70.23q-11.53,15.93-33.93,4.58-16.62-12-4.07-35Z" transform="translate(-317.19 -373)" style="fill: url(#gradient-5-1); stroke-width: 2px; stroke: rgb(255, 255, 255);"/>
  </g>
  <path class="cls-3" d="M360.93,433.73q20,0,22.94,25.08V622h98.36q23.28,0,29.38,17.82l1,6.27q0,21.3-26.08,24.1H359.78q-22.93-4.62-22.94-22V456.67Q336.84,437.52,360.93,433.73Z" transform="matrix(1, 0, 0, 1, -317.190002, -373)" style="fill: url(#gradient-1-0);"/>
  <path class="cls-5" d="M667,573.51l-26.57-61.23-62,135.82c-.44.88-.88,1.71-1.32,2.48L574.86,655q-13.2,21.3-31,12.88-20-13.86-11.88-31L547.3,604.2l71-156.12a16,16,0,0,1,1.15-1.65,31.75,31.75,0,0,1,4.29-5.61,33.77,33.77,0,0,1,5.78-4.95c.55-.33,1-.66,1.49-1q18-8.42,31.52,12.87l72,156.12L750,636.55q8.25,17.16-12,31-18,8.42-31.36-12.88l-2.15-4.45c-.44-.77-.88-1.6-1.32-2.48l-14.19-26.9-8.09-.33-48.51.17q-19.15,0-22.94-24.1,0-20,25.08-22.94h4.95a22.75,22.75,0,0,1,2.81-.16Z" transform="matrix(1, 0, 0, 1, -317.190002, -373)" style="fill: url(#gradient-2-0);"/>
  <path class="cls-4" d="M729.37,481.75q-22.62-.33-26.41-24.42,0-20,25.09-22.61a22.53,22.53,0,0,1,2.8-.17l139.62.17q19.14,0,22.94,24.09,0,20-25.09,23.11h-16.5v-.17Zm91.26,136.81v27.89q0,20-24.1,23.93-20,0-23.1-26.24l.17-93.24h.16V523q0-20,24.09-23.93,20,0,23.11,26.24l-.17,93.24Z" transform="matrix(1, 0, 0, 1, -317.190002, -373)" style="fill: url(#gradient-3-0);"/>
  <path class="cls-2" d="M909.07,492.81V456.67q0-19.16,24.09-22.94,20,0,22.94,25.08v4.95a22.69,22.69,0,0,1,.17,2.81L956.1,647q0,19.14-24.09,22.94-20,0-23.11-25.09Z" transform="matrix(1, 0, 0, 1, -317.190002, -373)" style="fill: url(#gradient-4-0);"/>
  <path class="cls-8" d="M1040.45,553l-37.13-52.31L982.2,471.35q-11.24-15.51,6.1-32.67,16.17-11.71,33.34,6.93l2.8,4a13,13,0,0,1,1.82,2.31l43.57,61.23,28.88-39.28,21.12-29.21q11.22-15.51,33-4.46,16.17,11.73,3.79,33.83l-2.8,4a24.09,24.09,0,0,1-1.65,2.47l-53.47,72.94,58.09,81.7q11.22,15.51-6.11,32.67-16.17,11.71-33.5-6.76l-48-67.5-50,68.32q-11.22,15.51-33,4.46-16.18-11.71-4-34Z" transform="matrix(1, 0, 0, 1, -317.190002, -373)" style="fill: url(#gradient-5-0);"/>
</svg>